M48
; DRILL file {KiCad (6.0.2)} date Wed Jul  6 09:12:21 2022
; FORMAT={-:-/ absolute / metric / decimal}
; #@! TF.CreationDate,2022-07-06T09:12:21-05:00
; #@! TF.GenerationSoftware,Kicad,Pcbnew,(6.0.2)
; #@! TF.FileFunction,MixedPlating,1,4
FMAT,2
METRIC
; #@! TA.AperFunction,Plated,PTH,ViaDrill
T1C0.400
; #@! TA.AperFunction,Plated,PTH,ComponentDrill
T2C0.600
; #@! TA.AperFunction,Plated,PTH,ComponentDrill
T3C1.300
; #@! TA.AperFunction,Plated,PTH,ComponentDrill
T4C3.000
; #@! TA.AperFunction,NonPlated,NPTH,ComponentDrill
T5C0.991
; #@! TA.AperFunction,NonPlated,NPTH,ComponentDrill
T6C2.375
%
G90
G05
T1
X107.477Y-95.62
X107.5Y-94.61
X107.507Y-96.61
X107.527Y-97.58
X107.567Y-98.62
X108.477Y-95.62
X108.5Y-94.61
X108.507Y-96.61
X108.527Y-97.58
X108.567Y-98.62
X109.497Y-95.62
X109.52Y-94.61
X109.527Y-96.61
X109.547Y-97.58
X109.587Y-98.62
X110.617Y-95.64
X110.64Y-94.63
X110.647Y-96.63
X110.667Y-97.6
X110.707Y-98.64
X111.763Y-95.64
X111.787Y-94.63
X111.793Y-96.63
X111.813Y-97.6
X111.853Y-98.64
X112.91Y-95.64
X112.933Y-94.63
X112.94Y-96.63
X112.96Y-97.6
X113.0Y-98.64
X113.62Y-112.84
X113.62Y-113.81
X114.057Y-95.64
X114.08Y-94.63
X114.087Y-96.63
X114.107Y-97.6
X114.147Y-98.64
X114.197Y-110.95
X114.217Y-111.9
X114.553Y-112.85
X114.553Y-113.82
X114.553Y-114.82
X114.576Y-92.449
X114.673Y-117.281
X114.697Y-118.201
X114.717Y-119.121
X114.9Y-104.86
X114.9Y-105.86
X115.13Y-110.96
X115.14Y-97.6
X115.15Y-111.91
X115.18Y-98.64
X115.349Y-107.3
X115.487Y-112.86
X115.487Y-113.83
X115.487Y-114.83
X115.487Y-115.83
X115.649Y-117.294
X115.673Y-118.214
X115.693Y-119.134
X115.815Y-90.585
X116.063Y-110.97
X116.083Y-111.92
X116.2Y-97.62
X116.24Y-98.66
X116.42Y-112.83
X116.42Y-113.8
X116.42Y-114.8
X116.42Y-115.8
X116.624Y-117.32
X116.649Y-118.24
X116.669Y-119.16
X117.22Y-97.65
X117.26Y-98.69
X117.6Y-117.307
X117.624Y-118.227
X117.644Y-119.147
X118.093Y-95.399
X118.58Y-92.09
X119.2Y-93.651
X120.55Y-118.24
X121.335Y-92.527
X121.425Y-104.693
X121.81Y-107.66
X121.904Y-91.597
X122.44Y-95.28
X123.17Y-117.55
X123.58Y-115.22
X123.669Y-92.55
X123.972Y-91.289
X124.06Y-111.45
X124.468Y-95.63
X124.69Y-92.68
X125.0Y-111.625
X125.01Y-115.213
X125.03Y-112.45
X125.04Y-113.275
X125.22Y-116.19
X125.561Y-95.513
X125.7Y-108.56
X126.08Y-106.08
X126.15Y-117.4
X126.27Y-103.02
X126.28Y-103.95
X126.62Y-104.82
X126.853Y-112.311
X127.073Y-98.229
X127.33Y-110.28
X127.58Y-105.11
X127.59Y-117.22
X127.71Y-106.26
X128.11Y-98.37
X128.53Y-105.11
X128.83Y-111.56
X128.87Y-113.1
X128.88Y-114.63
X129.46Y-105.1
X129.71Y-98.37
X130.28Y-106.36
X130.37Y-105.06
X131.0Y-85.8
X131.03Y-90.99
X131.22Y-93.46
X131.3Y-105.07
X131.43Y-92.22
X131.5Y-84.56
X131.89Y-97.91
X132.19Y-105.08
X132.28Y-90.93
X132.75Y-100.01
X132.8Y-108.08
X132.86Y-109.73
X133.18Y-105.05
X133.23Y-89.4
X133.24Y-104.1
X133.27Y-103.19
X133.77Y-98.42
X134.15Y-90.139
X134.42Y-108.35
X134.89Y-87.97
X134.91Y-107.22
X136.93Y-92.19
X136.97Y-90.94
X138.74Y-94.33
X139.225Y-97.55
X139.585Y-96.055
X140.17Y-95.11
X140.27Y-100.65
X140.417Y-87.191
X140.97Y-89.751
X141.11Y-93.97
X141.19Y-102.43
X141.2Y-100.65
X141.2Y-101.58
X141.87Y-84.61
X141.93Y-92.62
X142.05Y-86.18
X142.13Y-87.77
X142.13Y-100.65
X142.13Y-101.58
X142.21Y-107.95
X142.22Y-110.75
X142.23Y-109.817
X142.24Y-108.883
X142.262Y-99.659
X142.86Y-105.27
X143.03Y-93.71
X143.209Y-97.896
X143.32Y-107.99
X143.33Y-110.79
X143.34Y-109.857
X143.35Y-108.923
X143.76Y-98.73
X143.76Y-106.27
X143.852Y-93.121
X144.43Y-108.01
X144.44Y-110.81
X144.45Y-109.877
X144.46Y-108.943
X144.87Y-104.55
X145.48Y-108.02
X145.49Y-110.82
X145.5Y-109.887
X145.51Y-108.953
X146.21Y-93.57
X146.5Y-91.24
X147.038Y-94.188
X147.34Y-84.33
X148.0Y-93.79
X148.1Y-104.48
X149.542Y-91.139
X149.63Y-93.15
X150.501Y-94.691
X150.58Y-103.69
X151.68Y-102.59
X152.4Y-97.14
X152.4Y-98.54
X152.45Y-95.55
T3
X139.685Y-109.48
X139.685Y-114.48
T4
X110.07Y-116.54
X110.27Y-86.86
X153.77Y-86.86
T5
X145.414Y-90.41
X146.43Y-85.33
X147.446Y-90.41
T6
X143.89Y-85.33
X143.89Y-88.505
X148.97Y-85.33
X148.97Y-88.505
T2
G00X108.996Y-100.571
M15
G01X107.796Y-100.571
M16
G05
G00X108.996Y-111.811
M15
G01X107.796Y-111.811
M16
G05
G00X112.796Y-100.571
M15
G01X111.996Y-100.571
M16
G05
G00X112.796Y-111.811
M15
G01X111.996Y-111.811
M16
G05
G00X115.835Y-85.123
M15
G01X115.835Y-83.922
M16
G05
G00X115.835Y-88.922
M15
G01X115.835Y-88.123
M16
G05
G00X127.075Y-85.123
M15
G01X127.075Y-83.922
M16
G05
G00X127.075Y-88.922
M15
G01X127.075Y-88.123
M16
G05
T0
M30
