%TF.GenerationSoftware,KiCad,Pcbnew,(6.0.2)*%
%TF.CreationDate,2022-07-06T09:12:25-05:00*%
%TF.ProjectId,pdsupply-PPS,70647375-7070-46c7-992d-5050532e6b69,rev?*%
%TF.SameCoordinates,Original*%
%TF.FileFunction,Copper,L3,Inr*%
%TF.FilePolarity,Positive*%
%FSLAX46Y46*%
G04 Gerber Fmt 4.6, Leading zero omitted, Abs format (unit mm)*
G04 Created by KiCad (PCBNEW (6.0.2)) date 2022-07-06 09:12:25*
%MOMM*%
%LPD*%
G01*
G04 APERTURE LIST*
%TA.AperFunction,ComponentPad*%
%ADD10O,1.900000X0.950000*%
%TD*%
%TA.AperFunction,ComponentPad*%
%ADD11O,1.600000X0.800000*%
%TD*%
%TA.AperFunction,ComponentPad*%
%ADD12R,2.600000X2.600000*%
%TD*%
%TA.AperFunction,ComponentPad*%
%ADD13C,2.600000*%
%TD*%
%TA.AperFunction,ComponentPad*%
%ADD14C,6.000000*%
%TD*%
%TA.AperFunction,ComponentPad*%
%ADD15O,0.950000X1.900000*%
%TD*%
%TA.AperFunction,ComponentPad*%
%ADD16O,0.800000X1.600000*%
%TD*%
%TA.AperFunction,ViaPad*%
%ADD17C,0.800000*%
%TD*%
G04 APERTURE END LIST*
D10*
%TO.N,GND*%
%TO.C,J1*%
X108396447Y-100571447D03*
D11*
X112396447Y-111811447D03*
X112396447Y-100571447D03*
D10*
X108396447Y-111811447D03*
%TD*%
D12*
%TO.N,/VBus_Out*%
%TO.C,J3*%
X139685000Y-114480000D03*
D13*
%TO.N,GND*%
X139685000Y-109480000D03*
%TD*%
D14*
%TO.N,GND*%
%TO.C,H2*%
X110270000Y-86860000D03*
%TD*%
%TO.N,GND*%
%TO.C,H1*%
X110070000Y-116540000D03*
%TD*%
D15*
%TO.N,GND1*%
%TO.C,J2*%
X127075000Y-84522500D03*
D16*
X115835000Y-88522500D03*
X127075000Y-88522500D03*
D15*
X115835000Y-84522500D03*
%TD*%
D14*
%TO.N,GND*%
%TO.C,H4*%
X153770000Y-86860000D03*
%TD*%
D17*
%TO.N,GND*%
X129710002Y-98369987D03*
%TO.N,+3V3*%
X143030000Y-93710000D03*
X151680000Y-102590000D03*
X141870000Y-84610000D03*
X120550000Y-118240000D03*
X126853288Y-112311434D03*
X140416652Y-87190791D03*
X142130000Y-100650000D03*
X152400000Y-98540000D03*
X142130000Y-101580000D03*
X127590000Y-117220000D03*
X130280000Y-106360000D03*
X127710000Y-106260000D03*
X152400000Y-97140000D03*
X132800000Y-108080000D03*
X131890000Y-97910000D03*
X140270000Y-100650000D03*
X141200000Y-100650000D03*
X141200000Y-101580000D03*
X141190000Y-102430000D03*
%TO.N,+5V*%
X123971697Y-91289377D03*
X131500000Y-84560000D03*
X114575830Y-92448838D03*
X118580000Y-92090000D03*
%TO.N,GND*%
X113000000Y-98640000D03*
X145480000Y-108020000D03*
X133270000Y-103190000D03*
X112910000Y-95640000D03*
X142050000Y-86180000D03*
X142210000Y-107950000D03*
X108500000Y-94610000D03*
X128830000Y-111560000D03*
X144460000Y-108943335D03*
X133240000Y-104100000D03*
X117260000Y-98690000D03*
X109546668Y-97580000D03*
X152450000Y-95550000D03*
X114106668Y-97600000D03*
X116420000Y-115800000D03*
X108566668Y-98620000D03*
X107500000Y-94610000D03*
X110706668Y-98640000D03*
X126080000Y-106080000D03*
X143350000Y-108923335D03*
X144440000Y-110810001D03*
X128110000Y-98370000D03*
X114553332Y-114820000D03*
X126280000Y-103950000D03*
X132750000Y-100010000D03*
X112960000Y-97600000D03*
X148100000Y-104480000D03*
X115486665Y-115830000D03*
X116240000Y-98660000D03*
X144430000Y-108010000D03*
X110640000Y-94630000D03*
X128880000Y-114630000D03*
X107526668Y-97580000D03*
X143851705Y-93120900D03*
X124467661Y-95630011D03*
X114900000Y-105860000D03*
X108526668Y-97580000D03*
X114196667Y-110950000D03*
X115130000Y-110960000D03*
X132190000Y-105080000D03*
X133180000Y-105050000D03*
X111853334Y-98640000D03*
X142240000Y-108883335D03*
X142230001Y-109816668D03*
X128870000Y-113100000D03*
X111786666Y-94630000D03*
X116083333Y-111920000D03*
X115140000Y-97600000D03*
X115486665Y-114830000D03*
X109586668Y-98620000D03*
X146500000Y-91240000D03*
X130370000Y-105060000D03*
X143340001Y-109856668D03*
X126270000Y-103020000D03*
X108476668Y-95620000D03*
X113619999Y-112840000D03*
X110666668Y-97600000D03*
X127580000Y-105110000D03*
X125700000Y-108560000D03*
X131300000Y-105070000D03*
X109520000Y-94610000D03*
X129460000Y-105100000D03*
X150580000Y-103690000D03*
X114216667Y-111900000D03*
X114080000Y-94630000D03*
X145500001Y-109886668D03*
X108506668Y-96610000D03*
X111763334Y-95640000D03*
X112933332Y-94630000D03*
X109496668Y-95620000D03*
X114056668Y-95640000D03*
X113619999Y-113810000D03*
X138740000Y-94330000D03*
X145490000Y-110820001D03*
X115486665Y-112860000D03*
X109526668Y-96610000D03*
X110646668Y-96630000D03*
X116200000Y-97620000D03*
X127072996Y-98229003D03*
X114146668Y-98640000D03*
X111813334Y-97600000D03*
X111793334Y-96630000D03*
X114086668Y-96630000D03*
X115486665Y-113830000D03*
X142220000Y-110750001D03*
X114553332Y-113820000D03*
X145510000Y-108953335D03*
X107476668Y-95620000D03*
X115150000Y-111910000D03*
X116063333Y-110970000D03*
X126150000Y-117400000D03*
X126620000Y-104820000D03*
X128530000Y-105110000D03*
X133770000Y-98420000D03*
X117220000Y-97650000D03*
X143320000Y-107990000D03*
X110616668Y-95640000D03*
X114553332Y-112850000D03*
X143330000Y-110790001D03*
X107566668Y-98620000D03*
X107506668Y-96610000D03*
X115180000Y-98640000D03*
X116420000Y-114800000D03*
X116420000Y-112830000D03*
X116420000Y-113800000D03*
X112940000Y-96630000D03*
X144450001Y-109876668D03*
X144870000Y-104550000D03*
%TO.N,/CC2*%
X115349500Y-107300000D03*
X121810023Y-107659977D03*
%TO.N,/CC1*%
X114900000Y-104860497D03*
X121424993Y-104693225D03*
%TO.N,GND1*%
X124690000Y-92680000D03*
X115815000Y-90585000D03*
X131000000Y-85800000D03*
X131220000Y-93460000D03*
%TO.N,/Vbus_pre*%
X114697142Y-118201428D03*
X117600000Y-117307142D03*
X124060000Y-111450000D03*
X114717142Y-119121428D03*
X125040000Y-113275000D03*
X116624284Y-117319999D03*
X116648570Y-118239999D03*
X114672856Y-117281428D03*
X125030000Y-112450000D03*
X115648570Y-117294285D03*
X117644286Y-119147142D03*
X116668570Y-119159999D03*
X115692856Y-119134285D03*
X117624286Y-118227142D03*
X115672856Y-118214285D03*
X125000000Y-111625000D03*
%TO.N,/DBG_N*%
X149630000Y-93150000D03*
X127330000Y-110280000D03*
X142860000Y-105270000D03*
X142262239Y-99659286D03*
%TO.N,/FLAGB*%
X132280000Y-90930000D03*
X146210000Y-93570000D03*
X123580000Y-115220000D03*
%TO.N,/VSINK_EN*%
X140970000Y-89750500D03*
X133230000Y-89400000D03*
X125009858Y-115212838D03*
X147038125Y-94187625D03*
%TO.N,/INT_N*%
X140170000Y-95110000D03*
X132860000Y-109730000D03*
%TO.N,/Isense*%
X150500564Y-94691488D03*
X123170000Y-117550000D03*
X134890000Y-87970000D03*
%TO.N,Net-(J2-PadA6)*%
X119200000Y-93650980D03*
X121904500Y-91597394D03*
%TO.N,Net-(J2-PadA7)*%
X121335500Y-92527353D03*
%TO.N,Net-(JP1-Pad1)*%
X131430000Y-92220000D03*
X122440000Y-95280000D03*
%TO.N,/USB_DP*%
X143760000Y-98730000D03*
X141110000Y-93970000D03*
X118092588Y-95398628D03*
X136930000Y-92190000D03*
%TO.N,Net-(JP2-Pad1)*%
X131030000Y-90990000D03*
X123669316Y-92550036D03*
%TO.N,/USB_DM*%
X141930000Y-92620000D03*
X136970000Y-90940000D03*
X143208539Y-97896396D03*
X125561098Y-95512541D03*
%TO.N,/SDA*%
X139225498Y-97550000D03*
X134910000Y-107220000D03*
%TO.N,/SCL*%
X134420000Y-108350000D03*
X139584622Y-96054622D03*
%TO.N,Net-(R17-Pad2)*%
X149541527Y-91139267D03*
X142130000Y-87770000D03*
%TO.N,/SenseFault*%
X148000378Y-93790378D03*
X134150000Y-90139500D03*
X125220000Y-116190000D03*
%TO.N,Net-(TC1-Pad2)*%
X143760000Y-106270000D03*
X147340000Y-84330000D03*
%TD*%
%TA.AperFunction,Conductor*%
%TO.N,+3V3*%
G36*
X143569836Y-83443615D02*
G01*
X143616353Y-83497250D01*
X143626487Y-83567520D01*
X143597023Y-83632113D01*
X143537314Y-83670523D01*
X143530221Y-83672387D01*
X143381349Y-83706894D01*
X143141689Y-83802508D01*
X142919250Y-83933274D01*
X142915539Y-83936295D01*
X142915535Y-83936298D01*
X142814998Y-84018148D01*
X142719149Y-84096181D01*
X142545993Y-84287481D01*
X142543352Y-84291479D01*
X142543351Y-84291480D01*
X142520414Y-84326200D01*
X142403765Y-84502772D01*
X142401764Y-84507112D01*
X142401762Y-84507116D01*
X142298531Y-84731044D01*
X142295739Y-84737100D01*
X142294415Y-84741701D01*
X142294415Y-84741702D01*
X142232938Y-84955395D01*
X142224400Y-84985071D01*
X142223789Y-84989806D01*
X142223788Y-84989812D01*
X142201627Y-85161619D01*
X142173074Y-85226621D01*
X142113912Y-85265868D01*
X142076662Y-85271500D01*
X141954513Y-85271500D01*
X141948061Y-85272872D01*
X141948056Y-85272872D01*
X141866716Y-85290162D01*
X141767712Y-85311206D01*
X141761682Y-85313891D01*
X141761681Y-85313891D01*
X141599278Y-85386197D01*
X141599276Y-85386198D01*
X141593248Y-85388882D01*
X141438747Y-85501134D01*
X141434326Y-85506044D01*
X141434325Y-85506045D01*
X141334750Y-85616635D01*
X141310960Y-85643056D01*
X141307659Y-85648774D01*
X141233328Y-85777519D01*
X141215473Y-85808444D01*
X141156458Y-85990072D01*
X141155768Y-85996633D01*
X141155768Y-85996635D01*
X141138470Y-86161221D01*
X141136496Y-86180000D01*
X141137186Y-86186565D01*
X141152652Y-86333712D01*
X141156458Y-86369928D01*
X141215473Y-86551556D01*
X141310960Y-86716944D01*
X141315378Y-86721851D01*
X141315379Y-86721852D01*
X141393489Y-86808602D01*
X141438747Y-86858866D01*
X141444089Y-86862747D01*
X141444091Y-86862749D01*
X141500475Y-86903714D01*
X141543829Y-86959936D01*
X141549904Y-87030672D01*
X141518242Y-87090679D01*
X141518747Y-87091134D01*
X141390960Y-87233056D01*
X141295473Y-87398444D01*
X141236458Y-87580072D01*
X141235768Y-87586633D01*
X141235768Y-87586635D01*
X141235031Y-87593648D01*
X141216496Y-87770000D01*
X141217186Y-87776565D01*
X141235285Y-87948764D01*
X141236458Y-87959928D01*
X141295473Y-88141556D01*
X141390960Y-88306944D01*
X141395378Y-88311851D01*
X141395379Y-88311852D01*
X141514325Y-88443955D01*
X141518747Y-88448866D01*
X141673248Y-88561118D01*
X141679276Y-88563802D01*
X141679278Y-88563803D01*
X141841681Y-88636109D01*
X141847712Y-88638794D01*
X141913365Y-88652749D01*
X142028056Y-88677128D01*
X142028061Y-88677128D01*
X142034513Y-88678500D01*
X142092645Y-88678500D01*
X142160766Y-88698502D01*
X142207259Y-88752158D01*
X142216712Y-88782513D01*
X142241486Y-88922300D01*
X142242497Y-88928007D01*
X142325438Y-89172342D01*
X142327642Y-89176584D01*
X142327642Y-89176585D01*
X142440287Y-89393435D01*
X142444383Y-89401321D01*
X142447209Y-89405189D01*
X142447210Y-89405191D01*
X142487714Y-89460634D01*
X142596594Y-89609673D01*
X142599965Y-89613062D01*
X142599967Y-89613064D01*
X142775194Y-89789211D01*
X142775199Y-89789215D01*
X142778570Y-89792604D01*
X142986122Y-89945904D01*
X142990352Y-89948130D01*
X142990356Y-89948132D01*
X143210238Y-90063817D01*
X143214475Y-90066046D01*
X143458373Y-90150265D01*
X143712203Y-90196623D01*
X143794767Y-90200950D01*
X143955613Y-90200950D01*
X143957992Y-90200769D01*
X143957993Y-90200769D01*
X144142519Y-90186733D01*
X144142524Y-90186732D01*
X144147286Y-90186370D01*
X144151939Y-90185291D01*
X144151942Y-90185291D01*
X144260854Y-90160046D01*
X144331732Y-90164150D01*
X144389139Y-90205921D01*
X144414850Y-90272099D01*
X144415132Y-90289380D01*
X144412193Y-90345464D01*
X144406812Y-90448148D01*
X144406228Y-90459288D01*
X144436722Y-90660922D01*
X144438928Y-90666917D01*
X144438928Y-90666918D01*
X144494650Y-90818366D01*
X144507137Y-90852306D01*
X144614598Y-91025622D01*
X144754714Y-91173791D01*
X144759944Y-91177453D01*
X144759945Y-91177454D01*
X144910413Y-91282812D01*
X144921761Y-91290758D01*
X145108916Y-91371747D01*
X145159373Y-91382288D01*
X145303788Y-91412459D01*
X145303792Y-91412459D01*
X145308533Y-91413450D01*
X145313370Y-91413703D01*
X145313374Y-91413704D01*
X145313440Y-91413707D01*
X145315212Y-91413800D01*
X145464967Y-91413800D01*
X145468145Y-91413477D01*
X145468149Y-91413477D01*
X145495717Y-91410677D01*
X145565511Y-91423693D01*
X145617187Y-91472377D01*
X145628282Y-91497095D01*
X145665473Y-91611556D01*
X145668776Y-91617278D01*
X145668777Y-91617279D01*
X145679235Y-91635392D01*
X145760960Y-91776944D01*
X145765378Y-91781851D01*
X145765379Y-91781852D01*
X145845801Y-91871170D01*
X145888747Y-91918866D01*
X146043248Y-92031118D01*
X146049276Y-92033802D01*
X146049278Y-92033803D01*
X146179455Y-92091761D01*
X146217712Y-92108794D01*
X146311113Y-92128647D01*
X146398056Y-92147128D01*
X146398061Y-92147128D01*
X146404513Y-92148500D01*
X146595487Y-92148500D01*
X146601939Y-92147128D01*
X146601944Y-92147128D01*
X146688887Y-92128647D01*
X146782288Y-92108794D01*
X146820545Y-92091761D01*
X146950722Y-92033803D01*
X146950724Y-92033802D01*
X146956752Y-92031118D01*
X147111253Y-91918866D01*
X147154199Y-91871170D01*
X147234621Y-91781852D01*
X147234622Y-91781851D01*
X147239040Y-91776944D01*
X147320765Y-91635392D01*
X147331223Y-91617279D01*
X147331224Y-91617278D01*
X147334527Y-91611556D01*
X147370494Y-91500863D01*
X147410566Y-91442258D01*
X147475963Y-91414621D01*
X147490326Y-91413800D01*
X147496967Y-91413800D01*
X147569613Y-91406421D01*
X147642534Y-91399014D01*
X147642535Y-91399014D01*
X147648883Y-91398369D01*
X147843478Y-91337386D01*
X148021837Y-91238521D01*
X148176673Y-91105810D01*
X148301661Y-90944676D01*
X148382098Y-90781206D01*
X148388878Y-90767428D01*
X148391696Y-90761701D01*
X148394725Y-90750072D01*
X148441490Y-90570541D01*
X148441490Y-90570538D01*
X148443100Y-90564359D01*
X148448275Y-90465606D01*
X148453438Y-90367094D01*
X148453438Y-90367090D01*
X148453772Y-90360712D01*
X148445028Y-90302895D01*
X148454618Y-90232550D01*
X148500718Y-90178556D01*
X148568691Y-90158057D01*
X148592243Y-90160103D01*
X148792203Y-90196623D01*
X148874767Y-90200950D01*
X148899590Y-90200950D01*
X148967711Y-90220952D01*
X149014204Y-90274608D01*
X149024308Y-90344882D01*
X148994814Y-90409462D01*
X148973653Y-90428884D01*
X148954058Y-90443121D01*
X148940589Y-90452907D01*
X148930274Y-90460401D01*
X148925853Y-90465311D01*
X148925852Y-90465312D01*
X148812174Y-90591565D01*
X148802487Y-90602323D01*
X148752505Y-90688894D01*
X148720809Y-90743794D01*
X148707000Y-90767711D01*
X148647985Y-90949339D01*
X148628023Y-91139267D01*
X148628713Y-91145832D01*
X148646733Y-91317279D01*
X148647985Y-91329195D01*
X148707000Y-91510823D01*
X148710303Y-91516545D01*
X148710304Y-91516546D01*
X148724833Y-91541710D01*
X148802487Y-91676211D01*
X148806905Y-91681118D01*
X148806906Y-91681119D01*
X148924037Y-91811206D01*
X148930274Y-91818133D01*
X148991377Y-91862527D01*
X149068921Y-91918866D01*
X149084775Y-91930385D01*
X149090803Y-91933069D01*
X149090805Y-91933070D01*
X149253208Y-92005376D01*
X149259239Y-92008061D01*
X149366168Y-92030790D01*
X149428640Y-92064517D01*
X149462962Y-92126667D01*
X149458234Y-92197506D01*
X149415958Y-92254543D01*
X149366169Y-92277282D01*
X149354175Y-92279832D01*
X149354173Y-92279833D01*
X149347712Y-92281206D01*
X149341682Y-92283891D01*
X149341681Y-92283891D01*
X149179278Y-92356197D01*
X149179276Y-92356198D01*
X149173248Y-92358882D01*
X149018747Y-92471134D01*
X149014326Y-92476044D01*
X149014325Y-92476045D01*
X148905166Y-92597279D01*
X148890960Y-92613056D01*
X148795473Y-92778444D01*
X148736458Y-92960072D01*
X148735768Y-92966635D01*
X148735768Y-92966637D01*
X148735627Y-92967977D01*
X148735329Y-92968701D01*
X148734394Y-92973100D01*
X148733590Y-92972929D01*
X148708617Y-93033635D01*
X148650398Y-93074267D01*
X148579453Y-93076973D01*
X148536256Y-93056748D01*
X148462472Y-93003141D01*
X148462471Y-93003140D01*
X148457130Y-92999260D01*
X148451102Y-92996576D01*
X148451100Y-92996575D01*
X148288697Y-92924269D01*
X148288696Y-92924269D01*
X148282666Y-92921584D01*
X148175787Y-92898866D01*
X148102322Y-92883250D01*
X148102317Y-92883250D01*
X148095865Y-92881878D01*
X147904891Y-92881878D01*
X147898439Y-92883250D01*
X147898434Y-92883250D01*
X147824969Y-92898866D01*
X147718090Y-92921584D01*
X147712060Y-92924269D01*
X147712059Y-92924269D01*
X147549656Y-92996575D01*
X147549654Y-92996576D01*
X147543626Y-92999260D01*
X147389125Y-93111512D01*
X147384704Y-93116422D01*
X147384703Y-93116423D01*
X147270081Y-93243724D01*
X147209635Y-93280964D01*
X147150248Y-93282661D01*
X147136854Y-93279814D01*
X147074381Y-93246085D01*
X147047945Y-93207818D01*
X147046568Y-93204725D01*
X147044527Y-93198444D01*
X146949040Y-93033056D01*
X146922105Y-93003141D01*
X146825675Y-92896045D01*
X146825674Y-92896044D01*
X146821253Y-92891134D01*
X146674800Y-92784729D01*
X146672094Y-92782763D01*
X146672093Y-92782762D01*
X146666752Y-92778882D01*
X146660724Y-92776198D01*
X146660722Y-92776197D01*
X146498319Y-92703891D01*
X146498318Y-92703891D01*
X146492288Y-92701206D01*
X146392522Y-92680000D01*
X146311944Y-92662872D01*
X146311939Y-92662872D01*
X146305487Y-92661500D01*
X146114513Y-92661500D01*
X146108061Y-92662872D01*
X146108056Y-92662872D01*
X146027478Y-92680000D01*
X145927712Y-92701206D01*
X145921682Y-92703891D01*
X145921681Y-92703891D01*
X145759278Y-92776197D01*
X145759276Y-92776198D01*
X145753248Y-92778882D01*
X145747907Y-92782762D01*
X145747906Y-92782763D01*
X145745200Y-92784729D01*
X145598747Y-92891134D01*
X145594326Y-92896044D01*
X145594325Y-92896045D01*
X145497896Y-93003141D01*
X145470960Y-93033056D01*
X145423871Y-93114616D01*
X145407233Y-93143435D01*
X145375473Y-93198444D01*
X145316458Y-93380072D01*
X145315768Y-93386633D01*
X145315768Y-93386635D01*
X145305313Y-93486109D01*
X145296496Y-93570000D01*
X145297186Y-93576565D01*
X145306245Y-93662752D01*
X145316458Y-93759928D01*
X145375473Y-93941556D01*
X145378776Y-93947278D01*
X145378777Y-93947279D01*
X145404058Y-93991066D01*
X145470960Y-94106944D01*
X145475378Y-94111851D01*
X145475379Y-94111852D01*
X145591850Y-94241206D01*
X145598747Y-94248866D01*
X145753248Y-94361118D01*
X145759276Y-94363802D01*
X145759278Y-94363803D01*
X145921681Y-94436109D01*
X145927712Y-94438794D01*
X146047863Y-94464333D01*
X146111271Y-94477811D01*
X146173745Y-94511540D01*
X146200180Y-94549807D01*
X146201557Y-94552900D01*
X146203598Y-94559181D01*
X146299085Y-94724569D01*
X146303503Y-94729476D01*
X146303504Y-94729477D01*
X146422131Y-94861226D01*
X146426872Y-94866491D01*
X146467467Y-94895985D01*
X146570288Y-94970689D01*
X146581373Y-94978743D01*
X146587401Y-94981427D01*
X146587403Y-94981428D01*
X146749806Y-95053734D01*
X146755837Y-95056419D01*
X146843451Y-95075042D01*
X146936181Y-95094753D01*
X146936186Y-95094753D01*
X146942638Y-95096125D01*
X147133612Y-95096125D01*
X147140064Y-95094753D01*
X147140069Y-95094753D01*
X147232799Y-95075042D01*
X147320413Y-95056419D01*
X147326444Y-95053734D01*
X147488847Y-94981428D01*
X147488849Y-94981427D01*
X147494877Y-94978743D01*
X147505963Y-94970689D01*
X147608783Y-94895985D01*
X147649378Y-94866491D01*
X147658126Y-94856776D01*
X147768422Y-94734279D01*
X147828868Y-94697039D01*
X147888254Y-94695342D01*
X147895489Y-94696880D01*
X147904891Y-94698878D01*
X148095865Y-94698878D01*
X148102317Y-94697506D01*
X148102322Y-94697506D01*
X148196416Y-94677505D01*
X148282666Y-94659172D01*
X148288697Y-94656487D01*
X148451100Y-94584181D01*
X148451102Y-94584180D01*
X148457130Y-94581496D01*
X148611631Y-94469244D01*
X148703577Y-94367128D01*
X148734999Y-94332230D01*
X148735000Y-94332229D01*
X148739418Y-94327322D01*
X148812460Y-94200810D01*
X148831601Y-94167657D01*
X148831602Y-94167656D01*
X148834905Y-94161934D01*
X148893920Y-93980306D01*
X148894751Y-93972401D01*
X148895049Y-93971677D01*
X148895984Y-93967278D01*
X148896788Y-93967449D01*
X148921761Y-93906743D01*
X148979980Y-93866111D01*
X149050925Y-93863405D01*
X149094122Y-93883630D01*
X149165200Y-93935271D01*
X149173248Y-93941118D01*
X149179276Y-93943802D01*
X149179278Y-93943803D01*
X149309659Y-94001852D01*
X149347712Y-94018794D01*
X149441112Y-94038647D01*
X149528056Y-94057128D01*
X149528061Y-94057128D01*
X149534513Y-94058500D01*
X149598737Y-94058500D01*
X149666858Y-94078502D01*
X149713351Y-94132158D01*
X149723455Y-94202432D01*
X149707856Y-94247499D01*
X149666037Y-94319932D01*
X149607022Y-94501560D01*
X149606332Y-94508121D01*
X149606332Y-94508123D01*
X149590312Y-94660544D01*
X149587060Y-94691488D01*
X149587750Y-94698053D01*
X149602961Y-94842774D01*
X149607022Y-94881416D01*
X149666037Y-95063044D01*
X149761524Y-95228432D01*
X149889311Y-95370354D01*
X150043812Y-95482606D01*
X150049840Y-95485290D01*
X150049842Y-95485291D01*
X150195182Y-95550000D01*
X150218276Y-95560282D01*
X150311677Y-95580135D01*
X150398620Y-95598616D01*
X150398625Y-95598616D01*
X150405077Y-95599988D01*
X150596051Y-95599988D01*
X150602503Y-95598616D01*
X150602508Y-95598616D01*
X150689451Y-95580135D01*
X150782852Y-95560282D01*
X150805946Y-95550000D01*
X151536496Y-95550000D01*
X151537186Y-95556565D01*
X151550482Y-95683066D01*
X151556458Y-95739928D01*
X151615473Y-95921556D01*
X151710960Y-96086944D01*
X151715378Y-96091851D01*
X151715379Y-96091852D01*
X151783002Y-96166955D01*
X151838747Y-96228866D01*
X151993248Y-96341118D01*
X151999276Y-96343802D01*
X151999278Y-96343803D01*
X152161681Y-96416109D01*
X152167712Y-96418794D01*
X152261112Y-96438647D01*
X152348056Y-96457128D01*
X152348061Y-96457128D01*
X152354513Y-96458500D01*
X152545487Y-96458500D01*
X152551939Y-96457128D01*
X152551944Y-96457128D01*
X152638888Y-96438647D01*
X152732288Y-96418794D01*
X152738319Y-96416109D01*
X152900722Y-96343803D01*
X152900724Y-96343802D01*
X152906752Y-96341118D01*
X153061253Y-96228866D01*
X153116998Y-96166955D01*
X153184621Y-96091852D01*
X153184622Y-96091851D01*
X153189040Y-96086944D01*
X153284527Y-95921556D01*
X153343542Y-95739928D01*
X153349519Y-95683066D01*
X153362814Y-95556565D01*
X153363504Y-95550000D01*
X153352719Y-95447383D01*
X153344232Y-95366635D01*
X153344232Y-95366633D01*
X153343542Y-95360072D01*
X153284527Y-95178444D01*
X153189040Y-95013056D01*
X153183839Y-95007279D01*
X153065675Y-94876045D01*
X153065674Y-94876044D01*
X153061253Y-94871134D01*
X152962157Y-94799136D01*
X152912094Y-94762763D01*
X152912093Y-94762762D01*
X152906752Y-94758882D01*
X152900724Y-94756198D01*
X152900722Y-94756197D01*
X152738319Y-94683891D01*
X152738318Y-94683891D01*
X152732288Y-94681206D01*
X152638888Y-94661353D01*
X152551944Y-94642872D01*
X152551939Y-94642872D01*
X152545487Y-94641500D01*
X152354513Y-94641500D01*
X152348061Y-94642872D01*
X152348056Y-94642872D01*
X152261112Y-94661353D01*
X152167712Y-94681206D01*
X152161682Y-94683891D01*
X152161681Y-94683891D01*
X151999278Y-94756197D01*
X151999276Y-94756198D01*
X151993248Y-94758882D01*
X151987907Y-94762762D01*
X151987906Y-94762763D01*
X151937843Y-94799136D01*
X151838747Y-94871134D01*
X151834326Y-94876044D01*
X151834325Y-94876045D01*
X151716162Y-95007279D01*
X151710960Y-95013056D01*
X151615473Y-95178444D01*
X151556458Y-95360072D01*
X151555768Y-95366633D01*
X151555768Y-95366635D01*
X151547281Y-95447383D01*
X151536496Y-95550000D01*
X150805946Y-95550000D01*
X150951286Y-95485291D01*
X150951288Y-95485290D01*
X150957316Y-95482606D01*
X151111817Y-95370354D01*
X151239604Y-95228432D01*
X151335091Y-95063044D01*
X151394106Y-94881416D01*
X151398168Y-94842774D01*
X151413378Y-94698053D01*
X151414068Y-94691488D01*
X151410816Y-94660544D01*
X151394796Y-94508123D01*
X151394796Y-94508121D01*
X151394106Y-94501560D01*
X151335091Y-94319932D01*
X151239604Y-94154544D01*
X151226574Y-94140072D01*
X151116239Y-94017533D01*
X151116238Y-94017532D01*
X151111817Y-94012622D01*
X150973348Y-93912018D01*
X150962658Y-93904251D01*
X150962657Y-93904250D01*
X150957316Y-93900370D01*
X150951288Y-93897686D01*
X150951286Y-93897685D01*
X150788883Y-93825379D01*
X150788882Y-93825379D01*
X150782852Y-93822694D01*
X150670318Y-93798774D01*
X150602508Y-93784360D01*
X150602503Y-93784360D01*
X150596051Y-93782988D01*
X150531827Y-93782988D01*
X150463706Y-93762986D01*
X150417213Y-93709330D01*
X150407109Y-93639056D01*
X150422708Y-93593988D01*
X150461223Y-93527279D01*
X150461224Y-93527278D01*
X150464527Y-93521556D01*
X150523542Y-93339928D01*
X150525886Y-93317632D01*
X150542814Y-93156565D01*
X150543504Y-93150000D01*
X150536433Y-93082721D01*
X150524232Y-92966635D01*
X150524232Y-92966633D01*
X150523542Y-92960072D01*
X150464527Y-92778444D01*
X150369040Y-92613056D01*
X150354835Y-92597279D01*
X150245675Y-92476045D01*
X150245674Y-92476044D01*
X150241253Y-92471134D01*
X150086752Y-92358882D01*
X150080724Y-92356198D01*
X150080722Y-92356197D01*
X149918319Y-92283891D01*
X149918318Y-92283891D01*
X149912288Y-92281206D01*
X149805359Y-92258477D01*
X149742887Y-92224750D01*
X149708565Y-92162600D01*
X149713293Y-92091761D01*
X149755569Y-92034724D01*
X149805358Y-92011985D01*
X149817352Y-92009435D01*
X149817354Y-92009434D01*
X149823815Y-92008061D01*
X149829846Y-92005376D01*
X149992249Y-91933070D01*
X149992251Y-91933069D01*
X149998279Y-91930385D01*
X150014134Y-91918866D01*
X150091677Y-91862527D01*
X150152780Y-91818133D01*
X150159017Y-91811206D01*
X150276148Y-91681119D01*
X150276149Y-91681118D01*
X150280567Y-91676211D01*
X150358221Y-91541710D01*
X150372750Y-91516546D01*
X150372751Y-91516545D01*
X150376054Y-91510823D01*
X150435069Y-91329195D01*
X150436322Y-91317279D01*
X150454341Y-91145832D01*
X150455031Y-91139267D01*
X150435069Y-90949339D01*
X150376054Y-90767711D01*
X150362246Y-90743794D01*
X150330549Y-90688894D01*
X150280567Y-90602323D01*
X150270881Y-90591565D01*
X150157202Y-90465312D01*
X150157201Y-90465311D01*
X150152780Y-90460401D01*
X150032679Y-90373142D01*
X150003621Y-90352030D01*
X150003620Y-90352029D01*
X149998279Y-90348149D01*
X149992251Y-90345465D01*
X149992249Y-90345464D01*
X149829846Y-90273158D01*
X149829845Y-90273158D01*
X149823815Y-90270473D01*
X149817354Y-90269100D01*
X149817349Y-90269098D01*
X149766349Y-90258257D01*
X149703875Y-90224529D01*
X149669554Y-90162380D01*
X149674282Y-90091541D01*
X149716558Y-90034503D01*
X149728691Y-90026390D01*
X149783328Y-89994270D01*
X149940750Y-89901726D01*
X149944461Y-89898705D01*
X149944465Y-89898702D01*
X150137139Y-89741841D01*
X150140851Y-89738819D01*
X150314007Y-89547519D01*
X150456235Y-89332228D01*
X150473833Y-89294056D01*
X150562255Y-89102252D01*
X150562256Y-89102249D01*
X150564261Y-89097900D01*
X150571818Y-89071634D01*
X150601025Y-88970110D01*
X150633931Y-88855730D01*
X150671988Y-88795795D01*
X150736406Y-88765949D01*
X150806734Y-88775668D01*
X150860693Y-88821942D01*
X150927668Y-88925075D01*
X151159098Y-89210867D01*
X151419133Y-89470902D01*
X151704925Y-89702332D01*
X151755642Y-89735268D01*
X152007309Y-89898702D01*
X152013342Y-89902620D01*
X152016276Y-89904115D01*
X152016283Y-89904119D01*
X152321892Y-90059834D01*
X152341006Y-90069573D01*
X152492638Y-90127779D01*
X152672533Y-90196834D01*
X152684326Y-90201361D01*
X153039541Y-90296541D01*
X153232558Y-90327112D01*
X153399511Y-90353555D01*
X153399519Y-90353556D01*
X153402759Y-90354069D01*
X153770000Y-90373315D01*
X154137241Y-90354069D01*
X154140481Y-90353556D01*
X154140489Y-90353555D01*
X154307442Y-90327112D01*
X154500459Y-90296541D01*
X154855674Y-90201361D01*
X154867468Y-90196834D01*
X155047362Y-90127779D01*
X155198994Y-90069573D01*
X155218108Y-90059834D01*
X155523717Y-89904119D01*
X155523724Y-89904115D01*
X155526658Y-89902620D01*
X155532692Y-89898702D01*
X155784358Y-89735268D01*
X155835075Y-89702332D01*
X156120867Y-89470902D01*
X156380902Y-89210867D01*
X156545609Y-89007471D01*
X156604023Y-88967119D01*
X156674980Y-88964753D01*
X156735952Y-89001126D01*
X156767580Y-89064689D01*
X156769529Y-89086825D01*
X156767868Y-92567279D01*
X156762055Y-104746206D01*
X156762024Y-104810580D01*
X156760524Y-104829899D01*
X156756814Y-104853731D01*
X156757978Y-104862633D01*
X156757978Y-104862637D01*
X156757991Y-104862733D01*
X156758262Y-104893170D01*
X156751254Y-104955375D01*
X156744976Y-104982882D01*
X156718517Y-105058496D01*
X156717966Y-105060071D01*
X156705724Y-105085491D01*
X156662213Y-105154738D01*
X156644621Y-105176797D01*
X156586797Y-105234621D01*
X156564738Y-105252213D01*
X156495491Y-105295724D01*
X156470070Y-105307966D01*
X156392883Y-105334975D01*
X156365376Y-105341254D01*
X156342754Y-105343803D01*
X156309744Y-105347522D01*
X156294103Y-105348305D01*
X156285146Y-105348196D01*
X156276271Y-105346814D01*
X156265025Y-105348285D01*
X156246267Y-105350737D01*
X156229329Y-105351800D01*
X148851650Y-105316572D01*
X148783626Y-105296244D01*
X148737390Y-105242367D01*
X148727622Y-105172046D01*
X148758614Y-105106266D01*
X148839040Y-105016944D01*
X148897741Y-104915271D01*
X148931223Y-104857279D01*
X148931224Y-104857278D01*
X148934527Y-104851556D01*
X148993542Y-104669928D01*
X149001194Y-104597128D01*
X149012814Y-104486565D01*
X149013504Y-104480000D01*
X149002232Y-104372749D01*
X148994232Y-104296635D01*
X148994232Y-104296633D01*
X148993542Y-104290072D01*
X148934527Y-104108444D01*
X148914214Y-104073260D01*
X148876621Y-104008148D01*
X148839040Y-103943056D01*
X148815251Y-103916635D01*
X148715675Y-103806045D01*
X148715674Y-103806044D01*
X148711253Y-103801134D01*
X148558291Y-103690000D01*
X149666496Y-103690000D01*
X149667186Y-103696565D01*
X149685126Y-103867251D01*
X149686458Y-103879928D01*
X149745473Y-104061556D01*
X149748776Y-104067278D01*
X149748777Y-104067279D01*
X149781714Y-104124327D01*
X149840960Y-104226944D01*
X149845378Y-104231851D01*
X149845379Y-104231852D01*
X149935679Y-104332140D01*
X149968747Y-104368866D01*
X150011371Y-104399834D01*
X150101437Y-104465271D01*
X150123248Y-104481118D01*
X150129276Y-104483802D01*
X150129278Y-104483803D01*
X150263215Y-104543435D01*
X150297712Y-104558794D01*
X150391113Y-104578647D01*
X150478056Y-104597128D01*
X150478061Y-104597128D01*
X150484513Y-104598500D01*
X150675487Y-104598500D01*
X150681939Y-104597128D01*
X150681944Y-104597128D01*
X150768887Y-104578647D01*
X150862288Y-104558794D01*
X150896785Y-104543435D01*
X151030722Y-104483803D01*
X151030724Y-104483802D01*
X151036752Y-104481118D01*
X151058564Y-104465271D01*
X151148629Y-104399834D01*
X151191253Y-104368866D01*
X151224321Y-104332140D01*
X151314621Y-104231852D01*
X151314622Y-104231851D01*
X151319040Y-104226944D01*
X151378286Y-104124327D01*
X151411223Y-104067279D01*
X151411224Y-104067278D01*
X151414527Y-104061556D01*
X151473542Y-103879928D01*
X151474875Y-103867251D01*
X151492814Y-103696565D01*
X151493504Y-103690000D01*
X151481779Y-103578444D01*
X151474232Y-103506635D01*
X151474232Y-103506633D01*
X151473542Y-103500072D01*
X151414527Y-103318444D01*
X151319040Y-103153056D01*
X151191253Y-103011134D01*
X151036752Y-102898882D01*
X151030724Y-102896198D01*
X151030722Y-102896197D01*
X150868319Y-102823891D01*
X150868318Y-102823891D01*
X150862288Y-102821206D01*
X150768887Y-102801353D01*
X150681944Y-102782872D01*
X150681939Y-102782872D01*
X150675487Y-102781500D01*
X150484513Y-102781500D01*
X150478061Y-102782872D01*
X150478056Y-102782872D01*
X150391113Y-102801353D01*
X150297712Y-102821206D01*
X150291682Y-102823891D01*
X150291681Y-102823891D01*
X150129278Y-102896197D01*
X150129276Y-102896198D01*
X150123248Y-102898882D01*
X149968747Y-103011134D01*
X149840960Y-103153056D01*
X149745473Y-103318444D01*
X149686458Y-103500072D01*
X149685768Y-103506633D01*
X149685768Y-103506635D01*
X149678221Y-103578444D01*
X149666496Y-103690000D01*
X148558291Y-103690000D01*
X148556752Y-103688882D01*
X148550724Y-103686198D01*
X148550722Y-103686197D01*
X148388319Y-103613891D01*
X148388318Y-103613891D01*
X148382288Y-103611206D01*
X148288887Y-103591353D01*
X148201944Y-103572872D01*
X148201939Y-103572872D01*
X148195487Y-103571500D01*
X148004513Y-103571500D01*
X147998061Y-103572872D01*
X147998056Y-103572872D01*
X147911113Y-103591353D01*
X147817712Y-103611206D01*
X147811682Y-103613891D01*
X147811681Y-103613891D01*
X147649278Y-103686197D01*
X147649276Y-103686198D01*
X147643248Y-103688882D01*
X147488747Y-103801134D01*
X147484326Y-103806044D01*
X147484325Y-103806045D01*
X147384750Y-103916635D01*
X147360960Y-103943056D01*
X147323379Y-104008148D01*
X147285787Y-104073260D01*
X147265473Y-104108444D01*
X147206458Y-104290072D01*
X147205768Y-104296633D01*
X147205768Y-104296635D01*
X147197768Y-104372749D01*
X147186496Y-104480000D01*
X147187186Y-104486565D01*
X147198807Y-104597128D01*
X147206458Y-104669928D01*
X147265473Y-104851556D01*
X147268776Y-104857278D01*
X147268777Y-104857279D01*
X147302259Y-104915271D01*
X147360960Y-105016944D01*
X147434788Y-105098938D01*
X147465505Y-105162946D01*
X147456740Y-105233399D01*
X147411277Y-105287930D01*
X147343549Y-105309225D01*
X147320252Y-105307503D01*
X147299647Y-105304036D01*
X147293289Y-105303958D01*
X147291966Y-105303942D01*
X147291962Y-105303942D01*
X147287108Y-105303883D01*
X147272374Y-105305993D01*
X147263527Y-105306942D01*
X147115331Y-105317540D01*
X147076435Y-105320322D01*
X147076434Y-105320322D01*
X147071948Y-105320643D01*
X146939694Y-105349413D01*
X146865558Y-105365540D01*
X146865555Y-105365541D01*
X146861169Y-105366495D01*
X146856967Y-105368062D01*
X146856961Y-105368064D01*
X146713546Y-105421556D01*
X146659061Y-105441878D01*
X146655116Y-105444032D01*
X146655114Y-105444033D01*
X146562271Y-105494729D01*
X146469738Y-105545256D01*
X146297054Y-105674525D01*
X146144525Y-105827054D01*
X146015256Y-105999738D01*
X146013097Y-106003692D01*
X145919447Y-106175200D01*
X145911878Y-106189061D01*
X145910307Y-106193273D01*
X145838064Y-106386961D01*
X145838062Y-106386967D01*
X145836495Y-106391169D01*
X145835541Y-106395555D01*
X145835540Y-106395558D01*
X145824726Y-106445271D01*
X145790643Y-106601948D01*
X145790322Y-106606436D01*
X145778144Y-106776704D01*
X145776720Y-106788613D01*
X145774036Y-106804569D01*
X145773883Y-106817108D01*
X145774573Y-106821925D01*
X145777770Y-106844250D01*
X145779043Y-106862290D01*
X145779027Y-106873803D01*
X145778870Y-106986022D01*
X145778851Y-106999306D01*
X145758753Y-107067398D01*
X145705033Y-107113816D01*
X145634745Y-107123821D01*
X145626654Y-107122376D01*
X145581944Y-107112872D01*
X145581939Y-107112872D01*
X145575487Y-107111500D01*
X145384513Y-107111500D01*
X145378061Y-107112872D01*
X145378056Y-107112872D01*
X145303354Y-107128751D01*
X145197712Y-107151206D01*
X145191682Y-107153891D01*
X145191681Y-107153891D01*
X145029278Y-107226197D01*
X145029276Y-107226198D01*
X145023248Y-107228882D01*
X145023153Y-107228668D01*
X144957342Y-107244635D01*
X144898940Y-107224108D01*
X144897811Y-107226064D01*
X144892093Y-107222763D01*
X144886752Y-107218882D01*
X144880724Y-107216198D01*
X144880722Y-107216197D01*
X144718319Y-107143891D01*
X144718318Y-107143891D01*
X144712288Y-107141206D01*
X144603701Y-107118125D01*
X144531944Y-107102872D01*
X144531939Y-107102872D01*
X144525487Y-107101500D01*
X144516821Y-107101500D01*
X144515671Y-107101162D01*
X144512318Y-107100810D01*
X144512382Y-107100197D01*
X144448700Y-107081498D01*
X144402207Y-107027842D01*
X144392103Y-106957568D01*
X144423185Y-106891190D01*
X144494621Y-106811852D01*
X144494625Y-106811847D01*
X144499040Y-106806944D01*
X144573401Y-106678148D01*
X144591223Y-106647279D01*
X144591224Y-106647278D01*
X144594527Y-106641556D01*
X144653542Y-106459928D01*
X144655083Y-106445271D01*
X144672814Y-106276565D01*
X144673504Y-106270000D01*
X144653542Y-106080072D01*
X144594527Y-105898444D01*
X144590298Y-105891118D01*
X144502341Y-105738774D01*
X144499040Y-105733056D01*
X144494621Y-105728148D01*
X144375672Y-105596041D01*
X144375668Y-105596038D01*
X144371253Y-105591134D01*
X144369253Y-105589681D01*
X144332817Y-105530540D01*
X144334169Y-105459557D01*
X144373682Y-105400572D01*
X144438813Y-105372314D01*
X144505615Y-105382243D01*
X144581677Y-105416108D01*
X144581685Y-105416111D01*
X144587712Y-105418794D01*
X144681113Y-105438647D01*
X144768056Y-105457128D01*
X144768061Y-105457128D01*
X144774513Y-105458500D01*
X144965487Y-105458500D01*
X144971939Y-105457128D01*
X144971944Y-105457128D01*
X145058887Y-105438647D01*
X145152288Y-105418794D01*
X145185759Y-105403892D01*
X145320722Y-105343803D01*
X145320724Y-105343802D01*
X145326752Y-105341118D01*
X145353618Y-105321599D01*
X145387132Y-105297249D01*
X145481253Y-105228866D01*
X145609040Y-105086944D01*
X145704527Y-104921556D01*
X145763542Y-104739928D01*
X145770240Y-104676206D01*
X145782814Y-104556565D01*
X145783504Y-104550000D01*
X145777747Y-104495226D01*
X145764232Y-104366635D01*
X145764232Y-104366633D01*
X145763542Y-104360072D01*
X145704527Y-104178444D01*
X145695537Y-104162872D01*
X145640008Y-104066694D01*
X145609040Y-104013056D01*
X145588579Y-103990331D01*
X145485675Y-103876045D01*
X145485674Y-103876044D01*
X145481253Y-103871134D01*
X145326752Y-103758882D01*
X145320724Y-103756198D01*
X145320722Y-103756197D01*
X145158319Y-103683891D01*
X145158318Y-103683891D01*
X145152288Y-103681206D01*
X145058888Y-103661353D01*
X144971944Y-103642872D01*
X144971939Y-103642872D01*
X144965487Y-103641500D01*
X144774513Y-103641500D01*
X144768061Y-103642872D01*
X144768056Y-103642872D01*
X144681112Y-103661353D01*
X144587712Y-103681206D01*
X144581682Y-103683891D01*
X144581681Y-103683891D01*
X144419278Y-103756197D01*
X144419276Y-103756198D01*
X144413248Y-103758882D01*
X144258747Y-103871134D01*
X144254326Y-103876044D01*
X144254325Y-103876045D01*
X144151422Y-103990331D01*
X144130960Y-104013056D01*
X144099992Y-104066694D01*
X144044464Y-104162872D01*
X144035473Y-104178444D01*
X143976458Y-104360072D01*
X143975768Y-104366633D01*
X143975768Y-104366635D01*
X143962253Y-104495226D01*
X143956496Y-104550000D01*
X143957186Y-104556565D01*
X143969761Y-104676206D01*
X143976458Y-104739928D01*
X144035473Y-104921556D01*
X144130960Y-105086944D01*
X144135378Y-105091851D01*
X144135379Y-105091852D01*
X144254328Y-105223959D01*
X144254332Y-105223962D01*
X144258747Y-105228866D01*
X144260747Y-105230319D01*
X144297183Y-105289460D01*
X144295831Y-105360443D01*
X144256318Y-105419428D01*
X144191187Y-105447686D01*
X144124385Y-105437757D01*
X144048323Y-105403892D01*
X144048315Y-105403889D01*
X144042288Y-105401206D01*
X143871010Y-105364800D01*
X143808538Y-105331072D01*
X143774216Y-105268922D01*
X143771898Y-105254723D01*
X143771635Y-105252213D01*
X143756295Y-105106262D01*
X143754232Y-105086635D01*
X143754232Y-105086633D01*
X143753542Y-105080072D01*
X143694527Y-104898444D01*
X143689324Y-104889431D01*
X143606632Y-104746206D01*
X143599040Y-104733056D01*
X143563047Y-104693081D01*
X143475675Y-104596045D01*
X143475674Y-104596044D01*
X143471253Y-104591134D01*
X143350356Y-104503297D01*
X143322094Y-104482763D01*
X143322093Y-104482762D01*
X143316752Y-104478882D01*
X143310724Y-104476198D01*
X143310722Y-104476197D01*
X143148319Y-104403891D01*
X143148318Y-104403891D01*
X143142288Y-104401206D01*
X143048887Y-104381353D01*
X142961944Y-104362872D01*
X142961939Y-104362872D01*
X142955487Y-104361500D01*
X142764513Y-104361500D01*
X142758061Y-104362872D01*
X142758056Y-104362872D01*
X142671113Y-104381353D01*
X142577712Y-104401206D01*
X142571682Y-104403891D01*
X142571681Y-104403891D01*
X142409278Y-104476197D01*
X142409276Y-104476198D01*
X142403248Y-104478882D01*
X142397907Y-104482762D01*
X142397906Y-104482763D01*
X142369644Y-104503297D01*
X142248747Y-104591134D01*
X142244326Y-104596044D01*
X142244325Y-104596045D01*
X142156954Y-104693081D01*
X142120960Y-104733056D01*
X142113368Y-104746206D01*
X142030677Y-104889431D01*
X142025473Y-104898444D01*
X141966458Y-105080072D01*
X141965768Y-105086633D01*
X141965768Y-105086635D01*
X141949928Y-105237350D01*
X141946496Y-105270000D01*
X141947186Y-105276565D01*
X141960279Y-105401134D01*
X141966458Y-105459928D01*
X142025473Y-105641556D01*
X142028776Y-105647278D01*
X142028777Y-105647279D01*
X142060787Y-105702721D01*
X142120960Y-105806944D01*
X142125378Y-105811851D01*
X142125379Y-105811852D01*
X142239678Y-105938794D01*
X142248747Y-105948866D01*
X142403248Y-106061118D01*
X142409276Y-106063802D01*
X142409278Y-106063803D01*
X142571681Y-106136109D01*
X142577712Y-106138794D01*
X142748990Y-106175200D01*
X142811462Y-106208928D01*
X142845784Y-106271078D01*
X142848101Y-106285271D01*
X142854887Y-106349834D01*
X142864918Y-106445271D01*
X142866458Y-106459928D01*
X142925473Y-106641556D01*
X142928776Y-106647278D01*
X142928777Y-106647279D01*
X142946599Y-106678148D01*
X143020960Y-106806944D01*
X143115129Y-106911530D01*
X143145845Y-106975535D01*
X143137081Y-107045989D01*
X143091619Y-107100520D01*
X143047693Y-107119084D01*
X143044914Y-107119675D01*
X143037712Y-107121206D01*
X143031682Y-107123891D01*
X143031681Y-107123891D01*
X142992791Y-107141206D01*
X142863248Y-107198882D01*
X142857912Y-107202759D01*
X142855906Y-107203917D01*
X142786911Y-107220653D01*
X142718848Y-107196732D01*
X142672094Y-107162763D01*
X142672093Y-107162762D01*
X142666752Y-107158882D01*
X142660724Y-107156198D01*
X142660722Y-107156197D01*
X142498319Y-107083891D01*
X142498318Y-107083891D01*
X142492288Y-107081206D01*
X142397782Y-107061118D01*
X142311944Y-107042872D01*
X142311939Y-107042872D01*
X142305487Y-107041500D01*
X142114513Y-107041500D01*
X142108061Y-107042872D01*
X142108056Y-107042872D01*
X142022218Y-107061118D01*
X141927712Y-107081206D01*
X141921682Y-107083891D01*
X141921681Y-107083891D01*
X141759278Y-107156197D01*
X141759276Y-107156198D01*
X141753248Y-107158882D01*
X141598747Y-107271134D01*
X141470960Y-107413056D01*
X141426578Y-107489928D01*
X141384528Y-107562761D01*
X141375473Y-107578444D01*
X141316458Y-107760072D01*
X141315768Y-107766633D01*
X141315768Y-107766635D01*
X141307863Y-107841852D01*
X141296496Y-107950000D01*
X141297186Y-107956565D01*
X141310781Y-108085910D01*
X141316458Y-108139928D01*
X141342536Y-108220188D01*
X141368283Y-108299428D01*
X141370311Y-108370395D01*
X141333648Y-108431193D01*
X141269936Y-108462519D01*
X141199402Y-108454426D01*
X141149500Y-108416369D01*
X141025002Y-108258443D01*
X141024997Y-108258438D01*
X141022105Y-108254769D01*
X140826317Y-108070591D01*
X140605457Y-107917374D01*
X140601264Y-107915306D01*
X140368564Y-107800551D01*
X140368561Y-107800550D01*
X140364376Y-107798486D01*
X140316745Y-107783239D01*
X140244370Y-107760072D01*
X140108370Y-107716538D01*
X140103763Y-107715788D01*
X140103760Y-107715787D01*
X139867311Y-107677279D01*
X139843063Y-107673330D01*
X139712719Y-107671624D01*
X139578961Y-107669873D01*
X139578958Y-107669873D01*
X139574284Y-107669812D01*
X139307937Y-107706060D01*
X139049874Y-107781278D01*
X138805763Y-107893815D01*
X138772984Y-107915306D01*
X138584881Y-108038631D01*
X138584876Y-108038635D01*
X138580968Y-108041197D01*
X138522028Y-108093803D01*
X138470350Y-108139928D01*
X138380426Y-108220188D01*
X138208544Y-108426854D01*
X138069096Y-108656656D01*
X137965148Y-108904545D01*
X137898981Y-109165077D01*
X137872050Y-109432526D01*
X137884947Y-109701019D01*
X137937388Y-109964656D01*
X138028220Y-110217646D01*
X138030432Y-110221762D01*
X138030433Y-110221765D01*
X138096844Y-110345361D01*
X138155450Y-110454431D01*
X138158241Y-110458168D01*
X138158245Y-110458175D01*
X138263251Y-110598794D01*
X138316281Y-110669810D01*
X138319590Y-110673090D01*
X138319595Y-110673096D01*
X138464705Y-110816944D01*
X138507180Y-110859050D01*
X138510942Y-110861808D01*
X138510945Y-110861811D01*
X138720183Y-111015230D01*
X138723954Y-111017995D01*
X138728089Y-111020171D01*
X138728093Y-111020173D01*
X138957698Y-111140975D01*
X138961840Y-111143154D01*
X139215613Y-111231775D01*
X139220206Y-111232647D01*
X139475109Y-111281042D01*
X139475112Y-111281042D01*
X139479698Y-111281913D01*
X139607370Y-111286929D01*
X139743625Y-111292283D01*
X139743630Y-111292283D01*
X139748293Y-111292466D01*
X139852607Y-111281042D01*
X140010844Y-111263713D01*
X140010850Y-111263712D01*
X140015497Y-111263203D01*
X140020021Y-111262012D01*
X140270918Y-111195956D01*
X140270920Y-111195955D01*
X140275441Y-111194765D01*
X140279738Y-111192919D01*
X140518120Y-111090502D01*
X140518122Y-111090501D01*
X140522414Y-111088657D01*
X140724771Y-110963435D01*
X140747017Y-110949669D01*
X140747021Y-110949666D01*
X140750990Y-110947210D01*
X140956149Y-110773530D01*
X141089895Y-110621021D01*
X141149847Y-110582994D01*
X141220843Y-110583416D01*
X141280339Y-110622154D01*
X141309448Y-110686909D01*
X141309936Y-110717269D01*
X141306496Y-110750001D01*
X141307186Y-110756566D01*
X141324235Y-110918774D01*
X141326458Y-110939929D01*
X141385473Y-111121557D01*
X141388776Y-111127279D01*
X141388777Y-111127280D01*
X141411251Y-111166206D01*
X141480960Y-111286945D01*
X141485378Y-111291852D01*
X141485379Y-111291853D01*
X141576547Y-111393105D01*
X141608747Y-111428867D01*
X141707843Y-111500865D01*
X141746787Y-111529159D01*
X141763248Y-111541119D01*
X141769276Y-111543803D01*
X141769278Y-111543804D01*
X141900225Y-111602105D01*
X141937712Y-111618795D01*
X142031113Y-111638648D01*
X142118056Y-111657129D01*
X142118061Y-111657129D01*
X142124513Y-111658501D01*
X142315487Y-111658501D01*
X142321939Y-111657129D01*
X142321944Y-111657129D01*
X142408887Y-111638648D01*
X142502288Y-111618795D01*
X142541509Y-111601333D01*
X142586910Y-111581119D01*
X142676752Y-111541119D01*
X142682088Y-111537242D01*
X142684094Y-111536084D01*
X142753089Y-111519348D01*
X142821152Y-111543269D01*
X142851887Y-111565599D01*
X142873248Y-111581119D01*
X142879276Y-111583803D01*
X142879278Y-111583804D01*
X143041681Y-111656110D01*
X143047712Y-111658795D01*
X143141113Y-111678648D01*
X143228056Y-111697129D01*
X143228061Y-111697129D01*
X143234513Y-111698501D01*
X143425487Y-111698501D01*
X143431939Y-111697129D01*
X143431944Y-111697129D01*
X143518887Y-111678648D01*
X143612288Y-111658795D01*
X143618319Y-111656110D01*
X143780724Y-111583803D01*
X143780725Y-111583802D01*
X143786752Y-111581119D01*
X143797174Y-111573547D01*
X143864042Y-111549688D01*
X143933194Y-111565767D01*
X143945296Y-111573545D01*
X143983248Y-111601119D01*
X143989276Y-111603803D01*
X143989278Y-111603804D01*
X144151681Y-111676110D01*
X144157712Y-111678795D01*
X144243966Y-111697129D01*
X144338056Y-111717129D01*
X144338061Y-111717129D01*
X144344513Y-111718501D01*
X144535487Y-111718501D01*
X144541939Y-111717129D01*
X144541944Y-111717129D01*
X144636034Y-111697129D01*
X144722288Y-111678795D01*
X144728319Y-111676110D01*
X144890722Y-111603804D01*
X144890724Y-111603803D01*
X144896752Y-111601119D01*
X144896847Y-111601333D01*
X144962658Y-111585366D01*
X145021060Y-111605893D01*
X145022189Y-111603937D01*
X145027907Y-111607238D01*
X145033248Y-111611119D01*
X145039276Y-111613803D01*
X145039278Y-111613804D01*
X145188333Y-111680167D01*
X145207712Y-111688795D01*
X145301112Y-111708648D01*
X145388056Y-111727129D01*
X145388061Y-111727129D01*
X145394513Y-111728501D01*
X145585487Y-111728501D01*
X145597819Y-111725880D01*
X145619847Y-111721198D01*
X145690638Y-111726601D01*
X145747270Y-111769418D01*
X145771763Y-111836055D01*
X145772043Y-111844622D01*
X145771685Y-112099766D01*
X145762086Y-118931500D01*
X145762069Y-118943302D01*
X145760570Y-118962501D01*
X145756814Y-118986624D01*
X145757978Y-118995526D01*
X145757978Y-118995530D01*
X145757991Y-118995626D01*
X145758262Y-119026063D01*
X145751254Y-119088268D01*
X145744976Y-119115775D01*
X145717966Y-119192964D01*
X145705724Y-119218384D01*
X145662213Y-119287631D01*
X145644621Y-119309690D01*
X145586797Y-119367514D01*
X145564738Y-119385106D01*
X145495491Y-119428617D01*
X145470070Y-119440859D01*
X145392883Y-119467868D01*
X145365376Y-119474147D01*
X145341428Y-119476845D01*
X145309744Y-119480415D01*
X145294103Y-119481198D01*
X145285145Y-119481089D01*
X145276271Y-119479707D01*
X145245278Y-119483760D01*
X145244396Y-119483875D01*
X145228198Y-119484939D01*
X143246614Y-119487127D01*
X118653811Y-119514282D01*
X118585668Y-119494355D01*
X118539116Y-119440751D01*
X118528935Y-119370488D01*
X118533840Y-119349343D01*
X118535788Y-119343347D01*
X118537828Y-119337070D01*
X118540372Y-119312870D01*
X118557100Y-119153707D01*
X118557790Y-119147142D01*
X118550112Y-119074089D01*
X118538518Y-118963777D01*
X118538518Y-118963775D01*
X118537828Y-118957214D01*
X118478813Y-118775586D01*
X118454123Y-118732822D01*
X118437385Y-118663827D01*
X118453031Y-118610542D01*
X118452825Y-118610450D01*
X118453509Y-118608915D01*
X118454123Y-118606822D01*
X118455509Y-118604422D01*
X118455511Y-118604417D01*
X118458813Y-118598698D01*
X118517828Y-118417070D01*
X118521221Y-118384793D01*
X118537100Y-118233707D01*
X118537790Y-118227142D01*
X118517828Y-118037214D01*
X118458813Y-117855586D01*
X118431980Y-117809110D01*
X118415242Y-117740115D01*
X118429675Y-117690955D01*
X118428539Y-117690449D01*
X118431223Y-117684421D01*
X118434527Y-117678698D01*
X118476344Y-117550000D01*
X122256496Y-117550000D01*
X122257186Y-117556565D01*
X122271258Y-117690449D01*
X122276458Y-117739928D01*
X122335473Y-117921556D01*
X122430960Y-118086944D01*
X122435378Y-118091851D01*
X122435379Y-118091852D01*
X122554325Y-118223955D01*
X122558747Y-118228866D01*
X122713248Y-118341118D01*
X122719276Y-118343802D01*
X122719278Y-118343803D01*
X122869099Y-118410507D01*
X122887712Y-118418794D01*
X122981112Y-118438647D01*
X123068056Y-118457128D01*
X123068061Y-118457128D01*
X123074513Y-118458500D01*
X123265487Y-118458500D01*
X123271939Y-118457128D01*
X123271944Y-118457128D01*
X123358888Y-118438647D01*
X123452288Y-118418794D01*
X123470901Y-118410507D01*
X123620722Y-118343803D01*
X123620724Y-118343802D01*
X123626752Y-118341118D01*
X123781253Y-118228866D01*
X123785675Y-118223955D01*
X123904621Y-118091852D01*
X123904622Y-118091851D01*
X123909040Y-118086944D01*
X124004527Y-117921556D01*
X124063542Y-117739928D01*
X124068743Y-117690449D01*
X124082814Y-117556565D01*
X124083504Y-117550000D01*
X124075238Y-117471356D01*
X124064232Y-117366635D01*
X124064232Y-117366633D01*
X124063542Y-117360072D01*
X124004527Y-117178444D01*
X123909040Y-117013056D01*
X123876789Y-116977237D01*
X123785675Y-116876045D01*
X123785674Y-116876044D01*
X123781253Y-116871134D01*
X123626752Y-116758882D01*
X123620724Y-116756198D01*
X123620722Y-116756197D01*
X123458319Y-116683891D01*
X123458318Y-116683891D01*
X123452288Y-116681206D01*
X123358887Y-116661353D01*
X123271944Y-116642872D01*
X123271939Y-116642872D01*
X123265487Y-116641500D01*
X123074513Y-116641500D01*
X123068061Y-116642872D01*
X123068056Y-116642872D01*
X122981113Y-116661353D01*
X122887712Y-116681206D01*
X122881682Y-116683891D01*
X122881681Y-116683891D01*
X122719278Y-116756197D01*
X122719276Y-116756198D01*
X122713248Y-116758882D01*
X122558747Y-116871134D01*
X122554326Y-116876044D01*
X122554325Y-116876045D01*
X122463212Y-116977237D01*
X122430960Y-117013056D01*
X122335473Y-117178444D01*
X122276458Y-117360072D01*
X122275768Y-117366633D01*
X122275768Y-117366635D01*
X122264762Y-117471356D01*
X122256496Y-117550000D01*
X118476344Y-117550000D01*
X118493542Y-117497070D01*
X118496935Y-117464793D01*
X118512814Y-117313707D01*
X118513504Y-117307142D01*
X118506202Y-117237670D01*
X118494232Y-117123777D01*
X118494232Y-117123775D01*
X118493542Y-117117214D01*
X118434527Y-116935586D01*
X118416263Y-116903951D01*
X118342341Y-116775916D01*
X118339040Y-116770198D01*
X118326434Y-116756197D01*
X118215675Y-116633187D01*
X118215674Y-116633186D01*
X118211253Y-116628276D01*
X118110771Y-116555271D01*
X118062094Y-116519905D01*
X118062093Y-116519904D01*
X118056752Y-116516024D01*
X118050724Y-116513340D01*
X118050722Y-116513339D01*
X117888319Y-116441033D01*
X117888318Y-116441033D01*
X117882288Y-116438348D01*
X117773946Y-116415319D01*
X117701944Y-116400014D01*
X117701939Y-116400014D01*
X117695487Y-116398642D01*
X117504513Y-116398642D01*
X117498061Y-116400014D01*
X117498056Y-116400014D01*
X117346925Y-116432138D01*
X117276134Y-116426736D01*
X117219501Y-116383919D01*
X117195008Y-116317281D01*
X117211608Y-116245893D01*
X117254527Y-116171556D01*
X117313542Y-115989928D01*
X117329259Y-115840394D01*
X117332814Y-115806565D01*
X117333504Y-115800000D01*
X117313542Y-115610072D01*
X117254527Y-115428444D01*
X117250298Y-115421118D01*
X117216743Y-115363000D01*
X117200005Y-115294005D01*
X117216743Y-115237000D01*
X117226558Y-115220000D01*
X122666496Y-115220000D01*
X122686458Y-115409928D01*
X122745473Y-115591556D01*
X122748776Y-115597278D01*
X122748777Y-115597279D01*
X122754526Y-115607237D01*
X122840960Y-115756944D01*
X122845378Y-115761851D01*
X122845379Y-115761852D01*
X122964325Y-115893955D01*
X122968747Y-115898866D01*
X123006962Y-115926631D01*
X123117078Y-116006635D01*
X123123248Y-116011118D01*
X123129276Y-116013802D01*
X123129278Y-116013803D01*
X123291681Y-116086109D01*
X123297712Y-116088794D01*
X123391113Y-116108647D01*
X123478056Y-116127128D01*
X123478061Y-116127128D01*
X123484513Y-116128500D01*
X123675487Y-116128500D01*
X123681939Y-116127128D01*
X123681944Y-116127128D01*
X123768887Y-116108647D01*
X123862288Y-116088794D01*
X123868319Y-116086109D01*
X124030722Y-116013803D01*
X124030724Y-116013802D01*
X124036752Y-116011118D01*
X124042923Y-116006635D01*
X124120200Y-115950489D01*
X124187067Y-115926631D01*
X124256219Y-115942711D01*
X124305699Y-115993624D01*
X124319571Y-116065595D01*
X124308308Y-116172759D01*
X124306496Y-116190000D01*
X124307186Y-116196565D01*
X124319874Y-116317281D01*
X124326458Y-116379928D01*
X124385473Y-116561556D01*
X124388776Y-116567278D01*
X124388777Y-116567279D01*
X124411983Y-116607473D01*
X124480960Y-116726944D01*
X124485378Y-116731851D01*
X124485379Y-116731852D01*
X124599096Y-116858148D01*
X124608747Y-116868866D01*
X124763248Y-116981118D01*
X124769276Y-116983802D01*
X124769278Y-116983803D01*
X124931681Y-117056109D01*
X124937712Y-117058794D01*
X125031113Y-117078647D01*
X125118056Y-117097128D01*
X125118061Y-117097128D01*
X125124513Y-117098500D01*
X125131115Y-117098500D01*
X125137682Y-117099190D01*
X125137470Y-117101208D01*
X125196368Y-117118502D01*
X125242861Y-117172158D01*
X125253557Y-117237670D01*
X125240003Y-117366635D01*
X125236496Y-117400000D01*
X125237186Y-117406565D01*
X125246009Y-117490507D01*
X125256458Y-117589928D01*
X125315473Y-117771556D01*
X125410960Y-117936944D01*
X125538747Y-118078866D01*
X125693248Y-118191118D01*
X125699276Y-118193802D01*
X125699278Y-118193803D01*
X125861681Y-118266109D01*
X125867712Y-118268794D01*
X125961113Y-118288647D01*
X126048056Y-118307128D01*
X126048061Y-118307128D01*
X126054513Y-118308500D01*
X126245487Y-118308500D01*
X126251939Y-118307128D01*
X126251944Y-118307128D01*
X126338887Y-118288647D01*
X126432288Y-118268794D01*
X126438319Y-118266109D01*
X126600722Y-118193803D01*
X126600724Y-118193802D01*
X126606752Y-118191118D01*
X126761253Y-118078866D01*
X126889040Y-117936944D01*
X126984527Y-117771556D01*
X127043542Y-117589928D01*
X127053992Y-117490507D01*
X127062814Y-117406565D01*
X127063504Y-117400000D01*
X127043542Y-117210072D01*
X126984527Y-117028444D01*
X126958754Y-116983803D01*
X126892341Y-116868774D01*
X126889040Y-116863056D01*
X126805431Y-116770198D01*
X126765675Y-116726045D01*
X126765674Y-116726044D01*
X126761253Y-116721134D01*
X126640205Y-116633187D01*
X126612094Y-116612763D01*
X126612093Y-116612762D01*
X126606752Y-116608882D01*
X126600724Y-116606198D01*
X126600722Y-116606197D01*
X126438319Y-116533891D01*
X126438318Y-116533891D01*
X126432288Y-116531206D01*
X126338888Y-116511353D01*
X126251944Y-116492872D01*
X126251939Y-116492872D01*
X126245487Y-116491500D01*
X126238885Y-116491500D01*
X126232318Y-116490810D01*
X126232530Y-116488792D01*
X126173632Y-116471498D01*
X126127139Y-116417842D01*
X126116443Y-116352330D01*
X126132814Y-116196565D01*
X126133504Y-116190000D01*
X126120429Y-116065595D01*
X126114232Y-116006635D01*
X126114232Y-116006633D01*
X126113542Y-116000072D01*
X126057675Y-115828134D01*
X137876500Y-115828134D01*
X137883255Y-115890316D01*
X137934385Y-116026705D01*
X138021739Y-116143261D01*
X138138295Y-116230615D01*
X138274684Y-116281745D01*
X138336866Y-116288500D01*
X141033134Y-116288500D01*
X141095316Y-116281745D01*
X141231705Y-116230615D01*
X141348261Y-116143261D01*
X141435615Y-116026705D01*
X141486745Y-115890316D01*
X141493500Y-115828134D01*
X141493500Y-113131866D01*
X141486745Y-113069684D01*
X141435615Y-112933295D01*
X141348261Y-112816739D01*
X141231705Y-112729385D01*
X141095316Y-112678255D01*
X141033134Y-112671500D01*
X138336866Y-112671500D01*
X138274684Y-112678255D01*
X138138295Y-112729385D01*
X138021739Y-112816739D01*
X137934385Y-112933295D01*
X137883255Y-113069684D01*
X137876500Y-113131866D01*
X137876500Y-115828134D01*
X126057675Y-115828134D01*
X126054527Y-115818444D01*
X125959040Y-115653056D01*
X125907071Y-115595339D01*
X125876354Y-115531331D01*
X125880874Y-115472094D01*
X125903400Y-115402766D01*
X125907701Y-115361852D01*
X125922672Y-115219403D01*
X125923362Y-115212838D01*
X125917937Y-115161226D01*
X125904090Y-115029473D01*
X125904090Y-115029471D01*
X125903400Y-115022910D01*
X125844385Y-114841282D01*
X125841063Y-114835527D01*
X125788952Y-114745269D01*
X125748898Y-114675894D01*
X125737485Y-114663218D01*
X125625533Y-114538883D01*
X125625529Y-114538879D01*
X125621111Y-114533972D01*
X125522015Y-114461974D01*
X125471952Y-114425601D01*
X125471951Y-114425600D01*
X125466610Y-114421720D01*
X125460582Y-114419036D01*
X125460580Y-114419035D01*
X125340867Y-114365736D01*
X125286772Y-114319756D01*
X125266122Y-114251829D01*
X125285474Y-114183521D01*
X125340867Y-114135522D01*
X125490722Y-114068803D01*
X125490724Y-114068802D01*
X125496752Y-114066118D01*
X125514918Y-114052920D01*
X125610651Y-113983365D01*
X125651253Y-113953866D01*
X125675432Y-113927013D01*
X125774621Y-113816852D01*
X125774622Y-113816851D01*
X125779040Y-113811944D01*
X125874527Y-113646556D01*
X125933542Y-113464928D01*
X125942679Y-113378000D01*
X125952814Y-113281565D01*
X125953504Y-113275000D01*
X125935801Y-113106565D01*
X125934232Y-113091635D01*
X125934232Y-113091633D01*
X125933542Y-113085072D01*
X125874527Y-112903444D01*
X125872583Y-112900078D01*
X125863284Y-112830707D01*
X125867992Y-112810893D01*
X125911366Y-112677402D01*
X125923542Y-112639928D01*
X125931021Y-112568774D01*
X125942814Y-112456565D01*
X125943504Y-112450000D01*
X125931450Y-112335310D01*
X125924232Y-112266635D01*
X125924232Y-112266633D01*
X125923542Y-112260072D01*
X125864527Y-112078444D01*
X125856355Y-112064290D01*
X125839616Y-111995298D01*
X125845639Y-111962357D01*
X125893542Y-111814928D01*
X125898984Y-111763155D01*
X125912814Y-111631565D01*
X125913504Y-111625000D01*
X125906308Y-111556534D01*
X125894232Y-111441635D01*
X125894232Y-111441633D01*
X125893542Y-111435072D01*
X125834527Y-111253444D01*
X125822017Y-111231775D01*
X125754753Y-111115272D01*
X125739040Y-111088056D01*
X125730386Y-111078444D01*
X125615675Y-110951045D01*
X125615674Y-110951044D01*
X125611253Y-110946134D01*
X125456752Y-110833882D01*
X125450724Y-110831198D01*
X125450722Y-110831197D01*
X125288319Y-110758891D01*
X125288318Y-110758891D01*
X125282288Y-110756206D01*
X125188887Y-110736353D01*
X125101944Y-110717872D01*
X125101939Y-110717872D01*
X125095487Y-110716500D01*
X124904513Y-110716500D01*
X124898061Y-110717872D01*
X124898056Y-110717872D01*
X124720745Y-110755561D01*
X124649954Y-110750159D01*
X124620487Y-110734250D01*
X124522094Y-110662763D01*
X124522093Y-110662762D01*
X124516752Y-110658882D01*
X124510724Y-110656198D01*
X124510722Y-110656197D01*
X124348319Y-110583891D01*
X124348318Y-110583891D01*
X124342288Y-110581206D01*
X124242866Y-110560073D01*
X124161944Y-110542872D01*
X124161939Y-110542872D01*
X124155487Y-110541500D01*
X123964513Y-110541500D01*
X123958061Y-110542872D01*
X123958056Y-110542872D01*
X123877134Y-110560073D01*
X123777712Y-110581206D01*
X123771682Y-110583891D01*
X123771681Y-110583891D01*
X123609278Y-110656197D01*
X123609276Y-110656198D01*
X123603248Y-110658882D01*
X123448747Y-110771134D01*
X123444326Y-110776044D01*
X123444325Y-110776045D01*
X123349703Y-110881134D01*
X123320960Y-110913056D01*
X123299027Y-110951045D01*
X123229703Y-111071118D01*
X123225473Y-111078444D01*
X123166458Y-111260072D01*
X123165768Y-111266633D01*
X123165768Y-111266635D01*
X123155463Y-111364679D01*
X123146496Y-111450000D01*
X123147186Y-111456565D01*
X123163955Y-111616110D01*
X123166458Y-111639928D01*
X123225473Y-111821556D01*
X123320960Y-111986944D01*
X123325378Y-111991851D01*
X123325379Y-111991852D01*
X123431695Y-112109928D01*
X123448747Y-112128866D01*
X123603248Y-112241118D01*
X123609276Y-112243802D01*
X123609278Y-112243803D01*
X123719903Y-112293056D01*
X123777712Y-112318794D01*
X123871112Y-112338647D01*
X123958056Y-112357128D01*
X123958061Y-112357128D01*
X123964513Y-112358500D01*
X123993428Y-112358500D01*
X124061549Y-112378502D01*
X124108042Y-112432158D01*
X124118738Y-112471330D01*
X124128980Y-112568774D01*
X124136458Y-112639928D01*
X124195473Y-112821556D01*
X124197417Y-112824922D01*
X124206716Y-112894293D01*
X124202008Y-112914107D01*
X124193042Y-112941703D01*
X124146458Y-113085072D01*
X124145768Y-113091633D01*
X124145768Y-113091635D01*
X124144199Y-113106565D01*
X124126496Y-113275000D01*
X124127186Y-113281565D01*
X124137322Y-113378000D01*
X124146458Y-113464928D01*
X124205473Y-113646556D01*
X124300960Y-113811944D01*
X124305378Y-113816851D01*
X124305379Y-113816852D01*
X124404568Y-113927013D01*
X124428747Y-113953866D01*
X124469349Y-113983365D01*
X124565083Y-114052920D01*
X124583248Y-114066118D01*
X124589276Y-114068802D01*
X124589278Y-114068803D01*
X124708991Y-114122102D01*
X124763086Y-114168082D01*
X124783736Y-114236009D01*
X124764384Y-114304317D01*
X124708991Y-114352316D01*
X124559136Y-114419035D01*
X124559134Y-114419036D01*
X124553106Y-114421720D01*
X124547765Y-114425600D01*
X124547764Y-114425601D01*
X124497701Y-114461974D01*
X124398605Y-114533972D01*
X124385339Y-114548705D01*
X124324894Y-114585943D01*
X124253911Y-114584591D01*
X124200661Y-114550370D01*
X124200580Y-114550460D01*
X124200027Y-114549962D01*
X124198068Y-114548703D01*
X124191253Y-114541134D01*
X124119313Y-114488866D01*
X124042094Y-114432763D01*
X124042093Y-114432762D01*
X124036752Y-114428882D01*
X124030724Y-114426198D01*
X124030722Y-114426197D01*
X123868319Y-114353891D01*
X123868318Y-114353891D01*
X123862288Y-114351206D01*
X123768888Y-114331353D01*
X123681944Y-114312872D01*
X123681939Y-114312872D01*
X123675487Y-114311500D01*
X123484513Y-114311500D01*
X123478061Y-114312872D01*
X123478056Y-114312872D01*
X123391112Y-114331353D01*
X123297712Y-114351206D01*
X123291682Y-114353891D01*
X123291681Y-114353891D01*
X123129278Y-114426197D01*
X123129276Y-114426198D01*
X123123248Y-114428882D01*
X122968747Y-114541134D01*
X122964326Y-114546044D01*
X122964325Y-114546045D01*
X122882821Y-114636565D01*
X122840960Y-114683056D01*
X122783059Y-114783343D01*
X122752931Y-114835527D01*
X122745473Y-114848444D01*
X122686458Y-115030072D01*
X122685768Y-115036633D01*
X122685768Y-115036635D01*
X122677627Y-115114091D01*
X122666496Y-115220000D01*
X117226558Y-115220000D01*
X117251223Y-115177279D01*
X117251224Y-115177278D01*
X117254527Y-115171556D01*
X117313542Y-114989928D01*
X117330310Y-114830394D01*
X117332814Y-114806565D01*
X117333504Y-114800000D01*
X117320697Y-114678148D01*
X117314232Y-114616635D01*
X117314232Y-114616633D01*
X117313542Y-114610072D01*
X117254527Y-114428444D01*
X117216743Y-114363000D01*
X117200005Y-114294005D01*
X117216743Y-114237000D01*
X117251223Y-114177279D01*
X117251224Y-114177278D01*
X117254527Y-114171556D01*
X117313542Y-113989928D01*
X117317309Y-113954093D01*
X117332814Y-113806565D01*
X117333504Y-113800000D01*
X117316716Y-113640271D01*
X117314232Y-113616635D01*
X117314232Y-113616633D01*
X117313542Y-113610072D01*
X117254527Y-113428444D01*
X117225403Y-113378000D01*
X117208665Y-113309005D01*
X117225403Y-113252000D01*
X117251223Y-113207279D01*
X117251224Y-113207278D01*
X117254527Y-113201556D01*
X117313542Y-113019928D01*
X117322648Y-112933295D01*
X117332814Y-112836565D01*
X117333504Y-112830000D01*
X117321626Y-112716983D01*
X117314232Y-112646635D01*
X117314232Y-112646633D01*
X117313542Y-112640072D01*
X117254527Y-112458444D01*
X117159040Y-112293056D01*
X117136659Y-112268199D01*
X117035670Y-112156039D01*
X117035667Y-112156036D01*
X117031253Y-112151134D01*
X117025915Y-112147256D01*
X117025239Y-112146647D01*
X116988000Y-112086201D01*
X116984241Y-112039842D01*
X116996147Y-111926564D01*
X116996837Y-111920000D01*
X116981023Y-111769536D01*
X116977565Y-111736635D01*
X116977565Y-111736633D01*
X116976875Y-111730072D01*
X116917860Y-111548444D01*
X116913631Y-111541119D01*
X116884510Y-111490679D01*
X116867772Y-111421684D01*
X116884510Y-111364679D01*
X116894556Y-111347279D01*
X116894557Y-111347278D01*
X116897860Y-111341556D01*
X116956875Y-111159928D01*
X116958328Y-111146109D01*
X116976147Y-110976565D01*
X116976837Y-110970000D01*
X116974125Y-110944192D01*
X116957565Y-110786635D01*
X116957565Y-110786633D01*
X116956875Y-110780072D01*
X116897860Y-110598444D01*
X116887116Y-110579834D01*
X116805674Y-110438774D01*
X116802373Y-110433056D01*
X116776171Y-110403955D01*
X116679008Y-110296045D01*
X116679007Y-110296044D01*
X116674586Y-110291134D01*
X116659261Y-110280000D01*
X126416496Y-110280000D01*
X126417186Y-110286565D01*
X126433184Y-110438774D01*
X126436458Y-110469928D01*
X126495473Y-110651556D01*
X126498776Y-110657278D01*
X126498777Y-110657279D01*
X126501943Y-110662763D01*
X126590960Y-110816944D01*
X126595378Y-110821851D01*
X126595379Y-110821852D01*
X126682648Y-110918774D01*
X126718747Y-110958866D01*
X126873248Y-111071118D01*
X126879276Y-111073802D01*
X126879278Y-111073803D01*
X127030150Y-111140975D01*
X127047712Y-111148794D01*
X127129629Y-111166206D01*
X127228056Y-111187128D01*
X127228061Y-111187128D01*
X127234513Y-111188500D01*
X127425487Y-111188500D01*
X127431939Y-111187128D01*
X127431944Y-111187128D01*
X127530371Y-111166206D01*
X127612288Y-111148794D01*
X127629850Y-111140975D01*
X127780722Y-111073803D01*
X127780724Y-111073802D01*
X127786752Y-111071118D01*
X127792090Y-111067240D01*
X127792093Y-111067238D01*
X127796147Y-111064292D01*
X127863015Y-111040434D01*
X127932166Y-111056516D01*
X127981646Y-111107430D01*
X127995745Y-111177013D01*
X127990040Y-111205165D01*
X127936458Y-111370072D01*
X127935768Y-111376633D01*
X127935768Y-111376635D01*
X127928747Y-111443435D01*
X127916496Y-111560000D01*
X127917186Y-111566565D01*
X127934062Y-111727128D01*
X127936458Y-111749928D01*
X127995473Y-111931556D01*
X127998776Y-111937278D01*
X127998777Y-111937279D01*
X128024150Y-111981226D01*
X128090960Y-112096944D01*
X128095378Y-112101851D01*
X128095379Y-112101852D01*
X128144169Y-112156039D01*
X128218747Y-112238866D01*
X128224090Y-112242748D01*
X128228931Y-112246265D01*
X128272284Y-112302489D01*
X128278358Y-112373225D01*
X128248504Y-112432510D01*
X128130960Y-112563056D01*
X128114813Y-112591024D01*
X128050193Y-112702949D01*
X128035473Y-112728444D01*
X127976458Y-112910072D01*
X127975768Y-112916633D01*
X127975768Y-112916635D01*
X127964252Y-113026206D01*
X127956496Y-113100000D01*
X127957186Y-113106565D01*
X127973523Y-113262000D01*
X127976458Y-113289928D01*
X128035473Y-113471556D01*
X128038776Y-113477278D01*
X128038777Y-113477279D01*
X128072686Y-113536010D01*
X128130960Y-113636944D01*
X128135375Y-113641847D01*
X128135379Y-113641852D01*
X128184014Y-113695866D01*
X128257756Y-113777765D01*
X128258747Y-113778866D01*
X128258546Y-113779047D01*
X128293997Y-113836589D01*
X128292647Y-113907573D01*
X128266086Y-113954089D01*
X128140960Y-114093056D01*
X128045473Y-114258444D01*
X127986458Y-114440072D01*
X127985768Y-114446633D01*
X127985768Y-114446635D01*
X127969532Y-114601118D01*
X127966496Y-114630000D01*
X127967186Y-114636565D01*
X127985054Y-114806565D01*
X127986458Y-114819928D01*
X128045473Y-115001556D01*
X128048776Y-115007278D01*
X128048777Y-115007279D01*
X128053931Y-115016206D01*
X128140960Y-115166944D01*
X128145378Y-115171851D01*
X128145379Y-115171852D01*
X128255366Y-115294005D01*
X128268747Y-115308866D01*
X128423248Y-115421118D01*
X128429276Y-115423802D01*
X128429278Y-115423803D01*
X128586843Y-115493955D01*
X128597712Y-115498794D01*
X128691112Y-115518647D01*
X128778056Y-115537128D01*
X128778061Y-115537128D01*
X128784513Y-115538500D01*
X128975487Y-115538500D01*
X128981939Y-115537128D01*
X128981944Y-115537128D01*
X129068888Y-115518647D01*
X129162288Y-115498794D01*
X129173157Y-115493955D01*
X129330722Y-115423803D01*
X129330724Y-115423802D01*
X129336752Y-115421118D01*
X129491253Y-115308866D01*
X129504634Y-115294005D01*
X129614621Y-115171852D01*
X129614622Y-115171851D01*
X129619040Y-115166944D01*
X129706069Y-115016206D01*
X129711223Y-115007279D01*
X129711224Y-115007278D01*
X129714527Y-115001556D01*
X129773542Y-114819928D01*
X129774947Y-114806565D01*
X129792814Y-114636565D01*
X129793504Y-114630000D01*
X129790468Y-114601118D01*
X129774232Y-114446635D01*
X129774232Y-114446633D01*
X129773542Y-114440072D01*
X129714527Y-114258444D01*
X129619040Y-114093056D01*
X129594785Y-114066118D01*
X129495678Y-113956048D01*
X129495676Y-113956046D01*
X129491253Y-113951134D01*
X129491454Y-113950953D01*
X129456003Y-113893411D01*
X129457353Y-113822427D01*
X129483914Y-113775911D01*
X129609040Y-113636944D01*
X129667314Y-113536010D01*
X129701223Y-113477279D01*
X129701224Y-113477278D01*
X129704527Y-113471556D01*
X129763542Y-113289928D01*
X129766478Y-113262000D01*
X129782814Y-113106565D01*
X129783504Y-113100000D01*
X129775748Y-113026206D01*
X129764232Y-112916635D01*
X129764232Y-112916633D01*
X129763542Y-112910072D01*
X129704527Y-112728444D01*
X129689808Y-112702949D01*
X129625187Y-112591024D01*
X129609040Y-112563056D01*
X129481253Y-112421134D01*
X129471069Y-112413735D01*
X129427716Y-112357511D01*
X129421642Y-112286775D01*
X129451496Y-112227490D01*
X129564621Y-112101852D01*
X129564622Y-112101851D01*
X129569040Y-112096944D01*
X129635850Y-111981226D01*
X129661223Y-111937279D01*
X129661224Y-111937278D01*
X129664527Y-111931556D01*
X129723542Y-111749928D01*
X129725939Y-111727128D01*
X129742814Y-111566565D01*
X129743504Y-111560000D01*
X129731253Y-111443435D01*
X129724232Y-111376635D01*
X129724232Y-111376633D01*
X129723542Y-111370072D01*
X129664527Y-111188444D01*
X129569040Y-111023056D01*
X129561994Y-111015230D01*
X129445675Y-110886045D01*
X129445674Y-110886044D01*
X129441253Y-110881134D01*
X129293513Y-110773794D01*
X129292094Y-110772763D01*
X129292093Y-110772762D01*
X129286752Y-110768882D01*
X129280724Y-110766198D01*
X129280722Y-110766197D01*
X129118319Y-110693891D01*
X129118318Y-110693891D01*
X129112288Y-110691206D01*
X129011628Y-110669810D01*
X128931944Y-110652872D01*
X128931939Y-110652872D01*
X128925487Y-110651500D01*
X128734513Y-110651500D01*
X128728061Y-110652872D01*
X128728056Y-110652872D01*
X128648372Y-110669810D01*
X128547712Y-110691206D01*
X128541682Y-110693891D01*
X128541681Y-110693891D01*
X128379278Y-110766197D01*
X128379276Y-110766198D01*
X128373248Y-110768882D01*
X128367910Y-110772760D01*
X128367907Y-110772762D01*
X128363853Y-110775708D01*
X128296985Y-110799566D01*
X128227834Y-110783484D01*
X128178354Y-110732570D01*
X128164255Y-110662987D01*
X128169960Y-110634835D01*
X128221502Y-110476206D01*
X128223542Y-110469928D01*
X128226817Y-110438774D01*
X128242814Y-110286565D01*
X128243504Y-110280000D01*
X128230774Y-110158882D01*
X128224232Y-110096635D01*
X128224232Y-110096633D01*
X128223542Y-110090072D01*
X128164527Y-109908444D01*
X128069040Y-109743056D01*
X128063196Y-109736565D01*
X128057285Y-109730000D01*
X131946496Y-109730000D01*
X131947186Y-109736565D01*
X131955770Y-109818233D01*
X131966458Y-109919928D01*
X132025473Y-110101556D01*
X132028776Y-110107278D01*
X132028777Y-110107279D01*
X132058570Y-110158882D01*
X132120960Y-110266944D01*
X132125378Y-110271851D01*
X132125379Y-110271852D01*
X132242501Y-110401929D01*
X132248747Y-110408866D01*
X132403248Y-110521118D01*
X132409276Y-110523802D01*
X132409278Y-110523803D01*
X132571681Y-110596109D01*
X132577712Y-110598794D01*
X132671113Y-110618647D01*
X132758056Y-110637128D01*
X132758061Y-110637128D01*
X132764513Y-110638500D01*
X132955487Y-110638500D01*
X132961939Y-110637128D01*
X132961944Y-110637128D01*
X133048888Y-110618647D01*
X133142288Y-110598794D01*
X133148319Y-110596109D01*
X133310722Y-110523803D01*
X133310724Y-110523802D01*
X133316752Y-110521118D01*
X133471253Y-110408866D01*
X133477499Y-110401929D01*
X133594621Y-110271852D01*
X133594622Y-110271851D01*
X133599040Y-110266944D01*
X133661430Y-110158882D01*
X133691223Y-110107279D01*
X133691224Y-110107278D01*
X133694527Y-110101556D01*
X133753542Y-109919928D01*
X133764231Y-109818233D01*
X133772814Y-109736565D01*
X133773504Y-109730000D01*
X133753542Y-109540072D01*
X133694527Y-109358444D01*
X133690298Y-109351118D01*
X133613900Y-109218794D01*
X133599040Y-109193056D01*
X133554693Y-109143803D01*
X133475675Y-109056045D01*
X133475674Y-109056044D01*
X133471253Y-109051134D01*
X133316752Y-108938882D01*
X133310724Y-108936198D01*
X133310722Y-108936197D01*
X133148319Y-108863891D01*
X133148318Y-108863891D01*
X133142288Y-108861206D01*
X133048888Y-108841353D01*
X132961944Y-108822872D01*
X132961939Y-108822872D01*
X132955487Y-108821500D01*
X132764513Y-108821500D01*
X132758061Y-108822872D01*
X132758056Y-108822872D01*
X132671112Y-108841353D01*
X132577712Y-108861206D01*
X132571682Y-108863891D01*
X132571681Y-108863891D01*
X132409278Y-108936197D01*
X132409276Y-108936198D01*
X132403248Y-108938882D01*
X132248747Y-109051134D01*
X132244326Y-109056044D01*
X132244325Y-109056045D01*
X132165308Y-109143803D01*
X132120960Y-109193056D01*
X132106100Y-109218794D01*
X132029703Y-109351118D01*
X132025473Y-109358444D01*
X131966458Y-109540072D01*
X131946496Y-109730000D01*
X128057285Y-109730000D01*
X127945675Y-109606045D01*
X127945674Y-109606044D01*
X127941253Y-109601134D01*
X127786752Y-109488882D01*
X127780724Y-109486198D01*
X127780722Y-109486197D01*
X127618319Y-109413891D01*
X127618318Y-109413891D01*
X127612288Y-109411206D01*
X127518888Y-109391353D01*
X127431944Y-109372872D01*
X127431939Y-109372872D01*
X127425487Y-109371500D01*
X127234513Y-109371500D01*
X127228061Y-109372872D01*
X127228056Y-109372872D01*
X127141113Y-109391353D01*
X127047712Y-109411206D01*
X127041682Y-109413891D01*
X127041681Y-109413891D01*
X126879278Y-109486197D01*
X126879276Y-109486198D01*
X126873248Y-109488882D01*
X126718747Y-109601134D01*
X126714326Y-109606044D01*
X126714325Y-109606045D01*
X126596805Y-109736565D01*
X126590960Y-109743056D01*
X126495473Y-109908444D01*
X126436458Y-110090072D01*
X126435768Y-110096633D01*
X126435768Y-110096635D01*
X126429226Y-110158882D01*
X126416496Y-110280000D01*
X116659261Y-110280000D01*
X116520085Y-110178882D01*
X116514057Y-110176198D01*
X116514055Y-110176197D01*
X116351652Y-110103891D01*
X116351651Y-110103891D01*
X116345621Y-110101206D01*
X116245074Y-110079834D01*
X116165277Y-110062872D01*
X116165272Y-110062872D01*
X116158820Y-110061500D01*
X115967846Y-110061500D01*
X115961394Y-110062872D01*
X115961389Y-110062872D01*
X115881592Y-110079834D01*
X115781045Y-110101206D01*
X115775015Y-110103891D01*
X115775014Y-110103891D01*
X115740272Y-110119359D01*
X115659145Y-110155479D01*
X115588779Y-110164913D01*
X115556648Y-110155479D01*
X115418319Y-110093891D01*
X115418318Y-110093891D01*
X115412288Y-110091206D01*
X115318887Y-110071353D01*
X115231944Y-110052872D01*
X115231939Y-110052872D01*
X115225487Y-110051500D01*
X115034513Y-110051500D01*
X115028061Y-110052872D01*
X115028056Y-110052872D01*
X114941112Y-110071353D01*
X114847712Y-110091206D01*
X114841682Y-110093891D01*
X114841681Y-110093891D01*
X114824465Y-110101556D01*
X114725812Y-110145479D01*
X114655446Y-110154913D01*
X114623315Y-110145479D01*
X114484986Y-110083891D01*
X114484985Y-110083891D01*
X114478955Y-110081206D01*
X114385555Y-110061353D01*
X114298611Y-110042872D01*
X114298606Y-110042872D01*
X114292154Y-110041500D01*
X114101180Y-110041500D01*
X114094728Y-110042872D01*
X114094723Y-110042872D01*
X113914379Y-110081206D01*
X113913946Y-110079167D01*
X113852784Y-110080922D01*
X113791982Y-110044267D01*
X113781741Y-110031547D01*
X113715157Y-109936881D01*
X113715154Y-109936877D01*
X113711596Y-109931819D01*
X113595915Y-109821546D01*
X113562972Y-109800657D01*
X113516154Y-109747286D01*
X113504447Y-109694247D01*
X113504447Y-105860000D01*
X113986496Y-105860000D01*
X113987186Y-105866565D01*
X114003011Y-106017128D01*
X114006458Y-106049928D01*
X114065473Y-106231556D01*
X114160960Y-106396944D01*
X114165378Y-106401851D01*
X114165379Y-106401852D01*
X114215286Y-106457279D01*
X114288747Y-106538866D01*
X114369524Y-106597554D01*
X114421437Y-106635271D01*
X114443248Y-106651118D01*
X114449274Y-106653801D01*
X114449281Y-106653805D01*
X114499839Y-106676314D01*
X114553935Y-106722294D01*
X114574585Y-106790221D01*
X114557710Y-106854421D01*
X114524740Y-106911527D01*
X114514973Y-106928444D01*
X114455958Y-107110072D01*
X114455268Y-107116633D01*
X114455268Y-107116635D01*
X114451779Y-107149834D01*
X114435996Y-107300000D01*
X114436686Y-107306565D01*
X114453869Y-107470049D01*
X114455958Y-107489928D01*
X114514973Y-107671556D01*
X114610460Y-107836944D01*
X114614878Y-107841851D01*
X114614879Y-107841852D01*
X114666215Y-107898866D01*
X114738247Y-107978866D01*
X114892748Y-108091118D01*
X114898776Y-108093802D01*
X114898778Y-108093803D01*
X115033521Y-108153794D01*
X115067212Y-108168794D01*
X115159657Y-108188444D01*
X115247556Y-108207128D01*
X115247561Y-108207128D01*
X115254013Y-108208500D01*
X115444987Y-108208500D01*
X115451439Y-108207128D01*
X115451444Y-108207128D01*
X115539343Y-108188444D01*
X115631788Y-108168794D01*
X115665479Y-108153794D01*
X115800222Y-108093803D01*
X115800224Y-108093802D01*
X115806252Y-108091118D01*
X115960753Y-107978866D01*
X116032785Y-107898866D01*
X116084121Y-107841852D01*
X116084122Y-107841851D01*
X116088540Y-107836944D01*
X116184027Y-107671556D01*
X116187789Y-107659977D01*
X120896519Y-107659977D01*
X120897209Y-107666542D01*
X120915635Y-107841852D01*
X120916481Y-107849905D01*
X120975496Y-108031533D01*
X120978799Y-108037255D01*
X120978800Y-108037256D01*
X120982875Y-108044314D01*
X121070983Y-108196921D01*
X121075401Y-108201828D01*
X121075402Y-108201829D01*
X121183205Y-108321556D01*
X121198770Y-108338843D01*
X121250786Y-108376635D01*
X121314960Y-108423260D01*
X121353271Y-108451095D01*
X121359299Y-108453779D01*
X121359301Y-108453780D01*
X121489570Y-108511779D01*
X121527735Y-108528771D01*
X121609760Y-108546206D01*
X121708079Y-108567105D01*
X121708084Y-108567105D01*
X121714536Y-108568477D01*
X121905510Y-108568477D01*
X121911962Y-108567105D01*
X121911967Y-108567105D01*
X121945392Y-108560000D01*
X124786496Y-108560000D01*
X124787186Y-108566565D01*
X124804078Y-108727279D01*
X124806458Y-108749928D01*
X124865473Y-108931556D01*
X124868776Y-108937278D01*
X124868777Y-108937279D01*
X124871943Y-108942763D01*
X124960960Y-109096944D01*
X124965378Y-109101851D01*
X124965379Y-109101852D01*
X125070674Y-109218794D01*
X125088747Y-109238866D01*
X125243248Y-109351118D01*
X125249276Y-109353802D01*
X125249278Y-109353803D01*
X125384239Y-109413891D01*
X125417712Y-109428794D01*
X125511113Y-109448647D01*
X125598056Y-109467128D01*
X125598061Y-109467128D01*
X125604513Y-109468500D01*
X125795487Y-109468500D01*
X125801939Y-109467128D01*
X125801944Y-109467128D01*
X125888888Y-109448647D01*
X125982288Y-109428794D01*
X126015761Y-109413891D01*
X126150722Y-109353803D01*
X126150724Y-109353802D01*
X126156752Y-109351118D01*
X126311253Y-109238866D01*
X126329326Y-109218794D01*
X126434621Y-109101852D01*
X126434622Y-109101851D01*
X126439040Y-109096944D01*
X126528057Y-108942763D01*
X126531223Y-108937279D01*
X126531224Y-108937278D01*
X126534527Y-108931556D01*
X126593542Y-108749928D01*
X126595923Y-108727279D01*
X126612814Y-108566565D01*
X126613504Y-108560000D01*
X126603610Y-108465864D01*
X126594232Y-108376635D01*
X126594232Y-108376633D01*
X126593542Y-108370072D01*
X126587020Y-108350000D01*
X133506496Y-108350000D01*
X133507186Y-108356565D01*
X133525430Y-108530143D01*
X133526458Y-108539928D01*
X133585473Y-108721556D01*
X133680960Y-108886944D01*
X133685378Y-108891851D01*
X133685379Y-108891852D01*
X133804325Y-109023955D01*
X133808747Y-109028866D01*
X133963248Y-109141118D01*
X133969276Y-109143802D01*
X133969278Y-109143803D01*
X134079903Y-109193056D01*
X134137712Y-109218794D01*
X134231112Y-109238647D01*
X134318056Y-109257128D01*
X134318061Y-109257128D01*
X134324513Y-109258500D01*
X134515487Y-109258500D01*
X134521939Y-109257128D01*
X134521944Y-109257128D01*
X134608888Y-109238647D01*
X134702288Y-109218794D01*
X134760097Y-109193056D01*
X134870722Y-109143803D01*
X134870724Y-109143802D01*
X134876752Y-109141118D01*
X135031253Y-109028866D01*
X135035675Y-109023955D01*
X135154621Y-108891852D01*
X135154622Y-108891851D01*
X135159040Y-108886944D01*
X135254527Y-108721556D01*
X135313542Y-108539928D01*
X135314571Y-108530143D01*
X135332814Y-108356565D01*
X135333504Y-108350000D01*
X135320239Y-108223787D01*
X135314232Y-108166635D01*
X135314232Y-108166633D01*
X135313542Y-108160072D01*
X135311502Y-108153794D01*
X135310129Y-108147334D01*
X135312219Y-108146890D01*
X135310480Y-108085910D01*
X135347145Y-108025114D01*
X135365393Y-108011723D01*
X135366752Y-108011118D01*
X135521253Y-107898866D01*
X135609776Y-107800551D01*
X135644621Y-107761852D01*
X135644622Y-107761851D01*
X135649040Y-107756944D01*
X135744527Y-107591556D01*
X135803542Y-107409928D01*
X135817885Y-107273467D01*
X135822814Y-107226565D01*
X135823504Y-107220000D01*
X135814969Y-107138794D01*
X135804232Y-107036635D01*
X135804232Y-107036633D01*
X135803542Y-107030072D01*
X135744527Y-106848444D01*
X135649040Y-106683056D01*
X135642970Y-106676314D01*
X135525675Y-106546045D01*
X135525674Y-106546044D01*
X135521253Y-106541134D01*
X135397960Y-106451556D01*
X135372094Y-106432763D01*
X135372093Y-106432762D01*
X135366752Y-106428882D01*
X135360724Y-106426198D01*
X135360722Y-106426197D01*
X135198319Y-106353891D01*
X135198318Y-106353891D01*
X135192288Y-106351206D01*
X135093901Y-106330293D01*
X135011944Y-106312872D01*
X135011939Y-106312872D01*
X135005487Y-106311500D01*
X134814513Y-106311500D01*
X134808061Y-106312872D01*
X134808056Y-106312872D01*
X134726099Y-106330293D01*
X134627712Y-106351206D01*
X134621682Y-106353891D01*
X134621681Y-106353891D01*
X134459278Y-106426197D01*
X134459276Y-106426198D01*
X134453248Y-106428882D01*
X134447907Y-106432762D01*
X134447906Y-106432763D01*
X134422040Y-106451556D01*
X134298747Y-106541134D01*
X134294326Y-106546044D01*
X134294325Y-106546045D01*
X134177031Y-106676314D01*
X134170960Y-106683056D01*
X134075473Y-106848444D01*
X134016458Y-107030072D01*
X134015768Y-107036633D01*
X134015768Y-107036635D01*
X134005031Y-107138794D01*
X133996496Y-107220000D01*
X133997186Y-107226565D01*
X134002116Y-107273467D01*
X134016458Y-107409928D01*
X134018498Y-107416205D01*
X134019871Y-107422666D01*
X134017781Y-107423110D01*
X134019520Y-107484090D01*
X133982855Y-107544886D01*
X133964607Y-107558277D01*
X133963248Y-107558882D01*
X133808747Y-107671134D01*
X133804326Y-107676044D01*
X133804325Y-107676045D01*
X133692220Y-107800551D01*
X133680960Y-107813056D01*
X133585473Y-107978444D01*
X133526458Y-108160072D01*
X133525768Y-108166633D01*
X133525768Y-108166635D01*
X133519761Y-108223787D01*
X133506496Y-108350000D01*
X126587020Y-108350000D01*
X126534527Y-108188444D01*
X126439040Y-108023056D01*
X126402748Y-107982749D01*
X126315675Y-107886045D01*
X126315674Y-107886044D01*
X126311253Y-107881134D01*
X126210797Y-107808148D01*
X126162094Y-107772763D01*
X126162093Y-107772762D01*
X126156752Y-107768882D01*
X126150724Y-107766198D01*
X126150722Y-107766197D01*
X125988319Y-107693891D01*
X125988318Y-107693891D01*
X125982288Y-107691206D01*
X125881638Y-107669812D01*
X125801944Y-107652872D01*
X125801939Y-107652872D01*
X125795487Y-107651500D01*
X125604513Y-107651500D01*
X125598061Y-107652872D01*
X125598056Y-107652872D01*
X125518362Y-107669812D01*
X125417712Y-107691206D01*
X125411682Y-107693891D01*
X125411681Y-107693891D01*
X125249278Y-107766197D01*
X125249276Y-107766198D01*
X125243248Y-107768882D01*
X125237907Y-107772762D01*
X125237906Y-107772763D01*
X125189203Y-107808148D01*
X125088747Y-107881134D01*
X125084326Y-107886044D01*
X125084325Y-107886045D01*
X124997253Y-107982749D01*
X124960960Y-108023056D01*
X124865473Y-108188444D01*
X124806458Y-108370072D01*
X124805768Y-108376633D01*
X124805768Y-108376635D01*
X124796390Y-108465864D01*
X124786496Y-108560000D01*
X121945392Y-108560000D01*
X122010286Y-108546206D01*
X122092311Y-108528771D01*
X122130476Y-108511779D01*
X122260745Y-108453780D01*
X122260747Y-108453779D01*
X122266775Y-108451095D01*
X122305087Y-108423260D01*
X122369260Y-108376635D01*
X122421276Y-108338843D01*
X122436841Y-108321556D01*
X122544644Y-108201829D01*
X122544645Y-108201828D01*
X122549063Y-108196921D01*
X122637171Y-108044314D01*
X122641246Y-108037256D01*
X122641247Y-108037255D01*
X122644550Y-108031533D01*
X122703565Y-107849905D01*
X122704412Y-107841852D01*
X122722837Y-107666542D01*
X122723527Y-107659977D01*
X122706314Y-107496206D01*
X122704255Y-107476612D01*
X122704255Y-107476610D01*
X122703565Y-107470049D01*
X122644550Y-107288421D01*
X122632328Y-107267251D01*
X122595761Y-107203917D01*
X122549063Y-107123033D01*
X122529054Y-107100810D01*
X122425698Y-106986022D01*
X122425697Y-106986021D01*
X122421276Y-106981111D01*
X122266775Y-106868859D01*
X122260747Y-106866175D01*
X122260745Y-106866174D01*
X122098342Y-106793868D01*
X122098341Y-106793868D01*
X122092311Y-106791183D01*
X121986886Y-106768774D01*
X121911967Y-106752849D01*
X121911962Y-106752849D01*
X121905510Y-106751477D01*
X121714536Y-106751477D01*
X121708084Y-106752849D01*
X121708079Y-106752849D01*
X121633160Y-106768774D01*
X121527735Y-106791183D01*
X121521705Y-106793868D01*
X121521704Y-106793868D01*
X121359301Y-106866174D01*
X121359299Y-106866175D01*
X121353271Y-106868859D01*
X121198770Y-106981111D01*
X121194349Y-106986021D01*
X121194348Y-106986022D01*
X121090993Y-107100810D01*
X121070983Y-107123033D01*
X121024285Y-107203917D01*
X120987719Y-107267251D01*
X120975496Y-107288421D01*
X120916481Y-107470049D01*
X120915791Y-107476610D01*
X120915791Y-107476612D01*
X120913732Y-107496206D01*
X120896519Y-107659977D01*
X116187789Y-107659977D01*
X116243042Y-107489928D01*
X116245132Y-107470049D01*
X116262314Y-107306565D01*
X116263004Y-107300000D01*
X116247221Y-107149834D01*
X116243732Y-107116635D01*
X116243732Y-107116633D01*
X116243042Y-107110072D01*
X116184027Y-106928444D01*
X116088540Y-106763056D01*
X116080346Y-106753955D01*
X115965175Y-106626045D01*
X115965174Y-106626044D01*
X115960753Y-106621134D01*
X115847521Y-106538866D01*
X115811594Y-106512763D01*
X115811593Y-106512762D01*
X115806252Y-106508882D01*
X115800226Y-106506199D01*
X115800219Y-106506195D01*
X115749661Y-106483686D01*
X115695565Y-106437706D01*
X115674915Y-106369779D01*
X115691790Y-106305579D01*
X115731223Y-106237279D01*
X115731224Y-106237278D01*
X115734527Y-106231556D01*
X115783771Y-106080000D01*
X125166496Y-106080000D01*
X125186458Y-106269928D01*
X125245473Y-106451556D01*
X125248776Y-106457278D01*
X125248777Y-106457279D01*
X125253931Y-106466206D01*
X125340960Y-106616944D01*
X125345378Y-106621851D01*
X125345379Y-106621852D01*
X125357462Y-106635271D01*
X125468747Y-106758866D01*
X125541669Y-106811847D01*
X125600691Y-106854729D01*
X125623248Y-106871118D01*
X125629276Y-106873802D01*
X125629278Y-106873803D01*
X125752005Y-106928444D01*
X125797712Y-106948794D01*
X125891113Y-106968647D01*
X125978056Y-106987128D01*
X125978061Y-106987128D01*
X125984513Y-106988500D01*
X126175487Y-106988500D01*
X126181939Y-106987128D01*
X126181944Y-106987128D01*
X126268887Y-106968647D01*
X126362288Y-106948794D01*
X126407995Y-106928444D01*
X126530722Y-106873803D01*
X126530724Y-106873802D01*
X126536752Y-106871118D01*
X126559310Y-106854729D01*
X126618331Y-106811847D01*
X126691253Y-106758866D01*
X126802538Y-106635271D01*
X126814621Y-106621852D01*
X126814622Y-106621851D01*
X126819040Y-106616944D01*
X126906069Y-106466206D01*
X126911223Y-106457279D01*
X126911224Y-106457278D01*
X126914527Y-106451556D01*
X126973542Y-106269928D01*
X126993504Y-106080000D01*
X126990222Y-106048777D01*
X127002994Y-105978940D01*
X127051495Y-105927093D01*
X127120328Y-105909698D01*
X127166781Y-105920500D01*
X127275252Y-105968794D01*
X127297712Y-105978794D01*
X127379271Y-105996130D01*
X127478056Y-106017128D01*
X127478061Y-106017128D01*
X127484513Y-106018500D01*
X127675487Y-106018500D01*
X127681939Y-106017128D01*
X127681944Y-106017128D01*
X127780729Y-105996130D01*
X127862288Y-105978794D01*
X127884749Y-105968794D01*
X128003751Y-105915811D01*
X128074118Y-105906377D01*
X128106249Y-105915811D01*
X128225252Y-105968794D01*
X128247712Y-105978794D01*
X128329271Y-105996130D01*
X128428056Y-106017128D01*
X128428061Y-106017128D01*
X128434513Y-106018500D01*
X128625487Y-106018500D01*
X128631939Y-106017128D01*
X128631944Y-106017128D01*
X128730729Y-105996130D01*
X128812288Y-105978794D01*
X128834749Y-105968794D01*
X128902130Y-105938794D01*
X128954982Y-105915263D01*
X129025348Y-105905829D01*
X129057478Y-105915263D01*
X129084050Y-105927093D01*
X129151510Y-105957128D01*
X129177712Y-105968794D01*
X129263966Y-105987128D01*
X129358056Y-106007128D01*
X129358061Y-106007128D01*
X129364513Y-106008500D01*
X129555487Y-106008500D01*
X129561939Y-106007128D01*
X129561944Y-106007128D01*
X129656034Y-105987128D01*
X129742288Y-105968794D01*
X129768491Y-105957128D01*
X129835950Y-105927093D01*
X129908673Y-105894715D01*
X129979039Y-105885281D01*
X130011166Y-105894714D01*
X130087712Y-105928794D01*
X130122126Y-105936109D01*
X130268056Y-105967128D01*
X130268061Y-105967128D01*
X130274513Y-105968500D01*
X130465487Y-105968500D01*
X130471939Y-105967128D01*
X130471944Y-105967128D01*
X130558888Y-105948647D01*
X130652288Y-105928794D01*
X130674749Y-105918794D01*
X130772521Y-105875263D01*
X130842888Y-105865829D01*
X130875017Y-105875262D01*
X130943671Y-105905829D01*
X130995252Y-105928794D01*
X131017712Y-105938794D01*
X131083365Y-105952749D01*
X131198056Y-105977128D01*
X131198061Y-105977128D01*
X131204513Y-105978500D01*
X131395487Y-105978500D01*
X131401939Y-105977128D01*
X131401944Y-105977128D01*
X131516635Y-105952749D01*
X131582288Y-105938794D01*
X131588315Y-105936111D01*
X131588323Y-105936108D01*
X131682522Y-105894168D01*
X131752889Y-105884734D01*
X131785018Y-105894168D01*
X131901677Y-105946108D01*
X131901685Y-105946111D01*
X131907712Y-105948794D01*
X131993966Y-105967128D01*
X132088056Y-105987128D01*
X132088061Y-105987128D01*
X132094513Y-105988500D01*
X132285487Y-105988500D01*
X132291939Y-105987128D01*
X132291944Y-105987128D01*
X132386034Y-105967128D01*
X132472288Y-105948794D01*
X132491667Y-105940166D01*
X132640722Y-105873803D01*
X132640724Y-105873802D01*
X132646752Y-105871118D01*
X132652094Y-105867237D01*
X132653015Y-105866705D01*
X132722010Y-105849966D01*
X132767266Y-105860716D01*
X132821212Y-105884734D01*
X132897712Y-105918794D01*
X132991113Y-105938647D01*
X133078056Y-105957128D01*
X133078061Y-105957128D01*
X133084513Y-105958500D01*
X133275487Y-105958500D01*
X133281939Y-105957128D01*
X133281944Y-105957128D01*
X133368888Y-105938647D01*
X133462288Y-105918794D01*
X133482718Y-105909698D01*
X133630722Y-105843803D01*
X133630724Y-105843802D01*
X133636752Y-105841118D01*
X133651151Y-105830657D01*
X133775851Y-105740056D01*
X133791253Y-105728866D01*
X133905731Y-105601725D01*
X133914621Y-105591852D01*
X133914622Y-105591851D01*
X133919040Y-105586944D01*
X133993197Y-105458500D01*
X134011223Y-105427279D01*
X134011224Y-105427278D01*
X134014527Y-105421556D01*
X134073542Y-105239928D01*
X134075221Y-105223959D01*
X134092814Y-105056565D01*
X134093504Y-105050000D01*
X134077575Y-104898444D01*
X134074232Y-104866635D01*
X134074232Y-104866633D01*
X134073542Y-104860072D01*
X134014527Y-104678444D01*
X134014051Y-104677620D01*
X134004895Y-104609333D01*
X134020316Y-104565452D01*
X134074527Y-104471556D01*
X134133542Y-104289928D01*
X134134728Y-104278650D01*
X134152814Y-104106565D01*
X134153504Y-104100000D01*
X134142122Y-103991703D01*
X134134232Y-103916635D01*
X134134232Y-103916633D01*
X134133542Y-103910072D01*
X134074527Y-103728444D01*
X134071313Y-103722878D01*
X134061889Y-103652575D01*
X134077311Y-103608697D01*
X134101221Y-103567283D01*
X134101223Y-103567279D01*
X134104527Y-103561556D01*
X134163542Y-103379928D01*
X134183504Y-103190000D01*
X134179105Y-103148148D01*
X134164232Y-103006635D01*
X134164232Y-103006633D01*
X134163542Y-103000072D01*
X134104527Y-102818444D01*
X134083990Y-102782872D01*
X134067314Y-102753990D01*
X134009040Y-102653056D01*
X133999735Y-102642721D01*
X133885675Y-102516045D01*
X133885674Y-102516044D01*
X133881253Y-102511134D01*
X133726752Y-102398882D01*
X133720724Y-102396198D01*
X133720722Y-102396197D01*
X133558319Y-102323891D01*
X133558318Y-102323891D01*
X133552288Y-102321206D01*
X133458888Y-102301353D01*
X133371944Y-102282872D01*
X133371939Y-102282872D01*
X133365487Y-102281500D01*
X133174513Y-102281500D01*
X133168061Y-102282872D01*
X133168056Y-102282872D01*
X133081113Y-102301353D01*
X132987712Y-102321206D01*
X132981682Y-102323891D01*
X132981681Y-102323891D01*
X132819278Y-102396197D01*
X132819276Y-102396198D01*
X132813248Y-102398882D01*
X132658747Y-102511134D01*
X132654326Y-102516044D01*
X132654325Y-102516045D01*
X132540266Y-102642721D01*
X132530960Y-102653056D01*
X132472686Y-102753990D01*
X132456011Y-102782872D01*
X132435473Y-102818444D01*
X132376458Y-103000072D01*
X132375768Y-103006633D01*
X132375768Y-103006635D01*
X132360895Y-103148148D01*
X132356496Y-103190000D01*
X132376458Y-103379928D01*
X132435473Y-103561556D01*
X132438687Y-103567122D01*
X132448111Y-103637425D01*
X132432689Y-103681303D01*
X132408779Y-103722717D01*
X132408777Y-103722721D01*
X132405473Y-103728444D01*
X132346458Y-103910072D01*
X132345768Y-103916633D01*
X132345768Y-103916635D01*
X132330840Y-104058670D01*
X132303827Y-104124327D01*
X132245605Y-104164957D01*
X132205530Y-104171500D01*
X132094513Y-104171500D01*
X132088061Y-104172872D01*
X132088056Y-104172872D01*
X132023746Y-104186542D01*
X131907712Y-104211206D01*
X131901685Y-104213889D01*
X131901677Y-104213892D01*
X131807478Y-104255832D01*
X131737111Y-104265266D01*
X131704982Y-104255832D01*
X131588323Y-104203892D01*
X131588315Y-104203889D01*
X131582288Y-104201206D01*
X131475202Y-104178444D01*
X131401944Y-104162872D01*
X131401939Y-104162872D01*
X131395487Y-104161500D01*
X131204513Y-104161500D01*
X131198061Y-104162872D01*
X131198056Y-104162872D01*
X131124798Y-104178444D01*
X131017712Y-104201206D01*
X131011682Y-104203891D01*
X131011681Y-104203891D01*
X130948880Y-104231852D01*
X130921840Y-104243891D01*
X130897479Y-104254737D01*
X130827112Y-104264171D01*
X130794983Y-104254738D01*
X130694127Y-104209834D01*
X130658319Y-104193891D01*
X130658318Y-104193891D01*
X130652288Y-104191206D01*
X130558888Y-104171353D01*
X130471944Y-104152872D01*
X130471939Y-104152872D01*
X130465487Y-104151500D01*
X130274513Y-104151500D01*
X130268061Y-104152872D01*
X130268056Y-104152872D01*
X130181113Y-104171353D01*
X130087712Y-104191206D01*
X130081682Y-104193891D01*
X130081681Y-104193891D01*
X130045873Y-104209834D01*
X129921327Y-104265285D01*
X129850961Y-104274719D01*
X129818834Y-104265286D01*
X129742288Y-104231206D01*
X129672914Y-104216460D01*
X129561944Y-104192872D01*
X129561939Y-104192872D01*
X129555487Y-104191500D01*
X129364513Y-104191500D01*
X129358061Y-104192872D01*
X129358056Y-104192872D01*
X129278259Y-104209834D01*
X129177712Y-104231206D01*
X129171682Y-104233891D01*
X129171681Y-104233891D01*
X129149221Y-104243891D01*
X129035018Y-104294737D01*
X128964652Y-104304171D01*
X128932521Y-104294737D01*
X128818319Y-104243891D01*
X128818318Y-104243891D01*
X128812288Y-104241206D01*
X128695868Y-104216460D01*
X128631944Y-104202872D01*
X128631939Y-104202872D01*
X128625487Y-104201500D01*
X128434513Y-104201500D01*
X128428061Y-104202872D01*
X128428056Y-104202872D01*
X128364132Y-104216460D01*
X128247712Y-104241206D01*
X128241682Y-104243891D01*
X128241681Y-104243891D01*
X128106249Y-104304189D01*
X128035882Y-104313623D01*
X128003751Y-104304189D01*
X127868319Y-104243891D01*
X127868318Y-104243891D01*
X127862288Y-104241206D01*
X127745868Y-104216460D01*
X127681944Y-104202872D01*
X127681939Y-104202872D01*
X127675487Y-104201500D01*
X127484513Y-104201500D01*
X127478060Y-104202872D01*
X127478056Y-104202872D01*
X127388716Y-104221862D01*
X127317925Y-104216460D01*
X127268883Y-104182926D01*
X127250040Y-104161999D01*
X127231253Y-104141134D01*
X127226014Y-104137328D01*
X127188798Y-104076923D01*
X127185037Y-104030560D01*
X127192814Y-103956565D01*
X127193504Y-103950000D01*
X127185731Y-103876045D01*
X127174232Y-103766635D01*
X127174232Y-103766633D01*
X127173542Y-103760072D01*
X127114527Y-103578444D01*
X127091949Y-103539339D01*
X127075212Y-103470345D01*
X127091950Y-103413340D01*
X127101223Y-103397279D01*
X127101224Y-103397278D01*
X127104527Y-103391556D01*
X127163542Y-103209928D01*
X127164947Y-103196565D01*
X127182814Y-103026565D01*
X127183504Y-103020000D01*
X127163542Y-102830072D01*
X127104527Y-102648444D01*
X127009040Y-102483056D01*
X126975687Y-102446013D01*
X126885675Y-102346045D01*
X126885674Y-102346044D01*
X126881253Y-102341134D01*
X126726752Y-102228882D01*
X126720724Y-102226198D01*
X126720722Y-102226197D01*
X126558319Y-102153891D01*
X126558318Y-102153891D01*
X126552288Y-102151206D01*
X126458887Y-102131353D01*
X126371944Y-102112872D01*
X126371939Y-102112872D01*
X126365487Y-102111500D01*
X126174513Y-102111500D01*
X126168061Y-102112872D01*
X126168056Y-102112872D01*
X126081113Y-102131353D01*
X125987712Y-102151206D01*
X125981682Y-102153891D01*
X125981681Y-102153891D01*
X125819278Y-102226197D01*
X125819276Y-102226198D01*
X125813248Y-102228882D01*
X125658747Y-102341134D01*
X125654326Y-102346044D01*
X125654325Y-102346045D01*
X125564314Y-102446013D01*
X125530960Y-102483056D01*
X125435473Y-102648444D01*
X125376458Y-102830072D01*
X125356496Y-103020000D01*
X125357186Y-103026565D01*
X125375054Y-103196565D01*
X125376458Y-103209928D01*
X125435473Y-103391556D01*
X125458051Y-103430661D01*
X125474788Y-103499655D01*
X125458050Y-103556660D01*
X125445473Y-103578444D01*
X125386458Y-103760072D01*
X125385768Y-103766633D01*
X125385768Y-103766635D01*
X125374269Y-103876045D01*
X125366496Y-103950000D01*
X125367186Y-103956565D01*
X125383810Y-104114729D01*
X125386458Y-104139928D01*
X125445473Y-104321556D01*
X125540960Y-104486944D01*
X125545378Y-104491851D01*
X125545379Y-104491852D01*
X125591825Y-104543435D01*
X125668747Y-104628866D01*
X125673990Y-104632675D01*
X125711203Y-104693081D01*
X125714963Y-104739439D01*
X125706496Y-104820000D01*
X125726458Y-105009928D01*
X125737345Y-105043435D01*
X125757539Y-105105585D01*
X125759567Y-105176552D01*
X125722904Y-105237350D01*
X125688957Y-105259627D01*
X125623248Y-105288882D01*
X125617907Y-105292762D01*
X125617906Y-105292763D01*
X125598828Y-105306624D01*
X125468747Y-105401134D01*
X125464326Y-105406044D01*
X125464325Y-105406045D01*
X125430121Y-105444033D01*
X125340960Y-105543056D01*
X125245473Y-105708444D01*
X125186458Y-105890072D01*
X125185768Y-105896633D01*
X125185768Y-105896635D01*
X125180142Y-105950166D01*
X125166496Y-106080000D01*
X115783771Y-106080000D01*
X115793542Y-106049928D01*
X115796990Y-106017128D01*
X115812814Y-105866565D01*
X115813504Y-105860000D01*
X115800130Y-105732749D01*
X115794232Y-105676635D01*
X115794232Y-105676633D01*
X115793542Y-105670072D01*
X115734527Y-105488444D01*
X115696885Y-105423247D01*
X115680148Y-105354255D01*
X115696886Y-105297249D01*
X115697767Y-105295724D01*
X115718607Y-105259628D01*
X115731223Y-105237776D01*
X115731224Y-105237775D01*
X115734527Y-105232053D01*
X115793542Y-105050425D01*
X115797799Y-105009928D01*
X115812814Y-104867062D01*
X115813504Y-104860497D01*
X115795923Y-104693225D01*
X120511489Y-104693225D01*
X120512179Y-104699790D01*
X120528732Y-104857279D01*
X120531451Y-104883153D01*
X120590466Y-105064781D01*
X120593769Y-105070503D01*
X120593770Y-105070504D01*
X120614024Y-105105585D01*
X120685953Y-105230169D01*
X120690371Y-105235076D01*
X120690372Y-105235077D01*
X120791618Y-105347522D01*
X120813740Y-105372091D01*
X120904121Y-105437757D01*
X120960725Y-105478882D01*
X120968241Y-105484343D01*
X120974269Y-105487027D01*
X120974271Y-105487028D01*
X121111121Y-105547957D01*
X121142705Y-105562019D01*
X121233066Y-105581226D01*
X121323049Y-105600353D01*
X121323054Y-105600353D01*
X121329506Y-105601725D01*
X121520480Y-105601725D01*
X121526932Y-105600353D01*
X121526937Y-105600353D01*
X121616920Y-105581226D01*
X121707281Y-105562019D01*
X121738865Y-105547957D01*
X121875715Y-105487028D01*
X121875717Y-105487027D01*
X121881745Y-105484343D01*
X121889262Y-105478882D01*
X121945865Y-105437757D01*
X122036246Y-105372091D01*
X122058368Y-105347522D01*
X122159614Y-105235077D01*
X122159615Y-105235076D01*
X122164033Y-105230169D01*
X122235962Y-105105585D01*
X122256216Y-105070504D01*
X122256217Y-105070503D01*
X122259520Y-105064781D01*
X122318535Y-104883153D01*
X122321255Y-104857279D01*
X122337807Y-104699790D01*
X122338497Y-104693225D01*
X122331733Y-104628866D01*
X122319225Y-104509860D01*
X122319225Y-104509858D01*
X122318535Y-104503297D01*
X122259520Y-104321669D01*
X122252138Y-104308882D01*
X122190140Y-104201500D01*
X122164033Y-104156281D01*
X122154962Y-104146206D01*
X122040668Y-104019270D01*
X122040667Y-104019269D01*
X122036246Y-104014359D01*
X121881745Y-103902107D01*
X121875717Y-103899423D01*
X121875715Y-103899422D01*
X121713312Y-103827116D01*
X121713311Y-103827116D01*
X121707281Y-103824431D01*
X121597678Y-103801134D01*
X121526937Y-103786097D01*
X121526932Y-103786097D01*
X121520480Y-103784725D01*
X121329506Y-103784725D01*
X121323054Y-103786097D01*
X121323049Y-103786097D01*
X121252308Y-103801134D01*
X121142705Y-103824431D01*
X121136675Y-103827116D01*
X121136674Y-103827116D01*
X120974271Y-103899422D01*
X120974269Y-103899423D01*
X120968241Y-103902107D01*
X120813740Y-104014359D01*
X120809319Y-104019269D01*
X120809318Y-104019270D01*
X120695025Y-104146206D01*
X120685953Y-104156281D01*
X120659846Y-104201500D01*
X120597849Y-104308882D01*
X120590466Y-104321669D01*
X120531451Y-104503297D01*
X120530761Y-104509858D01*
X120530761Y-104509860D01*
X120518253Y-104628866D01*
X120511489Y-104693225D01*
X115795923Y-104693225D01*
X115793542Y-104670569D01*
X115734527Y-104488941D01*
X115730011Y-104481118D01*
X115667443Y-104372749D01*
X115639040Y-104323553D01*
X115621589Y-104304171D01*
X115515675Y-104186542D01*
X115515674Y-104186541D01*
X115511253Y-104181631D01*
X115389862Y-104093435D01*
X115362094Y-104073260D01*
X115362093Y-104073259D01*
X115356752Y-104069379D01*
X115350724Y-104066695D01*
X115350722Y-104066694D01*
X115188319Y-103994388D01*
X115188318Y-103994388D01*
X115182288Y-103991703D01*
X115088888Y-103971850D01*
X115001944Y-103953369D01*
X115001939Y-103953369D01*
X114995487Y-103951997D01*
X114804513Y-103951997D01*
X114798061Y-103953369D01*
X114798056Y-103953369D01*
X114711112Y-103971850D01*
X114617712Y-103991703D01*
X114611682Y-103994388D01*
X114611681Y-103994388D01*
X114449278Y-104066694D01*
X114449276Y-104066695D01*
X114443248Y-104069379D01*
X114437907Y-104073259D01*
X114437906Y-104073260D01*
X114410138Y-104093435D01*
X114288747Y-104181631D01*
X114284326Y-104186541D01*
X114284325Y-104186542D01*
X114178412Y-104304171D01*
X114160960Y-104323553D01*
X114132557Y-104372749D01*
X114069990Y-104481118D01*
X114065473Y-104488941D01*
X114006458Y-104670569D01*
X113986496Y-104860497D01*
X113987186Y-104867062D01*
X114002202Y-105009928D01*
X114006458Y-105050425D01*
X114065473Y-105232053D01*
X114068776Y-105237775D01*
X114068777Y-105237776D01*
X114081393Y-105259628D01*
X114102234Y-105295724D01*
X114103114Y-105297249D01*
X114119852Y-105366244D01*
X114103115Y-105423247D01*
X114065473Y-105488444D01*
X114006458Y-105670072D01*
X114005768Y-105676633D01*
X114005768Y-105676635D01*
X113999870Y-105732749D01*
X113986496Y-105860000D01*
X113504447Y-105860000D01*
X113504447Y-102688647D01*
X113524449Y-102620526D01*
X113562971Y-102582238D01*
X113595915Y-102561348D01*
X113678047Y-102483056D01*
X113707116Y-102455346D01*
X113707118Y-102455344D01*
X113711596Y-102451075D01*
X113715154Y-102446017D01*
X113715157Y-102446013D01*
X113799983Y-102325412D01*
X113799984Y-102325410D01*
X113803541Y-102320353D01*
X113868217Y-102174205D01*
X113903138Y-102018247D01*
X113905737Y-101909673D01*
X113906239Y-101901060D01*
X113908585Y-101875751D01*
X113908585Y-101875746D01*
X113909035Y-101870892D01*
X113908257Y-101858377D01*
X113908308Y-101858374D01*
X113908135Y-101856121D01*
X113908085Y-101856126D01*
X113907389Y-101848489D01*
X113906947Y-101843638D01*
X113902112Y-101824327D01*
X113900887Y-101818932D01*
X113879784Y-101715492D01*
X113871595Y-101675355D01*
X113805051Y-101516906D01*
X113708874Y-101374484D01*
X113586759Y-101253562D01*
X113581592Y-101250146D01*
X113576793Y-101246247D01*
X113578632Y-101243983D01*
X113540843Y-101199369D01*
X113531530Y-101128986D01*
X113554102Y-101074257D01*
X113583684Y-101033541D01*
X113583685Y-101033540D01*
X113587565Y-101028199D01*
X113619458Y-100956567D01*
X113662556Y-100859766D01*
X113662556Y-100859765D01*
X113665241Y-100853735D01*
X113699460Y-100692749D01*
X113703575Y-100673391D01*
X113703575Y-100673386D01*
X113704947Y-100666934D01*
X113704947Y-100475960D01*
X113665241Y-100289159D01*
X113600646Y-100144076D01*
X113590250Y-100120725D01*
X113590249Y-100120723D01*
X113587565Y-100114695D01*
X113511499Y-100010000D01*
X131836496Y-100010000D01*
X131837186Y-100016565D01*
X131848134Y-100120725D01*
X131856458Y-100199928D01*
X131915473Y-100381556D01*
X132010960Y-100546944D01*
X132138747Y-100688866D01*
X132293248Y-100801118D01*
X132299276Y-100803802D01*
X132299278Y-100803803D01*
X132411428Y-100853735D01*
X132467712Y-100878794D01*
X132561113Y-100898647D01*
X132648056Y-100917128D01*
X132648061Y-100917128D01*
X132654513Y-100918500D01*
X132845487Y-100918500D01*
X132851939Y-100917128D01*
X132851944Y-100917128D01*
X132938887Y-100898647D01*
X133032288Y-100878794D01*
X133088572Y-100853735D01*
X133200722Y-100803803D01*
X133200724Y-100803802D01*
X133206752Y-100801118D01*
X133361253Y-100688866D01*
X133489040Y-100546944D01*
X133584527Y-100381556D01*
X133643542Y-100199928D01*
X133651867Y-100120725D01*
X133662814Y-100016565D01*
X133663504Y-100010000D01*
X133658269Y-99960194D01*
X133644232Y-99826635D01*
X133644232Y-99826633D01*
X133643542Y-99820072D01*
X133591299Y-99659286D01*
X141348735Y-99659286D01*
X141349425Y-99665851D01*
X141366931Y-99832407D01*
X141368697Y-99849214D01*
X141427712Y-100030842D01*
X141523199Y-100196230D01*
X141527617Y-100201137D01*
X141527618Y-100201138D01*
X141612686Y-100295616D01*
X141650986Y-100338152D01*
X141805487Y-100450404D01*
X141811515Y-100453088D01*
X141811517Y-100453089D01*
X141968889Y-100523155D01*
X141979951Y-100528080D01*
X142068699Y-100546944D01*
X142160295Y-100566414D01*
X142160300Y-100566414D01*
X142166752Y-100567786D01*
X142357726Y-100567786D01*
X142364178Y-100566414D01*
X142364183Y-100566414D01*
X142455779Y-100546944D01*
X142544527Y-100528080D01*
X142555589Y-100523155D01*
X142712961Y-100453089D01*
X142712963Y-100453088D01*
X142718991Y-100450404D01*
X142873492Y-100338152D01*
X142911792Y-100295616D01*
X142996860Y-100201138D01*
X142996861Y-100201137D01*
X143001279Y-100196230D01*
X143096766Y-100030842D01*
X143155781Y-99849214D01*
X143157548Y-99832407D01*
X143175053Y-99665851D01*
X143175743Y-99659286D01*
X143175467Y-99656656D01*
X143195055Y-99589944D01*
X143248711Y-99543451D01*
X143318985Y-99533347D01*
X143352301Y-99542958D01*
X143387870Y-99558794D01*
X143454122Y-99588291D01*
X143477712Y-99598794D01*
X143553174Y-99614834D01*
X143658056Y-99637128D01*
X143658061Y-99637128D01*
X143664513Y-99638500D01*
X143855487Y-99638500D01*
X143861939Y-99637128D01*
X143861944Y-99637128D01*
X143966826Y-99614834D01*
X144042288Y-99598794D01*
X144063637Y-99589289D01*
X144210722Y-99523803D01*
X144210724Y-99523802D01*
X144216752Y-99521118D01*
X144233715Y-99508794D01*
X144278960Y-99475921D01*
X144371253Y-99408866D01*
X144375675Y-99403955D01*
X144494621Y-99271852D01*
X144494622Y-99271851D01*
X144499040Y-99266944D01*
X144560146Y-99161105D01*
X144591223Y-99107279D01*
X144591224Y-99107278D01*
X144594527Y-99101556D01*
X144653542Y-98919928D01*
X144654402Y-98911752D01*
X144672814Y-98736565D01*
X144673504Y-98730000D01*
X144660194Y-98603365D01*
X144654232Y-98546635D01*
X144654232Y-98546633D01*
X144653542Y-98540072D01*
X144594527Y-98358444D01*
X144499040Y-98193056D01*
X144487338Y-98180059D01*
X144375675Y-98056045D01*
X144375674Y-98056044D01*
X144371253Y-98051134D01*
X144216752Y-97938882D01*
X144188535Y-97926319D01*
X144134441Y-97880342D01*
X144114474Y-97824383D01*
X144102771Y-97713031D01*
X144102771Y-97713029D01*
X144102081Y-97706468D01*
X144043066Y-97524840D01*
X144038334Y-97516643D01*
X143950880Y-97365170D01*
X143947579Y-97359452D01*
X143819792Y-97217530D01*
X143683867Y-97118774D01*
X143670633Y-97109159D01*
X143670632Y-97109158D01*
X143665291Y-97105278D01*
X143659263Y-97102594D01*
X143659261Y-97102593D01*
X143496858Y-97030287D01*
X143496857Y-97030287D01*
X143490827Y-97027602D01*
X143397427Y-97007749D01*
X143310483Y-96989268D01*
X143310478Y-96989268D01*
X143304026Y-96987896D01*
X143113052Y-96987896D01*
X143106600Y-96989268D01*
X143106595Y-96989268D01*
X143019651Y-97007749D01*
X142926251Y-97027602D01*
X142920221Y-97030287D01*
X142920220Y-97030287D01*
X142757817Y-97102593D01*
X142757815Y-97102594D01*
X142751787Y-97105278D01*
X142746446Y-97109158D01*
X142746445Y-97109159D01*
X142733211Y-97118774D01*
X142597286Y-97217530D01*
X142469499Y-97359452D01*
X142466198Y-97365170D01*
X142378745Y-97516643D01*
X142374012Y-97524840D01*
X142314997Y-97706468D01*
X142314307Y-97713029D01*
X142314307Y-97713031D01*
X142311480Y-97739928D01*
X142295035Y-97896396D01*
X142295725Y-97902961D01*
X142311815Y-98056045D01*
X142314997Y-98086324D01*
X142374012Y-98267952D01*
X142469499Y-98433340D01*
X142559948Y-98533794D01*
X142589955Y-98567120D01*
X142620672Y-98631128D01*
X142611907Y-98701581D01*
X142566444Y-98756112D01*
X142498716Y-98777407D01*
X142470120Y-98774676D01*
X142364190Y-98752159D01*
X142364181Y-98752158D01*
X142357726Y-98750786D01*
X142166752Y-98750786D01*
X142160300Y-98752158D01*
X142160295Y-98752158D01*
X142073352Y-98770639D01*
X141979951Y-98790492D01*
X141973921Y-98793177D01*
X141973920Y-98793177D01*
X141811517Y-98865483D01*
X141811515Y-98865484D01*
X141805487Y-98868168D01*
X141650986Y-98980420D01*
X141646565Y-98985330D01*
X141646564Y-98985331D01*
X141536275Y-99107820D01*
X141523199Y-99122342D01*
X141466108Y-99221226D01*
X141433841Y-99277115D01*
X141427712Y-99287730D01*
X141368697Y-99469358D01*
X141368007Y-99475919D01*
X141368007Y-99475921D01*
X141360848Y-99544034D01*
X141348735Y-99659286D01*
X133591299Y-99659286D01*
X133584527Y-99638444D01*
X133564102Y-99603066D01*
X133509461Y-99508426D01*
X133492723Y-99439431D01*
X133515943Y-99372339D01*
X133571750Y-99328452D01*
X133644779Y-99322180D01*
X133668052Y-99327127D01*
X133668055Y-99327127D01*
X133674513Y-99328500D01*
X133865487Y-99328500D01*
X133871939Y-99327128D01*
X133871944Y-99327128D01*
X133958888Y-99308647D01*
X134052288Y-99288794D01*
X134075438Y-99278487D01*
X134220722Y-99213803D01*
X134220724Y-99213802D01*
X134226752Y-99211118D01*
X134381253Y-99098866D01*
X134426285Y-99048853D01*
X134504621Y-98961852D01*
X134504622Y-98961851D01*
X134509040Y-98956944D01*
X134567314Y-98856010D01*
X134601223Y-98797279D01*
X134601224Y-98797278D01*
X134604527Y-98791556D01*
X134663542Y-98609928D01*
X134683504Y-98420000D01*
X134682702Y-98412368D01*
X134664232Y-98236635D01*
X134664232Y-98236633D01*
X134663542Y-98230072D01*
X134604527Y-98048444D01*
X134509040Y-97883056D01*
X134470208Y-97839928D01*
X134385675Y-97746045D01*
X134385674Y-97746044D01*
X134381253Y-97741134D01*
X134255818Y-97650000D01*
X134232094Y-97632763D01*
X134232093Y-97632762D01*
X134226752Y-97628882D01*
X134220724Y-97626198D01*
X134220722Y-97626197D01*
X134058319Y-97553891D01*
X134058318Y-97553891D01*
X134052288Y-97551206D01*
X133951647Y-97529814D01*
X133871944Y-97512872D01*
X133871939Y-97512872D01*
X133865487Y-97511500D01*
X133674513Y-97511500D01*
X133668061Y-97512872D01*
X133668056Y-97512872D01*
X133588353Y-97529814D01*
X133487712Y-97551206D01*
X133481682Y-97553891D01*
X133481681Y-97553891D01*
X133319278Y-97626197D01*
X133319276Y-97626198D01*
X133313248Y-97628882D01*
X133307907Y-97632762D01*
X133307906Y-97632763D01*
X133284182Y-97650000D01*
X133158747Y-97741134D01*
X133154326Y-97746044D01*
X133154325Y-97746045D01*
X133069793Y-97839928D01*
X133030960Y-97883056D01*
X132935473Y-98048444D01*
X132876458Y-98230072D01*
X132875768Y-98236633D01*
X132875768Y-98236635D01*
X132857298Y-98412368D01*
X132856496Y-98420000D01*
X132876458Y-98609928D01*
X132935473Y-98791556D01*
X132938776Y-98797278D01*
X132938777Y-98797279D01*
X133010539Y-98921574D01*
X133027277Y-98990569D01*
X133004057Y-99057661D01*
X132948250Y-99101548D01*
X132875221Y-99107820D01*
X132851948Y-99102873D01*
X132851945Y-99102873D01*
X132845487Y-99101500D01*
X132654513Y-99101500D01*
X132648061Y-99102872D01*
X132648056Y-99102872D01*
X132561112Y-99121353D01*
X132467712Y-99141206D01*
X132461682Y-99143891D01*
X132461681Y-99143891D01*
X132299278Y-99216197D01*
X132299276Y-99216198D01*
X132293248Y-99218882D01*
X132287907Y-99222762D01*
X132287906Y-99222763D01*
X132263971Y-99240153D01*
X132138747Y-99331134D01*
X132134326Y-99336044D01*
X132134325Y-99336045D01*
X132028774Y-99453272D01*
X132010960Y-99473056D01*
X131967402Y-99548500D01*
X131935899Y-99603066D01*
X131915473Y-99638444D01*
X131856458Y-99820072D01*
X131855768Y-99826633D01*
X131855768Y-99826635D01*
X131841731Y-99960194D01*
X131836496Y-100010000D01*
X113511499Y-100010000D01*
X113475313Y-99960194D01*
X113333391Y-99832407D01*
X113194219Y-99752056D01*
X113145227Y-99700675D01*
X113131791Y-99630961D01*
X113158177Y-99565050D01*
X113216009Y-99523868D01*
X113231022Y-99519692D01*
X113275824Y-99510169D01*
X113275833Y-99510166D01*
X113282288Y-99508794D01*
X113288319Y-99506109D01*
X113450722Y-99433803D01*
X113450724Y-99433802D01*
X113456752Y-99431118D01*
X113494139Y-99403955D01*
X113499274Y-99400224D01*
X113566141Y-99376366D01*
X113635293Y-99392447D01*
X113647394Y-99400224D01*
X113652529Y-99403955D01*
X113689916Y-99431118D01*
X113695944Y-99433802D01*
X113695946Y-99433803D01*
X113858349Y-99506109D01*
X113864380Y-99508794D01*
X113950634Y-99527128D01*
X114044724Y-99547128D01*
X114044729Y-99547128D01*
X114051181Y-99548500D01*
X114242155Y-99548500D01*
X114248607Y-99547128D01*
X114248612Y-99547128D01*
X114342702Y-99527128D01*
X114428956Y-99508794D01*
X114434987Y-99506109D01*
X114597390Y-99433803D01*
X114597392Y-99433802D01*
X114603420Y-99431118D01*
X114603515Y-99431332D01*
X114669326Y-99415365D01*
X114723217Y-99431188D01*
X114723248Y-99431118D01*
X114723729Y-99431332D01*
X114729276Y-99433802D01*
X114729278Y-99433803D01*
X114891681Y-99506109D01*
X114897712Y-99508794D01*
X114983966Y-99527128D01*
X115078056Y-99547128D01*
X115078061Y-99547128D01*
X115084513Y-99548500D01*
X115275487Y-99548500D01*
X115281939Y-99547128D01*
X115281944Y-99547128D01*
X115376034Y-99527128D01*
X115462288Y-99508794D01*
X115468319Y-99506109D01*
X115630724Y-99433802D01*
X115630725Y-99433801D01*
X115636752Y-99431118D01*
X115637129Y-99431965D01*
X115700565Y-99416576D01*
X115768630Y-99440497D01*
X115783248Y-99451118D01*
X115789276Y-99453802D01*
X115789278Y-99453803D01*
X115915879Y-99510169D01*
X115957712Y-99528794D01*
X116043966Y-99547128D01*
X116138056Y-99567128D01*
X116138061Y-99567128D01*
X116144513Y-99568500D01*
X116335487Y-99568500D01*
X116341939Y-99567128D01*
X116341944Y-99567128D01*
X116436034Y-99547128D01*
X116522288Y-99528794D01*
X116564128Y-99510166D01*
X116670725Y-99462706D01*
X116741092Y-99453272D01*
X116792021Y-99474227D01*
X116792189Y-99473936D01*
X116794358Y-99475188D01*
X116796038Y-99475880D01*
X116803248Y-99481118D01*
X116809276Y-99483802D01*
X116809278Y-99483803D01*
X116954591Y-99548500D01*
X116977712Y-99558794D01*
X117071113Y-99578647D01*
X117158056Y-99597128D01*
X117158061Y-99597128D01*
X117164513Y-99598500D01*
X117355487Y-99598500D01*
X117361939Y-99597128D01*
X117361944Y-99597128D01*
X117448888Y-99578647D01*
X117542288Y-99558794D01*
X117565409Y-99548500D01*
X117710722Y-99483803D01*
X117710724Y-99483802D01*
X117716752Y-99481118D01*
X117723962Y-99475880D01*
X117790100Y-99427827D01*
X117871253Y-99368866D01*
X117963024Y-99266944D01*
X117994621Y-99231852D01*
X117994622Y-99231851D01*
X117999040Y-99226944D01*
X118094527Y-99061556D01*
X118153542Y-98879928D01*
X118166556Y-98756112D01*
X118172814Y-98696565D01*
X118173504Y-98690000D01*
X118164398Y-98603365D01*
X118154232Y-98506635D01*
X118154232Y-98506633D01*
X118153542Y-98500072D01*
X118094527Y-98318444D01*
X118068680Y-98273675D01*
X118042888Y-98229003D01*
X126159492Y-98229003D01*
X126160182Y-98235568D01*
X126173097Y-98358444D01*
X126179454Y-98418931D01*
X126238469Y-98600559D01*
X126333956Y-98765947D01*
X126338374Y-98770854D01*
X126338375Y-98770855D01*
X126455750Y-98901213D01*
X126461743Y-98907869D01*
X126616244Y-99020121D01*
X126622272Y-99022805D01*
X126622274Y-99022806D01*
X126784677Y-99095112D01*
X126790708Y-99097797D01*
X126883092Y-99117434D01*
X126971052Y-99136131D01*
X126971057Y-99136131D01*
X126977509Y-99137503D01*
X127168483Y-99137503D01*
X127174935Y-99136131D01*
X127174940Y-99136131D01*
X127262900Y-99117434D01*
X127355284Y-99097797D01*
X127363914Y-99093955D01*
X127419538Y-99069189D01*
X127489905Y-99059755D01*
X127544847Y-99082359D01*
X127653248Y-99161118D01*
X127659276Y-99163802D01*
X127659278Y-99163803D01*
X127801096Y-99226944D01*
X127827712Y-99238794D01*
X127921113Y-99258647D01*
X128008056Y-99277128D01*
X128008061Y-99277128D01*
X128014513Y-99278500D01*
X128205487Y-99278500D01*
X128211939Y-99277128D01*
X128211944Y-99277128D01*
X128298887Y-99258647D01*
X128392288Y-99238794D01*
X128418904Y-99226944D01*
X128560722Y-99163803D01*
X128560724Y-99163802D01*
X128566752Y-99161118D01*
X128594159Y-99141206D01*
X128652434Y-99098866D01*
X128721253Y-99048866D01*
X128816372Y-98943225D01*
X128876817Y-98905987D01*
X128947801Y-98907339D01*
X129003643Y-98943227D01*
X129098749Y-99048853D01*
X129253250Y-99161105D01*
X129259278Y-99163789D01*
X129259280Y-99163790D01*
X129412151Y-99231852D01*
X129427714Y-99238781D01*
X129521115Y-99258634D01*
X129608058Y-99277115D01*
X129608063Y-99277115D01*
X129614515Y-99278487D01*
X129805489Y-99278487D01*
X129811941Y-99277115D01*
X129811946Y-99277115D01*
X129898889Y-99258634D01*
X129992290Y-99238781D01*
X130007853Y-99231852D01*
X130160724Y-99163790D01*
X130160726Y-99163789D01*
X130166754Y-99161105D01*
X130321255Y-99048853D01*
X130344708Y-99022806D01*
X130444623Y-98911839D01*
X130444624Y-98911838D01*
X130449042Y-98906931D01*
X130538400Y-98752159D01*
X130541225Y-98747266D01*
X130541226Y-98747265D01*
X130544529Y-98741543D01*
X130603544Y-98559915D01*
X130606290Y-98533794D01*
X130622816Y-98376552D01*
X130623506Y-98369987D01*
X130605511Y-98198774D01*
X130604234Y-98186622D01*
X130604234Y-98186620D01*
X130603544Y-98180059D01*
X130544529Y-97998431D01*
X130449042Y-97833043D01*
X130335074Y-97706468D01*
X130325677Y-97696032D01*
X130325673Y-97696028D01*
X130321255Y-97691121D01*
X130166754Y-97578869D01*
X130160726Y-97576185D01*
X130160724Y-97576184D01*
X129998321Y-97503878D01*
X129998320Y-97503878D01*
X129992290Y-97501193D01*
X129898889Y-97481340D01*
X129811946Y-97462859D01*
X129811941Y-97462859D01*
X129805489Y-97461487D01*
X129614515Y-97461487D01*
X129608063Y-97462859D01*
X129608058Y-97462859D01*
X129521114Y-97481340D01*
X129427714Y-97501193D01*
X129421684Y-97503878D01*
X129421683Y-97503878D01*
X129259280Y-97576184D01*
X129259278Y-97576185D01*
X129253250Y-97578869D01*
X129098749Y-97691121D01*
X129003630Y-97796762D01*
X128943185Y-97834000D01*
X128872201Y-97832648D01*
X128816359Y-97796760D01*
X128725675Y-97696045D01*
X128725674Y-97696044D01*
X128721253Y-97691134D01*
X128566752Y-97578882D01*
X128560724Y-97576198D01*
X128560722Y-97576197D01*
X128398319Y-97503891D01*
X128398318Y-97503891D01*
X128392288Y-97501206D01*
X128298887Y-97481353D01*
X128211944Y-97462872D01*
X128211939Y-97462872D01*
X128205487Y-97461500D01*
X128014513Y-97461500D01*
X128008061Y-97462872D01*
X128008056Y-97462872D01*
X127921112Y-97481353D01*
X127827712Y-97501206D01*
X127774630Y-97524840D01*
X127763458Y-97529814D01*
X127693091Y-97539248D01*
X127638149Y-97516644D01*
X127529748Y-97437885D01*
X127523720Y-97435201D01*
X127523718Y-97435200D01*
X127361315Y-97362894D01*
X127361314Y-97362894D01*
X127355284Y-97360209D01*
X127261883Y-97340356D01*
X127174940Y-97321875D01*
X127174935Y-97321875D01*
X127168483Y-97320503D01*
X126977509Y-97320503D01*
X126971057Y-97321875D01*
X126971052Y-97321875D01*
X126884108Y-97340356D01*
X126790708Y-97360209D01*
X126784678Y-97362894D01*
X126784677Y-97362894D01*
X126622274Y-97435200D01*
X126622272Y-97435201D01*
X126616244Y-97437885D01*
X126461743Y-97550137D01*
X126457322Y-97555047D01*
X126457321Y-97555048D01*
X126435873Y-97578869D01*
X126333956Y-97692059D01*
X126302787Y-97746045D01*
X126248584Y-97839928D01*
X126238469Y-97857447D01*
X126179454Y-98039075D01*
X126178764Y-98045636D01*
X126178764Y-98045638D01*
X126177809Y-98054729D01*
X126159492Y-98229003D01*
X118042888Y-98229003D01*
X118025196Y-98198359D01*
X118008458Y-98129364D01*
X118025196Y-98072359D01*
X118051223Y-98027279D01*
X118051224Y-98027278D01*
X118054527Y-98021556D01*
X118113542Y-97839928D01*
X118114782Y-97828135D01*
X118132814Y-97656565D01*
X118133504Y-97650000D01*
X118123403Y-97553891D01*
X118114232Y-97466635D01*
X118114232Y-97466633D01*
X118113542Y-97460072D01*
X118054527Y-97278444D01*
X117959040Y-97113056D01*
X117831253Y-96971134D01*
X117694945Y-96872100D01*
X117682094Y-96862763D01*
X117682093Y-96862762D01*
X117676752Y-96858882D01*
X117670724Y-96856198D01*
X117670722Y-96856197D01*
X117508319Y-96783891D01*
X117508318Y-96783891D01*
X117502288Y-96781206D01*
X117408888Y-96761353D01*
X117321944Y-96742872D01*
X117321939Y-96742872D01*
X117315487Y-96741500D01*
X117124513Y-96741500D01*
X117118061Y-96742872D01*
X117118056Y-96742872D01*
X117031113Y-96761353D01*
X116937712Y-96781206D01*
X116931682Y-96783891D01*
X116931681Y-96783891D01*
X116789275Y-96847294D01*
X116718908Y-96856728D01*
X116667979Y-96835773D01*
X116667811Y-96836064D01*
X116665642Y-96834812D01*
X116663962Y-96834120D01*
X116656752Y-96828882D01*
X116650724Y-96826198D01*
X116650722Y-96826197D01*
X116488319Y-96753891D01*
X116488318Y-96753891D01*
X116482288Y-96751206D01*
X116375828Y-96728577D01*
X116301944Y-96712872D01*
X116301939Y-96712872D01*
X116295487Y-96711500D01*
X116104513Y-96711500D01*
X116098061Y-96712872D01*
X116098056Y-96712872D01*
X116024172Y-96728577D01*
X115917712Y-96751206D01*
X115911682Y-96753891D01*
X115911681Y-96753891D01*
X115749279Y-96826197D01*
X115743248Y-96828882D01*
X115742871Y-96828035D01*
X115679435Y-96843424D01*
X115611370Y-96819503D01*
X115596752Y-96808882D01*
X115590724Y-96806198D01*
X115590722Y-96806197D01*
X115428319Y-96733891D01*
X115428318Y-96733891D01*
X115422288Y-96731206D01*
X115328887Y-96711353D01*
X115241944Y-96692872D01*
X115241939Y-96692872D01*
X115235487Y-96691500D01*
X115120087Y-96691500D01*
X115051966Y-96671498D01*
X115005473Y-96617842D01*
X114994777Y-96578670D01*
X114980900Y-96446635D01*
X114980900Y-96446633D01*
X114980210Y-96440072D01*
X114921195Y-96258444D01*
X114880021Y-96187128D01*
X114871298Y-96172020D01*
X114854560Y-96103025D01*
X114871297Y-96046021D01*
X114887896Y-96017271D01*
X114887898Y-96017266D01*
X114891195Y-96011556D01*
X114950210Y-95829928D01*
X114959010Y-95746206D01*
X114969482Y-95646565D01*
X114970172Y-95640000D01*
X114953912Y-95485291D01*
X114950900Y-95456635D01*
X114950900Y-95456633D01*
X114950210Y-95450072D01*
X114933495Y-95398628D01*
X117179084Y-95398628D01*
X117179774Y-95405193D01*
X117196219Y-95561654D01*
X117199046Y-95588556D01*
X117258061Y-95770184D01*
X117353548Y-95935572D01*
X117357966Y-95940479D01*
X117357967Y-95940480D01*
X117475594Y-96071118D01*
X117481335Y-96077494D01*
X117635836Y-96189746D01*
X117641864Y-96192430D01*
X117641866Y-96192431D01*
X117790135Y-96258444D01*
X117810300Y-96267422D01*
X117903700Y-96287275D01*
X117990644Y-96305756D01*
X117990649Y-96305756D01*
X117997101Y-96307128D01*
X118188075Y-96307128D01*
X118194527Y-96305756D01*
X118194532Y-96305756D01*
X118281475Y-96287275D01*
X118374876Y-96267422D01*
X118395041Y-96258444D01*
X118543310Y-96192431D01*
X118543312Y-96192430D01*
X118549340Y-96189746D01*
X118703841Y-96077494D01*
X118709582Y-96071118D01*
X118827209Y-95940480D01*
X118827210Y-95940479D01*
X118831628Y-95935572D01*
X118927115Y-95770184D01*
X118986130Y-95588556D01*
X118988958Y-95561654D01*
X119005402Y-95405193D01*
X119006092Y-95398628D01*
X118993624Y-95280000D01*
X121526496Y-95280000D01*
X121527186Y-95286565D01*
X121536401Y-95374237D01*
X121546458Y-95469928D01*
X121605473Y-95651556D01*
X121608776Y-95657278D01*
X121608777Y-95657279D01*
X121634868Y-95702469D01*
X121700960Y-95816944D01*
X121705378Y-95821851D01*
X121705379Y-95821852D01*
X121804621Y-95932071D01*
X121828747Y-95958866D01*
X121983248Y-96071118D01*
X121989276Y-96073802D01*
X121989278Y-96073803D01*
X122068375Y-96109019D01*
X122157712Y-96148794D01*
X122251112Y-96168647D01*
X122338056Y-96187128D01*
X122338061Y-96187128D01*
X122344513Y-96188500D01*
X122535487Y-96188500D01*
X122541939Y-96187128D01*
X122541944Y-96187128D01*
X122628888Y-96168647D01*
X122722288Y-96148794D01*
X122811625Y-96109019D01*
X122890722Y-96073803D01*
X122890724Y-96073802D01*
X122896752Y-96071118D01*
X123051253Y-95958866D01*
X123075379Y-95932071D01*
X123174621Y-95821852D01*
X123174622Y-95821851D01*
X123179040Y-95816944D01*
X123245132Y-95702469D01*
X123271223Y-95657279D01*
X123271224Y-95657278D01*
X123274527Y-95651556D01*
X123314062Y-95529882D01*
X123354134Y-95471277D01*
X123374600Y-95462628D01*
X123496986Y-95462628D01*
X123541794Y-95503753D01*
X123559843Y-95572417D01*
X123559204Y-95581989D01*
X123554847Y-95623446D01*
X123554157Y-95630011D01*
X123554847Y-95636576D01*
X123568890Y-95770184D01*
X123574119Y-95819939D01*
X123633134Y-96001567D01*
X123636437Y-96007289D01*
X123636438Y-96007290D01*
X123663633Y-96054393D01*
X123728621Y-96166955D01*
X123733039Y-96171862D01*
X123733040Y-96171863D01*
X123805845Y-96252721D01*
X123856408Y-96308877D01*
X123952442Y-96378650D01*
X124004000Y-96416109D01*
X124010909Y-96421129D01*
X124016937Y-96423813D01*
X124016939Y-96423814D01*
X124091764Y-96457128D01*
X124185373Y-96498805D01*
X124278773Y-96518658D01*
X124365717Y-96537139D01*
X124365722Y-96537139D01*
X124372174Y-96538511D01*
X124563148Y-96538511D01*
X124569600Y-96537139D01*
X124569605Y-96537139D01*
X124656549Y-96518658D01*
X124749949Y-96498805D01*
X124843558Y-96457128D01*
X124918383Y-96423814D01*
X124918385Y-96423813D01*
X124924413Y-96421129D01*
X124931323Y-96416109D01*
X124977296Y-96382707D01*
X125034178Y-96341380D01*
X125101044Y-96317522D01*
X125159486Y-96328209D01*
X125278810Y-96381335D01*
X125372211Y-96401188D01*
X125459154Y-96419669D01*
X125459159Y-96419669D01*
X125465611Y-96421041D01*
X125656585Y-96421041D01*
X125663037Y-96419669D01*
X125663042Y-96419669D01*
X125749985Y-96401188D01*
X125843386Y-96381335D01*
X125933127Y-96341380D01*
X126011820Y-96306344D01*
X126011822Y-96306343D01*
X126017850Y-96303659D01*
X126172351Y-96191407D01*
X126189807Y-96172020D01*
X126295719Y-96054393D01*
X126295720Y-96054392D01*
X126300138Y-96049485D01*
X126395625Y-95884097D01*
X126454640Y-95702469D01*
X126456680Y-95683066D01*
X126473912Y-95519106D01*
X126474602Y-95512541D01*
X126470123Y-95469928D01*
X126455330Y-95329176D01*
X126455330Y-95329174D01*
X126454640Y-95322613D01*
X126395625Y-95140985D01*
X126373946Y-95103435D01*
X126346801Y-95056419D01*
X126300138Y-94975597D01*
X126278122Y-94951145D01*
X126176773Y-94838586D01*
X126176772Y-94838585D01*
X126172351Y-94833675D01*
X126035545Y-94734279D01*
X126023192Y-94725304D01*
X126023191Y-94725303D01*
X126017850Y-94721423D01*
X126011822Y-94718739D01*
X126011820Y-94718738D01*
X125849417Y-94646432D01*
X125849416Y-94646432D01*
X125843386Y-94643747D01*
X125747826Y-94623435D01*
X125663042Y-94605413D01*
X125663037Y-94605413D01*
X125656585Y-94604041D01*
X125465611Y-94604041D01*
X125459159Y-94605413D01*
X125459154Y-94605413D01*
X125374370Y-94623435D01*
X125278810Y-94643747D01*
X125272780Y-94646432D01*
X125272779Y-94646432D01*
X125110376Y-94718738D01*
X125110374Y-94718739D01*
X125104346Y-94721423D01*
X125099005Y-94725303D01*
X125099004Y-94725304D01*
X125086651Y-94734279D01*
X124994581Y-94801172D01*
X124927715Y-94825030D01*
X124869273Y-94814343D01*
X124749949Y-94761217D01*
X124656548Y-94741364D01*
X124569605Y-94722883D01*
X124569600Y-94722883D01*
X124563148Y-94721511D01*
X124372174Y-94721511D01*
X124365722Y-94722883D01*
X124365717Y-94722883D01*
X124278774Y-94741364D01*
X124185373Y-94761217D01*
X124179343Y-94763902D01*
X124179342Y-94763902D01*
X124016939Y-94836208D01*
X124016937Y-94836209D01*
X124010909Y-94838893D01*
X124005568Y-94842773D01*
X124005567Y-94842774D01*
X123959774Y-94876045D01*
X123856408Y-94951145D01*
X123851987Y-94956055D01*
X123851986Y-94956056D01*
X123760384Y-95057791D01*
X123728621Y-95093067D01*
X123633134Y-95258455D01*
X123595021Y-95375756D01*
X123593600Y-95380128D01*
X123553527Y-95438734D01*
X123496986Y-95462628D01*
X123374600Y-95462628D01*
X123410675Y-95447383D01*
X123365867Y-95406258D01*
X123347818Y-95337594D01*
X123348457Y-95328022D01*
X123352814Y-95286565D01*
X123353504Y-95280000D01*
X123351688Y-95262721D01*
X123334232Y-95096635D01*
X123334232Y-95096633D01*
X123333542Y-95090072D01*
X123274527Y-94908444D01*
X123179040Y-94743056D01*
X123166814Y-94729477D01*
X123055675Y-94606045D01*
X123055674Y-94606044D01*
X123051253Y-94601134D01*
X122939271Y-94519774D01*
X122902094Y-94492763D01*
X122902093Y-94492762D01*
X122896752Y-94488882D01*
X122890724Y-94486198D01*
X122890722Y-94486197D01*
X122728319Y-94413891D01*
X122728318Y-94413891D01*
X122722288Y-94411206D01*
X122611382Y-94387632D01*
X122541944Y-94372872D01*
X122541939Y-94372872D01*
X122535487Y-94371500D01*
X122344513Y-94371500D01*
X122338061Y-94372872D01*
X122338056Y-94372872D01*
X122268618Y-94387632D01*
X122157712Y-94411206D01*
X122151682Y-94413891D01*
X122151681Y-94413891D01*
X121989278Y-94486197D01*
X121989276Y-94486198D01*
X121983248Y-94488882D01*
X121977907Y-94492762D01*
X121977906Y-94492763D01*
X121940729Y-94519774D01*
X121828747Y-94601134D01*
X121824326Y-94606044D01*
X121824325Y-94606045D01*
X121713187Y-94729477D01*
X121700960Y-94743056D01*
X121605473Y-94908444D01*
X121546458Y-95090072D01*
X121545768Y-95096633D01*
X121545768Y-95096635D01*
X121528312Y-95262721D01*
X121526496Y-95280000D01*
X118993624Y-95280000D01*
X118991364Y-95258502D01*
X118986820Y-95215263D01*
X118986820Y-95215261D01*
X118986130Y-95208700D01*
X118927115Y-95027072D01*
X118915688Y-95007279D01*
X118865338Y-94920072D01*
X118831628Y-94861684D01*
X118814602Y-94842774D01*
X118708263Y-94724673D01*
X118708262Y-94724672D01*
X118703841Y-94719762D01*
X118648885Y-94679834D01*
X118624306Y-94661976D01*
X118584300Y-94610094D01*
X118551878Y-94608240D01*
X118542972Y-94604675D01*
X118526298Y-94597251D01*
X118374876Y-94529834D01*
X118281475Y-94509981D01*
X118194532Y-94491500D01*
X118194527Y-94491500D01*
X118188075Y-94490128D01*
X117997101Y-94490128D01*
X117990649Y-94491500D01*
X117990644Y-94491500D01*
X117903700Y-94509981D01*
X117810300Y-94529834D01*
X117804270Y-94532519D01*
X117804269Y-94532519D01*
X117641866Y-94604825D01*
X117641864Y-94604826D01*
X117635836Y-94607510D01*
X117481335Y-94719762D01*
X117476914Y-94724672D01*
X117476913Y-94724673D01*
X117370575Y-94842774D01*
X117353548Y-94861684D01*
X117319838Y-94920072D01*
X117269489Y-95007279D01*
X117258061Y-95027072D01*
X117199046Y-95208700D01*
X117198356Y-95215261D01*
X117198356Y-95215263D01*
X117193812Y-95258502D01*
X117179084Y-95398628D01*
X114933495Y-95398628D01*
X114891195Y-95268444D01*
X114862190Y-95218206D01*
X114845452Y-95149211D01*
X114862190Y-95092206D01*
X114911223Y-95007279D01*
X114911224Y-95007278D01*
X114914527Y-95001556D01*
X114973542Y-94819928D01*
X114975514Y-94801172D01*
X114992814Y-94636565D01*
X114993504Y-94630000D01*
X114985948Y-94558108D01*
X114974232Y-94446635D01*
X114974232Y-94446633D01*
X114973542Y-94440072D01*
X114914527Y-94258444D01*
X114910298Y-94251118D01*
X114853859Y-94153365D01*
X114819040Y-94093056D01*
X114732501Y-93996944D01*
X114695675Y-93956045D01*
X114695674Y-93956044D01*
X114691253Y-93951134D01*
X114562883Y-93857867D01*
X114542094Y-93842763D01*
X114542093Y-93842762D01*
X114536752Y-93838882D01*
X114530724Y-93836198D01*
X114530722Y-93836197D01*
X114368319Y-93763891D01*
X114368318Y-93763891D01*
X114362288Y-93761206D01*
X114261741Y-93739834D01*
X114181944Y-93722872D01*
X114181939Y-93722872D01*
X114175487Y-93721500D01*
X113984513Y-93721500D01*
X113978061Y-93722872D01*
X113978056Y-93722872D01*
X113898259Y-93739834D01*
X113797712Y-93761206D01*
X113791682Y-93763891D01*
X113791681Y-93763891D01*
X113629278Y-93836197D01*
X113629276Y-93836198D01*
X113623248Y-93838882D01*
X113592777Y-93861021D01*
X113580726Y-93869776D01*
X113513859Y-93893634D01*
X113444707Y-93877553D01*
X113432606Y-93869776D01*
X113420555Y-93861021D01*
X113390084Y-93838882D01*
X113384056Y-93836198D01*
X113384054Y-93836197D01*
X113221651Y-93763891D01*
X113221650Y-93763891D01*
X113215620Y-93761206D01*
X113115073Y-93739834D01*
X113035276Y-93722872D01*
X113035271Y-93722872D01*
X113028819Y-93721500D01*
X112837845Y-93721500D01*
X112831393Y-93722872D01*
X112831388Y-93722872D01*
X112751591Y-93739834D01*
X112651044Y-93761206D01*
X112645014Y-93763891D01*
X112645013Y-93763891D01*
X112482610Y-93836197D01*
X112482608Y-93836198D01*
X112476580Y-93838882D01*
X112434058Y-93869776D01*
X112367193Y-93893633D01*
X112298041Y-93877553D01*
X112285951Y-93869784D01*
X112243418Y-93838882D01*
X112237390Y-93836198D01*
X112237388Y-93836197D01*
X112074985Y-93763891D01*
X112074984Y-93763891D01*
X112068954Y-93761206D01*
X111968407Y-93739834D01*
X111888610Y-93722872D01*
X111888605Y-93722872D01*
X111882153Y-93721500D01*
X111691179Y-93721500D01*
X111684727Y-93722872D01*
X111684722Y-93722872D01*
X111604925Y-93739834D01*
X111504378Y-93761206D01*
X111498348Y-93763891D01*
X111498347Y-93763891D01*
X111335944Y-93836197D01*
X111335942Y-93836198D01*
X111329914Y-93838882D01*
X111287392Y-93869776D01*
X111220527Y-93893633D01*
X111151375Y-93877553D01*
X111139285Y-93869784D01*
X111096752Y-93838882D01*
X111090724Y-93836198D01*
X111090722Y-93836197D01*
X110928319Y-93763891D01*
X110928318Y-93763891D01*
X110922288Y-93761206D01*
X110821741Y-93739834D01*
X110741944Y-93722872D01*
X110741939Y-93722872D01*
X110735487Y-93721500D01*
X110544513Y-93721500D01*
X110538061Y-93722872D01*
X110538056Y-93722872D01*
X110458259Y-93739834D01*
X110357712Y-93761206D01*
X110351682Y-93763891D01*
X110351681Y-93763891D01*
X110189278Y-93836197D01*
X110189276Y-93836198D01*
X110183248Y-93838882D01*
X110177908Y-93842761D01*
X110177904Y-93842764D01*
X110167827Y-93850086D01*
X110100960Y-93873946D01*
X110031808Y-93857867D01*
X110019703Y-93850088D01*
X110019701Y-93850086D01*
X109994196Y-93831556D01*
X109982094Y-93822763D01*
X109982093Y-93822762D01*
X109976752Y-93818882D01*
X109970724Y-93816198D01*
X109970722Y-93816197D01*
X109808319Y-93743891D01*
X109808318Y-93743891D01*
X109802288Y-93741206D01*
X109708887Y-93721353D01*
X109621944Y-93702872D01*
X109621939Y-93702872D01*
X109615487Y-93701500D01*
X109424513Y-93701500D01*
X109418061Y-93702872D01*
X109418056Y-93702872D01*
X109331112Y-93721353D01*
X109237712Y-93741206D01*
X109231682Y-93743891D01*
X109231681Y-93743891D01*
X109106183Y-93799766D01*
X109063248Y-93818882D01*
X109062257Y-93816656D01*
X109003999Y-93830786D01*
X108957527Y-93817141D01*
X108956752Y-93818882D01*
X108788319Y-93743891D01*
X108788318Y-93743891D01*
X108782288Y-93741206D01*
X108688887Y-93721353D01*
X108601944Y-93702872D01*
X108601939Y-93702872D01*
X108595487Y-93701500D01*
X108404513Y-93701500D01*
X108398061Y-93702872D01*
X108398056Y-93702872D01*
X108311112Y-93721353D01*
X108217712Y-93741206D01*
X108211682Y-93743891D01*
X108211681Y-93743891D01*
X108175661Y-93759928D01*
X108051248Y-93815320D01*
X107980882Y-93824754D01*
X107948753Y-93815320D01*
X107824339Y-93759928D01*
X107788319Y-93743891D01*
X107788318Y-93743891D01*
X107782288Y-93741206D01*
X107688887Y-93721353D01*
X107601944Y-93702872D01*
X107601939Y-93702872D01*
X107595487Y-93701500D01*
X107406096Y-93701500D01*
X107337975Y-93681498D01*
X107291482Y-93627842D01*
X107280097Y-93576003D01*
X107279994Y-93550166D01*
X107275594Y-92448838D01*
X113662326Y-92448838D01*
X113663016Y-92455403D01*
X113681006Y-92626565D01*
X113682288Y-92638766D01*
X113741303Y-92820394D01*
X113744606Y-92826116D01*
X113744607Y-92826117D01*
X113771530Y-92872749D01*
X113836790Y-92985782D01*
X113841208Y-92990689D01*
X113841209Y-92990690D01*
X113957419Y-93119754D01*
X113964577Y-93127704D01*
X114011578Y-93161852D01*
X114103864Y-93228902D01*
X114119078Y-93239956D01*
X114125106Y-93242640D01*
X114125108Y-93242641D01*
X114287511Y-93314947D01*
X114293542Y-93317632D01*
X114367560Y-93333365D01*
X114473886Y-93355966D01*
X114473891Y-93355966D01*
X114480343Y-93357338D01*
X114671317Y-93357338D01*
X114677769Y-93355966D01*
X114677774Y-93355966D01*
X114784100Y-93333365D01*
X114858118Y-93317632D01*
X114864149Y-93314947D01*
X115026552Y-93242641D01*
X115026554Y-93242640D01*
X115032582Y-93239956D01*
X115047797Y-93228902D01*
X115140082Y-93161852D01*
X115187083Y-93127704D01*
X115194241Y-93119754D01*
X115310451Y-92990690D01*
X115310452Y-92990689D01*
X115314870Y-92985782D01*
X115380130Y-92872749D01*
X115407053Y-92826117D01*
X115407054Y-92826116D01*
X115410357Y-92820394D01*
X115469372Y-92638766D01*
X115470655Y-92626565D01*
X115488644Y-92455403D01*
X115489334Y-92448838D01*
X115471998Y-92283891D01*
X115470062Y-92265473D01*
X115470062Y-92265471D01*
X115469372Y-92258910D01*
X115414489Y-92090000D01*
X117666496Y-92090000D01*
X117667186Y-92096565D01*
X117684204Y-92258478D01*
X117686458Y-92279928D01*
X117745473Y-92461556D01*
X117840960Y-92626944D01*
X117845378Y-92631851D01*
X117845379Y-92631852D01*
X117964325Y-92763955D01*
X117968747Y-92768866D01*
X118033899Y-92816202D01*
X118106385Y-92868866D01*
X118123248Y-92881118D01*
X118129276Y-92883802D01*
X118129278Y-92883803D01*
X118291681Y-92956109D01*
X118297712Y-92958794D01*
X118304167Y-92960166D01*
X118304176Y-92960169D01*
X118353315Y-92970614D01*
X118415788Y-93004342D01*
X118450109Y-93066492D01*
X118445381Y-93137331D01*
X118436238Y-93156855D01*
X118365473Y-93279424D01*
X118306458Y-93461052D01*
X118286496Y-93650980D01*
X118287186Y-93657545D01*
X118304815Y-93825271D01*
X118306458Y-93840908D01*
X118365473Y-94022536D01*
X118460960Y-94187924D01*
X118465378Y-94192831D01*
X118465379Y-94192832D01*
X118584325Y-94324935D01*
X118588747Y-94329846D01*
X118631789Y-94361118D01*
X118668282Y-94387632D01*
X118708288Y-94439514D01*
X118740710Y-94441368D01*
X118749611Y-94444931D01*
X118917712Y-94519774D01*
X119011113Y-94539627D01*
X119098056Y-94558108D01*
X119098061Y-94558108D01*
X119104513Y-94559480D01*
X119295487Y-94559480D01*
X119301939Y-94558108D01*
X119301944Y-94558108D01*
X119388887Y-94539627D01*
X119482288Y-94519774D01*
X119496683Y-94513365D01*
X119650722Y-94444783D01*
X119650724Y-94444782D01*
X119656752Y-94442098D01*
X119668182Y-94433794D01*
X119753921Y-94371500D01*
X119811253Y-94329846D01*
X119815675Y-94324935D01*
X119934621Y-94192832D01*
X119934622Y-94192831D01*
X119939040Y-94187924D01*
X120034527Y-94022536D01*
X120093542Y-93840908D01*
X120095186Y-93825271D01*
X120112814Y-93657545D01*
X120113504Y-93650980D01*
X120093542Y-93461052D01*
X120034527Y-93279424D01*
X119939040Y-93114036D01*
X119929906Y-93103891D01*
X119815675Y-92977025D01*
X119815674Y-92977024D01*
X119811253Y-92972114D01*
X119680667Y-92877237D01*
X119662094Y-92863743D01*
X119662093Y-92863742D01*
X119656752Y-92859862D01*
X119650724Y-92857178D01*
X119650722Y-92857177D01*
X119488319Y-92784871D01*
X119488318Y-92784871D01*
X119482288Y-92782186D01*
X119475833Y-92780814D01*
X119475824Y-92780811D01*
X119426685Y-92770366D01*
X119364212Y-92736638D01*
X119329891Y-92674488D01*
X119334619Y-92603649D01*
X119343764Y-92584120D01*
X119346693Y-92579048D01*
X119376539Y-92527353D01*
X120421996Y-92527353D01*
X120422686Y-92533918D01*
X120441246Y-92710503D01*
X120441958Y-92717281D01*
X120500973Y-92898909D01*
X120504276Y-92904631D01*
X120504277Y-92904632D01*
X120535548Y-92958794D01*
X120596460Y-93064297D01*
X120600878Y-93069204D01*
X120600879Y-93069205D01*
X120649130Y-93122793D01*
X120724247Y-93206219D01*
X120775868Y-93243724D01*
X120857109Y-93302749D01*
X120878748Y-93318471D01*
X120884776Y-93321155D01*
X120884778Y-93321156D01*
X121040607Y-93390535D01*
X121053212Y-93396147D01*
X121146613Y-93416000D01*
X121233556Y-93434481D01*
X121233561Y-93434481D01*
X121240013Y-93435853D01*
X121430987Y-93435853D01*
X121437439Y-93434481D01*
X121437444Y-93434481D01*
X121524387Y-93416000D01*
X121617788Y-93396147D01*
X121630393Y-93390535D01*
X121786222Y-93321156D01*
X121786224Y-93321155D01*
X121792252Y-93318471D01*
X121813892Y-93302749D01*
X121895132Y-93243724D01*
X121946753Y-93206219D01*
X122021870Y-93122793D01*
X122070121Y-93069205D01*
X122070122Y-93069204D01*
X122074540Y-93064297D01*
X122135452Y-92958794D01*
X122166723Y-92904632D01*
X122166724Y-92904631D01*
X122170027Y-92898909D01*
X122229042Y-92717281D01*
X122229755Y-92710503D01*
X122248314Y-92533918D01*
X122249004Y-92527353D01*
X122248314Y-92520788D01*
X122248314Y-92520621D01*
X122268316Y-92452500D01*
X122323065Y-92405514D01*
X122355222Y-92391197D01*
X122355224Y-92391196D01*
X122361252Y-92388512D01*
X122391314Y-92366671D01*
X122440208Y-92331147D01*
X122515753Y-92276260D01*
X122568562Y-92217610D01*
X122629006Y-92180372D01*
X122699990Y-92181724D01*
X122758974Y-92221238D01*
X122787232Y-92286368D01*
X122782029Y-92340856D01*
X122775774Y-92360108D01*
X122775084Y-92366669D01*
X122775084Y-92366671D01*
X122764513Y-92467251D01*
X122755812Y-92550036D01*
X122756502Y-92556601D01*
X122774406Y-92726944D01*
X122775774Y-92739964D01*
X122834789Y-92921592D01*
X122838092Y-92927314D01*
X122838093Y-92927315D01*
X122853381Y-92953794D01*
X122930276Y-93086980D01*
X122934694Y-93091887D01*
X122934695Y-93091888D01*
X123037639Y-93206219D01*
X123058063Y-93228902D01*
X123212564Y-93341154D01*
X123218592Y-93343838D01*
X123218594Y-93343839D01*
X123369706Y-93411118D01*
X123387028Y-93418830D01*
X123480429Y-93438683D01*
X123567372Y-93457164D01*
X123567377Y-93457164D01*
X123573829Y-93458536D01*
X123764803Y-93458536D01*
X123771255Y-93457164D01*
X123771260Y-93457164D01*
X123858204Y-93438683D01*
X123951604Y-93418830D01*
X124015156Y-93390535D01*
X124085522Y-93381101D01*
X124140462Y-93403704D01*
X124233248Y-93471118D01*
X124239276Y-93473802D01*
X124239278Y-93473803D01*
X124385449Y-93538882D01*
X124407712Y-93548794D01*
X124501112Y-93568647D01*
X124588056Y-93587128D01*
X124588061Y-93587128D01*
X124594513Y-93588500D01*
X124785487Y-93588500D01*
X124791939Y-93587128D01*
X124791944Y-93587128D01*
X124878888Y-93568647D01*
X124972288Y-93548794D01*
X124994551Y-93538882D01*
X125140722Y-93473803D01*
X125140724Y-93473802D01*
X125146752Y-93471118D01*
X125169248Y-93454774D01*
X125215045Y-93421500D01*
X125301253Y-93358866D01*
X125318305Y-93339928D01*
X125424621Y-93221852D01*
X125424622Y-93221851D01*
X125429040Y-93216944D01*
X125507376Y-93081262D01*
X125521223Y-93057279D01*
X125521224Y-93057278D01*
X125524527Y-93051556D01*
X125583542Y-92869928D01*
X125592909Y-92780811D01*
X125602814Y-92686565D01*
X125603504Y-92680000D01*
X125594810Y-92597279D01*
X125584232Y-92496635D01*
X125584232Y-92496633D01*
X125583542Y-92490072D01*
X125524527Y-92308444D01*
X125511782Y-92286368D01*
X125440324Y-92162600D01*
X125429040Y-92143056D01*
X125398191Y-92108794D01*
X125305675Y-92006045D01*
X125305674Y-92006044D01*
X125301253Y-92001134D01*
X125146752Y-91888882D01*
X125140724Y-91886198D01*
X125140722Y-91886197D01*
X124978319Y-91813891D01*
X124978318Y-91813891D01*
X124972288Y-91811206D01*
X124908159Y-91797575D01*
X124845686Y-91763847D01*
X124811364Y-91701697D01*
X124814523Y-91635392D01*
X124851618Y-91521226D01*
X124865239Y-91479305D01*
X124866023Y-91471852D01*
X124884511Y-91295942D01*
X124885201Y-91289377D01*
X124877892Y-91219834D01*
X124865929Y-91106012D01*
X124865929Y-91106010D01*
X124865239Y-91099449D01*
X124829677Y-90990000D01*
X130116496Y-90990000D01*
X130117186Y-90996565D01*
X130135326Y-91169154D01*
X130136458Y-91179928D01*
X130195473Y-91361556D01*
X130198776Y-91367278D01*
X130198777Y-91367279D01*
X130215625Y-91396460D01*
X130290960Y-91526944D01*
X130295378Y-91531851D01*
X130295379Y-91531852D01*
X130414325Y-91663955D01*
X130418747Y-91668866D01*
X130494361Y-91723803D01*
X130534865Y-91753231D01*
X130578219Y-91809453D01*
X130584294Y-91880190D01*
X130580637Y-91894103D01*
X130565356Y-91941134D01*
X130536458Y-92030072D01*
X130535768Y-92036633D01*
X130535768Y-92036635D01*
X130525499Y-92134338D01*
X130516496Y-92220000D01*
X130517186Y-92226565D01*
X130531912Y-92366671D01*
X130536458Y-92409928D01*
X130595473Y-92591556D01*
X130611895Y-92620000D01*
X130621578Y-92636771D01*
X130638315Y-92705766D01*
X130615094Y-92772858D01*
X130606094Y-92784080D01*
X130508361Y-92892624D01*
X130480960Y-92923056D01*
X130438514Y-92996575D01*
X130389620Y-93081262D01*
X130385473Y-93088444D01*
X130326458Y-93270072D01*
X130325768Y-93276633D01*
X130325768Y-93276635D01*
X130311634Y-93411118D01*
X130306496Y-93460000D01*
X130307186Y-93466565D01*
X130320579Y-93593988D01*
X130326458Y-93649928D01*
X130385473Y-93831556D01*
X130388776Y-93837278D01*
X130388777Y-93837279D01*
X130391943Y-93842762D01*
X130480960Y-93996944D01*
X130485378Y-94001851D01*
X130485379Y-94001852D01*
X130602707Y-94132158D01*
X130608747Y-94138866D01*
X130763248Y-94251118D01*
X130769276Y-94253802D01*
X130769278Y-94253803D01*
X130931681Y-94326109D01*
X130937712Y-94328794D01*
X131024677Y-94347279D01*
X131118056Y-94367128D01*
X131118061Y-94367128D01*
X131124513Y-94368500D01*
X131315487Y-94368500D01*
X131321939Y-94367128D01*
X131321944Y-94367128D01*
X131415323Y-94347279D01*
X131496614Y-94330000D01*
X137826496Y-94330000D01*
X137827186Y-94336565D01*
X137843868Y-94495282D01*
X137846458Y-94519928D01*
X137905473Y-94701556D01*
X137908776Y-94707278D01*
X137908777Y-94707279D01*
X137938570Y-94758882D01*
X138000960Y-94866944D01*
X138005378Y-94871851D01*
X138005379Y-94871852D01*
X138073792Y-94947832D01*
X138128747Y-95008866D01*
X138162456Y-95033357D01*
X138258910Y-95103435D01*
X138283248Y-95121118D01*
X138289276Y-95123802D01*
X138289278Y-95123803D01*
X138412005Y-95178444D01*
X138457712Y-95198794D01*
X138549038Y-95218206D01*
X138638056Y-95237128D01*
X138638061Y-95237128D01*
X138644513Y-95238500D01*
X138813955Y-95238500D01*
X138882076Y-95258502D01*
X138928569Y-95312158D01*
X138938673Y-95382432D01*
X138907591Y-95448810D01*
X138856119Y-95505976D01*
X138845582Y-95517678D01*
X138801036Y-95594834D01*
X138778750Y-95633435D01*
X138750095Y-95683066D01*
X138691080Y-95864694D01*
X138690390Y-95871255D01*
X138690390Y-95871257D01*
X138680774Y-95962749D01*
X138671118Y-96054622D01*
X138671808Y-96061187D01*
X138689840Y-96232749D01*
X138691080Y-96244550D01*
X138750095Y-96426178D01*
X138753398Y-96431900D01*
X138753399Y-96431901D01*
X138836747Y-96576264D01*
X138853485Y-96645259D01*
X138830264Y-96712351D01*
X138778880Y-96754369D01*
X138774783Y-96756193D01*
X138774774Y-96756198D01*
X138768746Y-96758882D01*
X138614245Y-96871134D01*
X138486458Y-97013056D01*
X138390971Y-97178444D01*
X138331956Y-97360072D01*
X138331266Y-97366633D01*
X138331266Y-97366635D01*
X138321446Y-97460072D01*
X138311994Y-97550000D01*
X138312684Y-97556565D01*
X138326828Y-97691134D01*
X138331956Y-97739928D01*
X138390971Y-97921556D01*
X138486458Y-98086944D01*
X138490876Y-98091851D01*
X138490877Y-98091852D01*
X138586776Y-98198359D01*
X138614245Y-98228866D01*
X138659392Y-98261667D01*
X138746189Y-98324729D01*
X138768746Y-98341118D01*
X138774774Y-98343802D01*
X138774776Y-98343803D01*
X138821777Y-98364729D01*
X138943210Y-98418794D01*
X139034705Y-98438242D01*
X139123554Y-98457128D01*
X139123559Y-98457128D01*
X139130011Y-98458500D01*
X139320985Y-98458500D01*
X139327437Y-98457128D01*
X139327442Y-98457128D01*
X139416291Y-98438242D01*
X139507786Y-98418794D01*
X139629219Y-98364729D01*
X139676220Y-98343803D01*
X139676222Y-98343802D01*
X139682250Y-98341118D01*
X139704808Y-98324729D01*
X139791604Y-98261667D01*
X139836751Y-98228866D01*
X139864220Y-98198359D01*
X139960119Y-98091852D01*
X139960120Y-98091851D01*
X139964538Y-98086944D01*
X140060025Y-97921556D01*
X140119040Y-97739928D01*
X140124169Y-97691134D01*
X140138312Y-97556565D01*
X140139002Y-97550000D01*
X140129550Y-97460072D01*
X140119730Y-97366635D01*
X140119730Y-97366633D01*
X140119040Y-97360072D01*
X140060025Y-97178444D01*
X140056721Y-97172721D01*
X139973373Y-97028358D01*
X139956635Y-96959363D01*
X139979856Y-96892271D01*
X140031240Y-96850253D01*
X140035337Y-96848429D01*
X140035346Y-96848424D01*
X140041374Y-96845740D01*
X140055093Y-96835773D01*
X140096779Y-96805486D01*
X140195875Y-96733488D01*
X140323662Y-96591566D01*
X140419149Y-96426178D01*
X140478164Y-96244550D01*
X140479405Y-96232749D01*
X140497436Y-96061187D01*
X140498126Y-96054622D01*
X140497436Y-96048057D01*
X140497436Y-96041451D01*
X140500287Y-96041451D01*
X140510782Y-95983936D01*
X140559264Y-95932071D01*
X140572095Y-95925453D01*
X140620716Y-95903806D01*
X140620721Y-95903803D01*
X140626752Y-95901118D01*
X140642303Y-95889820D01*
X140750477Y-95811226D01*
X140781253Y-95788866D01*
X140831226Y-95733365D01*
X140904621Y-95651852D01*
X140904622Y-95651851D01*
X140909040Y-95646944D01*
X140980371Y-95523396D01*
X141001223Y-95487279D01*
X141001224Y-95487278D01*
X141004527Y-95481556D01*
X141063542Y-95299928D01*
X141064947Y-95286565D01*
X141082814Y-95116565D01*
X141083504Y-95110000D01*
X141082046Y-95096125D01*
X141073800Y-95017670D01*
X141086572Y-94947832D01*
X141135074Y-94895985D01*
X141192437Y-94880322D01*
X141192318Y-94879190D01*
X141198885Y-94878500D01*
X141205487Y-94878500D01*
X141211939Y-94877128D01*
X141211944Y-94877128D01*
X141307690Y-94856776D01*
X141392288Y-94838794D01*
X141412507Y-94829792D01*
X141560722Y-94763803D01*
X141560724Y-94763802D01*
X141566752Y-94761118D01*
X141721253Y-94648866D01*
X141754996Y-94611391D01*
X141844621Y-94511852D01*
X141844622Y-94511851D01*
X141849040Y-94506944D01*
X141944527Y-94341556D01*
X142003542Y-94159928D01*
X142009970Y-94098774D01*
X142022814Y-93976565D01*
X142023504Y-93970000D01*
X142016186Y-93900370D01*
X142004232Y-93786635D01*
X142004232Y-93786633D01*
X142003542Y-93780072D01*
X141971742Y-93682202D01*
X141969714Y-93611237D01*
X142006376Y-93550439D01*
X142065378Y-93520021D01*
X142097020Y-93513295D01*
X142212288Y-93488794D01*
X142245959Y-93473803D01*
X142380722Y-93413803D01*
X142380724Y-93413802D01*
X142386752Y-93411118D01*
X142405470Y-93397519D01*
X142458670Y-93358866D01*
X142541253Y-93298866D01*
X142557372Y-93280964D01*
X142664621Y-93161852D01*
X142664622Y-93161851D01*
X142669040Y-93156944D01*
X142706059Y-93092825D01*
X142757442Y-93043832D01*
X142827156Y-93030397D01*
X142893067Y-93056784D01*
X142934248Y-93114616D01*
X142940487Y-93142653D01*
X142947695Y-93211226D01*
X142956390Y-93293955D01*
X142958163Y-93310828D01*
X143017178Y-93492456D01*
X143112665Y-93657844D01*
X143117083Y-93662751D01*
X143117084Y-93662752D01*
X143153208Y-93702872D01*
X143240452Y-93799766D01*
X143305720Y-93847186D01*
X143387693Y-93906743D01*
X143394953Y-93912018D01*
X143400981Y-93914702D01*
X143400983Y-93914703D01*
X143563386Y-93987009D01*
X143569417Y-93989694D01*
X143659016Y-94008739D01*
X143749761Y-94028028D01*
X143749766Y-94028028D01*
X143756218Y-94029400D01*
X143947192Y-94029400D01*
X143953644Y-94028028D01*
X143953649Y-94028028D01*
X144044394Y-94008739D01*
X144133993Y-93989694D01*
X144140024Y-93987009D01*
X144302427Y-93914703D01*
X144302429Y-93914702D01*
X144308457Y-93912018D01*
X144315718Y-93906743D01*
X144397690Y-93847186D01*
X144462958Y-93799766D01*
X144550202Y-93702872D01*
X144586326Y-93662752D01*
X144586327Y-93662751D01*
X144590745Y-93657844D01*
X144686232Y-93492456D01*
X144745247Y-93310828D01*
X144747021Y-93293955D01*
X144764519Y-93127465D01*
X144765209Y-93120900D01*
X144762855Y-93098500D01*
X144745937Y-92937535D01*
X144745937Y-92937533D01*
X144745247Y-92930972D01*
X144686232Y-92749344D01*
X144680817Y-92739964D01*
X144626014Y-92645044D01*
X144590745Y-92583956D01*
X144566115Y-92556601D01*
X144467380Y-92446945D01*
X144467379Y-92446944D01*
X144462958Y-92442034D01*
X144328010Y-92343988D01*
X144313799Y-92333663D01*
X144313798Y-92333662D01*
X144308457Y-92329782D01*
X144302429Y-92327098D01*
X144302427Y-92327097D01*
X144140024Y-92254791D01*
X144140023Y-92254791D01*
X144133993Y-92252106D01*
X144013833Y-92226565D01*
X143953649Y-92213772D01*
X143953644Y-92213772D01*
X143947192Y-92212400D01*
X143756218Y-92212400D01*
X143749766Y-92213772D01*
X143749761Y-92213772D01*
X143689577Y-92226565D01*
X143569417Y-92252106D01*
X143563387Y-92254791D01*
X143563386Y-92254791D01*
X143400983Y-92327097D01*
X143400981Y-92327098D01*
X143394953Y-92329782D01*
X143389612Y-92333662D01*
X143389611Y-92333663D01*
X143375400Y-92343988D01*
X143240452Y-92442034D01*
X143236031Y-92446944D01*
X143236030Y-92446945D01*
X143137296Y-92556601D01*
X143112665Y-92583956D01*
X143077396Y-92645044D01*
X143075646Y-92648075D01*
X143024263Y-92697068D01*
X142954549Y-92710503D01*
X142888638Y-92684116D01*
X142847457Y-92626284D01*
X142841217Y-92598244D01*
X142841116Y-92597276D01*
X142826851Y-92461556D01*
X142824232Y-92436635D01*
X142824232Y-92436633D01*
X142823542Y-92430072D01*
X142764527Y-92248444D01*
X142669040Y-92083056D01*
X142652348Y-92064517D01*
X142545675Y-91946045D01*
X142545674Y-91946044D01*
X142541253Y-91941134D01*
X142413677Y-91848444D01*
X142392094Y-91832763D01*
X142392093Y-91832762D01*
X142386752Y-91828882D01*
X142380724Y-91826198D01*
X142380722Y-91826197D01*
X142218319Y-91753891D01*
X142218318Y-91753891D01*
X142212288Y-91751206D01*
X142118887Y-91731353D01*
X142031944Y-91712872D01*
X142031939Y-91712872D01*
X142025487Y-91711500D01*
X141834513Y-91711500D01*
X141828061Y-91712872D01*
X141828056Y-91712872D01*
X141741112Y-91731353D01*
X141647712Y-91751206D01*
X141641682Y-91753891D01*
X141641681Y-91753891D01*
X141479278Y-91826197D01*
X141479276Y-91826198D01*
X141473248Y-91828882D01*
X141467907Y-91832762D01*
X141467906Y-91832763D01*
X141446323Y-91848444D01*
X141318747Y-91941134D01*
X141314326Y-91946044D01*
X141314325Y-91946045D01*
X141207653Y-92064517D01*
X141190960Y-92083056D01*
X141095473Y-92248444D01*
X141036458Y-92430072D01*
X141035768Y-92436633D01*
X141035768Y-92436635D01*
X141033149Y-92461556D01*
X141016496Y-92620000D01*
X141017186Y-92626565D01*
X141033810Y-92784729D01*
X141036458Y-92809928D01*
X141068258Y-92907798D01*
X141070286Y-92978763D01*
X141033624Y-93039561D01*
X140974622Y-93069979D01*
X140954449Y-93074267D01*
X140827712Y-93101206D01*
X140821682Y-93103891D01*
X140821681Y-93103891D01*
X140659278Y-93176197D01*
X140659276Y-93176198D01*
X140653248Y-93178882D01*
X140647907Y-93182762D01*
X140647906Y-93182763D01*
X140608730Y-93211226D01*
X140498747Y-93291134D01*
X140494326Y-93296044D01*
X140494325Y-93296045D01*
X140394208Y-93407237D01*
X140370960Y-93433056D01*
X140336665Y-93492456D01*
X140307621Y-93542763D01*
X140275473Y-93598444D01*
X140216458Y-93780072D01*
X140215768Y-93786633D01*
X140215768Y-93786635D01*
X140203814Y-93900370D01*
X140196496Y-93970000D01*
X140197186Y-93976565D01*
X140206200Y-94062330D01*
X140193428Y-94132168D01*
X140144926Y-94184015D01*
X140087563Y-94199678D01*
X140087682Y-94200810D01*
X140081115Y-94201500D01*
X140074513Y-94201500D01*
X140068061Y-94202872D01*
X140068056Y-94202872D01*
X139981113Y-94221353D01*
X139887712Y-94241206D01*
X139881682Y-94243891D01*
X139881681Y-94243891D01*
X139874166Y-94247237D01*
X139813489Y-94274252D01*
X139743123Y-94283686D01*
X139678826Y-94253580D01*
X139641013Y-94193491D01*
X139636931Y-94172316D01*
X139634232Y-94146635D01*
X139634232Y-94146633D01*
X139633542Y-94140072D01*
X139574527Y-93958444D01*
X139479040Y-93793056D01*
X139461697Y-93773794D01*
X139355675Y-93656045D01*
X139355674Y-93656044D01*
X139351253Y-93651134D01*
X139196752Y-93538882D01*
X139190724Y-93536198D01*
X139190722Y-93536197D01*
X139028319Y-93463891D01*
X139028318Y-93463891D01*
X139022288Y-93461206D01*
X138928888Y-93441353D01*
X138841944Y-93422872D01*
X138841939Y-93422872D01*
X138835487Y-93421500D01*
X138644513Y-93421500D01*
X138638061Y-93422872D01*
X138638056Y-93422872D01*
X138551113Y-93441353D01*
X138457712Y-93461206D01*
X138451682Y-93463891D01*
X138451681Y-93463891D01*
X138289278Y-93536197D01*
X138289276Y-93536198D01*
X138283248Y-93538882D01*
X138128747Y-93651134D01*
X138124326Y-93656044D01*
X138124325Y-93656045D01*
X138018304Y-93773794D01*
X138000960Y-93793056D01*
X137905473Y-93958444D01*
X137846458Y-94140072D01*
X137845768Y-94146633D01*
X137845768Y-94146635D01*
X137834017Y-94258444D01*
X137826496Y-94330000D01*
X131496614Y-94330000D01*
X131502288Y-94328794D01*
X131508319Y-94326109D01*
X131670722Y-94253803D01*
X131670724Y-94253802D01*
X131676752Y-94251118D01*
X131831253Y-94138866D01*
X131837293Y-94132158D01*
X131954621Y-94001852D01*
X131954622Y-94001851D01*
X131959040Y-93996944D01*
X132048057Y-93842762D01*
X132051223Y-93837279D01*
X132051224Y-93837278D01*
X132054527Y-93831556D01*
X132113542Y-93649928D01*
X132119422Y-93593988D01*
X132132814Y-93466565D01*
X132133504Y-93460000D01*
X132128366Y-93411118D01*
X132114232Y-93276635D01*
X132114232Y-93276633D01*
X132113542Y-93270072D01*
X132054527Y-93088444D01*
X132028422Y-93043229D01*
X132011685Y-92974234D01*
X132034906Y-92907142D01*
X132043906Y-92895920D01*
X132164621Y-92761852D01*
X132164622Y-92761851D01*
X132169040Y-92756944D01*
X132264527Y-92591556D01*
X132323542Y-92409928D01*
X132328089Y-92366671D01*
X132342814Y-92226565D01*
X132343504Y-92220000D01*
X132340351Y-92190000D01*
X136016496Y-92190000D01*
X136017186Y-92196565D01*
X136035065Y-92366671D01*
X136036458Y-92379928D01*
X136095473Y-92561556D01*
X136098776Y-92567278D01*
X136098777Y-92567279D01*
X136116096Y-92597276D01*
X136190960Y-92726944D01*
X136195378Y-92731851D01*
X136195379Y-92731852D01*
X136271328Y-92816202D01*
X136318747Y-92868866D01*
X136395587Y-92924694D01*
X136458791Y-92970614D01*
X136473248Y-92981118D01*
X136479276Y-92983802D01*
X136479278Y-92983803D01*
X136631455Y-93051556D01*
X136647712Y-93058794D01*
X136733237Y-93076973D01*
X136828056Y-93097128D01*
X136828061Y-93097128D01*
X136834513Y-93098500D01*
X137025487Y-93098500D01*
X137031939Y-93097128D01*
X137031944Y-93097128D01*
X137126763Y-93076973D01*
X137212288Y-93058794D01*
X137228545Y-93051556D01*
X137380722Y-92983803D01*
X137380724Y-92983802D01*
X137386752Y-92981118D01*
X137401210Y-92970614D01*
X137464413Y-92924694D01*
X137541253Y-92868866D01*
X137588672Y-92816202D01*
X137664621Y-92731852D01*
X137664622Y-92731851D01*
X137669040Y-92726944D01*
X137743904Y-92597276D01*
X137761223Y-92567279D01*
X137761224Y-92567278D01*
X137764527Y-92561556D01*
X137823542Y-92379928D01*
X137824936Y-92366671D01*
X137842814Y-92196565D01*
X137843504Y-92190000D01*
X137831657Y-92077282D01*
X137824232Y-92006635D01*
X137824232Y-92006633D01*
X137823542Y-92000072D01*
X137764527Y-91818444D01*
X137718829Y-91739292D01*
X137669040Y-91653056D01*
X137671456Y-91651661D01*
X137651732Y-91596370D01*
X137667817Y-91527220D01*
X137683890Y-91504876D01*
X137704621Y-91481852D01*
X137704622Y-91481851D01*
X137709040Y-91476944D01*
X137746271Y-91412459D01*
X137801223Y-91317279D01*
X137801224Y-91317278D01*
X137804527Y-91311556D01*
X137863542Y-91129928D01*
X137866746Y-91099449D01*
X137882814Y-90946565D01*
X137883504Y-90940000D01*
X137882110Y-90926737D01*
X137864232Y-90756635D01*
X137864232Y-90756633D01*
X137863542Y-90750072D01*
X137804527Y-90568444D01*
X137798754Y-90558444D01*
X137745153Y-90465606D01*
X137709040Y-90403056D01*
X137696199Y-90388794D01*
X137585675Y-90266045D01*
X137585674Y-90266044D01*
X137581253Y-90261134D01*
X137478350Y-90186370D01*
X137432094Y-90152763D01*
X137432093Y-90152762D01*
X137426752Y-90148882D01*
X137420724Y-90146198D01*
X137420722Y-90146197D01*
X137258319Y-90073891D01*
X137258318Y-90073891D01*
X137252288Y-90071206D01*
X137158888Y-90051353D01*
X137071944Y-90032872D01*
X137071939Y-90032872D01*
X137065487Y-90031500D01*
X136874513Y-90031500D01*
X136868061Y-90032872D01*
X136868056Y-90032872D01*
X136781113Y-90051353D01*
X136687712Y-90071206D01*
X136681682Y-90073891D01*
X136681681Y-90073891D01*
X136519278Y-90146197D01*
X136519276Y-90146198D01*
X136513248Y-90148882D01*
X136507907Y-90152762D01*
X136507906Y-90152763D01*
X136461650Y-90186370D01*
X136358747Y-90261134D01*
X136354326Y-90266044D01*
X136354325Y-90266045D01*
X136243802Y-90388794D01*
X136230960Y-90403056D01*
X136194847Y-90465606D01*
X136141247Y-90558444D01*
X136135473Y-90568444D01*
X136076458Y-90750072D01*
X136075768Y-90756633D01*
X136075768Y-90756635D01*
X136057890Y-90926737D01*
X136056496Y-90940000D01*
X136057186Y-90946565D01*
X136073255Y-91099449D01*
X136076458Y-91129928D01*
X136135473Y-91311556D01*
X136138776Y-91317278D01*
X136138777Y-91317279D01*
X136230960Y-91476944D01*
X136228544Y-91478339D01*
X136248268Y-91533630D01*
X136232183Y-91602780D01*
X136216110Y-91625124D01*
X136190960Y-91653056D01*
X136187657Y-91658777D01*
X136141172Y-91739292D01*
X136095473Y-91818444D01*
X136036458Y-92000072D01*
X136035768Y-92006633D01*
X136035768Y-92006635D01*
X136028343Y-92077282D01*
X136016496Y-92190000D01*
X132340351Y-92190000D01*
X132334501Y-92134338D01*
X132324232Y-92036635D01*
X132324232Y-92036633D01*
X132323542Y-92030072D01*
X132311916Y-91994291D01*
X132309888Y-91923326D01*
X132346550Y-91862527D01*
X132405551Y-91832110D01*
X132562288Y-91798794D01*
X132600341Y-91781852D01*
X132730722Y-91723803D01*
X132730724Y-91723802D01*
X132736752Y-91721118D01*
X132748310Y-91712721D01*
X132822557Y-91658777D01*
X132891253Y-91608866D01*
X132896733Y-91602780D01*
X133014621Y-91471852D01*
X133014622Y-91471851D01*
X133019040Y-91466944D01*
X133092737Y-91339297D01*
X133111223Y-91307279D01*
X133111224Y-91307278D01*
X133114527Y-91301556D01*
X133173542Y-91119928D01*
X133175695Y-91099449D01*
X133192814Y-90936565D01*
X133193504Y-90930000D01*
X133174488Y-90749075D01*
X133187260Y-90679238D01*
X133235762Y-90627392D01*
X133304595Y-90609997D01*
X133371905Y-90632578D01*
X133402719Y-90666150D01*
X133403776Y-90665382D01*
X133407659Y-90670726D01*
X133410960Y-90676444D01*
X133415378Y-90681351D01*
X133415379Y-90681352D01*
X133534325Y-90813455D01*
X133538747Y-90818366D01*
X133637843Y-90890364D01*
X133676608Y-90918528D01*
X133693248Y-90930618D01*
X133699276Y-90933302D01*
X133699278Y-90933303D01*
X133841368Y-90996565D01*
X133867712Y-91008294D01*
X133961112Y-91028147D01*
X134048056Y-91046628D01*
X134048061Y-91046628D01*
X134054513Y-91048000D01*
X134245487Y-91048000D01*
X134251939Y-91046628D01*
X134251944Y-91046628D01*
X134338888Y-91028147D01*
X134432288Y-91008294D01*
X134458632Y-90996565D01*
X134600722Y-90933303D01*
X134600724Y-90933302D01*
X134606752Y-90930618D01*
X134623393Y-90918528D01*
X134662157Y-90890364D01*
X134761253Y-90818366D01*
X134765675Y-90813455D01*
X134884621Y-90681352D01*
X134884622Y-90681351D01*
X134889040Y-90676444D01*
X134954698Y-90562721D01*
X134981223Y-90516779D01*
X134981224Y-90516778D01*
X134984527Y-90511056D01*
X135043542Y-90329428D01*
X135047089Y-90295686D01*
X135061338Y-90160104D01*
X135063504Y-90139500D01*
X135056182Y-90069834D01*
X135044232Y-89956135D01*
X135044232Y-89956133D01*
X135043542Y-89949572D01*
X134984527Y-89767944D01*
X134978903Y-89758202D01*
X134974456Y-89750500D01*
X140056496Y-89750500D01*
X140057186Y-89757065D01*
X140072854Y-89906134D01*
X140076458Y-89940428D01*
X140135473Y-90122056D01*
X140138776Y-90127778D01*
X140138777Y-90127779D01*
X140157440Y-90160104D01*
X140230960Y-90287444D01*
X140235378Y-90292351D01*
X140235379Y-90292352D01*
X140330638Y-90398148D01*
X140358747Y-90429366D01*
X140513248Y-90541618D01*
X140519276Y-90544302D01*
X140519278Y-90544303D01*
X140679015Y-90615422D01*
X140687712Y-90619294D01*
X140781113Y-90639147D01*
X140868056Y-90657628D01*
X140868061Y-90657628D01*
X140874513Y-90659000D01*
X141065487Y-90659000D01*
X141071939Y-90657628D01*
X141071944Y-90657628D01*
X141158887Y-90639147D01*
X141252288Y-90619294D01*
X141260985Y-90615422D01*
X141420722Y-90544303D01*
X141420724Y-90544302D01*
X141426752Y-90541618D01*
X141581253Y-90429366D01*
X141609362Y-90398148D01*
X141704621Y-90292352D01*
X141704622Y-90292351D01*
X141709040Y-90287444D01*
X141782560Y-90160104D01*
X141801223Y-90127779D01*
X141801224Y-90127778D01*
X141804527Y-90122056D01*
X141863542Y-89940428D01*
X141867147Y-89906134D01*
X141882814Y-89757065D01*
X141883504Y-89750500D01*
X141867439Y-89597648D01*
X141864232Y-89567135D01*
X141864232Y-89567133D01*
X141863542Y-89560572D01*
X141804527Y-89378944D01*
X141777556Y-89332228D01*
X141743586Y-89273391D01*
X141709040Y-89213556D01*
X141704309Y-89208301D01*
X141585675Y-89076545D01*
X141585674Y-89076544D01*
X141581253Y-89071634D01*
X141437401Y-88967119D01*
X141432094Y-88963263D01*
X141432093Y-88963262D01*
X141426752Y-88959382D01*
X141420724Y-88956698D01*
X141420722Y-88956697D01*
X141258319Y-88884391D01*
X141258318Y-88884391D01*
X141252288Y-88881706D01*
X141141457Y-88858148D01*
X141071944Y-88843372D01*
X141071939Y-88843372D01*
X141065487Y-88842000D01*
X140874513Y-88842000D01*
X140868061Y-88843372D01*
X140868056Y-88843372D01*
X140798543Y-88858148D01*
X140687712Y-88881706D01*
X140681682Y-88884391D01*
X140681681Y-88884391D01*
X140519278Y-88956697D01*
X140519276Y-88956698D01*
X140513248Y-88959382D01*
X140507907Y-88963262D01*
X140507906Y-88963263D01*
X140502599Y-88967119D01*
X140358747Y-89071634D01*
X140354326Y-89076544D01*
X140354325Y-89076545D01*
X140235692Y-89208301D01*
X140230960Y-89213556D01*
X140196414Y-89273391D01*
X140162445Y-89332228D01*
X140135473Y-89378944D01*
X140076458Y-89560572D01*
X140075768Y-89567133D01*
X140075768Y-89567135D01*
X140072561Y-89597648D01*
X140056496Y-89750500D01*
X134974456Y-89750500D01*
X134912128Y-89642546D01*
X134889040Y-89602556D01*
X134883323Y-89596206D01*
X134765675Y-89465545D01*
X134765674Y-89465544D01*
X134761253Y-89460634D01*
X134640940Y-89373221D01*
X134612094Y-89352263D01*
X134612093Y-89352262D01*
X134606752Y-89348382D01*
X134600724Y-89345698D01*
X134600722Y-89345697D01*
X134438319Y-89273391D01*
X134438318Y-89273391D01*
X134432288Y-89270706D01*
X134327526Y-89248438D01*
X134251944Y-89232372D01*
X134251939Y-89232372D01*
X134245487Y-89231000D01*
X134221886Y-89231000D01*
X134153765Y-89210998D01*
X134107272Y-89157342D01*
X134102053Y-89143936D01*
X134087095Y-89097900D01*
X134064527Y-89028444D01*
X133969040Y-88863056D01*
X133957221Y-88849929D01*
X133845675Y-88726045D01*
X133845674Y-88726044D01*
X133841253Y-88721134D01*
X133701265Y-88619426D01*
X133692094Y-88612763D01*
X133692093Y-88612762D01*
X133686752Y-88608882D01*
X133680724Y-88606198D01*
X133680722Y-88606197D01*
X133518319Y-88533891D01*
X133518318Y-88533891D01*
X133512288Y-88531206D01*
X133398145Y-88506944D01*
X133331944Y-88492872D01*
X133331939Y-88492872D01*
X133325487Y-88491500D01*
X133134513Y-88491500D01*
X133128061Y-88492872D01*
X133128056Y-88492872D01*
X133061855Y-88506944D01*
X132947712Y-88531206D01*
X132941682Y-88533891D01*
X132941681Y-88533891D01*
X132779278Y-88606197D01*
X132779276Y-88606198D01*
X132773248Y-88608882D01*
X132767907Y-88612762D01*
X132767906Y-88612763D01*
X132758735Y-88619426D01*
X132618747Y-88721134D01*
X132614326Y-88726044D01*
X132614325Y-88726045D01*
X132502780Y-88849929D01*
X132490960Y-88863056D01*
X132395473Y-89028444D01*
X132336458Y-89210072D01*
X132335768Y-89216633D01*
X132335768Y-89216635D01*
X132324964Y-89319428D01*
X132316496Y-89400000D01*
X132317186Y-89406565D01*
X132333373Y-89560572D01*
X132336458Y-89589928D01*
X132395473Y-89771556D01*
X132398776Y-89777278D01*
X132398777Y-89777279D01*
X132430659Y-89832500D01*
X132447397Y-89901495D01*
X132424177Y-89968587D01*
X132368369Y-90012474D01*
X132321540Y-90021500D01*
X132184513Y-90021500D01*
X132178061Y-90022872D01*
X132178056Y-90022872D01*
X132091112Y-90041353D01*
X131997712Y-90061206D01*
X131991682Y-90063891D01*
X131991681Y-90063891D01*
X131829278Y-90136197D01*
X131829276Y-90136198D01*
X131823248Y-90138882D01*
X131817907Y-90142762D01*
X131817906Y-90142763D01*
X131744361Y-90196197D01*
X131705366Y-90224529D01*
X131687770Y-90237313D01*
X131620902Y-90261171D01*
X131551751Y-90245091D01*
X131539648Y-90237313D01*
X131492094Y-90202763D01*
X131492093Y-90202762D01*
X131486752Y-90198882D01*
X131480724Y-90196198D01*
X131480722Y-90196197D01*
X131318319Y-90123891D01*
X131318318Y-90123891D01*
X131312288Y-90121206D01*
X131203946Y-90098177D01*
X131131944Y-90082872D01*
X131131939Y-90082872D01*
X131125487Y-90081500D01*
X130934513Y-90081500D01*
X130928061Y-90082872D01*
X130928056Y-90082872D01*
X130856054Y-90098177D01*
X130747712Y-90121206D01*
X130741682Y-90123891D01*
X130741681Y-90123891D01*
X130579278Y-90196197D01*
X130579276Y-90196198D01*
X130573248Y-90198882D01*
X130567907Y-90202762D01*
X130567906Y-90202763D01*
X130561082Y-90207721D01*
X130418747Y-90311134D01*
X130414326Y-90316044D01*
X130414325Y-90316045D01*
X130312291Y-90429366D01*
X130290960Y-90453056D01*
X130195473Y-90618444D01*
X130136458Y-90800072D01*
X130135768Y-90806633D01*
X130135768Y-90806635D01*
X130130968Y-90852306D01*
X130116496Y-90990000D01*
X124829677Y-90990000D01*
X124806224Y-90917821D01*
X124710737Y-90752433D01*
X124702959Y-90743794D01*
X124587372Y-90615422D01*
X124587371Y-90615421D01*
X124582950Y-90610511D01*
X124482786Y-90537737D01*
X124433791Y-90502140D01*
X124433790Y-90502139D01*
X124428449Y-90498259D01*
X124422421Y-90495575D01*
X124422419Y-90495574D01*
X124260016Y-90423268D01*
X124260015Y-90423268D01*
X124253985Y-90420583D01*
X124160584Y-90400730D01*
X124073641Y-90382249D01*
X124073636Y-90382249D01*
X124067184Y-90380877D01*
X123876210Y-90380877D01*
X123869758Y-90382249D01*
X123869753Y-90382249D01*
X123782809Y-90400730D01*
X123689409Y-90420583D01*
X123683379Y-90423268D01*
X123683378Y-90423268D01*
X123520975Y-90495574D01*
X123520973Y-90495575D01*
X123514945Y-90498259D01*
X123509604Y-90502139D01*
X123509603Y-90502140D01*
X123460608Y-90537737D01*
X123360444Y-90610511D01*
X123356023Y-90615421D01*
X123356022Y-90615422D01*
X123240436Y-90743794D01*
X123232657Y-90752433D01*
X123137170Y-90917821D01*
X123078155Y-91099449D01*
X123077465Y-91106010D01*
X123077465Y-91106012D01*
X123065502Y-91219834D01*
X123058193Y-91289377D01*
X123058883Y-91295942D01*
X123077372Y-91471852D01*
X123078155Y-91479305D01*
X123137170Y-91660933D01*
X123140473Y-91666655D01*
X123140474Y-91666656D01*
X123142577Y-91670298D01*
X123143153Y-91672674D01*
X123143158Y-91672684D01*
X123143156Y-91672685D01*
X123159317Y-91739292D01*
X123136099Y-91806385D01*
X123107520Y-91835237D01*
X123063411Y-91867283D01*
X123063403Y-91867290D01*
X123058063Y-91871170D01*
X123005254Y-91929820D01*
X122944810Y-91967058D01*
X122873826Y-91965706D01*
X122814842Y-91926192D01*
X122786584Y-91861062D01*
X122791787Y-91806574D01*
X122798042Y-91787322D01*
X122799350Y-91774883D01*
X122817314Y-91603959D01*
X122817314Y-91603955D01*
X122818004Y-91597394D01*
X122812265Y-91542788D01*
X122798732Y-91414029D01*
X122798732Y-91414027D01*
X122798042Y-91407466D01*
X122739027Y-91225838D01*
X122643540Y-91060450D01*
X122515753Y-90918528D01*
X122383237Y-90822249D01*
X122366594Y-90810157D01*
X122366593Y-90810156D01*
X122361252Y-90806276D01*
X122355224Y-90803592D01*
X122355222Y-90803591D01*
X122192819Y-90731285D01*
X122192818Y-90731285D01*
X122186788Y-90728600D01*
X122093387Y-90708747D01*
X122006444Y-90690266D01*
X122006439Y-90690266D01*
X121999987Y-90688894D01*
X121809013Y-90688894D01*
X121802561Y-90690266D01*
X121802556Y-90690266D01*
X121715612Y-90708747D01*
X121622212Y-90728600D01*
X121616182Y-90731285D01*
X121616181Y-90731285D01*
X121453778Y-90803591D01*
X121453776Y-90803592D01*
X121447748Y-90806276D01*
X121442407Y-90810156D01*
X121442406Y-90810157D01*
X121425763Y-90822249D01*
X121293247Y-90918528D01*
X121165460Y-91060450D01*
X121069973Y-91225838D01*
X121010958Y-91407466D01*
X121010268Y-91414027D01*
X121010268Y-91414029D01*
X120996735Y-91542788D01*
X120990996Y-91597394D01*
X120991686Y-91603955D01*
X120991686Y-91604126D01*
X120971684Y-91672247D01*
X120916935Y-91719233D01*
X120884778Y-91733550D01*
X120884776Y-91733551D01*
X120878748Y-91736235D01*
X120873407Y-91740115D01*
X120873406Y-91740116D01*
X120858142Y-91751206D01*
X120724247Y-91848487D01*
X120719826Y-91853397D01*
X120719825Y-91853398D01*
X120618703Y-91965706D01*
X120596460Y-91990409D01*
X120500973Y-92155797D01*
X120441958Y-92337425D01*
X120441268Y-92343986D01*
X120441268Y-92343988D01*
X120430447Y-92446945D01*
X120421996Y-92527353D01*
X119376539Y-92527353D01*
X119414527Y-92461556D01*
X119473542Y-92279928D01*
X119475797Y-92258478D01*
X119492814Y-92096565D01*
X119493504Y-92090000D01*
X119483445Y-91994293D01*
X119474232Y-91906635D01*
X119474232Y-91906633D01*
X119473542Y-91900072D01*
X119414527Y-91718444D01*
X119319040Y-91553056D01*
X119252635Y-91479305D01*
X119195675Y-91416045D01*
X119195674Y-91416044D01*
X119191253Y-91411134D01*
X119054196Y-91311556D01*
X119042094Y-91302763D01*
X119042093Y-91302762D01*
X119036752Y-91298882D01*
X119030724Y-91296198D01*
X119030722Y-91296197D01*
X118868319Y-91223891D01*
X118868318Y-91223891D01*
X118862288Y-91221206D01*
X118768887Y-91201353D01*
X118681944Y-91182872D01*
X118681939Y-91182872D01*
X118675487Y-91181500D01*
X118484513Y-91181500D01*
X118478061Y-91182872D01*
X118478056Y-91182872D01*
X118391113Y-91201353D01*
X118297712Y-91221206D01*
X118291682Y-91223891D01*
X118291681Y-91223891D01*
X118129278Y-91296197D01*
X118129276Y-91296198D01*
X118123248Y-91298882D01*
X118117907Y-91302762D01*
X118117906Y-91302763D01*
X118105804Y-91311556D01*
X117968747Y-91411134D01*
X117964326Y-91416044D01*
X117964325Y-91416045D01*
X117907366Y-91479305D01*
X117840960Y-91553056D01*
X117745473Y-91718444D01*
X117686458Y-91900072D01*
X117685768Y-91906633D01*
X117685768Y-91906635D01*
X117676555Y-91994293D01*
X117666496Y-92090000D01*
X115414489Y-92090000D01*
X115410357Y-92077282D01*
X115393317Y-92047767D01*
X115318171Y-91917612D01*
X115314870Y-91911894D01*
X115304226Y-91900072D01*
X115191505Y-91774883D01*
X115191504Y-91774882D01*
X115187083Y-91769972D01*
X115087987Y-91697974D01*
X115037924Y-91661601D01*
X115037923Y-91661600D01*
X115032582Y-91657720D01*
X115026554Y-91655036D01*
X115026552Y-91655035D01*
X114864149Y-91582729D01*
X114864148Y-91582729D01*
X114858118Y-91580044D01*
X114758051Y-91558774D01*
X114677774Y-91541710D01*
X114677769Y-91541710D01*
X114671317Y-91540338D01*
X114480343Y-91540338D01*
X114473891Y-91541710D01*
X114473886Y-91541710D01*
X114393609Y-91558774D01*
X114293542Y-91580044D01*
X114287512Y-91582729D01*
X114287511Y-91582729D01*
X114125108Y-91655035D01*
X114125106Y-91655036D01*
X114119078Y-91657720D01*
X114113737Y-91661600D01*
X114113736Y-91661601D01*
X114063673Y-91697974D01*
X113964577Y-91769972D01*
X113960156Y-91774882D01*
X113960155Y-91774883D01*
X113847435Y-91900072D01*
X113836790Y-91911894D01*
X113833489Y-91917612D01*
X113758344Y-92047767D01*
X113741303Y-92077282D01*
X113682288Y-92258910D01*
X113681598Y-92265471D01*
X113681598Y-92265473D01*
X113679662Y-92283891D01*
X113662326Y-92448838D01*
X107275594Y-92448838D01*
X107262121Y-89076954D01*
X107281851Y-89008756D01*
X107335320Y-88962049D01*
X107405553Y-88951665D01*
X107470251Y-88980900D01*
X107486038Y-88997156D01*
X107659098Y-89210867D01*
X107919133Y-89470902D01*
X108204925Y-89702332D01*
X108255642Y-89735268D01*
X108507309Y-89898702D01*
X108513342Y-89902620D01*
X108516276Y-89904115D01*
X108516283Y-89904119D01*
X108821892Y-90059834D01*
X108841006Y-90069573D01*
X108992638Y-90127779D01*
X109172533Y-90196834D01*
X109184326Y-90201361D01*
X109539541Y-90296541D01*
X109732558Y-90327112D01*
X109899511Y-90353555D01*
X109899519Y-90353556D01*
X109902759Y-90354069D01*
X110270000Y-90373315D01*
X110637241Y-90354069D01*
X110640481Y-90353556D01*
X110640489Y-90353555D01*
X110807442Y-90327112D01*
X111000459Y-90296541D01*
X111355674Y-90201361D01*
X111367468Y-90196834D01*
X111547362Y-90127779D01*
X111698994Y-90069573D01*
X111718108Y-90059834D01*
X112023717Y-89904119D01*
X112023724Y-89904115D01*
X112026658Y-89902620D01*
X112032692Y-89898702D01*
X112284358Y-89735268D01*
X112335075Y-89702332D01*
X112620867Y-89470902D01*
X112880902Y-89210867D01*
X113112332Y-88925075D01*
X113247294Y-88717251D01*
X113310822Y-88619426D01*
X113310824Y-88619423D01*
X113312620Y-88616657D01*
X113314155Y-88613646D01*
X113478075Y-88291934D01*
X113479573Y-88288994D01*
X113604543Y-87963435D01*
X113610175Y-87948764D01*
X113610176Y-87948762D01*
X113611361Y-87945674D01*
X113706541Y-87590459D01*
X113753172Y-87296045D01*
X113763555Y-87230489D01*
X113763556Y-87230481D01*
X113764069Y-87227241D01*
X113783315Y-86860000D01*
X113764069Y-86492759D01*
X113754258Y-86430810D01*
X113736146Y-86316460D01*
X113706541Y-86129541D01*
X113611361Y-85774326D01*
X113479573Y-85431006D01*
X113438868Y-85351118D01*
X113314119Y-85106284D01*
X113314115Y-85106277D01*
X113312620Y-85103343D01*
X113308465Y-85096944D01*
X113114134Y-84797700D01*
X113112332Y-84794925D01*
X112880902Y-84509133D01*
X112620867Y-84249098D01*
X112335075Y-84017668D01*
X112195869Y-83927267D01*
X112029427Y-83819178D01*
X112029424Y-83819176D01*
X112026658Y-83817380D01*
X112023724Y-83815885D01*
X112023717Y-83815881D01*
X111741581Y-83672126D01*
X111689966Y-83623378D01*
X111672900Y-83554463D01*
X111695801Y-83487261D01*
X111751398Y-83443109D01*
X111798655Y-83433859D01*
X114838293Y-83430762D01*
X114906433Y-83450695D01*
X114952980Y-83504303D01*
X114963156Y-83574567D01*
X114954057Y-83606803D01*
X114923118Y-83678299D01*
X114892702Y-83748586D01*
X114851844Y-83944166D01*
X114851500Y-83950729D01*
X114851500Y-85047434D01*
X114866619Y-85196280D01*
X114926369Y-85386940D01*
X114929463Y-85392522D01*
X114929464Y-85392524D01*
X114939273Y-85410220D01*
X115023235Y-85561691D01*
X115027391Y-85566540D01*
X115097874Y-85648774D01*
X115153261Y-85713396D01*
X115158298Y-85717303D01*
X115158300Y-85717305D01*
X115306093Y-85831945D01*
X115306096Y-85831947D01*
X115311137Y-85835857D01*
X115316863Y-85838675D01*
X115316867Y-85838677D01*
X115484682Y-85921252D01*
X115490411Y-85924071D01*
X115549126Y-85939365D01*
X115677580Y-85972825D01*
X115677583Y-85972825D01*
X115683762Y-85974435D01*
X115777256Y-85979335D01*
X115876911Y-85984558D01*
X115876915Y-85984558D01*
X115883292Y-85984892D01*
X116080848Y-85955014D01*
X116157494Y-85926814D01*
X116228330Y-85922064D01*
X116290490Y-85956365D01*
X116324238Y-86018828D01*
X116327000Y-86045064D01*
X116327000Y-87153052D01*
X116306998Y-87221173D01*
X116253342Y-87267666D01*
X116183068Y-87277770D01*
X116149753Y-87268159D01*
X116123327Y-87256394D01*
X116123321Y-87256392D01*
X116117288Y-87253706D01*
X116015335Y-87232035D01*
X115936944Y-87215372D01*
X115936939Y-87215372D01*
X115930487Y-87214000D01*
X115739513Y-87214000D01*
X115733061Y-87215372D01*
X115733056Y-87215372D01*
X115654665Y-87232035D01*
X115552712Y-87253706D01*
X115546682Y-87256391D01*
X115546681Y-87256391D01*
X115384278Y-87328697D01*
X115384276Y-87328698D01*
X115378248Y-87331382D01*
X115223747Y-87443634D01*
X115219326Y-87448544D01*
X115219325Y-87448545D01*
X115106551Y-87573794D01*
X115095960Y-87585556D01*
X115000473Y-87750944D01*
X114941458Y-87932572D01*
X114940768Y-87939133D01*
X114940768Y-87939135D01*
X114938583Y-87959928D01*
X114926500Y-88074890D01*
X114926500Y-88970110D01*
X114926844Y-88973380D01*
X114936441Y-89064689D01*
X114941458Y-89112428D01*
X115000473Y-89294056D01*
X115003776Y-89299778D01*
X115003777Y-89299779D01*
X115020004Y-89327884D01*
X115095960Y-89459444D01*
X115100378Y-89464351D01*
X115100379Y-89464352D01*
X115116822Y-89482614D01*
X115223747Y-89601366D01*
X115229088Y-89605246D01*
X115229093Y-89605251D01*
X115283183Y-89644550D01*
X115326536Y-89700772D01*
X115332611Y-89771509D01*
X115299479Y-89834300D01*
X115283182Y-89848421D01*
X115213540Y-89899019D01*
X115203747Y-89906134D01*
X115199326Y-89911044D01*
X115199325Y-89911045D01*
X115086262Y-90036615D01*
X115075960Y-90048056D01*
X115023165Y-90139500D01*
X114986956Y-90202216D01*
X114980473Y-90213444D01*
X114921458Y-90395072D01*
X114920768Y-90401633D01*
X114920768Y-90401635D01*
X114914045Y-90465606D01*
X114901496Y-90585000D01*
X114902186Y-90591565D01*
X114919695Y-90758151D01*
X114921458Y-90774928D01*
X114980473Y-90956556D01*
X115075960Y-91121944D01*
X115080378Y-91126851D01*
X115080379Y-91126852D01*
X115177189Y-91234370D01*
X115203747Y-91263866D01*
X115358248Y-91376118D01*
X115364276Y-91378802D01*
X115364278Y-91378803D01*
X115526681Y-91451109D01*
X115532712Y-91453794D01*
X115594578Y-91466944D01*
X115713056Y-91492128D01*
X115713061Y-91492128D01*
X115719513Y-91493500D01*
X115910487Y-91493500D01*
X115916939Y-91492128D01*
X115916944Y-91492128D01*
X116035422Y-91466944D01*
X116097288Y-91453794D01*
X116103319Y-91451109D01*
X116265722Y-91378803D01*
X116265724Y-91378802D01*
X116271752Y-91376118D01*
X116426253Y-91263866D01*
X116452811Y-91234370D01*
X116549621Y-91126852D01*
X116549622Y-91126851D01*
X116554040Y-91121944D01*
X116649527Y-90956556D01*
X116708542Y-90774928D01*
X116710306Y-90758151D01*
X116727814Y-90591565D01*
X116728504Y-90585000D01*
X116715955Y-90465606D01*
X116709232Y-90401635D01*
X116709232Y-90401633D01*
X116708542Y-90395072D01*
X116649527Y-90213444D01*
X116645184Y-90205921D01*
X116571902Y-90078993D01*
X116555164Y-90009997D01*
X116578385Y-89942906D01*
X116634192Y-89899019D01*
X116704867Y-89892270D01*
X116751537Y-89911573D01*
X116775327Y-89927639D01*
X116775329Y-89927640D01*
X116780459Y-89931104D01*
X116938908Y-89997648D01*
X116944967Y-89998884D01*
X116944973Y-89998886D01*
X117061298Y-90022618D01*
X117069676Y-90024629D01*
X117094734Y-90031557D01*
X117099568Y-90032117D01*
X117107191Y-90033000D01*
X117107185Y-90033050D01*
X117109433Y-90033278D01*
X117109437Y-90033227D01*
X117117073Y-90033889D01*
X117117074Y-90033889D01*
X117121930Y-90034310D01*
X117126791Y-90033979D01*
X117126794Y-90033979D01*
X117148430Y-90032506D01*
X117153973Y-90032251D01*
X117231317Y-90030399D01*
X117281800Y-90029191D01*
X117287846Y-90027837D01*
X117287848Y-90027837D01*
X117346718Y-90014655D01*
X117437758Y-89994270D01*
X117583906Y-89929594D01*
X117588965Y-89926036D01*
X117709566Y-89841210D01*
X117709570Y-89841207D01*
X117714628Y-89837649D01*
X117719537Y-89832500D01*
X117797703Y-89750500D01*
X117824901Y-89721968D01*
X117845790Y-89689025D01*
X117899161Y-89642207D01*
X117952200Y-89630500D01*
X124957800Y-89630500D01*
X125025921Y-89650502D01*
X125064209Y-89689024D01*
X125085099Y-89721968D01*
X125112297Y-89750500D01*
X125190464Y-89832500D01*
X125195372Y-89837649D01*
X125200430Y-89841207D01*
X125200434Y-89841210D01*
X125321035Y-89926036D01*
X125326094Y-89929594D01*
X125472242Y-89994270D01*
X125563282Y-90014655D01*
X125622152Y-90027837D01*
X125622154Y-90027837D01*
X125628200Y-90029191D01*
X125693755Y-90030760D01*
X125736774Y-90031790D01*
X125745387Y-90032292D01*
X125770696Y-90034638D01*
X125770701Y-90034638D01*
X125775555Y-90035088D01*
X125788070Y-90034310D01*
X125788073Y-90034361D01*
X125790326Y-90034188D01*
X125790321Y-90034138D01*
X125802809Y-90033000D01*
X125822120Y-90028165D01*
X125827503Y-90026943D01*
X125971092Y-89997648D01*
X126129541Y-89931104D01*
X126137046Y-89926036D01*
X126266834Y-89838391D01*
X126266837Y-89838389D01*
X126271963Y-89834927D01*
X126338292Y-89767944D01*
X126388529Y-89717211D01*
X126392885Y-89712812D01*
X126396301Y-89707645D01*
X126400200Y-89702846D01*
X126402464Y-89704685D01*
X126447078Y-89666896D01*
X126517461Y-89657583D01*
X126572190Y-89680155D01*
X126603422Y-89702846D01*
X126618248Y-89713618D01*
X126624276Y-89716302D01*
X126624278Y-89716303D01*
X126786681Y-89788609D01*
X126792712Y-89791294D01*
X126886112Y-89811147D01*
X126973056Y-89829628D01*
X126973061Y-89829628D01*
X126979513Y-89831000D01*
X127170487Y-89831000D01*
X127176939Y-89829628D01*
X127176944Y-89829628D01*
X127263888Y-89811147D01*
X127357288Y-89791294D01*
X127363319Y-89788609D01*
X127525722Y-89716303D01*
X127525724Y-89716302D01*
X127531752Y-89713618D01*
X127546579Y-89702846D01*
X127624532Y-89646209D01*
X127686253Y-89601366D01*
X127793178Y-89482614D01*
X127809621Y-89464352D01*
X127809622Y-89464351D01*
X127814040Y-89459444D01*
X127889996Y-89327884D01*
X127906223Y-89299779D01*
X127906224Y-89299778D01*
X127909527Y-89294056D01*
X127968542Y-89112428D01*
X127973560Y-89064689D01*
X127983156Y-88973380D01*
X127983500Y-88970110D01*
X127983500Y-88074890D01*
X127972476Y-87970000D01*
X133976496Y-87970000D01*
X133977186Y-87976565D01*
X133995129Y-88147279D01*
X133996458Y-88159928D01*
X134055473Y-88341556D01*
X134150960Y-88506944D01*
X134155378Y-88511851D01*
X134155379Y-88511852D01*
X134269678Y-88638794D01*
X134278747Y-88648866D01*
X134377843Y-88720864D01*
X134420916Y-88752158D01*
X134433248Y-88761118D01*
X134439276Y-88763802D01*
X134439278Y-88763803D01*
X134601681Y-88836109D01*
X134607712Y-88838794D01*
X134698765Y-88858148D01*
X134788056Y-88877128D01*
X134788061Y-88877128D01*
X134794513Y-88878500D01*
X134985487Y-88878500D01*
X134991939Y-88877128D01*
X134991944Y-88877128D01*
X135081235Y-88858148D01*
X135172288Y-88838794D01*
X135178319Y-88836109D01*
X135340722Y-88763803D01*
X135340724Y-88763802D01*
X135346752Y-88761118D01*
X135359085Y-88752158D01*
X135402157Y-88720864D01*
X135501253Y-88648866D01*
X135510322Y-88638794D01*
X135624621Y-88511852D01*
X135624622Y-88511851D01*
X135629040Y-88506944D01*
X135724527Y-88341556D01*
X135783542Y-88159928D01*
X135784872Y-88147279D01*
X135802814Y-87976565D01*
X135803504Y-87970000D01*
X135796961Y-87907748D01*
X135784232Y-87786635D01*
X135784232Y-87786633D01*
X135783542Y-87780072D01*
X135724527Y-87598444D01*
X135720388Y-87591274D01*
X135648337Y-87466480D01*
X135629040Y-87433056D01*
X135596518Y-87396936D01*
X135505675Y-87296045D01*
X135505674Y-87296044D01*
X135501253Y-87291134D01*
X135386693Y-87207901D01*
X135352094Y-87182763D01*
X135352093Y-87182762D01*
X135346752Y-87178882D01*
X135340724Y-87176198D01*
X135340722Y-87176197D01*
X135178319Y-87103891D01*
X135178318Y-87103891D01*
X135172288Y-87101206D01*
X135078888Y-87081353D01*
X134991944Y-87062872D01*
X134991939Y-87062872D01*
X134985487Y-87061500D01*
X134794513Y-87061500D01*
X134788061Y-87062872D01*
X134788056Y-87062872D01*
X134701113Y-87081353D01*
X134607712Y-87101206D01*
X134601682Y-87103891D01*
X134601681Y-87103891D01*
X134439278Y-87176197D01*
X134439276Y-87176198D01*
X134433248Y-87178882D01*
X134427907Y-87182762D01*
X134427906Y-87182763D01*
X134393307Y-87207901D01*
X134278747Y-87291134D01*
X134274326Y-87296044D01*
X134274325Y-87296045D01*
X134183483Y-87396936D01*
X134150960Y-87433056D01*
X134131663Y-87466480D01*
X134059613Y-87591274D01*
X134055473Y-87598444D01*
X133996458Y-87780072D01*
X133995768Y-87786633D01*
X133995768Y-87786635D01*
X133983039Y-87907748D01*
X133976496Y-87970000D01*
X127972476Y-87970000D01*
X127971417Y-87959928D01*
X127969232Y-87939135D01*
X127969232Y-87939133D01*
X127968542Y-87932572D01*
X127909527Y-87750944D01*
X127814040Y-87585556D01*
X127803450Y-87573794D01*
X127690675Y-87448545D01*
X127690674Y-87448544D01*
X127686253Y-87443634D01*
X127531752Y-87331382D01*
X127525724Y-87328698D01*
X127525722Y-87328697D01*
X127363319Y-87256391D01*
X127363318Y-87256391D01*
X127357288Y-87253706D01*
X127255335Y-87232035D01*
X127176944Y-87215372D01*
X127176939Y-87215372D01*
X127170487Y-87214000D01*
X126979513Y-87214000D01*
X126973061Y-87215372D01*
X126973056Y-87215372D01*
X126894665Y-87232035D01*
X126792712Y-87253706D01*
X126786679Y-87256392D01*
X126786673Y-87256394D01*
X126760247Y-87268159D01*
X126689880Y-87277593D01*
X126625584Y-87247486D01*
X126587771Y-87187396D01*
X126583000Y-87153052D01*
X126583000Y-86048698D01*
X126603002Y-85980577D01*
X126656658Y-85934084D01*
X126726932Y-85923980D01*
X126740761Y-85926767D01*
X126917580Y-85972825D01*
X126917583Y-85972825D01*
X126923762Y-85974435D01*
X127017256Y-85979335D01*
X127116911Y-85984558D01*
X127116915Y-85984558D01*
X127123292Y-85984892D01*
X127320848Y-85955014D01*
X127333642Y-85950307D01*
X127502371Y-85888227D01*
X127502372Y-85888227D01*
X127508361Y-85886023D01*
X127636513Y-85806565D01*
X127672750Y-85784097D01*
X127672751Y-85784096D01*
X127678172Y-85780735D01*
X127823344Y-85643453D01*
X127937946Y-85479784D01*
X128017298Y-85296414D01*
X128058156Y-85100834D01*
X128058500Y-85094271D01*
X128058500Y-83997566D01*
X128053912Y-83952394D01*
X128044026Y-83855066D01*
X128044025Y-83855062D01*
X128043381Y-83848720D01*
X127994860Y-83693891D01*
X127985540Y-83664151D01*
X127985539Y-83664150D01*
X127983631Y-83658060D01*
X127974226Y-83641092D01*
X127961172Y-83617543D01*
X127945641Y-83548266D01*
X127970029Y-83481590D01*
X128026593Y-83438683D01*
X128071318Y-83430457D01*
X131252181Y-83429052D01*
X131320311Y-83449024D01*
X131366828Y-83502659D01*
X131376962Y-83572929D01*
X131347498Y-83637522D01*
X131287789Y-83675932D01*
X131278432Y-83678299D01*
X131217712Y-83691206D01*
X131211682Y-83693891D01*
X131211681Y-83693891D01*
X131049278Y-83766197D01*
X131049276Y-83766198D01*
X131043248Y-83768882D01*
X130888747Y-83881134D01*
X130884326Y-83886044D01*
X130884325Y-83886045D01*
X130781034Y-84000762D01*
X130760960Y-84023056D01*
X130665473Y-84188444D01*
X130606458Y-84370072D01*
X130605768Y-84376633D01*
X130605768Y-84376635D01*
X130592647Y-84501479D01*
X130586496Y-84560000D01*
X130587186Y-84566565D01*
X130597762Y-84667186D01*
X130606458Y-84749928D01*
X130608498Y-84756206D01*
X130636917Y-84843671D01*
X130638945Y-84914638D01*
X130602282Y-84975436D01*
X130568332Y-84997714D01*
X130549280Y-85006196D01*
X130549277Y-85006198D01*
X130543248Y-85008882D01*
X130388747Y-85121134D01*
X130384326Y-85126044D01*
X130384325Y-85126045D01*
X130287163Y-85233955D01*
X130260960Y-85263056D01*
X130165473Y-85428444D01*
X130106458Y-85610072D01*
X130105768Y-85616633D01*
X130105768Y-85616635D01*
X130102489Y-85647835D01*
X130086496Y-85800000D01*
X130087186Y-85806565D01*
X130104830Y-85974435D01*
X130106458Y-85989928D01*
X130165473Y-86171556D01*
X130260960Y-86336944D01*
X130265378Y-86341851D01*
X130265379Y-86341852D01*
X130345477Y-86430810D01*
X130388747Y-86478866D01*
X130543248Y-86591118D01*
X130549276Y-86593802D01*
X130549278Y-86593803D01*
X130707607Y-86664295D01*
X130717712Y-86668794D01*
X130811112Y-86688647D01*
X130898056Y-86707128D01*
X130898061Y-86707128D01*
X130904513Y-86708500D01*
X131095487Y-86708500D01*
X131101939Y-86707128D01*
X131101944Y-86707128D01*
X131188888Y-86688647D01*
X131282288Y-86668794D01*
X131292393Y-86664295D01*
X131450722Y-86593803D01*
X131450724Y-86593802D01*
X131456752Y-86591118D01*
X131611253Y-86478866D01*
X131654523Y-86430810D01*
X131734621Y-86341852D01*
X131734622Y-86341851D01*
X131739040Y-86336944D01*
X131834527Y-86171556D01*
X131893542Y-85989928D01*
X131895171Y-85974435D01*
X131912814Y-85806565D01*
X131913504Y-85800000D01*
X131897511Y-85647835D01*
X131894232Y-85616635D01*
X131894232Y-85616633D01*
X131893542Y-85610072D01*
X131863083Y-85516329D01*
X131861055Y-85445362D01*
X131897718Y-85384564D01*
X131931668Y-85362286D01*
X131950720Y-85353804D01*
X131950723Y-85353802D01*
X131956752Y-85351118D01*
X132111253Y-85238866D01*
X132121450Y-85227541D01*
X132234621Y-85101852D01*
X132234622Y-85101851D01*
X132239040Y-85096944D01*
X132334527Y-84931556D01*
X132393542Y-84749928D01*
X132402239Y-84667186D01*
X132412814Y-84566565D01*
X132413504Y-84560000D01*
X132407353Y-84501479D01*
X132394232Y-84376635D01*
X132394232Y-84376633D01*
X132393542Y-84370072D01*
X132334527Y-84188444D01*
X132239040Y-84023056D01*
X132218967Y-84000762D01*
X132115675Y-83886045D01*
X132115674Y-83886044D01*
X132111253Y-83881134D01*
X131956752Y-83768882D01*
X131950724Y-83766198D01*
X131950722Y-83766197D01*
X131788319Y-83693891D01*
X131788318Y-83693891D01*
X131782288Y-83691206D01*
X131775833Y-83689834D01*
X131775830Y-83689833D01*
X131744347Y-83683141D01*
X131720538Y-83678081D01*
X131658065Y-83644353D01*
X131623744Y-83582204D01*
X131628471Y-83511365D01*
X131670746Y-83454327D01*
X131737147Y-83429199D01*
X131746679Y-83428834D01*
X143501706Y-83423643D01*
X143569836Y-83443615D01*
G37*
%TD.AperFunction*%
%TD*%
M02*
