%TF.GenerationSoftware,KiCad,Pcbnew,(6.0.2)*%
%TF.CreationDate,2022-07-06T09:12:25-05:00*%
%TF.ProjectId,pdsupply-PPS,70647375-7070-46c7-992d-5050532e6b69,rev?*%
%TF.SameCoordinates,Original*%
%TF.FileFunction,Profile,NP*%
%FSLAX46Y46*%
G04 Gerber Fmt 4.6, Leading zero omitted, Abs format (unit mm)*
G04 Created by KiCad (PCBNEW (6.0.2)) date 2022-07-06 09:12:25*
%MOMM*%
%LPD*%
G01*
G04 APERTURE LIST*
%TA.AperFunction,Profile*%
%ADD10C,0.100000*%
%TD*%
%TA.AperFunction,Profile*%
%ADD11C,0.010000*%
%TD*%
G04 APERTURE END LIST*
D10*
X115095000Y-82922500D02*
X107733553Y-82930000D01*
X146287107Y-106817107D02*
X146270000Y-118992893D01*
X106733553Y-83930000D02*
X106796447Y-99671447D01*
X107733553Y-82930000D02*
G75*
G03*
X106733553Y-83930000I-1J-999999D01*
G01*
X107733554Y-120034340D02*
X145270000Y-119992893D01*
X147287107Y-105817107D02*
G75*
G03*
X146287107Y-106817107I-1J-999999D01*
G01*
X157270000Y-104860000D02*
X157280000Y-83910000D01*
X145270000Y-119992893D02*
G75*
G03*
X146270000Y-118992893I1J999999D01*
G01*
X106796447Y-112551447D02*
X106733554Y-119034340D01*
X127975000Y-82922500D02*
X156280000Y-82910000D01*
X157280000Y-83910000D02*
G75*
G03*
X156280000Y-82910000I-999999J1D01*
G01*
X156270000Y-105860000D02*
G75*
G03*
X157270000Y-104860000I1J999999D01*
G01*
X156270000Y-105860000D02*
X147287107Y-105817107D01*
X106733554Y-119034340D02*
G75*
G03*
X107733554Y-120034340I999999J-1D01*
G01*
D11*
%TO.C,J1*%
X106796447Y-99671447D02*
X106796447Y-101571447D01*
X112996447Y-102371447D02*
X112996447Y-110011447D01*
X112996447Y-110811447D02*
X106796447Y-110811447D01*
X106796447Y-110811447D02*
X106796447Y-112551447D01*
X106796447Y-101571447D02*
X112996447Y-101571447D01*
X113116447Y-102221447D02*
G75*
G03*
X113396447Y-101896447I-22499J302499D01*
G01*
X112996447Y-110011447D02*
G75*
G03*
X113116447Y-110161447I135000J-15000D01*
G01*
X113396448Y-101896447D02*
G75*
G03*
X112996447Y-101571447I-362500J-37499D01*
G01*
X113116447Y-102221447D02*
G75*
G03*
X112996447Y-102371447I15000J-135000D01*
G01*
X113396447Y-110486447D02*
G75*
G03*
X113116447Y-110161447I-302499J22501D01*
G01*
X112996447Y-110811446D02*
G75*
G03*
X113396447Y-110486447I37501J362498D01*
G01*
%TO.C,J2*%
X127975000Y-82922500D02*
X126075000Y-82922500D01*
X125275000Y-89122500D02*
X117635000Y-89122500D01*
X126075000Y-82922500D02*
X126075000Y-89122500D01*
X116835000Y-89122500D02*
X116835000Y-82922500D01*
X116835000Y-82922500D02*
X115095000Y-82922500D01*
X125750000Y-89522501D02*
G75*
G03*
X126075000Y-89122500I-37499J362500D01*
G01*
X117160000Y-89522500D02*
G75*
G03*
X117485000Y-89242500I22501J302499D01*
G01*
X125425000Y-89242500D02*
G75*
G03*
X125275000Y-89122500I-135000J-15000D01*
G01*
X116835001Y-89122500D02*
G75*
G03*
X117160000Y-89522500I362498J-37501D01*
G01*
X117635000Y-89122500D02*
G75*
G03*
X117485000Y-89242500I-15000J-135000D01*
G01*
X125425000Y-89242500D02*
G75*
G03*
X125750000Y-89522500I302499J22499D01*
G01*
%TD*%
M02*
