%TF.GenerationSoftware,KiCad,Pcbnew,(6.0.2)*%
%TF.CreationDate,2022-07-06T09:12:25-05:00*%
%TF.ProjectId,pdsupply-PPS,70647375-7070-46c7-992d-5050532e6b69,rev?*%
%TF.SameCoordinates,Original*%
%TF.FileFunction,Copper,L1,Top*%
%TF.FilePolarity,Positive*%
%FSLAX46Y46*%
G04 Gerber Fmt 4.6, Leading zero omitted, Abs format (unit mm)*
G04 Created by KiCad (PCBNEW (6.0.2)) date 2022-07-06 09:12:25*
%MOMM*%
%LPD*%
G01*
G04 APERTURE LIST*
G04 Aperture macros list*
%AMRoundRect*
0 Rectangle with rounded corners*
0 $1 Rounding radius*
0 $2 $3 $4 $5 $6 $7 $8 $9 X,Y pos of 4 corners*
0 Add a 4 corners polygon primitive as box body*
4,1,4,$2,$3,$4,$5,$6,$7,$8,$9,$2,$3,0*
0 Add four circle primitives for the rounded corners*
1,1,$1+$1,$2,$3*
1,1,$1+$1,$4,$5*
1,1,$1+$1,$6,$7*
1,1,$1+$1,$8,$9*
0 Add four rect primitives between the rounded corners*
20,1,$1+$1,$2,$3,$4,$5,0*
20,1,$1+$1,$4,$5,$6,$7,0*
20,1,$1+$1,$6,$7,$8,$9,0*
20,1,$1+$1,$8,$9,$2,$3,0*%
%AMRotRect*
0 Rectangle, with rotation*
0 The origin of the aperture is its center*
0 $1 length*
0 $2 width*
0 $3 Rotation angle, in degrees counterclockwise*
0 Add horizontal line*
21,1,$1,$2,0,0,$3*%
%AMFreePoly0*
4,1,6,1.000000,0.000000,0.500000,-0.750000,-0.500000,-0.750000,-0.500000,0.750000,0.500000,0.750000,1.000000,0.000000,1.000000,0.000000,$1*%
%AMFreePoly1*
4,1,6,0.500000,-0.750000,-0.650000,-0.750000,-0.150000,0.000000,-0.650000,0.750000,0.500000,0.750000,0.500000,-0.750000,0.500000,-0.750000,$1*%
G04 Aperture macros list end*
%TA.AperFunction,EtchedComponent*%
%ADD10C,0.010000*%
%TD*%
%TA.AperFunction,SMDPad,CuDef*%
%ADD11RoundRect,0.150000X-0.875000X-0.150000X0.875000X-0.150000X0.875000X0.150000X-0.875000X0.150000X0*%
%TD*%
%TA.AperFunction,SMDPad,CuDef*%
%ADD12RoundRect,0.250000X-0.325000X-0.650000X0.325000X-0.650000X0.325000X0.650000X-0.325000X0.650000X0*%
%TD*%
%TA.AperFunction,SMDPad,CuDef*%
%ADD13RoundRect,0.200000X-0.200000X-0.275000X0.200000X-0.275000X0.200000X0.275000X-0.200000X0.275000X0*%
%TD*%
%TA.AperFunction,SMDPad,CuDef*%
%ADD14RoundRect,0.200000X-0.275000X0.200000X-0.275000X-0.200000X0.275000X-0.200000X0.275000X0.200000X0*%
%TD*%
%TA.AperFunction,SMDPad,CuDef*%
%ADD15RoundRect,0.225000X-0.225000X-0.250000X0.225000X-0.250000X0.225000X0.250000X-0.225000X0.250000X0*%
%TD*%
%TA.AperFunction,SMDPad,CuDef*%
%ADD16R,1.100000X0.600000*%
%TD*%
%TA.AperFunction,SMDPad,CuDef*%
%ADD17R,1.100000X0.300000*%
%TD*%
%TA.AperFunction,ComponentPad*%
%ADD18O,1.900000X0.950000*%
%TD*%
%TA.AperFunction,ComponentPad*%
%ADD19O,1.600000X0.800000*%
%TD*%
%TA.AperFunction,SMDPad,CuDef*%
%ADD20RoundRect,0.225000X0.017678X-0.335876X0.335876X-0.017678X-0.017678X0.335876X-0.335876X0.017678X0*%
%TD*%
%TA.AperFunction,SMDPad,CuDef*%
%ADD21FreePoly0,0.000000*%
%TD*%
%TA.AperFunction,SMDPad,CuDef*%
%ADD22FreePoly1,0.000000*%
%TD*%
%TA.AperFunction,ComponentPad*%
%ADD23R,2.600000X2.600000*%
%TD*%
%TA.AperFunction,ComponentPad*%
%ADD24C,2.600000*%
%TD*%
%TA.AperFunction,SMDPad,CuDef*%
%ADD25R,1.100000X1.950000*%
%TD*%
%TA.AperFunction,SMDPad,CuDef*%
%ADD26RoundRect,0.225000X-0.250000X0.225000X-0.250000X-0.225000X0.250000X-0.225000X0.250000X0.225000X0*%
%TD*%
%TA.AperFunction,SMDPad,CuDef*%
%ADD27RoundRect,0.200000X0.275000X-0.200000X0.275000X0.200000X-0.275000X0.200000X-0.275000X-0.200000X0*%
%TD*%
%TA.AperFunction,SMDPad,CuDef*%
%ADD28RotRect,1.950000X1.100000X135.000000*%
%TD*%
%TA.AperFunction,SMDPad,CuDef*%
%ADD29RoundRect,0.225000X0.250000X-0.225000X0.250000X0.225000X-0.250000X0.225000X-0.250000X-0.225000X0*%
%TD*%
%TA.AperFunction,SMDPad,CuDef*%
%ADD30RoundRect,0.218750X-0.381250X0.218750X-0.381250X-0.218750X0.381250X-0.218750X0.381250X0.218750X0*%
%TD*%
%TA.AperFunction,SMDPad,CuDef*%
%ADD31RoundRect,0.200000X0.200000X0.275000X-0.200000X0.275000X-0.200000X-0.275000X0.200000X-0.275000X0*%
%TD*%
%TA.AperFunction,SMDPad,CuDef*%
%ADD32R,1.950000X1.100000*%
%TD*%
%TA.AperFunction,SMDPad,CuDef*%
%ADD33RoundRect,0.218750X-0.218750X-0.256250X0.218750X-0.256250X0.218750X0.256250X-0.218750X0.256250X0*%
%TD*%
%TA.AperFunction,SMDPad,CuDef*%
%ADD34RoundRect,0.225000X0.225000X0.250000X-0.225000X0.250000X-0.225000X-0.250000X0.225000X-0.250000X0*%
%TD*%
%TA.AperFunction,SMDPad,CuDef*%
%ADD35RoundRect,0.218750X-0.218750X-0.381250X0.218750X-0.381250X0.218750X0.381250X-0.218750X0.381250X0*%
%TD*%
%TA.AperFunction,SMDPad,CuDef*%
%ADD36RoundRect,0.062500X-0.312500X-0.062500X0.312500X-0.062500X0.312500X0.062500X-0.312500X0.062500X0*%
%TD*%
%TA.AperFunction,SMDPad,CuDef*%
%ADD37RoundRect,0.062500X-0.062500X-0.312500X0.062500X-0.312500X0.062500X0.312500X-0.062500X0.312500X0*%
%TD*%
%TA.AperFunction,SMDPad,CuDef*%
%ADD38R,1.750000X1.750000*%
%TD*%
%TA.AperFunction,SMDPad,CuDef*%
%ADD39RoundRect,0.250000X-0.475000X0.250000X-0.475000X-0.250000X0.475000X-0.250000X0.475000X0.250000X0*%
%TD*%
%TA.AperFunction,SMDPad,CuDef*%
%ADD40RoundRect,0.225000X-0.017678X0.335876X-0.335876X0.017678X0.017678X-0.335876X0.335876X-0.017678X0*%
%TD*%
%TA.AperFunction,SMDPad,CuDef*%
%ADD41FreePoly0,180.000000*%
%TD*%
%TA.AperFunction,SMDPad,CuDef*%
%ADD42FreePoly1,180.000000*%
%TD*%
%TA.AperFunction,SMDPad,CuDef*%
%ADD43C,0.208000*%
%TD*%
%TA.AperFunction,SMDPad,CuDef*%
%ADD44C,0.450000*%
%TD*%
%TA.AperFunction,ComponentPad*%
%ADD45C,6.000000*%
%TD*%
%TA.AperFunction,SMDPad,CuDef*%
%ADD46C,0.787400*%
%TD*%
%TA.AperFunction,SMDPad,CuDef*%
%ADD47R,0.600000X1.100000*%
%TD*%
%TA.AperFunction,SMDPad,CuDef*%
%ADD48R,0.300000X1.100000*%
%TD*%
%TA.AperFunction,ComponentPad*%
%ADD49O,0.950000X1.900000*%
%TD*%
%TA.AperFunction,ComponentPad*%
%ADD50O,0.800000X1.600000*%
%TD*%
%TA.AperFunction,SMDPad,CuDef*%
%ADD51RoundRect,0.218750X0.218750X0.256250X-0.218750X0.256250X-0.218750X-0.256250X0.218750X-0.256250X0*%
%TD*%
%TA.AperFunction,SMDPad,CuDef*%
%ADD52RoundRect,0.250000X-1.100000X0.325000X-1.100000X-0.325000X1.100000X-0.325000X1.100000X0.325000X0*%
%TD*%
%TA.AperFunction,SMDPad,CuDef*%
%ADD53R,0.800000X1.270000*%
%TD*%
%TA.AperFunction,SMDPad,CuDef*%
%ADD54R,0.850000X0.300000*%
%TD*%
%TA.AperFunction,SMDPad,CuDef*%
%ADD55R,0.300000X0.850000*%
%TD*%
%TA.AperFunction,SMDPad,CuDef*%
%ADD56RoundRect,0.062500X0.375000X0.062500X-0.375000X0.062500X-0.375000X-0.062500X0.375000X-0.062500X0*%
%TD*%
%TA.AperFunction,SMDPad,CuDef*%
%ADD57RoundRect,0.062500X0.062500X0.375000X-0.062500X0.375000X-0.062500X-0.375000X0.062500X-0.375000X0*%
%TD*%
%TA.AperFunction,SMDPad,CuDef*%
%ADD58R,3.450000X3.450000*%
%TD*%
%TA.AperFunction,SMDPad,CuDef*%
%ADD59RoundRect,0.250000X-0.650000X0.325000X-0.650000X-0.325000X0.650000X-0.325000X0.650000X0.325000X0*%
%TD*%
%TA.AperFunction,ViaPad*%
%ADD60C,0.800000*%
%TD*%
%TA.AperFunction,Conductor*%
%ADD61C,0.300000*%
%TD*%
%TA.AperFunction,Conductor*%
%ADD62C,0.500000*%
%TD*%
%TA.AperFunction,Conductor*%
%ADD63C,0.200000*%
%TD*%
%TA.AperFunction,Conductor*%
%ADD64C,0.100000*%
%TD*%
%TA.AperFunction,Conductor*%
%ADD65C,0.250000*%
%TD*%
%TA.AperFunction,Conductor*%
%ADD66C,0.750000*%
%TD*%
G04 APERTURE END LIST*
D10*
%TO.C,J1*%
X111496447Y-100571447D02*
X111497447Y-100545447D01*
X111497447Y-100545447D02*
X111499447Y-100519447D01*
X111499447Y-100519447D02*
X111502447Y-100493447D01*
X111502447Y-100493447D02*
X111507447Y-100467447D01*
X111507447Y-100467447D02*
X111513447Y-100442447D01*
X111513447Y-100442447D02*
X111520447Y-100416447D01*
X111520447Y-100416447D02*
X111529447Y-100392447D01*
X111529447Y-100392447D02*
X111539447Y-100368447D01*
X111539447Y-100368447D02*
X111550447Y-100344447D01*
X111550447Y-100344447D02*
X111563447Y-100321447D01*
X111563447Y-100321447D02*
X111577447Y-100299447D01*
X111577447Y-100299447D02*
X111591447Y-100277447D01*
X111591447Y-100277447D02*
X111607447Y-100256447D01*
X111607447Y-100256447D02*
X111624447Y-100236447D01*
X111624447Y-100236447D02*
X111642447Y-100217447D01*
X111642447Y-100217447D02*
X111661447Y-100199447D01*
X111661447Y-100199447D02*
X111681447Y-100182447D01*
X111681447Y-100182447D02*
X111702447Y-100166447D01*
X111702447Y-100166447D02*
X111724447Y-100152447D01*
X111724447Y-100152447D02*
X111746447Y-100138447D01*
X111746447Y-100138447D02*
X111769447Y-100125447D01*
X111769447Y-100125447D02*
X111793447Y-100114447D01*
X111793447Y-100114447D02*
X111817447Y-100104447D01*
X111817447Y-100104447D02*
X111841447Y-100095447D01*
X111841447Y-100095447D02*
X111867447Y-100088447D01*
X111867447Y-100088447D02*
X111892447Y-100082447D01*
X111892447Y-100082447D02*
X111918447Y-100077447D01*
X111918447Y-100077447D02*
X111944447Y-100074447D01*
X111944447Y-100074447D02*
X111970447Y-100072447D01*
X111970447Y-100072447D02*
X111996447Y-100071447D01*
X111996447Y-100071447D02*
X112796447Y-100071447D01*
X112796447Y-100071447D02*
X112822447Y-100072447D01*
X112822447Y-100072447D02*
X112848447Y-100074447D01*
X112848447Y-100074447D02*
X112874447Y-100077447D01*
X112874447Y-100077447D02*
X112900447Y-100082447D01*
X112900447Y-100082447D02*
X112925447Y-100088447D01*
X112925447Y-100088447D02*
X112951447Y-100095447D01*
X112951447Y-100095447D02*
X112975447Y-100104447D01*
X112975447Y-100104447D02*
X112999447Y-100114447D01*
X112999447Y-100114447D02*
X113023447Y-100125447D01*
X113023447Y-100125447D02*
X113046447Y-100138447D01*
X113046447Y-100138447D02*
X113068447Y-100152447D01*
X113068447Y-100152447D02*
X113090447Y-100166447D01*
X113090447Y-100166447D02*
X113111447Y-100182447D01*
X113111447Y-100182447D02*
X113131447Y-100199447D01*
X113131447Y-100199447D02*
X113150447Y-100217447D01*
X113150447Y-100217447D02*
X113168447Y-100236447D01*
X113168447Y-100236447D02*
X113185447Y-100256447D01*
X113185447Y-100256447D02*
X113201447Y-100277447D01*
X113201447Y-100277447D02*
X113215447Y-100299447D01*
X113215447Y-100299447D02*
X113229447Y-100321447D01*
X113229447Y-100321447D02*
X113242447Y-100344447D01*
X113242447Y-100344447D02*
X113253447Y-100368447D01*
X113253447Y-100368447D02*
X113263447Y-100392447D01*
X113263447Y-100392447D02*
X113272447Y-100416447D01*
X113272447Y-100416447D02*
X113279447Y-100442447D01*
X113279447Y-100442447D02*
X113285447Y-100467447D01*
X113285447Y-100467447D02*
X113290447Y-100493447D01*
X113290447Y-100493447D02*
X113293447Y-100519447D01*
X113293447Y-100519447D02*
X113295447Y-100545447D01*
X113295447Y-100545447D02*
X113296447Y-100571447D01*
X113296447Y-100571447D02*
X113295447Y-100597447D01*
X113295447Y-100597447D02*
X113293447Y-100623447D01*
X113293447Y-100623447D02*
X113290447Y-100649447D01*
X113290447Y-100649447D02*
X113285447Y-100675447D01*
X113285447Y-100675447D02*
X113279447Y-100700447D01*
X113279447Y-100700447D02*
X113272447Y-100726447D01*
X113272447Y-100726447D02*
X113263447Y-100750447D01*
X113263447Y-100750447D02*
X113253447Y-100774447D01*
X113253447Y-100774447D02*
X113242447Y-100798447D01*
X113242447Y-100798447D02*
X113229447Y-100821447D01*
X113229447Y-100821447D02*
X113215447Y-100843447D01*
X113215447Y-100843447D02*
X113201447Y-100865447D01*
X113201447Y-100865447D02*
X113185447Y-100886447D01*
X113185447Y-100886447D02*
X113168447Y-100906447D01*
X113168447Y-100906447D02*
X113150447Y-100925447D01*
X113150447Y-100925447D02*
X113131447Y-100943447D01*
X113131447Y-100943447D02*
X113111447Y-100960447D01*
X113111447Y-100960447D02*
X113090447Y-100976447D01*
X113090447Y-100976447D02*
X113068447Y-100990447D01*
X113068447Y-100990447D02*
X113046447Y-101004447D01*
X113046447Y-101004447D02*
X113023447Y-101017447D01*
X113023447Y-101017447D02*
X112999447Y-101028447D01*
X112999447Y-101028447D02*
X112975447Y-101038447D01*
X112975447Y-101038447D02*
X112951447Y-101047447D01*
X112951447Y-101047447D02*
X112925447Y-101054447D01*
X112925447Y-101054447D02*
X112900447Y-101060447D01*
X112900447Y-101060447D02*
X112874447Y-101065447D01*
X112874447Y-101065447D02*
X112848447Y-101068447D01*
X112848447Y-101068447D02*
X112822447Y-101070447D01*
X112822447Y-101070447D02*
X112796447Y-101071447D01*
X112796447Y-101071447D02*
X111996447Y-101071447D01*
X111996447Y-101071447D02*
X111970447Y-101070447D01*
X111970447Y-101070447D02*
X111944447Y-101068447D01*
X111944447Y-101068447D02*
X111918447Y-101065447D01*
X111918447Y-101065447D02*
X111892447Y-101060447D01*
X111892447Y-101060447D02*
X111867447Y-101054447D01*
X111867447Y-101054447D02*
X111841447Y-101047447D01*
X111841447Y-101047447D02*
X111817447Y-101038447D01*
X111817447Y-101038447D02*
X111793447Y-101028447D01*
X111793447Y-101028447D02*
X111769447Y-101017447D01*
X111769447Y-101017447D02*
X111746447Y-101004447D01*
X111746447Y-101004447D02*
X111724447Y-100990447D01*
X111724447Y-100990447D02*
X111702447Y-100976447D01*
X111702447Y-100976447D02*
X111681447Y-100960447D01*
X111681447Y-100960447D02*
X111661447Y-100943447D01*
X111661447Y-100943447D02*
X111642447Y-100925447D01*
X111642447Y-100925447D02*
X111624447Y-100906447D01*
X111624447Y-100906447D02*
X111607447Y-100886447D01*
X111607447Y-100886447D02*
X111591447Y-100865447D01*
X111591447Y-100865447D02*
X111577447Y-100843447D01*
X111577447Y-100843447D02*
X111563447Y-100821447D01*
X111563447Y-100821447D02*
X111550447Y-100798447D01*
X111550447Y-100798447D02*
X111539447Y-100774447D01*
X111539447Y-100774447D02*
X111529447Y-100750447D01*
X111529447Y-100750447D02*
X111520447Y-100726447D01*
X111520447Y-100726447D02*
X111513447Y-100700447D01*
X111513447Y-100700447D02*
X111507447Y-100675447D01*
X111507447Y-100675447D02*
X111502447Y-100649447D01*
X111502447Y-100649447D02*
X111499447Y-100623447D01*
X111499447Y-100623447D02*
X111497447Y-100597447D01*
X111497447Y-100597447D02*
X111496447Y-100571447D01*
X111496447Y-100571447D02*
X111496447Y-100571447D01*
G36*
X112822447Y-100072447D02*
G01*
X112848447Y-100074447D01*
X112874447Y-100077447D01*
X112900447Y-100082447D01*
X112925447Y-100088447D01*
X112951447Y-100095447D01*
X112975447Y-100104447D01*
X112999447Y-100114447D01*
X113023447Y-100125447D01*
X113046447Y-100138447D01*
X113090447Y-100166447D01*
X113111447Y-100182447D01*
X113131447Y-100199447D01*
X113150447Y-100217447D01*
X113168447Y-100236447D01*
X113185447Y-100256447D01*
X113201447Y-100277447D01*
X113229447Y-100321447D01*
X113242447Y-100344447D01*
X113253447Y-100368447D01*
X113263447Y-100392447D01*
X113272447Y-100416447D01*
X113279447Y-100442447D01*
X113285447Y-100467447D01*
X113290447Y-100493447D01*
X113293447Y-100519447D01*
X113295447Y-100545447D01*
X113296447Y-100571447D01*
X113295447Y-100597447D01*
X113293447Y-100623447D01*
X113290447Y-100649447D01*
X113285447Y-100675447D01*
X113279447Y-100700447D01*
X113272447Y-100726447D01*
X113263447Y-100750447D01*
X113253447Y-100774447D01*
X113242447Y-100798447D01*
X113229447Y-100821447D01*
X113201447Y-100865447D01*
X113185447Y-100886447D01*
X113168447Y-100906447D01*
X113150447Y-100925447D01*
X113131447Y-100943447D01*
X113111447Y-100960447D01*
X113090447Y-100976447D01*
X113046447Y-101004447D01*
X113023447Y-101017447D01*
X112999447Y-101028447D01*
X112975447Y-101038447D01*
X112951447Y-101047447D01*
X112925447Y-101054447D01*
X112900447Y-101060447D01*
X112874447Y-101065447D01*
X112848447Y-101068447D01*
X112822447Y-101070447D01*
X112796447Y-101071447D01*
X111996447Y-101071447D01*
X111970447Y-101070447D01*
X111944447Y-101068447D01*
X111918447Y-101065447D01*
X111892447Y-101060447D01*
X111867447Y-101054447D01*
X111841447Y-101047447D01*
X111817447Y-101038447D01*
X111793447Y-101028447D01*
X111769447Y-101017447D01*
X111746447Y-101004447D01*
X111702447Y-100976447D01*
X111681447Y-100960447D01*
X111661447Y-100943447D01*
X111642447Y-100925447D01*
X111624447Y-100906447D01*
X111607447Y-100886447D01*
X111591447Y-100865447D01*
X111563447Y-100821447D01*
X111550447Y-100798447D01*
X111539447Y-100774447D01*
X111529447Y-100750447D01*
X111520447Y-100726447D01*
X111513447Y-100700447D01*
X111507447Y-100675447D01*
X111502447Y-100649447D01*
X111499447Y-100623447D01*
X111497447Y-100597447D01*
X111496447Y-100571447D01*
X111497447Y-100545447D01*
X111499447Y-100519447D01*
X111502447Y-100493447D01*
X111507447Y-100467447D01*
X111513447Y-100442447D01*
X111520447Y-100416447D01*
X111529447Y-100392447D01*
X111539447Y-100368447D01*
X111550447Y-100344447D01*
X111563447Y-100321447D01*
X111591447Y-100277447D01*
X111607447Y-100256447D01*
X111624447Y-100236447D01*
X111642447Y-100217447D01*
X111661447Y-100199447D01*
X111681447Y-100182447D01*
X111702447Y-100166447D01*
X111746447Y-100138447D01*
X111769447Y-100125447D01*
X111793447Y-100114447D01*
X111817447Y-100104447D01*
X111841447Y-100095447D01*
X111867447Y-100088447D01*
X111892447Y-100082447D01*
X111918447Y-100077447D01*
X111944447Y-100074447D01*
X111970447Y-100072447D01*
X111996447Y-100071447D01*
X112796447Y-100071447D01*
X112822447Y-100072447D01*
G37*
X112822447Y-100072447D02*
X112848447Y-100074447D01*
X112874447Y-100077447D01*
X112900447Y-100082447D01*
X112925447Y-100088447D01*
X112951447Y-100095447D01*
X112975447Y-100104447D01*
X112999447Y-100114447D01*
X113023447Y-100125447D01*
X113046447Y-100138447D01*
X113090447Y-100166447D01*
X113111447Y-100182447D01*
X113131447Y-100199447D01*
X113150447Y-100217447D01*
X113168447Y-100236447D01*
X113185447Y-100256447D01*
X113201447Y-100277447D01*
X113229447Y-100321447D01*
X113242447Y-100344447D01*
X113253447Y-100368447D01*
X113263447Y-100392447D01*
X113272447Y-100416447D01*
X113279447Y-100442447D01*
X113285447Y-100467447D01*
X113290447Y-100493447D01*
X113293447Y-100519447D01*
X113295447Y-100545447D01*
X113296447Y-100571447D01*
X113295447Y-100597447D01*
X113293447Y-100623447D01*
X113290447Y-100649447D01*
X113285447Y-100675447D01*
X113279447Y-100700447D01*
X113272447Y-100726447D01*
X113263447Y-100750447D01*
X113253447Y-100774447D01*
X113242447Y-100798447D01*
X113229447Y-100821447D01*
X113201447Y-100865447D01*
X113185447Y-100886447D01*
X113168447Y-100906447D01*
X113150447Y-100925447D01*
X113131447Y-100943447D01*
X113111447Y-100960447D01*
X113090447Y-100976447D01*
X113046447Y-101004447D01*
X113023447Y-101017447D01*
X112999447Y-101028447D01*
X112975447Y-101038447D01*
X112951447Y-101047447D01*
X112925447Y-101054447D01*
X112900447Y-101060447D01*
X112874447Y-101065447D01*
X112848447Y-101068447D01*
X112822447Y-101070447D01*
X112796447Y-101071447D01*
X111996447Y-101071447D01*
X111970447Y-101070447D01*
X111944447Y-101068447D01*
X111918447Y-101065447D01*
X111892447Y-101060447D01*
X111867447Y-101054447D01*
X111841447Y-101047447D01*
X111817447Y-101038447D01*
X111793447Y-101028447D01*
X111769447Y-101017447D01*
X111746447Y-101004447D01*
X111702447Y-100976447D01*
X111681447Y-100960447D01*
X111661447Y-100943447D01*
X111642447Y-100925447D01*
X111624447Y-100906447D01*
X111607447Y-100886447D01*
X111591447Y-100865447D01*
X111563447Y-100821447D01*
X111550447Y-100798447D01*
X111539447Y-100774447D01*
X111529447Y-100750447D01*
X111520447Y-100726447D01*
X111513447Y-100700447D01*
X111507447Y-100675447D01*
X111502447Y-100649447D01*
X111499447Y-100623447D01*
X111497447Y-100597447D01*
X111496447Y-100571447D01*
X111497447Y-100545447D01*
X111499447Y-100519447D01*
X111502447Y-100493447D01*
X111507447Y-100467447D01*
X111513447Y-100442447D01*
X111520447Y-100416447D01*
X111529447Y-100392447D01*
X111539447Y-100368447D01*
X111550447Y-100344447D01*
X111563447Y-100321447D01*
X111591447Y-100277447D01*
X111607447Y-100256447D01*
X111624447Y-100236447D01*
X111642447Y-100217447D01*
X111661447Y-100199447D01*
X111681447Y-100182447D01*
X111702447Y-100166447D01*
X111746447Y-100138447D01*
X111769447Y-100125447D01*
X111793447Y-100114447D01*
X111817447Y-100104447D01*
X111841447Y-100095447D01*
X111867447Y-100088447D01*
X111892447Y-100082447D01*
X111918447Y-100077447D01*
X111944447Y-100074447D01*
X111970447Y-100072447D01*
X111996447Y-100071447D01*
X112796447Y-100071447D01*
X112822447Y-100072447D01*
X107296447Y-100571447D02*
X107297447Y-100545447D01*
X107297447Y-100545447D02*
X107299447Y-100519447D01*
X107299447Y-100519447D02*
X107302447Y-100493447D01*
X107302447Y-100493447D02*
X107307447Y-100467447D01*
X107307447Y-100467447D02*
X107313447Y-100442447D01*
X107313447Y-100442447D02*
X107320447Y-100416447D01*
X107320447Y-100416447D02*
X107329447Y-100392447D01*
X107329447Y-100392447D02*
X107339447Y-100368447D01*
X107339447Y-100368447D02*
X107350447Y-100344447D01*
X107350447Y-100344447D02*
X107363447Y-100321447D01*
X107363447Y-100321447D02*
X107377447Y-100299447D01*
X107377447Y-100299447D02*
X107391447Y-100277447D01*
X107391447Y-100277447D02*
X107407447Y-100256447D01*
X107407447Y-100256447D02*
X107424447Y-100236447D01*
X107424447Y-100236447D02*
X107442447Y-100217447D01*
X107442447Y-100217447D02*
X107461447Y-100199447D01*
X107461447Y-100199447D02*
X107481447Y-100182447D01*
X107481447Y-100182447D02*
X107502447Y-100166447D01*
X107502447Y-100166447D02*
X107524447Y-100152447D01*
X107524447Y-100152447D02*
X107546447Y-100138447D01*
X107546447Y-100138447D02*
X107569447Y-100125447D01*
X107569447Y-100125447D02*
X107593447Y-100114447D01*
X107593447Y-100114447D02*
X107617447Y-100104447D01*
X107617447Y-100104447D02*
X107641447Y-100095447D01*
X107641447Y-100095447D02*
X107667447Y-100088447D01*
X107667447Y-100088447D02*
X107692447Y-100082447D01*
X107692447Y-100082447D02*
X107718447Y-100077447D01*
X107718447Y-100077447D02*
X107744447Y-100074447D01*
X107744447Y-100074447D02*
X107770447Y-100072447D01*
X107770447Y-100072447D02*
X107796447Y-100071447D01*
X107796447Y-100071447D02*
X108996447Y-100071447D01*
X108996447Y-100071447D02*
X109022447Y-100072447D01*
X109022447Y-100072447D02*
X109048447Y-100074447D01*
X109048447Y-100074447D02*
X109074447Y-100077447D01*
X109074447Y-100077447D02*
X109100447Y-100082447D01*
X109100447Y-100082447D02*
X109125447Y-100088447D01*
X109125447Y-100088447D02*
X109151447Y-100095447D01*
X109151447Y-100095447D02*
X109175447Y-100104447D01*
X109175447Y-100104447D02*
X109199447Y-100114447D01*
X109199447Y-100114447D02*
X109223447Y-100125447D01*
X109223447Y-100125447D02*
X109246447Y-100138447D01*
X109246447Y-100138447D02*
X109268447Y-100152447D01*
X109268447Y-100152447D02*
X109290447Y-100166447D01*
X109290447Y-100166447D02*
X109311447Y-100182447D01*
X109311447Y-100182447D02*
X109331447Y-100199447D01*
X109331447Y-100199447D02*
X109350447Y-100217447D01*
X109350447Y-100217447D02*
X109368447Y-100236447D01*
X109368447Y-100236447D02*
X109385447Y-100256447D01*
X109385447Y-100256447D02*
X109401447Y-100277447D01*
X109401447Y-100277447D02*
X109415447Y-100299447D01*
X109415447Y-100299447D02*
X109429447Y-100321447D01*
X109429447Y-100321447D02*
X109442447Y-100344447D01*
X109442447Y-100344447D02*
X109453447Y-100368447D01*
X109453447Y-100368447D02*
X109463447Y-100392447D01*
X109463447Y-100392447D02*
X109472447Y-100416447D01*
X109472447Y-100416447D02*
X109479447Y-100442447D01*
X109479447Y-100442447D02*
X109485447Y-100467447D01*
X109485447Y-100467447D02*
X109490447Y-100493447D01*
X109490447Y-100493447D02*
X109493447Y-100519447D01*
X109493447Y-100519447D02*
X109495447Y-100545447D01*
X109495447Y-100545447D02*
X109496447Y-100571447D01*
X109496447Y-100571447D02*
X109495447Y-100597447D01*
X109495447Y-100597447D02*
X109493447Y-100623447D01*
X109493447Y-100623447D02*
X109490447Y-100649447D01*
X109490447Y-100649447D02*
X109485447Y-100675447D01*
X109485447Y-100675447D02*
X109479447Y-100700447D01*
X109479447Y-100700447D02*
X109472447Y-100726447D01*
X109472447Y-100726447D02*
X109463447Y-100750447D01*
X109463447Y-100750447D02*
X109453447Y-100774447D01*
X109453447Y-100774447D02*
X109442447Y-100798447D01*
X109442447Y-100798447D02*
X109429447Y-100821447D01*
X109429447Y-100821447D02*
X109415447Y-100843447D01*
X109415447Y-100843447D02*
X109401447Y-100865447D01*
X109401447Y-100865447D02*
X109385447Y-100886447D01*
X109385447Y-100886447D02*
X109368447Y-100906447D01*
X109368447Y-100906447D02*
X109350447Y-100925447D01*
X109350447Y-100925447D02*
X109331447Y-100943447D01*
X109331447Y-100943447D02*
X109311447Y-100960447D01*
X109311447Y-100960447D02*
X109290447Y-100976447D01*
X109290447Y-100976447D02*
X109268447Y-100990447D01*
X109268447Y-100990447D02*
X109246447Y-101004447D01*
X109246447Y-101004447D02*
X109223447Y-101017447D01*
X109223447Y-101017447D02*
X109199447Y-101028447D01*
X109199447Y-101028447D02*
X109175447Y-101038447D01*
X109175447Y-101038447D02*
X109151447Y-101047447D01*
X109151447Y-101047447D02*
X109125447Y-101054447D01*
X109125447Y-101054447D02*
X109100447Y-101060447D01*
X109100447Y-101060447D02*
X109074447Y-101065447D01*
X109074447Y-101065447D02*
X109048447Y-101068447D01*
X109048447Y-101068447D02*
X109022447Y-101070447D01*
X109022447Y-101070447D02*
X108996447Y-101071447D01*
X108996447Y-101071447D02*
X107796447Y-101071447D01*
X107796447Y-101071447D02*
X107770447Y-101070447D01*
X107770447Y-101070447D02*
X107744447Y-101068447D01*
X107744447Y-101068447D02*
X107718447Y-101065447D01*
X107718447Y-101065447D02*
X107692447Y-101060447D01*
X107692447Y-101060447D02*
X107667447Y-101054447D01*
X107667447Y-101054447D02*
X107641447Y-101047447D01*
X107641447Y-101047447D02*
X107617447Y-101038447D01*
X107617447Y-101038447D02*
X107593447Y-101028447D01*
X107593447Y-101028447D02*
X107569447Y-101017447D01*
X107569447Y-101017447D02*
X107546447Y-101004447D01*
X107546447Y-101004447D02*
X107524447Y-100990447D01*
X107524447Y-100990447D02*
X107502447Y-100976447D01*
X107502447Y-100976447D02*
X107481447Y-100960447D01*
X107481447Y-100960447D02*
X107461447Y-100943447D01*
X107461447Y-100943447D02*
X107442447Y-100925447D01*
X107442447Y-100925447D02*
X107424447Y-100906447D01*
X107424447Y-100906447D02*
X107407447Y-100886447D01*
X107407447Y-100886447D02*
X107391447Y-100865447D01*
X107391447Y-100865447D02*
X107377447Y-100843447D01*
X107377447Y-100843447D02*
X107363447Y-100821447D01*
X107363447Y-100821447D02*
X107350447Y-100798447D01*
X107350447Y-100798447D02*
X107339447Y-100774447D01*
X107339447Y-100774447D02*
X107329447Y-100750447D01*
X107329447Y-100750447D02*
X107320447Y-100726447D01*
X107320447Y-100726447D02*
X107313447Y-100700447D01*
X107313447Y-100700447D02*
X107307447Y-100675447D01*
X107307447Y-100675447D02*
X107302447Y-100649447D01*
X107302447Y-100649447D02*
X107299447Y-100623447D01*
X107299447Y-100623447D02*
X107297447Y-100597447D01*
X107297447Y-100597447D02*
X107296447Y-100571447D01*
X107296447Y-100571447D02*
X107296447Y-100571447D01*
G36*
X109022447Y-100072447D02*
G01*
X109048447Y-100074447D01*
X109074447Y-100077447D01*
X109100447Y-100082447D01*
X109125447Y-100088447D01*
X109151447Y-100095447D01*
X109175447Y-100104447D01*
X109199447Y-100114447D01*
X109223447Y-100125447D01*
X109246447Y-100138447D01*
X109290447Y-100166447D01*
X109311447Y-100182447D01*
X109331447Y-100199447D01*
X109350447Y-100217447D01*
X109368447Y-100236447D01*
X109385447Y-100256447D01*
X109401447Y-100277447D01*
X109429447Y-100321447D01*
X109442447Y-100344447D01*
X109453447Y-100368447D01*
X109463447Y-100392447D01*
X109472447Y-100416447D01*
X109479447Y-100442447D01*
X109485447Y-100467447D01*
X109490447Y-100493447D01*
X109493447Y-100519447D01*
X109495447Y-100545447D01*
X109496447Y-100571447D01*
X109495447Y-100597447D01*
X109493447Y-100623447D01*
X109490447Y-100649447D01*
X109485447Y-100675447D01*
X109479447Y-100700447D01*
X109472447Y-100726447D01*
X109463447Y-100750447D01*
X109453447Y-100774447D01*
X109442447Y-100798447D01*
X109429447Y-100821447D01*
X109401447Y-100865447D01*
X109385447Y-100886447D01*
X109368447Y-100906447D01*
X109350447Y-100925447D01*
X109331447Y-100943447D01*
X109311447Y-100960447D01*
X109290447Y-100976447D01*
X109246447Y-101004447D01*
X109223447Y-101017447D01*
X109199447Y-101028447D01*
X109175447Y-101038447D01*
X109151447Y-101047447D01*
X109125447Y-101054447D01*
X109100447Y-101060447D01*
X109074447Y-101065447D01*
X109048447Y-101068447D01*
X109022447Y-101070447D01*
X108996447Y-101071447D01*
X107796447Y-101071447D01*
X107770447Y-101070447D01*
X107744447Y-101068447D01*
X107718447Y-101065447D01*
X107692447Y-101060447D01*
X107667447Y-101054447D01*
X107641447Y-101047447D01*
X107617447Y-101038447D01*
X107593447Y-101028447D01*
X107569447Y-101017447D01*
X107546447Y-101004447D01*
X107502447Y-100976447D01*
X107481447Y-100960447D01*
X107461447Y-100943447D01*
X107442447Y-100925447D01*
X107424447Y-100906447D01*
X107407447Y-100886447D01*
X107391447Y-100865447D01*
X107363447Y-100821447D01*
X107350447Y-100798447D01*
X107339447Y-100774447D01*
X107329447Y-100750447D01*
X107320447Y-100726447D01*
X107313447Y-100700447D01*
X107307447Y-100675447D01*
X107302447Y-100649447D01*
X107299447Y-100623447D01*
X107297447Y-100597447D01*
X107296447Y-100571447D01*
X107297447Y-100545447D01*
X107299447Y-100519447D01*
X107302447Y-100493447D01*
X107307447Y-100467447D01*
X107313447Y-100442447D01*
X107320447Y-100416447D01*
X107329447Y-100392447D01*
X107339447Y-100368447D01*
X107350447Y-100344447D01*
X107363447Y-100321447D01*
X107391447Y-100277447D01*
X107407447Y-100256447D01*
X107424447Y-100236447D01*
X107442447Y-100217447D01*
X107461447Y-100199447D01*
X107481447Y-100182447D01*
X107502447Y-100166447D01*
X107546447Y-100138447D01*
X107569447Y-100125447D01*
X107593447Y-100114447D01*
X107617447Y-100104447D01*
X107641447Y-100095447D01*
X107667447Y-100088447D01*
X107692447Y-100082447D01*
X107718447Y-100077447D01*
X107744447Y-100074447D01*
X107770447Y-100072447D01*
X107796447Y-100071447D01*
X108996447Y-100071447D01*
X109022447Y-100072447D01*
G37*
X109022447Y-100072447D02*
X109048447Y-100074447D01*
X109074447Y-100077447D01*
X109100447Y-100082447D01*
X109125447Y-100088447D01*
X109151447Y-100095447D01*
X109175447Y-100104447D01*
X109199447Y-100114447D01*
X109223447Y-100125447D01*
X109246447Y-100138447D01*
X109290447Y-100166447D01*
X109311447Y-100182447D01*
X109331447Y-100199447D01*
X109350447Y-100217447D01*
X109368447Y-100236447D01*
X109385447Y-100256447D01*
X109401447Y-100277447D01*
X109429447Y-100321447D01*
X109442447Y-100344447D01*
X109453447Y-100368447D01*
X109463447Y-100392447D01*
X109472447Y-100416447D01*
X109479447Y-100442447D01*
X109485447Y-100467447D01*
X109490447Y-100493447D01*
X109493447Y-100519447D01*
X109495447Y-100545447D01*
X109496447Y-100571447D01*
X109495447Y-100597447D01*
X109493447Y-100623447D01*
X109490447Y-100649447D01*
X109485447Y-100675447D01*
X109479447Y-100700447D01*
X109472447Y-100726447D01*
X109463447Y-100750447D01*
X109453447Y-100774447D01*
X109442447Y-100798447D01*
X109429447Y-100821447D01*
X109401447Y-100865447D01*
X109385447Y-100886447D01*
X109368447Y-100906447D01*
X109350447Y-100925447D01*
X109331447Y-100943447D01*
X109311447Y-100960447D01*
X109290447Y-100976447D01*
X109246447Y-101004447D01*
X109223447Y-101017447D01*
X109199447Y-101028447D01*
X109175447Y-101038447D01*
X109151447Y-101047447D01*
X109125447Y-101054447D01*
X109100447Y-101060447D01*
X109074447Y-101065447D01*
X109048447Y-101068447D01*
X109022447Y-101070447D01*
X108996447Y-101071447D01*
X107796447Y-101071447D01*
X107770447Y-101070447D01*
X107744447Y-101068447D01*
X107718447Y-101065447D01*
X107692447Y-101060447D01*
X107667447Y-101054447D01*
X107641447Y-101047447D01*
X107617447Y-101038447D01*
X107593447Y-101028447D01*
X107569447Y-101017447D01*
X107546447Y-101004447D01*
X107502447Y-100976447D01*
X107481447Y-100960447D01*
X107461447Y-100943447D01*
X107442447Y-100925447D01*
X107424447Y-100906447D01*
X107407447Y-100886447D01*
X107391447Y-100865447D01*
X107363447Y-100821447D01*
X107350447Y-100798447D01*
X107339447Y-100774447D01*
X107329447Y-100750447D01*
X107320447Y-100726447D01*
X107313447Y-100700447D01*
X107307447Y-100675447D01*
X107302447Y-100649447D01*
X107299447Y-100623447D01*
X107297447Y-100597447D01*
X107296447Y-100571447D01*
X107297447Y-100545447D01*
X107299447Y-100519447D01*
X107302447Y-100493447D01*
X107307447Y-100467447D01*
X107313447Y-100442447D01*
X107320447Y-100416447D01*
X107329447Y-100392447D01*
X107339447Y-100368447D01*
X107350447Y-100344447D01*
X107363447Y-100321447D01*
X107391447Y-100277447D01*
X107407447Y-100256447D01*
X107424447Y-100236447D01*
X107442447Y-100217447D01*
X107461447Y-100199447D01*
X107481447Y-100182447D01*
X107502447Y-100166447D01*
X107546447Y-100138447D01*
X107569447Y-100125447D01*
X107593447Y-100114447D01*
X107617447Y-100104447D01*
X107641447Y-100095447D01*
X107667447Y-100088447D01*
X107692447Y-100082447D01*
X107718447Y-100077447D01*
X107744447Y-100074447D01*
X107770447Y-100072447D01*
X107796447Y-100071447D01*
X108996447Y-100071447D01*
X109022447Y-100072447D01*
X107296447Y-111811447D02*
X107297447Y-111785447D01*
X107297447Y-111785447D02*
X107299447Y-111759447D01*
X107299447Y-111759447D02*
X107302447Y-111733447D01*
X107302447Y-111733447D02*
X107307447Y-111707447D01*
X107307447Y-111707447D02*
X107313447Y-111682447D01*
X107313447Y-111682447D02*
X107320447Y-111656447D01*
X107320447Y-111656447D02*
X107329447Y-111632447D01*
X107329447Y-111632447D02*
X107339447Y-111608447D01*
X107339447Y-111608447D02*
X107350447Y-111584447D01*
X107350447Y-111584447D02*
X107363447Y-111561447D01*
X107363447Y-111561447D02*
X107377447Y-111539447D01*
X107377447Y-111539447D02*
X107391447Y-111517447D01*
X107391447Y-111517447D02*
X107407447Y-111496447D01*
X107407447Y-111496447D02*
X107424447Y-111476447D01*
X107424447Y-111476447D02*
X107442447Y-111457447D01*
X107442447Y-111457447D02*
X107461447Y-111439447D01*
X107461447Y-111439447D02*
X107481447Y-111422447D01*
X107481447Y-111422447D02*
X107502447Y-111406447D01*
X107502447Y-111406447D02*
X107524447Y-111392447D01*
X107524447Y-111392447D02*
X107546447Y-111378447D01*
X107546447Y-111378447D02*
X107569447Y-111365447D01*
X107569447Y-111365447D02*
X107593447Y-111354447D01*
X107593447Y-111354447D02*
X107617447Y-111344447D01*
X107617447Y-111344447D02*
X107641447Y-111335447D01*
X107641447Y-111335447D02*
X107667447Y-111328447D01*
X107667447Y-111328447D02*
X107692447Y-111322447D01*
X107692447Y-111322447D02*
X107718447Y-111317447D01*
X107718447Y-111317447D02*
X107744447Y-111314447D01*
X107744447Y-111314447D02*
X107770447Y-111312447D01*
X107770447Y-111312447D02*
X107796447Y-111311447D01*
X107796447Y-111311447D02*
X108996447Y-111311447D01*
X108996447Y-111311447D02*
X109022447Y-111312447D01*
X109022447Y-111312447D02*
X109048447Y-111314447D01*
X109048447Y-111314447D02*
X109074447Y-111317447D01*
X109074447Y-111317447D02*
X109100447Y-111322447D01*
X109100447Y-111322447D02*
X109125447Y-111328447D01*
X109125447Y-111328447D02*
X109151447Y-111335447D01*
X109151447Y-111335447D02*
X109175447Y-111344447D01*
X109175447Y-111344447D02*
X109199447Y-111354447D01*
X109199447Y-111354447D02*
X109223447Y-111365447D01*
X109223447Y-111365447D02*
X109246447Y-111378447D01*
X109246447Y-111378447D02*
X109268447Y-111392447D01*
X109268447Y-111392447D02*
X109290447Y-111406447D01*
X109290447Y-111406447D02*
X109311447Y-111422447D01*
X109311447Y-111422447D02*
X109331447Y-111439447D01*
X109331447Y-111439447D02*
X109350447Y-111457447D01*
X109350447Y-111457447D02*
X109368447Y-111476447D01*
X109368447Y-111476447D02*
X109385447Y-111496447D01*
X109385447Y-111496447D02*
X109401447Y-111517447D01*
X109401447Y-111517447D02*
X109415447Y-111539447D01*
X109415447Y-111539447D02*
X109429447Y-111561447D01*
X109429447Y-111561447D02*
X109442447Y-111584447D01*
X109442447Y-111584447D02*
X109453447Y-111608447D01*
X109453447Y-111608447D02*
X109463447Y-111632447D01*
X109463447Y-111632447D02*
X109472447Y-111656447D01*
X109472447Y-111656447D02*
X109479447Y-111682447D01*
X109479447Y-111682447D02*
X109485447Y-111707447D01*
X109485447Y-111707447D02*
X109490447Y-111733447D01*
X109490447Y-111733447D02*
X109493447Y-111759447D01*
X109493447Y-111759447D02*
X109495447Y-111785447D01*
X109495447Y-111785447D02*
X109496447Y-111811447D01*
X109496447Y-111811447D02*
X109495447Y-111837447D01*
X109495447Y-111837447D02*
X109493447Y-111863447D01*
X109493447Y-111863447D02*
X109490447Y-111889447D01*
X109490447Y-111889447D02*
X109485447Y-111915447D01*
X109485447Y-111915447D02*
X109479447Y-111940447D01*
X109479447Y-111940447D02*
X109472447Y-111966447D01*
X109472447Y-111966447D02*
X109463447Y-111990447D01*
X109463447Y-111990447D02*
X109453447Y-112014447D01*
X109453447Y-112014447D02*
X109442447Y-112038447D01*
X109442447Y-112038447D02*
X109429447Y-112061447D01*
X109429447Y-112061447D02*
X109415447Y-112083447D01*
X109415447Y-112083447D02*
X109401447Y-112105447D01*
X109401447Y-112105447D02*
X109385447Y-112126447D01*
X109385447Y-112126447D02*
X109368447Y-112146447D01*
X109368447Y-112146447D02*
X109350447Y-112165447D01*
X109350447Y-112165447D02*
X109331447Y-112183447D01*
X109331447Y-112183447D02*
X109311447Y-112200447D01*
X109311447Y-112200447D02*
X109290447Y-112216447D01*
X109290447Y-112216447D02*
X109268447Y-112230447D01*
X109268447Y-112230447D02*
X109246447Y-112244447D01*
X109246447Y-112244447D02*
X109223447Y-112257447D01*
X109223447Y-112257447D02*
X109199447Y-112268447D01*
X109199447Y-112268447D02*
X109175447Y-112278447D01*
X109175447Y-112278447D02*
X109151447Y-112287447D01*
X109151447Y-112287447D02*
X109125447Y-112294447D01*
X109125447Y-112294447D02*
X109100447Y-112300447D01*
X109100447Y-112300447D02*
X109074447Y-112305447D01*
X109074447Y-112305447D02*
X109048447Y-112308447D01*
X109048447Y-112308447D02*
X109022447Y-112310447D01*
X109022447Y-112310447D02*
X108996447Y-112311447D01*
X108996447Y-112311447D02*
X107796447Y-112311447D01*
X107796447Y-112311447D02*
X107770447Y-112310447D01*
X107770447Y-112310447D02*
X107744447Y-112308447D01*
X107744447Y-112308447D02*
X107718447Y-112305447D01*
X107718447Y-112305447D02*
X107692447Y-112300447D01*
X107692447Y-112300447D02*
X107667447Y-112294447D01*
X107667447Y-112294447D02*
X107641447Y-112287447D01*
X107641447Y-112287447D02*
X107617447Y-112278447D01*
X107617447Y-112278447D02*
X107593447Y-112268447D01*
X107593447Y-112268447D02*
X107569447Y-112257447D01*
X107569447Y-112257447D02*
X107546447Y-112244447D01*
X107546447Y-112244447D02*
X107524447Y-112230447D01*
X107524447Y-112230447D02*
X107502447Y-112216447D01*
X107502447Y-112216447D02*
X107481447Y-112200447D01*
X107481447Y-112200447D02*
X107461447Y-112183447D01*
X107461447Y-112183447D02*
X107442447Y-112165447D01*
X107442447Y-112165447D02*
X107424447Y-112146447D01*
X107424447Y-112146447D02*
X107407447Y-112126447D01*
X107407447Y-112126447D02*
X107391447Y-112105447D01*
X107391447Y-112105447D02*
X107377447Y-112083447D01*
X107377447Y-112083447D02*
X107363447Y-112061447D01*
X107363447Y-112061447D02*
X107350447Y-112038447D01*
X107350447Y-112038447D02*
X107339447Y-112014447D01*
X107339447Y-112014447D02*
X107329447Y-111990447D01*
X107329447Y-111990447D02*
X107320447Y-111966447D01*
X107320447Y-111966447D02*
X107313447Y-111940447D01*
X107313447Y-111940447D02*
X107307447Y-111915447D01*
X107307447Y-111915447D02*
X107302447Y-111889447D01*
X107302447Y-111889447D02*
X107299447Y-111863447D01*
X107299447Y-111863447D02*
X107297447Y-111837447D01*
X107297447Y-111837447D02*
X107296447Y-111811447D01*
X107296447Y-111811447D02*
X107296447Y-111811447D01*
G36*
X109022447Y-111312447D02*
G01*
X109048447Y-111314447D01*
X109074447Y-111317447D01*
X109100447Y-111322447D01*
X109125447Y-111328447D01*
X109151447Y-111335447D01*
X109175447Y-111344447D01*
X109199447Y-111354447D01*
X109223447Y-111365447D01*
X109246447Y-111378447D01*
X109290447Y-111406447D01*
X109311447Y-111422447D01*
X109331447Y-111439447D01*
X109350447Y-111457447D01*
X109368447Y-111476447D01*
X109385447Y-111496447D01*
X109401447Y-111517447D01*
X109429447Y-111561447D01*
X109442447Y-111584447D01*
X109453447Y-111608447D01*
X109463447Y-111632447D01*
X109472447Y-111656447D01*
X109479447Y-111682447D01*
X109485447Y-111707447D01*
X109490447Y-111733447D01*
X109493447Y-111759447D01*
X109495447Y-111785447D01*
X109496447Y-111811447D01*
X109495447Y-111837447D01*
X109493447Y-111863447D01*
X109490447Y-111889447D01*
X109485447Y-111915447D01*
X109479447Y-111940447D01*
X109472447Y-111966447D01*
X109463447Y-111990447D01*
X109453447Y-112014447D01*
X109442447Y-112038447D01*
X109429447Y-112061447D01*
X109401447Y-112105447D01*
X109385447Y-112126447D01*
X109368447Y-112146447D01*
X109350447Y-112165447D01*
X109331447Y-112183447D01*
X109311447Y-112200447D01*
X109290447Y-112216447D01*
X109246447Y-112244447D01*
X109223447Y-112257447D01*
X109199447Y-112268447D01*
X109175447Y-112278447D01*
X109151447Y-112287447D01*
X109125447Y-112294447D01*
X109100447Y-112300447D01*
X109074447Y-112305447D01*
X109048447Y-112308447D01*
X109022447Y-112310447D01*
X108996447Y-112311447D01*
X107796447Y-112311447D01*
X107770447Y-112310447D01*
X107744447Y-112308447D01*
X107718447Y-112305447D01*
X107692447Y-112300447D01*
X107667447Y-112294447D01*
X107641447Y-112287447D01*
X107617447Y-112278447D01*
X107593447Y-112268447D01*
X107569447Y-112257447D01*
X107546447Y-112244447D01*
X107502447Y-112216447D01*
X107481447Y-112200447D01*
X107461447Y-112183447D01*
X107442447Y-112165447D01*
X107424447Y-112146447D01*
X107407447Y-112126447D01*
X107391447Y-112105447D01*
X107363447Y-112061447D01*
X107350447Y-112038447D01*
X107339447Y-112014447D01*
X107329447Y-111990447D01*
X107320447Y-111966447D01*
X107313447Y-111940447D01*
X107307447Y-111915447D01*
X107302447Y-111889447D01*
X107299447Y-111863447D01*
X107297447Y-111837447D01*
X107296447Y-111811447D01*
X107297447Y-111785447D01*
X107299447Y-111759447D01*
X107302447Y-111733447D01*
X107307447Y-111707447D01*
X107313447Y-111682447D01*
X107320447Y-111656447D01*
X107329447Y-111632447D01*
X107339447Y-111608447D01*
X107350447Y-111584447D01*
X107363447Y-111561447D01*
X107391447Y-111517447D01*
X107407447Y-111496447D01*
X107424447Y-111476447D01*
X107442447Y-111457447D01*
X107461447Y-111439447D01*
X107481447Y-111422447D01*
X107502447Y-111406447D01*
X107546447Y-111378447D01*
X107569447Y-111365447D01*
X107593447Y-111354447D01*
X107617447Y-111344447D01*
X107641447Y-111335447D01*
X107667447Y-111328447D01*
X107692447Y-111322447D01*
X107718447Y-111317447D01*
X107744447Y-111314447D01*
X107770447Y-111312447D01*
X107796447Y-111311447D01*
X108996447Y-111311447D01*
X109022447Y-111312447D01*
G37*
X109022447Y-111312447D02*
X109048447Y-111314447D01*
X109074447Y-111317447D01*
X109100447Y-111322447D01*
X109125447Y-111328447D01*
X109151447Y-111335447D01*
X109175447Y-111344447D01*
X109199447Y-111354447D01*
X109223447Y-111365447D01*
X109246447Y-111378447D01*
X109290447Y-111406447D01*
X109311447Y-111422447D01*
X109331447Y-111439447D01*
X109350447Y-111457447D01*
X109368447Y-111476447D01*
X109385447Y-111496447D01*
X109401447Y-111517447D01*
X109429447Y-111561447D01*
X109442447Y-111584447D01*
X109453447Y-111608447D01*
X109463447Y-111632447D01*
X109472447Y-111656447D01*
X109479447Y-111682447D01*
X109485447Y-111707447D01*
X109490447Y-111733447D01*
X109493447Y-111759447D01*
X109495447Y-111785447D01*
X109496447Y-111811447D01*
X109495447Y-111837447D01*
X109493447Y-111863447D01*
X109490447Y-111889447D01*
X109485447Y-111915447D01*
X109479447Y-111940447D01*
X109472447Y-111966447D01*
X109463447Y-111990447D01*
X109453447Y-112014447D01*
X109442447Y-112038447D01*
X109429447Y-112061447D01*
X109401447Y-112105447D01*
X109385447Y-112126447D01*
X109368447Y-112146447D01*
X109350447Y-112165447D01*
X109331447Y-112183447D01*
X109311447Y-112200447D01*
X109290447Y-112216447D01*
X109246447Y-112244447D01*
X109223447Y-112257447D01*
X109199447Y-112268447D01*
X109175447Y-112278447D01*
X109151447Y-112287447D01*
X109125447Y-112294447D01*
X109100447Y-112300447D01*
X109074447Y-112305447D01*
X109048447Y-112308447D01*
X109022447Y-112310447D01*
X108996447Y-112311447D01*
X107796447Y-112311447D01*
X107770447Y-112310447D01*
X107744447Y-112308447D01*
X107718447Y-112305447D01*
X107692447Y-112300447D01*
X107667447Y-112294447D01*
X107641447Y-112287447D01*
X107617447Y-112278447D01*
X107593447Y-112268447D01*
X107569447Y-112257447D01*
X107546447Y-112244447D01*
X107502447Y-112216447D01*
X107481447Y-112200447D01*
X107461447Y-112183447D01*
X107442447Y-112165447D01*
X107424447Y-112146447D01*
X107407447Y-112126447D01*
X107391447Y-112105447D01*
X107363447Y-112061447D01*
X107350447Y-112038447D01*
X107339447Y-112014447D01*
X107329447Y-111990447D01*
X107320447Y-111966447D01*
X107313447Y-111940447D01*
X107307447Y-111915447D01*
X107302447Y-111889447D01*
X107299447Y-111863447D01*
X107297447Y-111837447D01*
X107296447Y-111811447D01*
X107297447Y-111785447D01*
X107299447Y-111759447D01*
X107302447Y-111733447D01*
X107307447Y-111707447D01*
X107313447Y-111682447D01*
X107320447Y-111656447D01*
X107329447Y-111632447D01*
X107339447Y-111608447D01*
X107350447Y-111584447D01*
X107363447Y-111561447D01*
X107391447Y-111517447D01*
X107407447Y-111496447D01*
X107424447Y-111476447D01*
X107442447Y-111457447D01*
X107461447Y-111439447D01*
X107481447Y-111422447D01*
X107502447Y-111406447D01*
X107546447Y-111378447D01*
X107569447Y-111365447D01*
X107593447Y-111354447D01*
X107617447Y-111344447D01*
X107641447Y-111335447D01*
X107667447Y-111328447D01*
X107692447Y-111322447D01*
X107718447Y-111317447D01*
X107744447Y-111314447D01*
X107770447Y-111312447D01*
X107796447Y-111311447D01*
X108996447Y-111311447D01*
X109022447Y-111312447D01*
X111496447Y-111811447D02*
X111497447Y-111785447D01*
X111497447Y-111785447D02*
X111499447Y-111759447D01*
X111499447Y-111759447D02*
X111502447Y-111733447D01*
X111502447Y-111733447D02*
X111507447Y-111707447D01*
X111507447Y-111707447D02*
X111513447Y-111682447D01*
X111513447Y-111682447D02*
X111520447Y-111656447D01*
X111520447Y-111656447D02*
X111529447Y-111632447D01*
X111529447Y-111632447D02*
X111539447Y-111608447D01*
X111539447Y-111608447D02*
X111550447Y-111584447D01*
X111550447Y-111584447D02*
X111563447Y-111561447D01*
X111563447Y-111561447D02*
X111577447Y-111539447D01*
X111577447Y-111539447D02*
X111591447Y-111517447D01*
X111591447Y-111517447D02*
X111607447Y-111496447D01*
X111607447Y-111496447D02*
X111624447Y-111476447D01*
X111624447Y-111476447D02*
X111642447Y-111457447D01*
X111642447Y-111457447D02*
X111661447Y-111439447D01*
X111661447Y-111439447D02*
X111681447Y-111422447D01*
X111681447Y-111422447D02*
X111702447Y-111406447D01*
X111702447Y-111406447D02*
X111724447Y-111392447D01*
X111724447Y-111392447D02*
X111746447Y-111378447D01*
X111746447Y-111378447D02*
X111769447Y-111365447D01*
X111769447Y-111365447D02*
X111793447Y-111354447D01*
X111793447Y-111354447D02*
X111817447Y-111344447D01*
X111817447Y-111344447D02*
X111841447Y-111335447D01*
X111841447Y-111335447D02*
X111867447Y-111328447D01*
X111867447Y-111328447D02*
X111892447Y-111322447D01*
X111892447Y-111322447D02*
X111918447Y-111317447D01*
X111918447Y-111317447D02*
X111944447Y-111314447D01*
X111944447Y-111314447D02*
X111970447Y-111312447D01*
X111970447Y-111312447D02*
X111996447Y-111311447D01*
X111996447Y-111311447D02*
X112796447Y-111311447D01*
X112796447Y-111311447D02*
X112822447Y-111312447D01*
X112822447Y-111312447D02*
X112848447Y-111314447D01*
X112848447Y-111314447D02*
X112874447Y-111317447D01*
X112874447Y-111317447D02*
X112900447Y-111322447D01*
X112900447Y-111322447D02*
X112925447Y-111328447D01*
X112925447Y-111328447D02*
X112951447Y-111335447D01*
X112951447Y-111335447D02*
X112975447Y-111344447D01*
X112975447Y-111344447D02*
X112999447Y-111354447D01*
X112999447Y-111354447D02*
X113023447Y-111365447D01*
X113023447Y-111365447D02*
X113046447Y-111378447D01*
X113046447Y-111378447D02*
X113068447Y-111392447D01*
X113068447Y-111392447D02*
X113090447Y-111406447D01*
X113090447Y-111406447D02*
X113111447Y-111422447D01*
X113111447Y-111422447D02*
X113131447Y-111439447D01*
X113131447Y-111439447D02*
X113150447Y-111457447D01*
X113150447Y-111457447D02*
X113168447Y-111476447D01*
X113168447Y-111476447D02*
X113185447Y-111496447D01*
X113185447Y-111496447D02*
X113201447Y-111517447D01*
X113201447Y-111517447D02*
X113215447Y-111539447D01*
X113215447Y-111539447D02*
X113229447Y-111561447D01*
X113229447Y-111561447D02*
X113242447Y-111584447D01*
X113242447Y-111584447D02*
X113253447Y-111608447D01*
X113253447Y-111608447D02*
X113263447Y-111632447D01*
X113263447Y-111632447D02*
X113272447Y-111656447D01*
X113272447Y-111656447D02*
X113279447Y-111682447D01*
X113279447Y-111682447D02*
X113285447Y-111707447D01*
X113285447Y-111707447D02*
X113290447Y-111733447D01*
X113290447Y-111733447D02*
X113293447Y-111759447D01*
X113293447Y-111759447D02*
X113295447Y-111785447D01*
X113295447Y-111785447D02*
X113296447Y-111811447D01*
X113296447Y-111811447D02*
X113295447Y-111837447D01*
X113295447Y-111837447D02*
X113293447Y-111863447D01*
X113293447Y-111863447D02*
X113290447Y-111889447D01*
X113290447Y-111889447D02*
X113285447Y-111915447D01*
X113285447Y-111915447D02*
X113279447Y-111940447D01*
X113279447Y-111940447D02*
X113272447Y-111966447D01*
X113272447Y-111966447D02*
X113263447Y-111990447D01*
X113263447Y-111990447D02*
X113253447Y-112014447D01*
X113253447Y-112014447D02*
X113242447Y-112038447D01*
X113242447Y-112038447D02*
X113229447Y-112061447D01*
X113229447Y-112061447D02*
X113215447Y-112083447D01*
X113215447Y-112083447D02*
X113201447Y-112105447D01*
X113201447Y-112105447D02*
X113185447Y-112126447D01*
X113185447Y-112126447D02*
X113168447Y-112146447D01*
X113168447Y-112146447D02*
X113150447Y-112165447D01*
X113150447Y-112165447D02*
X113131447Y-112183447D01*
X113131447Y-112183447D02*
X113111447Y-112200447D01*
X113111447Y-112200447D02*
X113090447Y-112216447D01*
X113090447Y-112216447D02*
X113068447Y-112230447D01*
X113068447Y-112230447D02*
X113046447Y-112244447D01*
X113046447Y-112244447D02*
X113023447Y-112257447D01*
X113023447Y-112257447D02*
X112999447Y-112268447D01*
X112999447Y-112268447D02*
X112975447Y-112278447D01*
X112975447Y-112278447D02*
X112951447Y-112287447D01*
X112951447Y-112287447D02*
X112925447Y-112294447D01*
X112925447Y-112294447D02*
X112900447Y-112300447D01*
X112900447Y-112300447D02*
X112874447Y-112305447D01*
X112874447Y-112305447D02*
X112848447Y-112308447D01*
X112848447Y-112308447D02*
X112822447Y-112310447D01*
X112822447Y-112310447D02*
X112796447Y-112311447D01*
X112796447Y-112311447D02*
X111996447Y-112311447D01*
X111996447Y-112311447D02*
X111970447Y-112310447D01*
X111970447Y-112310447D02*
X111944447Y-112308447D01*
X111944447Y-112308447D02*
X111918447Y-112305447D01*
X111918447Y-112305447D02*
X111892447Y-112300447D01*
X111892447Y-112300447D02*
X111867447Y-112294447D01*
X111867447Y-112294447D02*
X111841447Y-112287447D01*
X111841447Y-112287447D02*
X111817447Y-112278447D01*
X111817447Y-112278447D02*
X111793447Y-112268447D01*
X111793447Y-112268447D02*
X111769447Y-112257447D01*
X111769447Y-112257447D02*
X111746447Y-112244447D01*
X111746447Y-112244447D02*
X111724447Y-112230447D01*
X111724447Y-112230447D02*
X111702447Y-112216447D01*
X111702447Y-112216447D02*
X111681447Y-112200447D01*
X111681447Y-112200447D02*
X111661447Y-112183447D01*
X111661447Y-112183447D02*
X111642447Y-112165447D01*
X111642447Y-112165447D02*
X111624447Y-112146447D01*
X111624447Y-112146447D02*
X111607447Y-112126447D01*
X111607447Y-112126447D02*
X111591447Y-112105447D01*
X111591447Y-112105447D02*
X111577447Y-112083447D01*
X111577447Y-112083447D02*
X111563447Y-112061447D01*
X111563447Y-112061447D02*
X111550447Y-112038447D01*
X111550447Y-112038447D02*
X111539447Y-112014447D01*
X111539447Y-112014447D02*
X111529447Y-111990447D01*
X111529447Y-111990447D02*
X111520447Y-111966447D01*
X111520447Y-111966447D02*
X111513447Y-111940447D01*
X111513447Y-111940447D02*
X111507447Y-111915447D01*
X111507447Y-111915447D02*
X111502447Y-111889447D01*
X111502447Y-111889447D02*
X111499447Y-111863447D01*
X111499447Y-111863447D02*
X111497447Y-111837447D01*
X111497447Y-111837447D02*
X111496447Y-111811447D01*
X111496447Y-111811447D02*
X111496447Y-111811447D01*
G36*
X112822447Y-111312447D02*
G01*
X112848447Y-111314447D01*
X112874447Y-111317447D01*
X112900447Y-111322447D01*
X112925447Y-111328447D01*
X112951447Y-111335447D01*
X112975447Y-111344447D01*
X112999447Y-111354447D01*
X113023447Y-111365447D01*
X113046447Y-111378447D01*
X113090447Y-111406447D01*
X113111447Y-111422447D01*
X113131447Y-111439447D01*
X113150447Y-111457447D01*
X113168447Y-111476447D01*
X113185447Y-111496447D01*
X113201447Y-111517447D01*
X113229447Y-111561447D01*
X113242447Y-111584447D01*
X113253447Y-111608447D01*
X113263447Y-111632447D01*
X113272447Y-111656447D01*
X113279447Y-111682447D01*
X113285447Y-111707447D01*
X113290447Y-111733447D01*
X113293447Y-111759447D01*
X113295447Y-111785447D01*
X113296447Y-111811447D01*
X113295447Y-111837447D01*
X113293447Y-111863447D01*
X113290447Y-111889447D01*
X113285447Y-111915447D01*
X113279447Y-111940447D01*
X113272447Y-111966447D01*
X113263447Y-111990447D01*
X113253447Y-112014447D01*
X113242447Y-112038447D01*
X113229447Y-112061447D01*
X113201447Y-112105447D01*
X113185447Y-112126447D01*
X113168447Y-112146447D01*
X113150447Y-112165447D01*
X113131447Y-112183447D01*
X113111447Y-112200447D01*
X113090447Y-112216447D01*
X113046447Y-112244447D01*
X113023447Y-112257447D01*
X112999447Y-112268447D01*
X112975447Y-112278447D01*
X112951447Y-112287447D01*
X112925447Y-112294447D01*
X112900447Y-112300447D01*
X112874447Y-112305447D01*
X112848447Y-112308447D01*
X112822447Y-112310447D01*
X112796447Y-112311447D01*
X111996447Y-112311447D01*
X111970447Y-112310447D01*
X111944447Y-112308447D01*
X111918447Y-112305447D01*
X111892447Y-112300447D01*
X111867447Y-112294447D01*
X111841447Y-112287447D01*
X111817447Y-112278447D01*
X111793447Y-112268447D01*
X111769447Y-112257447D01*
X111746447Y-112244447D01*
X111702447Y-112216447D01*
X111681447Y-112200447D01*
X111661447Y-112183447D01*
X111642447Y-112165447D01*
X111624447Y-112146447D01*
X111607447Y-112126447D01*
X111591447Y-112105447D01*
X111563447Y-112061447D01*
X111550447Y-112038447D01*
X111539447Y-112014447D01*
X111529447Y-111990447D01*
X111520447Y-111966447D01*
X111513447Y-111940447D01*
X111507447Y-111915447D01*
X111502447Y-111889447D01*
X111499447Y-111863447D01*
X111497447Y-111837447D01*
X111496447Y-111811447D01*
X111497447Y-111785447D01*
X111499447Y-111759447D01*
X111502447Y-111733447D01*
X111507447Y-111707447D01*
X111513447Y-111682447D01*
X111520447Y-111656447D01*
X111529447Y-111632447D01*
X111539447Y-111608447D01*
X111550447Y-111584447D01*
X111563447Y-111561447D01*
X111591447Y-111517447D01*
X111607447Y-111496447D01*
X111624447Y-111476447D01*
X111642447Y-111457447D01*
X111661447Y-111439447D01*
X111681447Y-111422447D01*
X111702447Y-111406447D01*
X111746447Y-111378447D01*
X111769447Y-111365447D01*
X111793447Y-111354447D01*
X111817447Y-111344447D01*
X111841447Y-111335447D01*
X111867447Y-111328447D01*
X111892447Y-111322447D01*
X111918447Y-111317447D01*
X111944447Y-111314447D01*
X111970447Y-111312447D01*
X111996447Y-111311447D01*
X112796447Y-111311447D01*
X112822447Y-111312447D01*
G37*
X112822447Y-111312447D02*
X112848447Y-111314447D01*
X112874447Y-111317447D01*
X112900447Y-111322447D01*
X112925447Y-111328447D01*
X112951447Y-111335447D01*
X112975447Y-111344447D01*
X112999447Y-111354447D01*
X113023447Y-111365447D01*
X113046447Y-111378447D01*
X113090447Y-111406447D01*
X113111447Y-111422447D01*
X113131447Y-111439447D01*
X113150447Y-111457447D01*
X113168447Y-111476447D01*
X113185447Y-111496447D01*
X113201447Y-111517447D01*
X113229447Y-111561447D01*
X113242447Y-111584447D01*
X113253447Y-111608447D01*
X113263447Y-111632447D01*
X113272447Y-111656447D01*
X113279447Y-111682447D01*
X113285447Y-111707447D01*
X113290447Y-111733447D01*
X113293447Y-111759447D01*
X113295447Y-111785447D01*
X113296447Y-111811447D01*
X113295447Y-111837447D01*
X113293447Y-111863447D01*
X113290447Y-111889447D01*
X113285447Y-111915447D01*
X113279447Y-111940447D01*
X113272447Y-111966447D01*
X113263447Y-111990447D01*
X113253447Y-112014447D01*
X113242447Y-112038447D01*
X113229447Y-112061447D01*
X113201447Y-112105447D01*
X113185447Y-112126447D01*
X113168447Y-112146447D01*
X113150447Y-112165447D01*
X113131447Y-112183447D01*
X113111447Y-112200447D01*
X113090447Y-112216447D01*
X113046447Y-112244447D01*
X113023447Y-112257447D01*
X112999447Y-112268447D01*
X112975447Y-112278447D01*
X112951447Y-112287447D01*
X112925447Y-112294447D01*
X112900447Y-112300447D01*
X112874447Y-112305447D01*
X112848447Y-112308447D01*
X112822447Y-112310447D01*
X112796447Y-112311447D01*
X111996447Y-112311447D01*
X111970447Y-112310447D01*
X111944447Y-112308447D01*
X111918447Y-112305447D01*
X111892447Y-112300447D01*
X111867447Y-112294447D01*
X111841447Y-112287447D01*
X111817447Y-112278447D01*
X111793447Y-112268447D01*
X111769447Y-112257447D01*
X111746447Y-112244447D01*
X111702447Y-112216447D01*
X111681447Y-112200447D01*
X111661447Y-112183447D01*
X111642447Y-112165447D01*
X111624447Y-112146447D01*
X111607447Y-112126447D01*
X111591447Y-112105447D01*
X111563447Y-112061447D01*
X111550447Y-112038447D01*
X111539447Y-112014447D01*
X111529447Y-111990447D01*
X111520447Y-111966447D01*
X111513447Y-111940447D01*
X111507447Y-111915447D01*
X111502447Y-111889447D01*
X111499447Y-111863447D01*
X111497447Y-111837447D01*
X111496447Y-111811447D01*
X111497447Y-111785447D01*
X111499447Y-111759447D01*
X111502447Y-111733447D01*
X111507447Y-111707447D01*
X111513447Y-111682447D01*
X111520447Y-111656447D01*
X111529447Y-111632447D01*
X111539447Y-111608447D01*
X111550447Y-111584447D01*
X111563447Y-111561447D01*
X111591447Y-111517447D01*
X111607447Y-111496447D01*
X111624447Y-111476447D01*
X111642447Y-111457447D01*
X111661447Y-111439447D01*
X111681447Y-111422447D01*
X111702447Y-111406447D01*
X111746447Y-111378447D01*
X111769447Y-111365447D01*
X111793447Y-111354447D01*
X111817447Y-111344447D01*
X111841447Y-111335447D01*
X111867447Y-111328447D01*
X111892447Y-111322447D01*
X111918447Y-111317447D01*
X111944447Y-111314447D01*
X111970447Y-111312447D01*
X111996447Y-111311447D01*
X112796447Y-111311447D01*
X112822447Y-111312447D01*
%TO.C,J2*%
X127075000Y-87622500D02*
X127101000Y-87623500D01*
X127101000Y-87623500D02*
X127127000Y-87625500D01*
X127127000Y-87625500D02*
X127153000Y-87628500D01*
X127153000Y-87628500D02*
X127179000Y-87633500D01*
X127179000Y-87633500D02*
X127204000Y-87639500D01*
X127204000Y-87639500D02*
X127230000Y-87646500D01*
X127230000Y-87646500D02*
X127254000Y-87655500D01*
X127254000Y-87655500D02*
X127278000Y-87665500D01*
X127278000Y-87665500D02*
X127302000Y-87676500D01*
X127302000Y-87676500D02*
X127325000Y-87689500D01*
X127325000Y-87689500D02*
X127347000Y-87703500D01*
X127347000Y-87703500D02*
X127369000Y-87717500D01*
X127369000Y-87717500D02*
X127390000Y-87733500D01*
X127390000Y-87733500D02*
X127410000Y-87750500D01*
X127410000Y-87750500D02*
X127429000Y-87768500D01*
X127429000Y-87768500D02*
X127447000Y-87787500D01*
X127447000Y-87787500D02*
X127464000Y-87807500D01*
X127464000Y-87807500D02*
X127480000Y-87828500D01*
X127480000Y-87828500D02*
X127494000Y-87850500D01*
X127494000Y-87850500D02*
X127508000Y-87872500D01*
X127508000Y-87872500D02*
X127521000Y-87895500D01*
X127521000Y-87895500D02*
X127532000Y-87919500D01*
X127532000Y-87919500D02*
X127542000Y-87943500D01*
X127542000Y-87943500D02*
X127551000Y-87967500D01*
X127551000Y-87967500D02*
X127558000Y-87993500D01*
X127558000Y-87993500D02*
X127564000Y-88018500D01*
X127564000Y-88018500D02*
X127569000Y-88044500D01*
X127569000Y-88044500D02*
X127572000Y-88070500D01*
X127572000Y-88070500D02*
X127574000Y-88096500D01*
X127574000Y-88096500D02*
X127575000Y-88122500D01*
X127575000Y-88122500D02*
X127575000Y-88922500D01*
X127575000Y-88922500D02*
X127574000Y-88948500D01*
X127574000Y-88948500D02*
X127572000Y-88974500D01*
X127572000Y-88974500D02*
X127569000Y-89000500D01*
X127569000Y-89000500D02*
X127564000Y-89026500D01*
X127564000Y-89026500D02*
X127558000Y-89051500D01*
X127558000Y-89051500D02*
X127551000Y-89077500D01*
X127551000Y-89077500D02*
X127542000Y-89101500D01*
X127542000Y-89101500D02*
X127532000Y-89125500D01*
X127532000Y-89125500D02*
X127521000Y-89149500D01*
X127521000Y-89149500D02*
X127508000Y-89172500D01*
X127508000Y-89172500D02*
X127494000Y-89194500D01*
X127494000Y-89194500D02*
X127480000Y-89216500D01*
X127480000Y-89216500D02*
X127464000Y-89237500D01*
X127464000Y-89237500D02*
X127447000Y-89257500D01*
X127447000Y-89257500D02*
X127429000Y-89276500D01*
X127429000Y-89276500D02*
X127410000Y-89294500D01*
X127410000Y-89294500D02*
X127390000Y-89311500D01*
X127390000Y-89311500D02*
X127369000Y-89327500D01*
X127369000Y-89327500D02*
X127347000Y-89341500D01*
X127347000Y-89341500D02*
X127325000Y-89355500D01*
X127325000Y-89355500D02*
X127302000Y-89368500D01*
X127302000Y-89368500D02*
X127278000Y-89379500D01*
X127278000Y-89379500D02*
X127254000Y-89389500D01*
X127254000Y-89389500D02*
X127230000Y-89398500D01*
X127230000Y-89398500D02*
X127204000Y-89405500D01*
X127204000Y-89405500D02*
X127179000Y-89411500D01*
X127179000Y-89411500D02*
X127153000Y-89416500D01*
X127153000Y-89416500D02*
X127127000Y-89419500D01*
X127127000Y-89419500D02*
X127101000Y-89421500D01*
X127101000Y-89421500D02*
X127075000Y-89422500D01*
X127075000Y-89422500D02*
X127049000Y-89421500D01*
X127049000Y-89421500D02*
X127023000Y-89419500D01*
X127023000Y-89419500D02*
X126997000Y-89416500D01*
X126997000Y-89416500D02*
X126971000Y-89411500D01*
X126971000Y-89411500D02*
X126946000Y-89405500D01*
X126946000Y-89405500D02*
X126920000Y-89398500D01*
X126920000Y-89398500D02*
X126896000Y-89389500D01*
X126896000Y-89389500D02*
X126872000Y-89379500D01*
X126872000Y-89379500D02*
X126848000Y-89368500D01*
X126848000Y-89368500D02*
X126825000Y-89355500D01*
X126825000Y-89355500D02*
X126803000Y-89341500D01*
X126803000Y-89341500D02*
X126781000Y-89327500D01*
X126781000Y-89327500D02*
X126760000Y-89311500D01*
X126760000Y-89311500D02*
X126740000Y-89294500D01*
X126740000Y-89294500D02*
X126721000Y-89276500D01*
X126721000Y-89276500D02*
X126703000Y-89257500D01*
X126703000Y-89257500D02*
X126686000Y-89237500D01*
X126686000Y-89237500D02*
X126670000Y-89216500D01*
X126670000Y-89216500D02*
X126656000Y-89194500D01*
X126656000Y-89194500D02*
X126642000Y-89172500D01*
X126642000Y-89172500D02*
X126629000Y-89149500D01*
X126629000Y-89149500D02*
X126618000Y-89125500D01*
X126618000Y-89125500D02*
X126608000Y-89101500D01*
X126608000Y-89101500D02*
X126599000Y-89077500D01*
X126599000Y-89077500D02*
X126592000Y-89051500D01*
X126592000Y-89051500D02*
X126586000Y-89026500D01*
X126586000Y-89026500D02*
X126581000Y-89000500D01*
X126581000Y-89000500D02*
X126578000Y-88974500D01*
X126578000Y-88974500D02*
X126576000Y-88948500D01*
X126576000Y-88948500D02*
X126575000Y-88922500D01*
X126575000Y-88922500D02*
X126575000Y-88122500D01*
X126575000Y-88122500D02*
X126576000Y-88096500D01*
X126576000Y-88096500D02*
X126578000Y-88070500D01*
X126578000Y-88070500D02*
X126581000Y-88044500D01*
X126581000Y-88044500D02*
X126586000Y-88018500D01*
X126586000Y-88018500D02*
X126592000Y-87993500D01*
X126592000Y-87993500D02*
X126599000Y-87967500D01*
X126599000Y-87967500D02*
X126608000Y-87943500D01*
X126608000Y-87943500D02*
X126618000Y-87919500D01*
X126618000Y-87919500D02*
X126629000Y-87895500D01*
X126629000Y-87895500D02*
X126642000Y-87872500D01*
X126642000Y-87872500D02*
X126656000Y-87850500D01*
X126656000Y-87850500D02*
X126670000Y-87828500D01*
X126670000Y-87828500D02*
X126686000Y-87807500D01*
X126686000Y-87807500D02*
X126703000Y-87787500D01*
X126703000Y-87787500D02*
X126721000Y-87768500D01*
X126721000Y-87768500D02*
X126740000Y-87750500D01*
X126740000Y-87750500D02*
X126760000Y-87733500D01*
X126760000Y-87733500D02*
X126781000Y-87717500D01*
X126781000Y-87717500D02*
X126803000Y-87703500D01*
X126803000Y-87703500D02*
X126825000Y-87689500D01*
X126825000Y-87689500D02*
X126848000Y-87676500D01*
X126848000Y-87676500D02*
X126872000Y-87665500D01*
X126872000Y-87665500D02*
X126896000Y-87655500D01*
X126896000Y-87655500D02*
X126920000Y-87646500D01*
X126920000Y-87646500D02*
X126946000Y-87639500D01*
X126946000Y-87639500D02*
X126971000Y-87633500D01*
X126971000Y-87633500D02*
X126997000Y-87628500D01*
X126997000Y-87628500D02*
X127023000Y-87625500D01*
X127023000Y-87625500D02*
X127049000Y-87623500D01*
X127049000Y-87623500D02*
X127075000Y-87622500D01*
X127075000Y-87622500D02*
X127075000Y-87622500D01*
G36*
X127101000Y-87623500D02*
G01*
X127127000Y-87625500D01*
X127153000Y-87628500D01*
X127179000Y-87633500D01*
X127204000Y-87639500D01*
X127230000Y-87646500D01*
X127254000Y-87655500D01*
X127278000Y-87665500D01*
X127302000Y-87676500D01*
X127325000Y-87689500D01*
X127369000Y-87717500D01*
X127390000Y-87733500D01*
X127410000Y-87750500D01*
X127429000Y-87768500D01*
X127447000Y-87787500D01*
X127464000Y-87807500D01*
X127480000Y-87828500D01*
X127508000Y-87872500D01*
X127521000Y-87895500D01*
X127532000Y-87919500D01*
X127542000Y-87943500D01*
X127551000Y-87967500D01*
X127558000Y-87993500D01*
X127564000Y-88018500D01*
X127569000Y-88044500D01*
X127572000Y-88070500D01*
X127574000Y-88096500D01*
X127575000Y-88122500D01*
X127575000Y-88922500D01*
X127574000Y-88948500D01*
X127572000Y-88974500D01*
X127569000Y-89000500D01*
X127564000Y-89026500D01*
X127558000Y-89051500D01*
X127551000Y-89077500D01*
X127542000Y-89101500D01*
X127532000Y-89125500D01*
X127521000Y-89149500D01*
X127508000Y-89172500D01*
X127480000Y-89216500D01*
X127464000Y-89237500D01*
X127447000Y-89257500D01*
X127429000Y-89276500D01*
X127410000Y-89294500D01*
X127390000Y-89311500D01*
X127369000Y-89327500D01*
X127325000Y-89355500D01*
X127302000Y-89368500D01*
X127278000Y-89379500D01*
X127254000Y-89389500D01*
X127230000Y-89398500D01*
X127204000Y-89405500D01*
X127179000Y-89411500D01*
X127153000Y-89416500D01*
X127127000Y-89419500D01*
X127101000Y-89421500D01*
X127075000Y-89422500D01*
X127049000Y-89421500D01*
X127023000Y-89419500D01*
X126997000Y-89416500D01*
X126971000Y-89411500D01*
X126946000Y-89405500D01*
X126920000Y-89398500D01*
X126896000Y-89389500D01*
X126872000Y-89379500D01*
X126848000Y-89368500D01*
X126825000Y-89355500D01*
X126781000Y-89327500D01*
X126760000Y-89311500D01*
X126740000Y-89294500D01*
X126721000Y-89276500D01*
X126703000Y-89257500D01*
X126686000Y-89237500D01*
X126670000Y-89216500D01*
X126642000Y-89172500D01*
X126629000Y-89149500D01*
X126618000Y-89125500D01*
X126608000Y-89101500D01*
X126599000Y-89077500D01*
X126592000Y-89051500D01*
X126586000Y-89026500D01*
X126581000Y-89000500D01*
X126578000Y-88974500D01*
X126576000Y-88948500D01*
X126575000Y-88922500D01*
X126575000Y-88122500D01*
X126576000Y-88096500D01*
X126578000Y-88070500D01*
X126581000Y-88044500D01*
X126586000Y-88018500D01*
X126592000Y-87993500D01*
X126599000Y-87967500D01*
X126608000Y-87943500D01*
X126618000Y-87919500D01*
X126629000Y-87895500D01*
X126642000Y-87872500D01*
X126670000Y-87828500D01*
X126686000Y-87807500D01*
X126703000Y-87787500D01*
X126721000Y-87768500D01*
X126740000Y-87750500D01*
X126760000Y-87733500D01*
X126781000Y-87717500D01*
X126825000Y-87689500D01*
X126848000Y-87676500D01*
X126872000Y-87665500D01*
X126896000Y-87655500D01*
X126920000Y-87646500D01*
X126946000Y-87639500D01*
X126971000Y-87633500D01*
X126997000Y-87628500D01*
X127023000Y-87625500D01*
X127049000Y-87623500D01*
X127075000Y-87622500D01*
X127101000Y-87623500D01*
G37*
X127101000Y-87623500D02*
X127127000Y-87625500D01*
X127153000Y-87628500D01*
X127179000Y-87633500D01*
X127204000Y-87639500D01*
X127230000Y-87646500D01*
X127254000Y-87655500D01*
X127278000Y-87665500D01*
X127302000Y-87676500D01*
X127325000Y-87689500D01*
X127369000Y-87717500D01*
X127390000Y-87733500D01*
X127410000Y-87750500D01*
X127429000Y-87768500D01*
X127447000Y-87787500D01*
X127464000Y-87807500D01*
X127480000Y-87828500D01*
X127508000Y-87872500D01*
X127521000Y-87895500D01*
X127532000Y-87919500D01*
X127542000Y-87943500D01*
X127551000Y-87967500D01*
X127558000Y-87993500D01*
X127564000Y-88018500D01*
X127569000Y-88044500D01*
X127572000Y-88070500D01*
X127574000Y-88096500D01*
X127575000Y-88122500D01*
X127575000Y-88922500D01*
X127574000Y-88948500D01*
X127572000Y-88974500D01*
X127569000Y-89000500D01*
X127564000Y-89026500D01*
X127558000Y-89051500D01*
X127551000Y-89077500D01*
X127542000Y-89101500D01*
X127532000Y-89125500D01*
X127521000Y-89149500D01*
X127508000Y-89172500D01*
X127480000Y-89216500D01*
X127464000Y-89237500D01*
X127447000Y-89257500D01*
X127429000Y-89276500D01*
X127410000Y-89294500D01*
X127390000Y-89311500D01*
X127369000Y-89327500D01*
X127325000Y-89355500D01*
X127302000Y-89368500D01*
X127278000Y-89379500D01*
X127254000Y-89389500D01*
X127230000Y-89398500D01*
X127204000Y-89405500D01*
X127179000Y-89411500D01*
X127153000Y-89416500D01*
X127127000Y-89419500D01*
X127101000Y-89421500D01*
X127075000Y-89422500D01*
X127049000Y-89421500D01*
X127023000Y-89419500D01*
X126997000Y-89416500D01*
X126971000Y-89411500D01*
X126946000Y-89405500D01*
X126920000Y-89398500D01*
X126896000Y-89389500D01*
X126872000Y-89379500D01*
X126848000Y-89368500D01*
X126825000Y-89355500D01*
X126781000Y-89327500D01*
X126760000Y-89311500D01*
X126740000Y-89294500D01*
X126721000Y-89276500D01*
X126703000Y-89257500D01*
X126686000Y-89237500D01*
X126670000Y-89216500D01*
X126642000Y-89172500D01*
X126629000Y-89149500D01*
X126618000Y-89125500D01*
X126608000Y-89101500D01*
X126599000Y-89077500D01*
X126592000Y-89051500D01*
X126586000Y-89026500D01*
X126581000Y-89000500D01*
X126578000Y-88974500D01*
X126576000Y-88948500D01*
X126575000Y-88922500D01*
X126575000Y-88122500D01*
X126576000Y-88096500D01*
X126578000Y-88070500D01*
X126581000Y-88044500D01*
X126586000Y-88018500D01*
X126592000Y-87993500D01*
X126599000Y-87967500D01*
X126608000Y-87943500D01*
X126618000Y-87919500D01*
X126629000Y-87895500D01*
X126642000Y-87872500D01*
X126670000Y-87828500D01*
X126686000Y-87807500D01*
X126703000Y-87787500D01*
X126721000Y-87768500D01*
X126740000Y-87750500D01*
X126760000Y-87733500D01*
X126781000Y-87717500D01*
X126825000Y-87689500D01*
X126848000Y-87676500D01*
X126872000Y-87665500D01*
X126896000Y-87655500D01*
X126920000Y-87646500D01*
X126946000Y-87639500D01*
X126971000Y-87633500D01*
X126997000Y-87628500D01*
X127023000Y-87625500D01*
X127049000Y-87623500D01*
X127075000Y-87622500D01*
X127101000Y-87623500D01*
X127075000Y-83422500D02*
X127101000Y-83423500D01*
X127101000Y-83423500D02*
X127127000Y-83425500D01*
X127127000Y-83425500D02*
X127153000Y-83428500D01*
X127153000Y-83428500D02*
X127179000Y-83433500D01*
X127179000Y-83433500D02*
X127204000Y-83439500D01*
X127204000Y-83439500D02*
X127230000Y-83446500D01*
X127230000Y-83446500D02*
X127254000Y-83455500D01*
X127254000Y-83455500D02*
X127278000Y-83465500D01*
X127278000Y-83465500D02*
X127302000Y-83476500D01*
X127302000Y-83476500D02*
X127325000Y-83489500D01*
X127325000Y-83489500D02*
X127347000Y-83503500D01*
X127347000Y-83503500D02*
X127369000Y-83517500D01*
X127369000Y-83517500D02*
X127390000Y-83533500D01*
X127390000Y-83533500D02*
X127410000Y-83550500D01*
X127410000Y-83550500D02*
X127429000Y-83568500D01*
X127429000Y-83568500D02*
X127447000Y-83587500D01*
X127447000Y-83587500D02*
X127464000Y-83607500D01*
X127464000Y-83607500D02*
X127480000Y-83628500D01*
X127480000Y-83628500D02*
X127494000Y-83650500D01*
X127494000Y-83650500D02*
X127508000Y-83672500D01*
X127508000Y-83672500D02*
X127521000Y-83695500D01*
X127521000Y-83695500D02*
X127532000Y-83719500D01*
X127532000Y-83719500D02*
X127542000Y-83743500D01*
X127542000Y-83743500D02*
X127551000Y-83767500D01*
X127551000Y-83767500D02*
X127558000Y-83793500D01*
X127558000Y-83793500D02*
X127564000Y-83818500D01*
X127564000Y-83818500D02*
X127569000Y-83844500D01*
X127569000Y-83844500D02*
X127572000Y-83870500D01*
X127572000Y-83870500D02*
X127574000Y-83896500D01*
X127574000Y-83896500D02*
X127575000Y-83922500D01*
X127575000Y-83922500D02*
X127575000Y-85122500D01*
X127575000Y-85122500D02*
X127574000Y-85148500D01*
X127574000Y-85148500D02*
X127572000Y-85174500D01*
X127572000Y-85174500D02*
X127569000Y-85200500D01*
X127569000Y-85200500D02*
X127564000Y-85226500D01*
X127564000Y-85226500D02*
X127558000Y-85251500D01*
X127558000Y-85251500D02*
X127551000Y-85277500D01*
X127551000Y-85277500D02*
X127542000Y-85301500D01*
X127542000Y-85301500D02*
X127532000Y-85325500D01*
X127532000Y-85325500D02*
X127521000Y-85349500D01*
X127521000Y-85349500D02*
X127508000Y-85372500D01*
X127508000Y-85372500D02*
X127494000Y-85394500D01*
X127494000Y-85394500D02*
X127480000Y-85416500D01*
X127480000Y-85416500D02*
X127464000Y-85437500D01*
X127464000Y-85437500D02*
X127447000Y-85457500D01*
X127447000Y-85457500D02*
X127429000Y-85476500D01*
X127429000Y-85476500D02*
X127410000Y-85494500D01*
X127410000Y-85494500D02*
X127390000Y-85511500D01*
X127390000Y-85511500D02*
X127369000Y-85527500D01*
X127369000Y-85527500D02*
X127347000Y-85541500D01*
X127347000Y-85541500D02*
X127325000Y-85555500D01*
X127325000Y-85555500D02*
X127302000Y-85568500D01*
X127302000Y-85568500D02*
X127278000Y-85579500D01*
X127278000Y-85579500D02*
X127254000Y-85589500D01*
X127254000Y-85589500D02*
X127230000Y-85598500D01*
X127230000Y-85598500D02*
X127204000Y-85605500D01*
X127204000Y-85605500D02*
X127179000Y-85611500D01*
X127179000Y-85611500D02*
X127153000Y-85616500D01*
X127153000Y-85616500D02*
X127127000Y-85619500D01*
X127127000Y-85619500D02*
X127101000Y-85621500D01*
X127101000Y-85621500D02*
X127075000Y-85622500D01*
X127075000Y-85622500D02*
X127049000Y-85621500D01*
X127049000Y-85621500D02*
X127023000Y-85619500D01*
X127023000Y-85619500D02*
X126997000Y-85616500D01*
X126997000Y-85616500D02*
X126971000Y-85611500D01*
X126971000Y-85611500D02*
X126946000Y-85605500D01*
X126946000Y-85605500D02*
X126920000Y-85598500D01*
X126920000Y-85598500D02*
X126896000Y-85589500D01*
X126896000Y-85589500D02*
X126872000Y-85579500D01*
X126872000Y-85579500D02*
X126848000Y-85568500D01*
X126848000Y-85568500D02*
X126825000Y-85555500D01*
X126825000Y-85555500D02*
X126803000Y-85541500D01*
X126803000Y-85541500D02*
X126781000Y-85527500D01*
X126781000Y-85527500D02*
X126760000Y-85511500D01*
X126760000Y-85511500D02*
X126740000Y-85494500D01*
X126740000Y-85494500D02*
X126721000Y-85476500D01*
X126721000Y-85476500D02*
X126703000Y-85457500D01*
X126703000Y-85457500D02*
X126686000Y-85437500D01*
X126686000Y-85437500D02*
X126670000Y-85416500D01*
X126670000Y-85416500D02*
X126656000Y-85394500D01*
X126656000Y-85394500D02*
X126642000Y-85372500D01*
X126642000Y-85372500D02*
X126629000Y-85349500D01*
X126629000Y-85349500D02*
X126618000Y-85325500D01*
X126618000Y-85325500D02*
X126608000Y-85301500D01*
X126608000Y-85301500D02*
X126599000Y-85277500D01*
X126599000Y-85277500D02*
X126592000Y-85251500D01*
X126592000Y-85251500D02*
X126586000Y-85226500D01*
X126586000Y-85226500D02*
X126581000Y-85200500D01*
X126581000Y-85200500D02*
X126578000Y-85174500D01*
X126578000Y-85174500D02*
X126576000Y-85148500D01*
X126576000Y-85148500D02*
X126575000Y-85122500D01*
X126575000Y-85122500D02*
X126575000Y-83922500D01*
X126575000Y-83922500D02*
X126576000Y-83896500D01*
X126576000Y-83896500D02*
X126578000Y-83870500D01*
X126578000Y-83870500D02*
X126581000Y-83844500D01*
X126581000Y-83844500D02*
X126586000Y-83818500D01*
X126586000Y-83818500D02*
X126592000Y-83793500D01*
X126592000Y-83793500D02*
X126599000Y-83767500D01*
X126599000Y-83767500D02*
X126608000Y-83743500D01*
X126608000Y-83743500D02*
X126618000Y-83719500D01*
X126618000Y-83719500D02*
X126629000Y-83695500D01*
X126629000Y-83695500D02*
X126642000Y-83672500D01*
X126642000Y-83672500D02*
X126656000Y-83650500D01*
X126656000Y-83650500D02*
X126670000Y-83628500D01*
X126670000Y-83628500D02*
X126686000Y-83607500D01*
X126686000Y-83607500D02*
X126703000Y-83587500D01*
X126703000Y-83587500D02*
X126721000Y-83568500D01*
X126721000Y-83568500D02*
X126740000Y-83550500D01*
X126740000Y-83550500D02*
X126760000Y-83533500D01*
X126760000Y-83533500D02*
X126781000Y-83517500D01*
X126781000Y-83517500D02*
X126803000Y-83503500D01*
X126803000Y-83503500D02*
X126825000Y-83489500D01*
X126825000Y-83489500D02*
X126848000Y-83476500D01*
X126848000Y-83476500D02*
X126872000Y-83465500D01*
X126872000Y-83465500D02*
X126896000Y-83455500D01*
X126896000Y-83455500D02*
X126920000Y-83446500D01*
X126920000Y-83446500D02*
X126946000Y-83439500D01*
X126946000Y-83439500D02*
X126971000Y-83433500D01*
X126971000Y-83433500D02*
X126997000Y-83428500D01*
X126997000Y-83428500D02*
X127023000Y-83425500D01*
X127023000Y-83425500D02*
X127049000Y-83423500D01*
X127049000Y-83423500D02*
X127075000Y-83422500D01*
X127075000Y-83422500D02*
X127075000Y-83422500D01*
G36*
X127101000Y-83423500D02*
G01*
X127127000Y-83425500D01*
X127153000Y-83428500D01*
X127179000Y-83433500D01*
X127204000Y-83439500D01*
X127230000Y-83446500D01*
X127254000Y-83455500D01*
X127278000Y-83465500D01*
X127302000Y-83476500D01*
X127325000Y-83489500D01*
X127369000Y-83517500D01*
X127390000Y-83533500D01*
X127410000Y-83550500D01*
X127429000Y-83568500D01*
X127447000Y-83587500D01*
X127464000Y-83607500D01*
X127480000Y-83628500D01*
X127508000Y-83672500D01*
X127521000Y-83695500D01*
X127532000Y-83719500D01*
X127542000Y-83743500D01*
X127551000Y-83767500D01*
X127558000Y-83793500D01*
X127564000Y-83818500D01*
X127569000Y-83844500D01*
X127572000Y-83870500D01*
X127574000Y-83896500D01*
X127575000Y-83922500D01*
X127575000Y-85122500D01*
X127574000Y-85148500D01*
X127572000Y-85174500D01*
X127569000Y-85200500D01*
X127564000Y-85226500D01*
X127558000Y-85251500D01*
X127551000Y-85277500D01*
X127542000Y-85301500D01*
X127532000Y-85325500D01*
X127521000Y-85349500D01*
X127508000Y-85372500D01*
X127480000Y-85416500D01*
X127464000Y-85437500D01*
X127447000Y-85457500D01*
X127429000Y-85476500D01*
X127410000Y-85494500D01*
X127390000Y-85511500D01*
X127369000Y-85527500D01*
X127325000Y-85555500D01*
X127302000Y-85568500D01*
X127278000Y-85579500D01*
X127254000Y-85589500D01*
X127230000Y-85598500D01*
X127204000Y-85605500D01*
X127179000Y-85611500D01*
X127153000Y-85616500D01*
X127127000Y-85619500D01*
X127101000Y-85621500D01*
X127075000Y-85622500D01*
X127049000Y-85621500D01*
X127023000Y-85619500D01*
X126997000Y-85616500D01*
X126971000Y-85611500D01*
X126946000Y-85605500D01*
X126920000Y-85598500D01*
X126896000Y-85589500D01*
X126872000Y-85579500D01*
X126848000Y-85568500D01*
X126825000Y-85555500D01*
X126781000Y-85527500D01*
X126760000Y-85511500D01*
X126740000Y-85494500D01*
X126721000Y-85476500D01*
X126703000Y-85457500D01*
X126686000Y-85437500D01*
X126670000Y-85416500D01*
X126642000Y-85372500D01*
X126629000Y-85349500D01*
X126618000Y-85325500D01*
X126608000Y-85301500D01*
X126599000Y-85277500D01*
X126592000Y-85251500D01*
X126586000Y-85226500D01*
X126581000Y-85200500D01*
X126578000Y-85174500D01*
X126576000Y-85148500D01*
X126575000Y-85122500D01*
X126575000Y-83922500D01*
X126576000Y-83896500D01*
X126578000Y-83870500D01*
X126581000Y-83844500D01*
X126586000Y-83818500D01*
X126592000Y-83793500D01*
X126599000Y-83767500D01*
X126608000Y-83743500D01*
X126618000Y-83719500D01*
X126629000Y-83695500D01*
X126642000Y-83672500D01*
X126670000Y-83628500D01*
X126686000Y-83607500D01*
X126703000Y-83587500D01*
X126721000Y-83568500D01*
X126740000Y-83550500D01*
X126760000Y-83533500D01*
X126781000Y-83517500D01*
X126825000Y-83489500D01*
X126848000Y-83476500D01*
X126872000Y-83465500D01*
X126896000Y-83455500D01*
X126920000Y-83446500D01*
X126946000Y-83439500D01*
X126971000Y-83433500D01*
X126997000Y-83428500D01*
X127023000Y-83425500D01*
X127049000Y-83423500D01*
X127075000Y-83422500D01*
X127101000Y-83423500D01*
G37*
X127101000Y-83423500D02*
X127127000Y-83425500D01*
X127153000Y-83428500D01*
X127179000Y-83433500D01*
X127204000Y-83439500D01*
X127230000Y-83446500D01*
X127254000Y-83455500D01*
X127278000Y-83465500D01*
X127302000Y-83476500D01*
X127325000Y-83489500D01*
X127369000Y-83517500D01*
X127390000Y-83533500D01*
X127410000Y-83550500D01*
X127429000Y-83568500D01*
X127447000Y-83587500D01*
X127464000Y-83607500D01*
X127480000Y-83628500D01*
X127508000Y-83672500D01*
X127521000Y-83695500D01*
X127532000Y-83719500D01*
X127542000Y-83743500D01*
X127551000Y-83767500D01*
X127558000Y-83793500D01*
X127564000Y-83818500D01*
X127569000Y-83844500D01*
X127572000Y-83870500D01*
X127574000Y-83896500D01*
X127575000Y-83922500D01*
X127575000Y-85122500D01*
X127574000Y-85148500D01*
X127572000Y-85174500D01*
X127569000Y-85200500D01*
X127564000Y-85226500D01*
X127558000Y-85251500D01*
X127551000Y-85277500D01*
X127542000Y-85301500D01*
X127532000Y-85325500D01*
X127521000Y-85349500D01*
X127508000Y-85372500D01*
X127480000Y-85416500D01*
X127464000Y-85437500D01*
X127447000Y-85457500D01*
X127429000Y-85476500D01*
X127410000Y-85494500D01*
X127390000Y-85511500D01*
X127369000Y-85527500D01*
X127325000Y-85555500D01*
X127302000Y-85568500D01*
X127278000Y-85579500D01*
X127254000Y-85589500D01*
X127230000Y-85598500D01*
X127204000Y-85605500D01*
X127179000Y-85611500D01*
X127153000Y-85616500D01*
X127127000Y-85619500D01*
X127101000Y-85621500D01*
X127075000Y-85622500D01*
X127049000Y-85621500D01*
X127023000Y-85619500D01*
X126997000Y-85616500D01*
X126971000Y-85611500D01*
X126946000Y-85605500D01*
X126920000Y-85598500D01*
X126896000Y-85589500D01*
X126872000Y-85579500D01*
X126848000Y-85568500D01*
X126825000Y-85555500D01*
X126781000Y-85527500D01*
X126760000Y-85511500D01*
X126740000Y-85494500D01*
X126721000Y-85476500D01*
X126703000Y-85457500D01*
X126686000Y-85437500D01*
X126670000Y-85416500D01*
X126642000Y-85372500D01*
X126629000Y-85349500D01*
X126618000Y-85325500D01*
X126608000Y-85301500D01*
X126599000Y-85277500D01*
X126592000Y-85251500D01*
X126586000Y-85226500D01*
X126581000Y-85200500D01*
X126578000Y-85174500D01*
X126576000Y-85148500D01*
X126575000Y-85122500D01*
X126575000Y-83922500D01*
X126576000Y-83896500D01*
X126578000Y-83870500D01*
X126581000Y-83844500D01*
X126586000Y-83818500D01*
X126592000Y-83793500D01*
X126599000Y-83767500D01*
X126608000Y-83743500D01*
X126618000Y-83719500D01*
X126629000Y-83695500D01*
X126642000Y-83672500D01*
X126670000Y-83628500D01*
X126686000Y-83607500D01*
X126703000Y-83587500D01*
X126721000Y-83568500D01*
X126740000Y-83550500D01*
X126760000Y-83533500D01*
X126781000Y-83517500D01*
X126825000Y-83489500D01*
X126848000Y-83476500D01*
X126872000Y-83465500D01*
X126896000Y-83455500D01*
X126920000Y-83446500D01*
X126946000Y-83439500D01*
X126971000Y-83433500D01*
X126997000Y-83428500D01*
X127023000Y-83425500D01*
X127049000Y-83423500D01*
X127075000Y-83422500D01*
X127101000Y-83423500D01*
X115835000Y-87622500D02*
X115861000Y-87623500D01*
X115861000Y-87623500D02*
X115887000Y-87625500D01*
X115887000Y-87625500D02*
X115913000Y-87628500D01*
X115913000Y-87628500D02*
X115939000Y-87633500D01*
X115939000Y-87633500D02*
X115964000Y-87639500D01*
X115964000Y-87639500D02*
X115990000Y-87646500D01*
X115990000Y-87646500D02*
X116014000Y-87655500D01*
X116014000Y-87655500D02*
X116038000Y-87665500D01*
X116038000Y-87665500D02*
X116062000Y-87676500D01*
X116062000Y-87676500D02*
X116085000Y-87689500D01*
X116085000Y-87689500D02*
X116107000Y-87703500D01*
X116107000Y-87703500D02*
X116129000Y-87717500D01*
X116129000Y-87717500D02*
X116150000Y-87733500D01*
X116150000Y-87733500D02*
X116170000Y-87750500D01*
X116170000Y-87750500D02*
X116189000Y-87768500D01*
X116189000Y-87768500D02*
X116207000Y-87787500D01*
X116207000Y-87787500D02*
X116224000Y-87807500D01*
X116224000Y-87807500D02*
X116240000Y-87828500D01*
X116240000Y-87828500D02*
X116254000Y-87850500D01*
X116254000Y-87850500D02*
X116268000Y-87872500D01*
X116268000Y-87872500D02*
X116281000Y-87895500D01*
X116281000Y-87895500D02*
X116292000Y-87919500D01*
X116292000Y-87919500D02*
X116302000Y-87943500D01*
X116302000Y-87943500D02*
X116311000Y-87967500D01*
X116311000Y-87967500D02*
X116318000Y-87993500D01*
X116318000Y-87993500D02*
X116324000Y-88018500D01*
X116324000Y-88018500D02*
X116329000Y-88044500D01*
X116329000Y-88044500D02*
X116332000Y-88070500D01*
X116332000Y-88070500D02*
X116334000Y-88096500D01*
X116334000Y-88096500D02*
X116335000Y-88122500D01*
X116335000Y-88122500D02*
X116335000Y-88922500D01*
X116335000Y-88922500D02*
X116334000Y-88948500D01*
X116334000Y-88948500D02*
X116332000Y-88974500D01*
X116332000Y-88974500D02*
X116329000Y-89000500D01*
X116329000Y-89000500D02*
X116324000Y-89026500D01*
X116324000Y-89026500D02*
X116318000Y-89051500D01*
X116318000Y-89051500D02*
X116311000Y-89077500D01*
X116311000Y-89077500D02*
X116302000Y-89101500D01*
X116302000Y-89101500D02*
X116292000Y-89125500D01*
X116292000Y-89125500D02*
X116281000Y-89149500D01*
X116281000Y-89149500D02*
X116268000Y-89172500D01*
X116268000Y-89172500D02*
X116254000Y-89194500D01*
X116254000Y-89194500D02*
X116240000Y-89216500D01*
X116240000Y-89216500D02*
X116224000Y-89237500D01*
X116224000Y-89237500D02*
X116207000Y-89257500D01*
X116207000Y-89257500D02*
X116189000Y-89276500D01*
X116189000Y-89276500D02*
X116170000Y-89294500D01*
X116170000Y-89294500D02*
X116150000Y-89311500D01*
X116150000Y-89311500D02*
X116129000Y-89327500D01*
X116129000Y-89327500D02*
X116107000Y-89341500D01*
X116107000Y-89341500D02*
X116085000Y-89355500D01*
X116085000Y-89355500D02*
X116062000Y-89368500D01*
X116062000Y-89368500D02*
X116038000Y-89379500D01*
X116038000Y-89379500D02*
X116014000Y-89389500D01*
X116014000Y-89389500D02*
X115990000Y-89398500D01*
X115990000Y-89398500D02*
X115964000Y-89405500D01*
X115964000Y-89405500D02*
X115939000Y-89411500D01*
X115939000Y-89411500D02*
X115913000Y-89416500D01*
X115913000Y-89416500D02*
X115887000Y-89419500D01*
X115887000Y-89419500D02*
X115861000Y-89421500D01*
X115861000Y-89421500D02*
X115835000Y-89422500D01*
X115835000Y-89422500D02*
X115809000Y-89421500D01*
X115809000Y-89421500D02*
X115783000Y-89419500D01*
X115783000Y-89419500D02*
X115757000Y-89416500D01*
X115757000Y-89416500D02*
X115731000Y-89411500D01*
X115731000Y-89411500D02*
X115706000Y-89405500D01*
X115706000Y-89405500D02*
X115680000Y-89398500D01*
X115680000Y-89398500D02*
X115656000Y-89389500D01*
X115656000Y-89389500D02*
X115632000Y-89379500D01*
X115632000Y-89379500D02*
X115608000Y-89368500D01*
X115608000Y-89368500D02*
X115585000Y-89355500D01*
X115585000Y-89355500D02*
X115563000Y-89341500D01*
X115563000Y-89341500D02*
X115541000Y-89327500D01*
X115541000Y-89327500D02*
X115520000Y-89311500D01*
X115520000Y-89311500D02*
X115500000Y-89294500D01*
X115500000Y-89294500D02*
X115481000Y-89276500D01*
X115481000Y-89276500D02*
X115463000Y-89257500D01*
X115463000Y-89257500D02*
X115446000Y-89237500D01*
X115446000Y-89237500D02*
X115430000Y-89216500D01*
X115430000Y-89216500D02*
X115416000Y-89194500D01*
X115416000Y-89194500D02*
X115402000Y-89172500D01*
X115402000Y-89172500D02*
X115389000Y-89149500D01*
X115389000Y-89149500D02*
X115378000Y-89125500D01*
X115378000Y-89125500D02*
X115368000Y-89101500D01*
X115368000Y-89101500D02*
X115359000Y-89077500D01*
X115359000Y-89077500D02*
X115352000Y-89051500D01*
X115352000Y-89051500D02*
X115346000Y-89026500D01*
X115346000Y-89026500D02*
X115341000Y-89000500D01*
X115341000Y-89000500D02*
X115338000Y-88974500D01*
X115338000Y-88974500D02*
X115336000Y-88948500D01*
X115336000Y-88948500D02*
X115335000Y-88922500D01*
X115335000Y-88922500D02*
X115335000Y-88122500D01*
X115335000Y-88122500D02*
X115336000Y-88096500D01*
X115336000Y-88096500D02*
X115338000Y-88070500D01*
X115338000Y-88070500D02*
X115341000Y-88044500D01*
X115341000Y-88044500D02*
X115346000Y-88018500D01*
X115346000Y-88018500D02*
X115352000Y-87993500D01*
X115352000Y-87993500D02*
X115359000Y-87967500D01*
X115359000Y-87967500D02*
X115368000Y-87943500D01*
X115368000Y-87943500D02*
X115378000Y-87919500D01*
X115378000Y-87919500D02*
X115389000Y-87895500D01*
X115389000Y-87895500D02*
X115402000Y-87872500D01*
X115402000Y-87872500D02*
X115416000Y-87850500D01*
X115416000Y-87850500D02*
X115430000Y-87828500D01*
X115430000Y-87828500D02*
X115446000Y-87807500D01*
X115446000Y-87807500D02*
X115463000Y-87787500D01*
X115463000Y-87787500D02*
X115481000Y-87768500D01*
X115481000Y-87768500D02*
X115500000Y-87750500D01*
X115500000Y-87750500D02*
X115520000Y-87733500D01*
X115520000Y-87733500D02*
X115541000Y-87717500D01*
X115541000Y-87717500D02*
X115563000Y-87703500D01*
X115563000Y-87703500D02*
X115585000Y-87689500D01*
X115585000Y-87689500D02*
X115608000Y-87676500D01*
X115608000Y-87676500D02*
X115632000Y-87665500D01*
X115632000Y-87665500D02*
X115656000Y-87655500D01*
X115656000Y-87655500D02*
X115680000Y-87646500D01*
X115680000Y-87646500D02*
X115706000Y-87639500D01*
X115706000Y-87639500D02*
X115731000Y-87633500D01*
X115731000Y-87633500D02*
X115757000Y-87628500D01*
X115757000Y-87628500D02*
X115783000Y-87625500D01*
X115783000Y-87625500D02*
X115809000Y-87623500D01*
X115809000Y-87623500D02*
X115835000Y-87622500D01*
X115835000Y-87622500D02*
X115835000Y-87622500D01*
G36*
X115861000Y-87623500D02*
G01*
X115887000Y-87625500D01*
X115913000Y-87628500D01*
X115939000Y-87633500D01*
X115964000Y-87639500D01*
X115990000Y-87646500D01*
X116014000Y-87655500D01*
X116038000Y-87665500D01*
X116062000Y-87676500D01*
X116085000Y-87689500D01*
X116129000Y-87717500D01*
X116150000Y-87733500D01*
X116170000Y-87750500D01*
X116189000Y-87768500D01*
X116207000Y-87787500D01*
X116224000Y-87807500D01*
X116240000Y-87828500D01*
X116268000Y-87872500D01*
X116281000Y-87895500D01*
X116292000Y-87919500D01*
X116302000Y-87943500D01*
X116311000Y-87967500D01*
X116318000Y-87993500D01*
X116324000Y-88018500D01*
X116329000Y-88044500D01*
X116332000Y-88070500D01*
X116334000Y-88096500D01*
X116335000Y-88122500D01*
X116335000Y-88922500D01*
X116334000Y-88948500D01*
X116332000Y-88974500D01*
X116329000Y-89000500D01*
X116324000Y-89026500D01*
X116318000Y-89051500D01*
X116311000Y-89077500D01*
X116302000Y-89101500D01*
X116292000Y-89125500D01*
X116281000Y-89149500D01*
X116268000Y-89172500D01*
X116240000Y-89216500D01*
X116224000Y-89237500D01*
X116207000Y-89257500D01*
X116189000Y-89276500D01*
X116170000Y-89294500D01*
X116150000Y-89311500D01*
X116129000Y-89327500D01*
X116085000Y-89355500D01*
X116062000Y-89368500D01*
X116038000Y-89379500D01*
X116014000Y-89389500D01*
X115990000Y-89398500D01*
X115964000Y-89405500D01*
X115939000Y-89411500D01*
X115913000Y-89416500D01*
X115887000Y-89419500D01*
X115861000Y-89421500D01*
X115835000Y-89422500D01*
X115809000Y-89421500D01*
X115783000Y-89419500D01*
X115757000Y-89416500D01*
X115731000Y-89411500D01*
X115706000Y-89405500D01*
X115680000Y-89398500D01*
X115656000Y-89389500D01*
X115632000Y-89379500D01*
X115608000Y-89368500D01*
X115585000Y-89355500D01*
X115541000Y-89327500D01*
X115520000Y-89311500D01*
X115500000Y-89294500D01*
X115481000Y-89276500D01*
X115463000Y-89257500D01*
X115446000Y-89237500D01*
X115430000Y-89216500D01*
X115402000Y-89172500D01*
X115389000Y-89149500D01*
X115378000Y-89125500D01*
X115368000Y-89101500D01*
X115359000Y-89077500D01*
X115352000Y-89051500D01*
X115346000Y-89026500D01*
X115341000Y-89000500D01*
X115338000Y-88974500D01*
X115336000Y-88948500D01*
X115335000Y-88922500D01*
X115335000Y-88122500D01*
X115336000Y-88096500D01*
X115338000Y-88070500D01*
X115341000Y-88044500D01*
X115346000Y-88018500D01*
X115352000Y-87993500D01*
X115359000Y-87967500D01*
X115368000Y-87943500D01*
X115378000Y-87919500D01*
X115389000Y-87895500D01*
X115402000Y-87872500D01*
X115430000Y-87828500D01*
X115446000Y-87807500D01*
X115463000Y-87787500D01*
X115481000Y-87768500D01*
X115500000Y-87750500D01*
X115520000Y-87733500D01*
X115541000Y-87717500D01*
X115585000Y-87689500D01*
X115608000Y-87676500D01*
X115632000Y-87665500D01*
X115656000Y-87655500D01*
X115680000Y-87646500D01*
X115706000Y-87639500D01*
X115731000Y-87633500D01*
X115757000Y-87628500D01*
X115783000Y-87625500D01*
X115809000Y-87623500D01*
X115835000Y-87622500D01*
X115861000Y-87623500D01*
G37*
X115861000Y-87623500D02*
X115887000Y-87625500D01*
X115913000Y-87628500D01*
X115939000Y-87633500D01*
X115964000Y-87639500D01*
X115990000Y-87646500D01*
X116014000Y-87655500D01*
X116038000Y-87665500D01*
X116062000Y-87676500D01*
X116085000Y-87689500D01*
X116129000Y-87717500D01*
X116150000Y-87733500D01*
X116170000Y-87750500D01*
X116189000Y-87768500D01*
X116207000Y-87787500D01*
X116224000Y-87807500D01*
X116240000Y-87828500D01*
X116268000Y-87872500D01*
X116281000Y-87895500D01*
X116292000Y-87919500D01*
X116302000Y-87943500D01*
X116311000Y-87967500D01*
X116318000Y-87993500D01*
X116324000Y-88018500D01*
X116329000Y-88044500D01*
X116332000Y-88070500D01*
X116334000Y-88096500D01*
X116335000Y-88122500D01*
X116335000Y-88922500D01*
X116334000Y-88948500D01*
X116332000Y-88974500D01*
X116329000Y-89000500D01*
X116324000Y-89026500D01*
X116318000Y-89051500D01*
X116311000Y-89077500D01*
X116302000Y-89101500D01*
X116292000Y-89125500D01*
X116281000Y-89149500D01*
X116268000Y-89172500D01*
X116240000Y-89216500D01*
X116224000Y-89237500D01*
X116207000Y-89257500D01*
X116189000Y-89276500D01*
X116170000Y-89294500D01*
X116150000Y-89311500D01*
X116129000Y-89327500D01*
X116085000Y-89355500D01*
X116062000Y-89368500D01*
X116038000Y-89379500D01*
X116014000Y-89389500D01*
X115990000Y-89398500D01*
X115964000Y-89405500D01*
X115939000Y-89411500D01*
X115913000Y-89416500D01*
X115887000Y-89419500D01*
X115861000Y-89421500D01*
X115835000Y-89422500D01*
X115809000Y-89421500D01*
X115783000Y-89419500D01*
X115757000Y-89416500D01*
X115731000Y-89411500D01*
X115706000Y-89405500D01*
X115680000Y-89398500D01*
X115656000Y-89389500D01*
X115632000Y-89379500D01*
X115608000Y-89368500D01*
X115585000Y-89355500D01*
X115541000Y-89327500D01*
X115520000Y-89311500D01*
X115500000Y-89294500D01*
X115481000Y-89276500D01*
X115463000Y-89257500D01*
X115446000Y-89237500D01*
X115430000Y-89216500D01*
X115402000Y-89172500D01*
X115389000Y-89149500D01*
X115378000Y-89125500D01*
X115368000Y-89101500D01*
X115359000Y-89077500D01*
X115352000Y-89051500D01*
X115346000Y-89026500D01*
X115341000Y-89000500D01*
X115338000Y-88974500D01*
X115336000Y-88948500D01*
X115335000Y-88922500D01*
X115335000Y-88122500D01*
X115336000Y-88096500D01*
X115338000Y-88070500D01*
X115341000Y-88044500D01*
X115346000Y-88018500D01*
X115352000Y-87993500D01*
X115359000Y-87967500D01*
X115368000Y-87943500D01*
X115378000Y-87919500D01*
X115389000Y-87895500D01*
X115402000Y-87872500D01*
X115430000Y-87828500D01*
X115446000Y-87807500D01*
X115463000Y-87787500D01*
X115481000Y-87768500D01*
X115500000Y-87750500D01*
X115520000Y-87733500D01*
X115541000Y-87717500D01*
X115585000Y-87689500D01*
X115608000Y-87676500D01*
X115632000Y-87665500D01*
X115656000Y-87655500D01*
X115680000Y-87646500D01*
X115706000Y-87639500D01*
X115731000Y-87633500D01*
X115757000Y-87628500D01*
X115783000Y-87625500D01*
X115809000Y-87623500D01*
X115835000Y-87622500D01*
X115861000Y-87623500D01*
X115835000Y-83422500D02*
X115861000Y-83423500D01*
X115861000Y-83423500D02*
X115887000Y-83425500D01*
X115887000Y-83425500D02*
X115913000Y-83428500D01*
X115913000Y-83428500D02*
X115939000Y-83433500D01*
X115939000Y-83433500D02*
X115964000Y-83439500D01*
X115964000Y-83439500D02*
X115990000Y-83446500D01*
X115990000Y-83446500D02*
X116014000Y-83455500D01*
X116014000Y-83455500D02*
X116038000Y-83465500D01*
X116038000Y-83465500D02*
X116062000Y-83476500D01*
X116062000Y-83476500D02*
X116085000Y-83489500D01*
X116085000Y-83489500D02*
X116107000Y-83503500D01*
X116107000Y-83503500D02*
X116129000Y-83517500D01*
X116129000Y-83517500D02*
X116150000Y-83533500D01*
X116150000Y-83533500D02*
X116170000Y-83550500D01*
X116170000Y-83550500D02*
X116189000Y-83568500D01*
X116189000Y-83568500D02*
X116207000Y-83587500D01*
X116207000Y-83587500D02*
X116224000Y-83607500D01*
X116224000Y-83607500D02*
X116240000Y-83628500D01*
X116240000Y-83628500D02*
X116254000Y-83650500D01*
X116254000Y-83650500D02*
X116268000Y-83672500D01*
X116268000Y-83672500D02*
X116281000Y-83695500D01*
X116281000Y-83695500D02*
X116292000Y-83719500D01*
X116292000Y-83719500D02*
X116302000Y-83743500D01*
X116302000Y-83743500D02*
X116311000Y-83767500D01*
X116311000Y-83767500D02*
X116318000Y-83793500D01*
X116318000Y-83793500D02*
X116324000Y-83818500D01*
X116324000Y-83818500D02*
X116329000Y-83844500D01*
X116329000Y-83844500D02*
X116332000Y-83870500D01*
X116332000Y-83870500D02*
X116334000Y-83896500D01*
X116334000Y-83896500D02*
X116335000Y-83922500D01*
X116335000Y-83922500D02*
X116335000Y-85122500D01*
X116335000Y-85122500D02*
X116334000Y-85148500D01*
X116334000Y-85148500D02*
X116332000Y-85174500D01*
X116332000Y-85174500D02*
X116329000Y-85200500D01*
X116329000Y-85200500D02*
X116324000Y-85226500D01*
X116324000Y-85226500D02*
X116318000Y-85251500D01*
X116318000Y-85251500D02*
X116311000Y-85277500D01*
X116311000Y-85277500D02*
X116302000Y-85301500D01*
X116302000Y-85301500D02*
X116292000Y-85325500D01*
X116292000Y-85325500D02*
X116281000Y-85349500D01*
X116281000Y-85349500D02*
X116268000Y-85372500D01*
X116268000Y-85372500D02*
X116254000Y-85394500D01*
X116254000Y-85394500D02*
X116240000Y-85416500D01*
X116240000Y-85416500D02*
X116224000Y-85437500D01*
X116224000Y-85437500D02*
X116207000Y-85457500D01*
X116207000Y-85457500D02*
X116189000Y-85476500D01*
X116189000Y-85476500D02*
X116170000Y-85494500D01*
X116170000Y-85494500D02*
X116150000Y-85511500D01*
X116150000Y-85511500D02*
X116129000Y-85527500D01*
X116129000Y-85527500D02*
X116107000Y-85541500D01*
X116107000Y-85541500D02*
X116085000Y-85555500D01*
X116085000Y-85555500D02*
X116062000Y-85568500D01*
X116062000Y-85568500D02*
X116038000Y-85579500D01*
X116038000Y-85579500D02*
X116014000Y-85589500D01*
X116014000Y-85589500D02*
X115990000Y-85598500D01*
X115990000Y-85598500D02*
X115964000Y-85605500D01*
X115964000Y-85605500D02*
X115939000Y-85611500D01*
X115939000Y-85611500D02*
X115913000Y-85616500D01*
X115913000Y-85616500D02*
X115887000Y-85619500D01*
X115887000Y-85619500D02*
X115861000Y-85621500D01*
X115861000Y-85621500D02*
X115835000Y-85622500D01*
X115835000Y-85622500D02*
X115809000Y-85621500D01*
X115809000Y-85621500D02*
X115783000Y-85619500D01*
X115783000Y-85619500D02*
X115757000Y-85616500D01*
X115757000Y-85616500D02*
X115731000Y-85611500D01*
X115731000Y-85611500D02*
X115706000Y-85605500D01*
X115706000Y-85605500D02*
X115680000Y-85598500D01*
X115680000Y-85598500D02*
X115656000Y-85589500D01*
X115656000Y-85589500D02*
X115632000Y-85579500D01*
X115632000Y-85579500D02*
X115608000Y-85568500D01*
X115608000Y-85568500D02*
X115585000Y-85555500D01*
X115585000Y-85555500D02*
X115563000Y-85541500D01*
X115563000Y-85541500D02*
X115541000Y-85527500D01*
X115541000Y-85527500D02*
X115520000Y-85511500D01*
X115520000Y-85511500D02*
X115500000Y-85494500D01*
X115500000Y-85494500D02*
X115481000Y-85476500D01*
X115481000Y-85476500D02*
X115463000Y-85457500D01*
X115463000Y-85457500D02*
X115446000Y-85437500D01*
X115446000Y-85437500D02*
X115430000Y-85416500D01*
X115430000Y-85416500D02*
X115416000Y-85394500D01*
X115416000Y-85394500D02*
X115402000Y-85372500D01*
X115402000Y-85372500D02*
X115389000Y-85349500D01*
X115389000Y-85349500D02*
X115378000Y-85325500D01*
X115378000Y-85325500D02*
X115368000Y-85301500D01*
X115368000Y-85301500D02*
X115359000Y-85277500D01*
X115359000Y-85277500D02*
X115352000Y-85251500D01*
X115352000Y-85251500D02*
X115346000Y-85226500D01*
X115346000Y-85226500D02*
X115341000Y-85200500D01*
X115341000Y-85200500D02*
X115338000Y-85174500D01*
X115338000Y-85174500D02*
X115336000Y-85148500D01*
X115336000Y-85148500D02*
X115335000Y-85122500D01*
X115335000Y-85122500D02*
X115335000Y-83922500D01*
X115335000Y-83922500D02*
X115336000Y-83896500D01*
X115336000Y-83896500D02*
X115338000Y-83870500D01*
X115338000Y-83870500D02*
X115341000Y-83844500D01*
X115341000Y-83844500D02*
X115346000Y-83818500D01*
X115346000Y-83818500D02*
X115352000Y-83793500D01*
X115352000Y-83793500D02*
X115359000Y-83767500D01*
X115359000Y-83767500D02*
X115368000Y-83743500D01*
X115368000Y-83743500D02*
X115378000Y-83719500D01*
X115378000Y-83719500D02*
X115389000Y-83695500D01*
X115389000Y-83695500D02*
X115402000Y-83672500D01*
X115402000Y-83672500D02*
X115416000Y-83650500D01*
X115416000Y-83650500D02*
X115430000Y-83628500D01*
X115430000Y-83628500D02*
X115446000Y-83607500D01*
X115446000Y-83607500D02*
X115463000Y-83587500D01*
X115463000Y-83587500D02*
X115481000Y-83568500D01*
X115481000Y-83568500D02*
X115500000Y-83550500D01*
X115500000Y-83550500D02*
X115520000Y-83533500D01*
X115520000Y-83533500D02*
X115541000Y-83517500D01*
X115541000Y-83517500D02*
X115563000Y-83503500D01*
X115563000Y-83503500D02*
X115585000Y-83489500D01*
X115585000Y-83489500D02*
X115608000Y-83476500D01*
X115608000Y-83476500D02*
X115632000Y-83465500D01*
X115632000Y-83465500D02*
X115656000Y-83455500D01*
X115656000Y-83455500D02*
X115680000Y-83446500D01*
X115680000Y-83446500D02*
X115706000Y-83439500D01*
X115706000Y-83439500D02*
X115731000Y-83433500D01*
X115731000Y-83433500D02*
X115757000Y-83428500D01*
X115757000Y-83428500D02*
X115783000Y-83425500D01*
X115783000Y-83425500D02*
X115809000Y-83423500D01*
X115809000Y-83423500D02*
X115835000Y-83422500D01*
X115835000Y-83422500D02*
X115835000Y-83422500D01*
G36*
X115861000Y-83423500D02*
G01*
X115887000Y-83425500D01*
X115913000Y-83428500D01*
X115939000Y-83433500D01*
X115964000Y-83439500D01*
X115990000Y-83446500D01*
X116014000Y-83455500D01*
X116038000Y-83465500D01*
X116062000Y-83476500D01*
X116085000Y-83489500D01*
X116129000Y-83517500D01*
X116150000Y-83533500D01*
X116170000Y-83550500D01*
X116189000Y-83568500D01*
X116207000Y-83587500D01*
X116224000Y-83607500D01*
X116240000Y-83628500D01*
X116268000Y-83672500D01*
X116281000Y-83695500D01*
X116292000Y-83719500D01*
X116302000Y-83743500D01*
X116311000Y-83767500D01*
X116318000Y-83793500D01*
X116324000Y-83818500D01*
X116329000Y-83844500D01*
X116332000Y-83870500D01*
X116334000Y-83896500D01*
X116335000Y-83922500D01*
X116335000Y-85122500D01*
X116334000Y-85148500D01*
X116332000Y-85174500D01*
X116329000Y-85200500D01*
X116324000Y-85226500D01*
X116318000Y-85251500D01*
X116311000Y-85277500D01*
X116302000Y-85301500D01*
X116292000Y-85325500D01*
X116281000Y-85349500D01*
X116268000Y-85372500D01*
X116240000Y-85416500D01*
X116224000Y-85437500D01*
X116207000Y-85457500D01*
X116189000Y-85476500D01*
X116170000Y-85494500D01*
X116150000Y-85511500D01*
X116129000Y-85527500D01*
X116085000Y-85555500D01*
X116062000Y-85568500D01*
X116038000Y-85579500D01*
X116014000Y-85589500D01*
X115990000Y-85598500D01*
X115964000Y-85605500D01*
X115939000Y-85611500D01*
X115913000Y-85616500D01*
X115887000Y-85619500D01*
X115861000Y-85621500D01*
X115835000Y-85622500D01*
X115809000Y-85621500D01*
X115783000Y-85619500D01*
X115757000Y-85616500D01*
X115731000Y-85611500D01*
X115706000Y-85605500D01*
X115680000Y-85598500D01*
X115656000Y-85589500D01*
X115632000Y-85579500D01*
X115608000Y-85568500D01*
X115585000Y-85555500D01*
X115541000Y-85527500D01*
X115520000Y-85511500D01*
X115500000Y-85494500D01*
X115481000Y-85476500D01*
X115463000Y-85457500D01*
X115446000Y-85437500D01*
X115430000Y-85416500D01*
X115402000Y-85372500D01*
X115389000Y-85349500D01*
X115378000Y-85325500D01*
X115368000Y-85301500D01*
X115359000Y-85277500D01*
X115352000Y-85251500D01*
X115346000Y-85226500D01*
X115341000Y-85200500D01*
X115338000Y-85174500D01*
X115336000Y-85148500D01*
X115335000Y-85122500D01*
X115335000Y-83922500D01*
X115336000Y-83896500D01*
X115338000Y-83870500D01*
X115341000Y-83844500D01*
X115346000Y-83818500D01*
X115352000Y-83793500D01*
X115359000Y-83767500D01*
X115368000Y-83743500D01*
X115378000Y-83719500D01*
X115389000Y-83695500D01*
X115402000Y-83672500D01*
X115430000Y-83628500D01*
X115446000Y-83607500D01*
X115463000Y-83587500D01*
X115481000Y-83568500D01*
X115500000Y-83550500D01*
X115520000Y-83533500D01*
X115541000Y-83517500D01*
X115585000Y-83489500D01*
X115608000Y-83476500D01*
X115632000Y-83465500D01*
X115656000Y-83455500D01*
X115680000Y-83446500D01*
X115706000Y-83439500D01*
X115731000Y-83433500D01*
X115757000Y-83428500D01*
X115783000Y-83425500D01*
X115809000Y-83423500D01*
X115835000Y-83422500D01*
X115861000Y-83423500D01*
G37*
X115861000Y-83423500D02*
X115887000Y-83425500D01*
X115913000Y-83428500D01*
X115939000Y-83433500D01*
X115964000Y-83439500D01*
X115990000Y-83446500D01*
X116014000Y-83455500D01*
X116038000Y-83465500D01*
X116062000Y-83476500D01*
X116085000Y-83489500D01*
X116129000Y-83517500D01*
X116150000Y-83533500D01*
X116170000Y-83550500D01*
X116189000Y-83568500D01*
X116207000Y-83587500D01*
X116224000Y-83607500D01*
X116240000Y-83628500D01*
X116268000Y-83672500D01*
X116281000Y-83695500D01*
X116292000Y-83719500D01*
X116302000Y-83743500D01*
X116311000Y-83767500D01*
X116318000Y-83793500D01*
X116324000Y-83818500D01*
X116329000Y-83844500D01*
X116332000Y-83870500D01*
X116334000Y-83896500D01*
X116335000Y-83922500D01*
X116335000Y-85122500D01*
X116334000Y-85148500D01*
X116332000Y-85174500D01*
X116329000Y-85200500D01*
X116324000Y-85226500D01*
X116318000Y-85251500D01*
X116311000Y-85277500D01*
X116302000Y-85301500D01*
X116292000Y-85325500D01*
X116281000Y-85349500D01*
X116268000Y-85372500D01*
X116240000Y-85416500D01*
X116224000Y-85437500D01*
X116207000Y-85457500D01*
X116189000Y-85476500D01*
X116170000Y-85494500D01*
X116150000Y-85511500D01*
X116129000Y-85527500D01*
X116085000Y-85555500D01*
X116062000Y-85568500D01*
X116038000Y-85579500D01*
X116014000Y-85589500D01*
X115990000Y-85598500D01*
X115964000Y-85605500D01*
X115939000Y-85611500D01*
X115913000Y-85616500D01*
X115887000Y-85619500D01*
X115861000Y-85621500D01*
X115835000Y-85622500D01*
X115809000Y-85621500D01*
X115783000Y-85619500D01*
X115757000Y-85616500D01*
X115731000Y-85611500D01*
X115706000Y-85605500D01*
X115680000Y-85598500D01*
X115656000Y-85589500D01*
X115632000Y-85579500D01*
X115608000Y-85568500D01*
X115585000Y-85555500D01*
X115541000Y-85527500D01*
X115520000Y-85511500D01*
X115500000Y-85494500D01*
X115481000Y-85476500D01*
X115463000Y-85457500D01*
X115446000Y-85437500D01*
X115430000Y-85416500D01*
X115402000Y-85372500D01*
X115389000Y-85349500D01*
X115378000Y-85325500D01*
X115368000Y-85301500D01*
X115359000Y-85277500D01*
X115352000Y-85251500D01*
X115346000Y-85226500D01*
X115341000Y-85200500D01*
X115338000Y-85174500D01*
X115336000Y-85148500D01*
X115335000Y-85122500D01*
X115335000Y-83922500D01*
X115336000Y-83896500D01*
X115338000Y-83870500D01*
X115341000Y-83844500D01*
X115346000Y-83818500D01*
X115352000Y-83793500D01*
X115359000Y-83767500D01*
X115368000Y-83743500D01*
X115378000Y-83719500D01*
X115389000Y-83695500D01*
X115402000Y-83672500D01*
X115430000Y-83628500D01*
X115446000Y-83607500D01*
X115463000Y-83587500D01*
X115481000Y-83568500D01*
X115500000Y-83550500D01*
X115520000Y-83533500D01*
X115541000Y-83517500D01*
X115585000Y-83489500D01*
X115608000Y-83476500D01*
X115632000Y-83465500D01*
X115656000Y-83455500D01*
X115680000Y-83446500D01*
X115706000Y-83439500D01*
X115731000Y-83433500D01*
X115757000Y-83428500D01*
X115783000Y-83425500D01*
X115809000Y-83423500D01*
X115835000Y-83422500D01*
X115861000Y-83423500D01*
%TD*%
D11*
%TO.P,U2,1,VBUS1*%
%TO.N,+5V*%
X129450000Y-84555000D03*
%TO.P,U2,2,GND1*%
%TO.N,GND1*%
X129450000Y-85825000D03*
%TO.P,U2,3,VDD1*%
%TO.N,Net-(C11-Pad1)*%
X129450000Y-87095000D03*
%TO.P,U2,4,PDEN*%
X129450000Y-88365000D03*
%TO.P,U2,5,SPU*%
X129450000Y-89635000D03*
%TO.P,U2,6,UD-*%
%TO.N,Net-(JP2-Pad1)*%
X129450000Y-90905000D03*
%TO.P,U2,7,UD+*%
%TO.N,Net-(JP1-Pad1)*%
X129450000Y-92175000D03*
%TO.P,U2,8,GND1*%
%TO.N,GND1*%
X129450000Y-93445000D03*
%TO.P,U2,9,GND2*%
%TO.N,GND*%
X138750000Y-93445000D03*
%TO.P,U2,10,DD+*%
%TO.N,/USB_DP*%
X138750000Y-92175000D03*
%TO.P,U2,11,DD-*%
%TO.N,/USB_DM*%
X138750000Y-90905000D03*
%TO.P,U2,12,PIN*%
%TO.N,+3V3*%
X138750000Y-89635000D03*
%TO.P,U2,13,SPD*%
X138750000Y-88365000D03*
%TO.P,U2,14,VDD2*%
X138750000Y-87095000D03*
%TO.P,U2,15,GND2*%
%TO.N,GND*%
X138750000Y-85825000D03*
%TO.P,U2,16,VBUS2*%
%TO.N,+3V3*%
X138750000Y-84555000D03*
%TD*%
D12*
%TO.P,C2,1*%
%TO.N,VBUS*%
X118662500Y-101600000D03*
%TO.P,C2,2*%
%TO.N,GND*%
X121612500Y-101600000D03*
%TD*%
D13*
%TO.P,R19,1*%
%TO.N,/SenseFault*%
X126125000Y-116190000D03*
%TO.P,R19,2*%
%TO.N,+3V3*%
X127775000Y-116190000D03*
%TD*%
D14*
%TO.P,R18,1*%
%TO.N,Net-(R18-Pad1)*%
X148100000Y-102025000D03*
%TO.P,R18,2*%
%TO.N,GND*%
X148100000Y-103675000D03*
%TD*%
D15*
%TO.P,C9,1*%
%TO.N,+3V3*%
X126175000Y-111550000D03*
%TO.P,C9,2*%
%TO.N,GND*%
X127725000Y-111550000D03*
%TD*%
D16*
%TO.P,J1,A1_B12,GND_A*%
%TO.N,GND*%
X113546447Y-102991447D03*
%TO.P,J1,A4_B9,VBUS_A*%
%TO.N,VBUS*%
X113546447Y-103791447D03*
D17*
%TO.P,J1,A5,CC1*%
%TO.N,/CC1*%
X113546447Y-104941447D03*
%TO.P,J1,A6,DP1*%
%TO.N,unconnected-(J1-PadA6)*%
X113546447Y-105941447D03*
%TO.P,J1,A7,DN1*%
%TO.N,unconnected-(J1-PadA7)*%
X113546447Y-106441447D03*
%TO.P,J1,A8,SBU1*%
%TO.N,unconnected-(J1-PadA8)*%
X113546447Y-107441447D03*
D16*
%TO.P,J1,B1_A12,GND_B*%
%TO.N,GND*%
X113546447Y-109391447D03*
%TO.P,J1,B4_A9,VBUS_B*%
%TO.N,VBUS*%
X113546447Y-108591447D03*
D17*
%TO.P,J1,B5,CC2*%
%TO.N,/CC2*%
X113546447Y-107941447D03*
%TO.P,J1,B6,DP2*%
%TO.N,unconnected-(J1-PadB6)*%
X113546447Y-106941447D03*
%TO.P,J1,B7,DN2*%
%TO.N,unconnected-(J1-PadB7)*%
X113546447Y-105441447D03*
%TO.P,J1,B8,SBU2*%
%TO.N,unconnected-(J1-PadB8)*%
X113546447Y-104441447D03*
D18*
%TO.P,J1,S1,SHELL_GND*%
%TO.N,GND*%
X108396447Y-100571447D03*
D19*
%TO.P,J1,S2,SHELL_GND*%
X112396447Y-111811447D03*
%TO.P,J1,S3,SHELL_GND*%
X112396447Y-100571447D03*
D18*
%TO.P,J1,S4,SHELL_GND*%
X108396447Y-111811447D03*
%TD*%
D20*
%TO.P,C15,1*%
%TO.N,+3V3*%
X143451992Y-95098008D03*
%TO.P,C15,2*%
%TO.N,GND*%
X144548008Y-94001992D03*
%TD*%
D21*
%TO.P,JP2,1,A*%
%TO.N,Net-(JP2-Pad1)*%
X124050000Y-94200000D03*
D22*
%TO.P,JP2,2,B*%
%TO.N,/USB_DM*%
X125500000Y-94200000D03*
%TD*%
D23*
%TO.P,J3,1,Pin_1*%
%TO.N,/VBus_Out*%
X139685000Y-114480000D03*
D24*
%TO.P,J3,2,Pin_2*%
%TO.N,GND*%
X139685000Y-109480000D03*
%TD*%
D25*
%TO.P,INT_N1,1,1*%
%TO.N,/INT_N*%
X131900000Y-111700000D03*
%TD*%
D26*
%TO.P,C14,1*%
%TO.N,+3V3*%
X140900000Y-84625000D03*
%TO.P,C14,2*%
%TO.N,GND*%
X140900000Y-86175000D03*
%TD*%
D25*
%TO.P,GPIO2,1,1*%
%TO.N,Net-(GPIO2-Pad1)*%
X130100000Y-111700000D03*
%TD*%
D27*
%TO.P,R9,1*%
%TO.N,Net-(IC1-PadF7)*%
X134700000Y-100075000D03*
%TO.P,R9,2*%
%TO.N,GND*%
X134700000Y-98425000D03*
%TD*%
D28*
%TO.P,DBG_N1,1,1*%
%TO.N,/DBG_N*%
X140780000Y-104780000D03*
%TD*%
D29*
%TO.P,C17,1*%
%TO.N,+3V3*%
X151500000Y-97100000D03*
%TO.P,C17,2*%
%TO.N,GND*%
X151500000Y-95550000D03*
%TD*%
D30*
%TO.P,FB3,1*%
%TO.N,/+3.3V_Pre*%
X138250000Y-99037500D03*
%TO.P,FB3,2*%
%TO.N,+3V3*%
X138250000Y-101162500D03*
%TD*%
D31*
%TO.P,R13,1*%
%TO.N,Net-(D6-Pad1)*%
X117125000Y-94900000D03*
%TO.P,R13,2*%
%TO.N,GND1*%
X115475000Y-94900000D03*
%TD*%
D25*
%TO.P,+3.3V1,1,1*%
%TO.N,+3V3*%
X140100000Y-102200000D03*
%TD*%
D31*
%TO.P,R3,1*%
%TO.N,Net-(IC1-PadE7)*%
X126275000Y-96400000D03*
%TO.P,R3,2*%
%TO.N,GND*%
X124625000Y-96400000D03*
%TD*%
D32*
%TO.P,SCL1,1,1*%
%TO.N,/SCL*%
X140800000Y-97060000D03*
%TD*%
D13*
%TO.P,R7,1*%
%TO.N,Net-(D3-Pad1)*%
X112275000Y-93400000D03*
%TO.P,R7,2*%
%TO.N,GND1*%
X113925000Y-93400000D03*
%TD*%
D26*
%TO.P,C11,1*%
%TO.N,Net-(C11-Pad1)*%
X127300000Y-93225000D03*
%TO.P,C11,2*%
%TO.N,GND1*%
X127300000Y-94775000D03*
%TD*%
D27*
%TO.P,R6,1*%
%TO.N,/INT_N*%
X131900000Y-109725000D03*
%TO.P,R6,2*%
%TO.N,+3V3*%
X131900000Y-108075000D03*
%TD*%
D33*
%TO.P,D3,1,K*%
%TO.N,Net-(D3-Pad1)*%
X112312500Y-91800000D03*
%TO.P,D3,2,A*%
%TO.N,+5V*%
X113887500Y-91800000D03*
%TD*%
D25*
%TO.P,FLAGB1,1,1*%
%TO.N,/FLAGB*%
X132770000Y-96020000D03*
%TD*%
D34*
%TO.P,C12,1*%
%TO.N,VBUS*%
X120625000Y-112800000D03*
%TO.P,C12,2*%
%TO.N,GND*%
X119075000Y-112800000D03*
%TD*%
D35*
%TO.P,FB1,1*%
%TO.N,VBUS*%
X118525000Y-99450000D03*
%TO.P,FB1,2*%
%TO.N,/VBUS_Rdy*%
X120650000Y-99450000D03*
%TD*%
D32*
%TO.P,SDA1,1,1*%
%TO.N,/SDA*%
X140800000Y-98760000D03*
%TD*%
D36*
%TO.P,U1,1,CC1*%
%TO.N,/CC1*%
X124225000Y-107840000D03*
%TO.P,U1,2,VCONN*%
%TO.N,unconnected-(U1-Pad2)*%
X124225000Y-108340000D03*
%TO.P,U1,3,CC2*%
%TO.N,/CC2*%
X124225000Y-108840000D03*
%TO.P,U1,4,ORIENT/I2C_ADDR*%
%TO.N,GND*%
X124225000Y-109340000D03*
D37*
%TO.P,U1,5,LDO*%
%TO.N,unconnected-(U1-Pad5)*%
X124950000Y-110065000D03*
%TO.P,U1,6,VBUS*%
%TO.N,VBUS*%
X125450000Y-110065000D03*
%TO.P,U1,7,VDD*%
%TO.N,+3V3*%
X125950000Y-110065000D03*
%TO.P,U1,8,DBG_N*%
%TO.N,/DBG_N*%
X126450000Y-110065000D03*
D36*
%TO.P,U1,9,GPIO2*%
%TO.N,Net-(GPIO2-Pad1)*%
X127175000Y-109340000D03*
%TO.P,U1,10,INT_N*%
%TO.N,/INT_N*%
X127175000Y-108840000D03*
%TO.P,U1,11,SCL1/SDA2*%
%TO.N,/SCL*%
X127175000Y-108340000D03*
%TO.P,U1,12,SDA1/SCL2*%
%TO.N,/SDA*%
X127175000Y-107840000D03*
D37*
%TO.P,U1,13,SRC*%
%TO.N,unconnected-(U1-Pad13)*%
X126450000Y-107115000D03*
%TO.P,U1,14,SNK*%
%TO.N,unconnected-(U1-Pad14)*%
X125950000Y-107115000D03*
%TO.P,U1,15,GND*%
%TO.N,GND*%
X125450000Y-107115000D03*
%TO.P,U1,16,GPIO1*%
%TO.N,Net-(GPIO1-Pad1)*%
X124950000Y-107115000D03*
D38*
%TO.P,U1,17,GND*%
%TO.N,GND*%
X125700000Y-108590000D03*
%TD*%
D39*
%TO.P,C10,1*%
%TO.N,+3V3*%
X138200000Y-102700000D03*
%TO.P,C10,2*%
%TO.N,GND*%
X138200000Y-104600000D03*
%TD*%
D25*
%TO.P,SenseFault1,1,1*%
%TO.N,/SenseFault*%
X136170000Y-96020000D03*
%TD*%
D40*
%TO.P,C16,1*%
%TO.N,+3V3*%
X151048008Y-101951992D03*
%TO.P,C16,2*%
%TO.N,GND*%
X149951992Y-103048008D03*
%TD*%
D32*
%TO.P,CC2,1,1*%
%TO.N,/CC1*%
X122200000Y-106000000D03*
%TD*%
D41*
%TO.P,JP1,1,A*%
%TO.N,Net-(JP1-Pad1)*%
X120525000Y-95400000D03*
D42*
%TO.P,JP1,2,B*%
%TO.N,/USB_DP*%
X119075000Y-95400000D03*
%TD*%
D29*
%TO.P,C18,1*%
%TO.N,+3V3*%
X120530000Y-117395000D03*
%TO.P,C18,2*%
%TO.N,GND*%
X120530000Y-115845000D03*
%TD*%
D43*
%TO.P,IC2,A1,NC*%
%TO.N,unconnected-(IC2-PadA1)*%
X124000000Y-114200000D03*
%TO.P,IC2,A2,ON*%
%TO.N,/VSINK_EN*%
X123600000Y-114200000D03*
%TO.P,IC2,A3,FLAGB*%
%TO.N,/FLAGB*%
X123200000Y-114200000D03*
%TO.P,IC2,A4,POL*%
%TO.N,GND*%
X122800000Y-114200000D03*
%TO.P,IC2,B1,GND_1*%
X124000000Y-113800000D03*
%TO.P,IC2,B2,OC_M_ODE*%
X123600000Y-113800000D03*
%TO.P,IC2,B3,OV1*%
X123200000Y-113800000D03*
%TO.P,IC2,B4,GND_2*%
X122800000Y-113800000D03*
%TO.P,IC2,C1,ISET*%
%TO.N,Net-(IC2-PadC1)*%
X124000000Y-113400000D03*
%TO.P,IC2,C2,VOUT_1*%
%TO.N,/Vbus_pre*%
X123600000Y-113400000D03*
%TO.P,IC2,C3,VIN_1*%
%TO.N,VBUS*%
X123200000Y-113400000D03*
%TO.P,IC2,C4,OV2*%
%TO.N,GND*%
X122800000Y-113400000D03*
%TO.P,IC2,D1,VOUT_2*%
%TO.N,/Vbus_pre*%
X124000000Y-113000000D03*
%TO.P,IC2,D2,VOUT_3*%
X123600000Y-113000000D03*
%TO.P,IC2,D3,VIN_2*%
%TO.N,VBUS*%
X123200000Y-113000000D03*
%TO.P,IC2,D4,VIN_3*%
X122800000Y-113000000D03*
%TO.P,IC2,E1,VOUT_4*%
%TO.N,/Vbus_pre*%
X124000000Y-112600000D03*
%TO.P,IC2,E2,VOUT_5*%
X123600000Y-112600000D03*
%TO.P,IC2,E3,VIN_4*%
%TO.N,VBUS*%
X123200000Y-112600000D03*
%TO.P,IC2,E4,VIN_5*%
X122800000Y-112600000D03*
%TO.P,IC2,F1,VOUT_6*%
%TO.N,/Vbus_pre*%
X124000000Y-112200000D03*
%TO.P,IC2,F2,VOUT_7*%
X123600000Y-112200000D03*
%TO.P,IC2,F3,VIN_6*%
%TO.N,VBUS*%
X123200000Y-112200000D03*
%TO.P,IC2,F4,VIN_7*%
X122800000Y-112200000D03*
%TD*%
D27*
%TO.P,R4,1*%
%TO.N,/SDA*%
X128700000Y-107950000D03*
%TO.P,R4,2*%
%TO.N,+3V3*%
X128700000Y-106300000D03*
%TD*%
D15*
%TO.P,C7,1*%
%TO.N,+3V3*%
X126175000Y-113100000D03*
%TO.P,C7,2*%
%TO.N,GND*%
X127725000Y-113100000D03*
%TD*%
D44*
%TO.P,IC1,A1,GND_1*%
%TO.N,GND*%
X127300000Y-104000000D03*
%TO.P,IC1,A2,GND_2*%
X127300000Y-103200000D03*
%TO.P,IC1,A3,GND_3*%
X127300000Y-102400000D03*
%TO.P,IC1,A4,VIN_1*%
%TO.N,/VBUS_Rdy*%
X127300000Y-101600000D03*
%TO.P,IC1,A5,VIN_2*%
X127300000Y-100800000D03*
%TO.P,IC1,A6,SVIN*%
X127300000Y-100000000D03*
%TO.P,IC1,A7,TST2*%
%TO.N,GND*%
X127300000Y-99200000D03*
%TO.P,IC1,B1,GND_4*%
X128100000Y-104000000D03*
%TO.P,IC1,B2,GND_5*%
X128100000Y-103200000D03*
%TO.P,IC1,B3,GND_6*%
X128100000Y-102400000D03*
%TO.P,IC1,B4,VIN_3*%
%TO.N,/VBUS_Rdy*%
X128100000Y-101600000D03*
%TO.P,IC1,B5,VIN_4*%
X128100000Y-100800000D03*
%TO.P,IC1,B6,EN/UVLO*%
X128100000Y-100000000D03*
%TO.P,IC1,B7,OVLO*%
%TO.N,GND*%
X128100000Y-99200000D03*
%TO.P,IC1,C1,GND_7*%
X128900000Y-104000000D03*
%TO.P,IC1,C2,GND_8*%
X128900000Y-103200000D03*
%TO.P,IC1,C3,GND_9*%
X128900000Y-102400000D03*
%TO.P,IC1,C4,GND_10*%
X128900000Y-101600000D03*
%TO.P,IC1,C5,GND_11*%
X128900000Y-100800000D03*
%TO.P,IC1,C6,INTVCC*%
%TO.N,unconnected-(IC1-PadC6)*%
X128900000Y-100000000D03*
%TO.P,IC1,C7,CTRL*%
%TO.N,unconnected-(IC1-PadC7)*%
X128900000Y-99200000D03*
%TO.P,IC1,D1,GND_12*%
%TO.N,GND*%
X129700000Y-104000000D03*
%TO.P,IC1,D2,GND_13*%
X129700000Y-103200000D03*
%TO.P,IC1,D3,GND_14*%
X129700000Y-102400000D03*
%TO.P,IC1,D4,GND_15*%
X129700000Y-101600000D03*
%TO.P,IC1,D5,GND_16*%
X129700000Y-100800000D03*
%TO.P,IC1,D6,ISMON*%
%TO.N,unconnected-(IC1-PadD6)*%
X129700000Y-100000000D03*
%TO.P,IC1,D7,GND_17*%
%TO.N,GND*%
X129700000Y-99200000D03*
%TO.P,IC1,E1,GND_18*%
X130500000Y-104000000D03*
%TO.P,IC1,E2,GND_19*%
X130500000Y-103200000D03*
%TO.P,IC1,E3,GND_20*%
X130500000Y-102400000D03*
%TO.P,IC1,E4,GND_21*%
X130500000Y-101600000D03*
%TO.P,IC1,E5,GND_22*%
X130500000Y-100800000D03*
%TO.P,IC1,E6,VC*%
%TO.N,unconnected-(IC1-PadE6)*%
X130500000Y-100000000D03*
%TO.P,IC1,E7,RT*%
%TO.N,Net-(IC1-PadE7)*%
X130500000Y-99200000D03*
%TO.P,IC1,F1,GND_23*%
%TO.N,GND*%
X131300000Y-104000000D03*
%TO.P,IC1,F2,GND_24*%
X131300000Y-103200000D03*
%TO.P,IC1,F3,ISN*%
%TO.N,/+3.3V_Pre*%
X131300000Y-102400000D03*
%TO.P,IC1,F4,VOUT_1*%
X131300000Y-101600000D03*
%TO.P,IC1,F5,VOUT_2*%
X131300000Y-100800000D03*
%TO.P,IC1,F6,SS*%
%TO.N,unconnected-(IC1-PadF6)*%
X131300000Y-100000000D03*
%TO.P,IC1,F7,FB*%
%TO.N,Net-(IC1-PadF7)*%
X131300000Y-99200000D03*
%TO.P,IC1,G1,GND_25*%
%TO.N,GND*%
X132100000Y-104000000D03*
%TO.P,IC1,G2,GND_26*%
X132100000Y-103200000D03*
%TO.P,IC1,G3,ISP*%
%TO.N,/+3.3V_Pre*%
X132100000Y-102400000D03*
%TO.P,IC1,G4,VOUT_3*%
X132100000Y-101600000D03*
%TO.P,IC1,G5,VOUT_4*%
X132100000Y-100800000D03*
%TO.P,IC1,G6,SYNC*%
%TO.N,GND*%
X132100000Y-100000000D03*
%TO.P,IC1,G7,TST1*%
%TO.N,unconnected-(IC1-PadG7)*%
X132100000Y-99200000D03*
%TD*%
D45*
%TO.P,H2,1,1*%
%TO.N,GND*%
X110270000Y-86860000D03*
%TD*%
D31*
%TO.P,R10,1*%
%TO.N,Net-(D4-Pad1)*%
X117125000Y-93400000D03*
%TO.P,R10,2*%
%TO.N,GND1*%
X115475000Y-93400000D03*
%TD*%
D32*
%TO.P,GPIO1,1,1*%
%TO.N,Net-(GPIO1-Pad1)*%
X124360000Y-105800000D03*
%TD*%
D31*
%TO.P,R14,1*%
%TO.N,Net-(D5-Pad1)*%
X131345000Y-94770000D03*
%TO.P,R14,2*%
%TO.N,GND*%
X129695000Y-94770000D03*
%TD*%
%TO.P,R16,1*%
%TO.N,Net-(D7-Pad1)*%
X146525000Y-103650000D03*
%TO.P,R16,2*%
%TO.N,GND*%
X144875000Y-103650000D03*
%TD*%
D46*
%TO.P,TC1,1,VCC*%
%TO.N,+3V3*%
X145795000Y-86600000D03*
%TO.P,TC1,2,SWDIO*%
%TO.N,Net-(TC1-Pad2)*%
X147065000Y-86600000D03*
%TO.P,TC1,3,NRESET*%
%TO.N,Net-(R17-Pad2)*%
X145795000Y-87870000D03*
%TO.P,TC1,4,SWCLK*%
%TO.N,Net-(TC1-Pad4)*%
X147065000Y-87870000D03*
%TO.P,TC1,5,GND*%
%TO.N,GND*%
X145795000Y-89140000D03*
%TO.P,TC1,6,SWO*%
%TO.N,unconnected-(TC1-Pad6)*%
X147065000Y-89140000D03*
%TD*%
D25*
%TO.P,+5V1,1,1*%
%TO.N,+5V*%
X113810000Y-89690000D03*
%TD*%
D45*
%TO.P,H1,1,1*%
%TO.N,GND*%
X110070000Y-116540000D03*
%TD*%
D32*
%TO.P,CC1,1,1*%
%TO.N,/CC2*%
X122660000Y-108790000D03*
%TD*%
D27*
%TO.P,R5,1*%
%TO.N,/SCL*%
X130300000Y-108825000D03*
%TO.P,R5,2*%
%TO.N,+3V3*%
X130300000Y-107175000D03*
%TD*%
D47*
%TO.P,J2,A1_B12,GND_A*%
%TO.N,GND1*%
X124655000Y-89672500D03*
%TO.P,J2,A4_B9,VBUS_A*%
%TO.N,+5V*%
X123855000Y-89672500D03*
D48*
%TO.P,J2,A5,CC1*%
%TO.N,Net-(D6-Pad1)*%
X122705000Y-89672500D03*
%TO.P,J2,A6,DP1*%
%TO.N,Net-(J2-PadA6)*%
X121705000Y-89672500D03*
%TO.P,J2,A7,DN1*%
%TO.N,Net-(J2-PadA7)*%
X121205000Y-89672500D03*
%TO.P,J2,A8,SBU1*%
%TO.N,unconnected-(J2-PadA8)*%
X120205000Y-89672500D03*
D47*
%TO.P,J2,B1_A12,GND_B*%
%TO.N,GND1*%
X118255000Y-89672500D03*
%TO.P,J2,B4_A9,VBUS_B*%
%TO.N,+5V*%
X119055000Y-89672500D03*
D48*
%TO.P,J2,B5,CC2*%
%TO.N,Net-(D4-Pad1)*%
X119705000Y-89672500D03*
%TO.P,J2,B6,DP2*%
%TO.N,Net-(J2-PadA6)*%
X120705000Y-89672500D03*
%TO.P,J2,B7,DN2*%
%TO.N,Net-(J2-PadA7)*%
X122205000Y-89672500D03*
%TO.P,J2,B8,SBU2*%
%TO.N,unconnected-(J2-PadB8)*%
X123205000Y-89672500D03*
D49*
%TO.P,J2,S1,SHELL_GND*%
%TO.N,GND1*%
X127075000Y-84522500D03*
D50*
%TO.P,J2,S2,SHELL_GND*%
X115835000Y-88522500D03*
%TO.P,J2,S3,SHELL_GND*%
X127075000Y-88522500D03*
D49*
%TO.P,J2,S4,SHELL_GND*%
X115835000Y-84522500D03*
%TD*%
D51*
%TO.P,D6,1,K*%
%TO.N,Net-(D6-Pad1)*%
X117087500Y-96400000D03*
%TO.P,D6,2,A*%
%TO.N,GND1*%
X115512500Y-96400000D03*
%TD*%
D25*
%TO.P,Isense1,1,1*%
%TO.N,/Isense*%
X137700000Y-96060000D03*
%TD*%
D27*
%TO.P,R8,1*%
%TO.N,/+3.3V_Pre*%
X136500000Y-100075000D03*
%TO.P,R8,2*%
%TO.N,Net-(IC1-PadF7)*%
X136500000Y-98425000D03*
%TD*%
D14*
%TO.P,R17,1*%
%TO.N,+3V3*%
X151500000Y-98500000D03*
%TO.P,R17,2*%
%TO.N,Net-(R17-Pad2)*%
X151500000Y-100150000D03*
%TD*%
D52*
%TO.P,C8,1*%
%TO.N,/+3.3V_Pre*%
X135550000Y-101625000D03*
%TO.P,C8,2*%
%TO.N,GND*%
X135550000Y-104575000D03*
%TD*%
D13*
%TO.P,R15,1*%
%TO.N,Net-(IC2-PadC1)*%
X126125000Y-114650000D03*
%TO.P,R15,2*%
%TO.N,GND*%
X127775000Y-114650000D03*
%TD*%
D53*
%TO.P,U3,1,IP+*%
%TO.N,/Vbus_pre*%
X122760000Y-119010000D03*
%TO.P,U3,3,IP-*%
%TO.N,/VBus_Out*%
X123760000Y-119010000D03*
D54*
%TO.P,U3,5,GND*%
%TO.N,GND*%
X124710000Y-117560000D03*
%TO.P,U3,6,~{FAULT}*%
%TO.N,/SenseFault*%
X124710000Y-117060000D03*
D55*
%TO.P,U3,7,NC*%
%TO.N,unconnected-(U3-Pad10)*%
X124010000Y-116360000D03*
%TO.P,U3,8,NC*%
X123510000Y-116360000D03*
%TO.P,U3,9,NC*%
X123010000Y-116360000D03*
%TO.P,U3,10,NC*%
X122510000Y-116360000D03*
D54*
%TO.P,U3,11,VIOUT*%
%TO.N,/Isense*%
X121810000Y-117060000D03*
%TO.P,U3,12,VCC*%
%TO.N,+3V3*%
X121810000Y-117560000D03*
%TD*%
D56*
%TO.P,U4,1,VDD*%
%TO.N,+3V3*%
X149937500Y-99700000D03*
%TO.P,U4,2,PC14*%
%TO.N,unconnected-(U4-Pad2)*%
X149937500Y-99200000D03*
%TO.P,U4,3,PC15*%
%TO.N,unconnected-(U4-Pad3)*%
X149937500Y-98700000D03*
%TO.P,U4,4,NRST*%
%TO.N,Net-(R17-Pad2)*%
X149937500Y-98200000D03*
%TO.P,U4,5,VDDA*%
%TO.N,+3V3*%
X149937500Y-97700000D03*
%TO.P,U4,6,PA0*%
%TO.N,/Isense*%
X149937500Y-97200000D03*
%TO.P,U4,7,PA1*%
%TO.N,unconnected-(U4-Pad7)*%
X149937500Y-96700000D03*
%TO.P,U4,8,PA2*%
%TO.N,unconnected-(U4-Pad8)*%
X149937500Y-96200000D03*
D57*
%TO.P,U4,9,PA3*%
%TO.N,unconnected-(U4-Pad9)*%
X149250000Y-95512500D03*
%TO.P,U4,10,PA4*%
%TO.N,unconnected-(U4-Pad10)*%
X148750000Y-95512500D03*
%TO.P,U4,11,PA5*%
%TO.N,unconnected-(U4-Pad11)*%
X148250000Y-95512500D03*
%TO.P,U4,12,PA6*%
%TO.N,/DBG_N*%
X147750000Y-95512500D03*
%TO.P,U4,13,PA7*%
%TO.N,/SenseFault*%
X147250000Y-95512500D03*
%TO.P,U4,14,PB0*%
%TO.N,/VSINK_EN*%
X146750000Y-95512500D03*
%TO.P,U4,15,PB1*%
%TO.N,/FLAGB*%
X146250000Y-95512500D03*
%TO.P,U4,16,VSS*%
%TO.N,GND*%
X145750000Y-95512500D03*
D56*
%TO.P,U4,17,VDD*%
%TO.N,+3V3*%
X145062500Y-96200000D03*
%TO.P,U4,18,PA8*%
%TO.N,/INT_N*%
X145062500Y-96700000D03*
%TO.P,U4,19,PA9*%
%TO.N,/SCL*%
X145062500Y-97200000D03*
%TO.P,U4,20,PA10*%
%TO.N,/SDA*%
X145062500Y-97700000D03*
%TO.P,U4,21,PA11*%
%TO.N,/USB_DM*%
X145062500Y-98200000D03*
%TO.P,U4,22,PA12*%
%TO.N,/USB_DP*%
X145062500Y-98700000D03*
%TO.P,U4,23,PA13*%
%TO.N,Net-(TC1-Pad2)*%
X145062500Y-99200000D03*
%TO.P,U4,24,PA14*%
%TO.N,Net-(TC1-Pad4)*%
X145062500Y-99700000D03*
D57*
%TO.P,U4,25,PA15*%
%TO.N,unconnected-(U4-Pad25)*%
X145750000Y-100387500D03*
%TO.P,U4,26,PB3*%
%TO.N,Net-(D7-Pad2)*%
X146250000Y-100387500D03*
%TO.P,U4,27,PB4*%
%TO.N,unconnected-(U4-Pad27)*%
X146750000Y-100387500D03*
%TO.P,U4,28,PB5*%
%TO.N,unconnected-(U4-Pad28)*%
X147250000Y-100387500D03*
%TO.P,U4,29,PB6*%
%TO.N,unconnected-(U4-Pad29)*%
X147750000Y-100387500D03*
%TO.P,U4,30,PB7*%
%TO.N,unconnected-(U4-Pad30)*%
X148250000Y-100387500D03*
%TO.P,U4,31,PH3*%
%TO.N,Net-(R18-Pad1)*%
X148750000Y-100387500D03*
%TO.P,U4,32,VSS*%
%TO.N,GND*%
X149250000Y-100387500D03*
D58*
%TO.P,U4,33,VSS*%
X147500000Y-97950000D03*
%TD*%
D33*
%TO.P,D7,1,K*%
%TO.N,Net-(D7-Pad1)*%
X144912500Y-102050000D03*
%TO.P,D7,2,A*%
%TO.N,Net-(D7-Pad2)*%
X146487500Y-102050000D03*
%TD*%
D45*
%TO.P,H4,1,1*%
%TO.N,GND*%
X153770000Y-86860000D03*
%TD*%
D51*
%TO.P,D5,1,K*%
%TO.N,Net-(D5-Pad1)*%
X131307500Y-96320000D03*
%TO.P,D5,2,A*%
%TO.N,+3V3*%
X129732500Y-96320000D03*
%TD*%
%TO.P,D4,1,K*%
%TO.N,Net-(D4-Pad1)*%
X117087500Y-91800000D03*
%TO.P,D4,2,A*%
%TO.N,GND1*%
X115512500Y-91800000D03*
%TD*%
D35*
%TO.P,FB2,1*%
%TO.N,VBUS*%
X118525000Y-97650000D03*
%TO.P,FB2,2*%
%TO.N,/VBUS_Rdy*%
X120650000Y-97650000D03*
%TD*%
D29*
%TO.P,C13,1*%
%TO.N,/Vbus_pre*%
X119180000Y-117400000D03*
%TO.P,C13,2*%
%TO.N,GND*%
X119180000Y-115850000D03*
%TD*%
D15*
%TO.P,C1,1*%
%TO.N,VBUS*%
X118562500Y-103650000D03*
%TO.P,C1,2*%
%TO.N,GND*%
X120112500Y-103650000D03*
%TD*%
D59*
%TO.P,C6,1*%
%TO.N,/VBUS_Rdy*%
X124110000Y-100515000D03*
%TO.P,C6,2*%
%TO.N,GND*%
X124110000Y-103465000D03*
%TD*%
D25*
%TO.P,VSINK_EN1,1,1*%
%TO.N,/VSINK_EN*%
X134470000Y-96020000D03*
%TD*%
D60*
%TO.N,GND*%
X129710002Y-98369987D03*
%TO.N,+3V3*%
X143030000Y-93710000D03*
X151680000Y-102590000D03*
X141870000Y-84610000D03*
X120550000Y-118240000D03*
X126853288Y-112311434D03*
X140416652Y-87190791D03*
X142130000Y-100650000D03*
X152400000Y-98540000D03*
X142130000Y-101580000D03*
X127590000Y-117220000D03*
X130280000Y-106360000D03*
X127710000Y-106260000D03*
X152400000Y-97140000D03*
X132800000Y-108080000D03*
X131890000Y-97910000D03*
X140270000Y-100650000D03*
X141200000Y-100650000D03*
X141200000Y-101580000D03*
X141190000Y-102430000D03*
%TO.N,+5V*%
X123971697Y-91289377D03*
X131500000Y-84560000D03*
X114575830Y-92448838D03*
X118580000Y-92090000D03*
%TO.N,GND*%
X113000000Y-98640000D03*
X145480000Y-108020000D03*
X133270000Y-103190000D03*
X112910000Y-95640000D03*
X142050000Y-86180000D03*
X142210000Y-107950000D03*
X108500000Y-94610000D03*
X128830000Y-111560000D03*
X144460000Y-108943335D03*
X133240000Y-104100000D03*
X117260000Y-98690000D03*
X109546668Y-97580000D03*
X152450000Y-95550000D03*
X114106668Y-97600000D03*
X116420000Y-115800000D03*
X108566668Y-98620000D03*
X107500000Y-94610000D03*
X110706668Y-98640000D03*
X126080000Y-106080000D03*
X143350000Y-108923335D03*
X144440000Y-110810001D03*
X128110000Y-98370000D03*
X114553332Y-114820000D03*
X126280000Y-103950000D03*
X132750000Y-100010000D03*
X112960000Y-97600000D03*
X148100000Y-104480000D03*
X115486665Y-115830000D03*
X116240000Y-98660000D03*
X144430000Y-108010000D03*
X110640000Y-94630000D03*
X128880000Y-114630000D03*
X107526668Y-97580000D03*
X143851705Y-93120900D03*
X124467661Y-95630011D03*
X114900000Y-105860000D03*
X108526668Y-97580000D03*
X114196667Y-110950000D03*
X115130000Y-110960000D03*
X132190000Y-105080000D03*
X133180000Y-105050000D03*
X111853334Y-98640000D03*
X142240000Y-108883335D03*
X142230001Y-109816668D03*
X128870000Y-113100000D03*
X111786666Y-94630000D03*
X116083333Y-111920000D03*
X115140000Y-97600000D03*
X115486665Y-114830000D03*
X109586668Y-98620000D03*
X146500000Y-91240000D03*
X130370000Y-105060000D03*
X143340001Y-109856668D03*
X126270000Y-103020000D03*
X108476668Y-95620000D03*
X113619999Y-112840000D03*
X110666668Y-97600000D03*
X127580000Y-105110000D03*
X125700000Y-108560000D03*
X131300000Y-105070000D03*
X109520000Y-94610000D03*
X129460000Y-105100000D03*
X150580000Y-103690000D03*
X114216667Y-111900000D03*
X114080000Y-94630000D03*
X145500001Y-109886668D03*
X108506668Y-96610000D03*
X111763334Y-95640000D03*
X112933332Y-94630000D03*
X109496668Y-95620000D03*
X114056668Y-95640000D03*
X113619999Y-113810000D03*
X138740000Y-94330000D03*
X145490000Y-110820001D03*
X115486665Y-112860000D03*
X109526668Y-96610000D03*
X110646668Y-96630000D03*
X116200000Y-97620000D03*
X127072996Y-98229003D03*
X114146668Y-98640000D03*
X111813334Y-97600000D03*
X111793334Y-96630000D03*
X114086668Y-96630000D03*
X115486665Y-113830000D03*
X142220000Y-110750001D03*
X114553332Y-113820000D03*
X145510000Y-108953335D03*
X107476668Y-95620000D03*
X115150000Y-111910000D03*
X116063333Y-110970000D03*
X126150000Y-117400000D03*
X126620000Y-104820000D03*
X128530000Y-105110000D03*
X133770000Y-98420000D03*
X117220000Y-97650000D03*
X143320000Y-107990000D03*
X110616668Y-95640000D03*
X114553332Y-112850000D03*
X143330000Y-110790001D03*
X107566668Y-98620000D03*
X107506668Y-96610000D03*
X115180000Y-98640000D03*
X116420000Y-114800000D03*
X116420000Y-112830000D03*
X116420000Y-113800000D03*
X112940000Y-96630000D03*
X144450001Y-109876668D03*
X144870000Y-104550000D03*
%TO.N,/CC2*%
X115349500Y-107300000D03*
X121810023Y-107659977D03*
%TO.N,/CC1*%
X114900000Y-104860497D03*
X121424993Y-104693225D03*
%TO.N,GND1*%
X124690000Y-92680000D03*
X115815000Y-90585000D03*
X131000000Y-85800000D03*
X131220000Y-93460000D03*
%TO.N,/Vbus_pre*%
X114697142Y-118201428D03*
X117600000Y-117307142D03*
X124060000Y-111450000D03*
X114717142Y-119121428D03*
X125040000Y-113275000D03*
X116624284Y-117319999D03*
X116648570Y-118239999D03*
X114672856Y-117281428D03*
X125030000Y-112450000D03*
X115648570Y-117294285D03*
X117644286Y-119147142D03*
X116668570Y-119159999D03*
X115692856Y-119134285D03*
X117624286Y-118227142D03*
X115672856Y-118214285D03*
X125000000Y-111625000D03*
%TO.N,/DBG_N*%
X149630000Y-93150000D03*
X127330000Y-110280000D03*
X142860000Y-105270000D03*
X142262239Y-99659286D03*
%TO.N,/FLAGB*%
X132280000Y-90930000D03*
X146210000Y-93570000D03*
X123580000Y-115220000D03*
%TO.N,/VSINK_EN*%
X140970000Y-89750500D03*
X133230000Y-89400000D03*
X125009858Y-115212838D03*
X147038125Y-94187625D03*
%TO.N,/INT_N*%
X140170000Y-95110000D03*
X132860000Y-109730000D03*
%TO.N,/Isense*%
X150500564Y-94691488D03*
X123170000Y-117550000D03*
X134890000Y-87970000D03*
%TO.N,Net-(J2-PadA6)*%
X119200000Y-93650980D03*
X121904500Y-91597394D03*
%TO.N,Net-(J2-PadA7)*%
X121335500Y-92527353D03*
%TO.N,Net-(JP1-Pad1)*%
X131430000Y-92220000D03*
X122440000Y-95280000D03*
%TO.N,/USB_DP*%
X143760000Y-98730000D03*
X141110000Y-93970000D03*
X118092588Y-95398628D03*
X136930000Y-92190000D03*
%TO.N,Net-(JP2-Pad1)*%
X131030000Y-90990000D03*
X123669316Y-92550036D03*
%TO.N,/USB_DM*%
X141930000Y-92620000D03*
X136970000Y-90940000D03*
X143208539Y-97896396D03*
X125561098Y-95512541D03*
%TO.N,/SDA*%
X139225498Y-97550000D03*
X134910000Y-107220000D03*
%TO.N,/SCL*%
X134420000Y-108350000D03*
X139584622Y-96054622D03*
%TO.N,Net-(R17-Pad2)*%
X149541527Y-91139267D03*
X142130000Y-87770000D03*
%TO.N,/SenseFault*%
X148000378Y-93790378D03*
X134150000Y-90139500D03*
X125220000Y-116190000D03*
%TO.N,Net-(TC1-Pad2)*%
X143760000Y-106270000D03*
X147340000Y-84330000D03*
%TD*%
D61*
%TO.N,+3V3*%
X120530000Y-117395000D02*
X120694511Y-117559511D01*
X120694511Y-117559511D02*
X121350000Y-117559511D01*
D62*
%TO.N,GND1*%
X124912500Y-90540000D02*
X126900000Y-90540000D01*
X127055000Y-90385000D02*
X127055000Y-89112500D01*
X126900000Y-90540000D02*
X127055000Y-90385000D01*
X127055000Y-89112500D02*
X127055000Y-85112500D01*
D63*
%TO.N,/USB_DP*%
X140270000Y-92180000D02*
X138755000Y-92180000D01*
X141110000Y-93020000D02*
X140270000Y-92180000D01*
X138755000Y-92180000D02*
X138750000Y-92175000D01*
X141110000Y-93970000D02*
X141110000Y-93020000D01*
%TO.N,Net-(JP2-Pad1)*%
X131030000Y-90990000D02*
X130945000Y-90905000D01*
X130945000Y-90905000D02*
X129450000Y-90905000D01*
%TO.N,/USB_DM*%
X137005000Y-90905000D02*
X136970000Y-90940000D01*
X140215000Y-90905000D02*
X137005000Y-90905000D01*
X141930000Y-92620000D02*
X140215000Y-90905000D01*
X125500000Y-95451443D02*
X125500000Y-94200000D01*
X125561098Y-95512541D02*
X125500000Y-95451443D01*
D61*
%TO.N,+3V3*%
X143030000Y-94690000D02*
X143418151Y-95078151D01*
X143030000Y-93710000D02*
X143030000Y-94690000D01*
%TO.N,GND*%
X144548008Y-93817203D02*
X144548008Y-94001992D01*
X143851705Y-93120900D02*
X144548008Y-93817203D01*
D63*
%TO.N,+3V3*%
X143190000Y-94836016D02*
X143451992Y-95098008D01*
%TO.N,Net-(JP1-Pad1)*%
X129495000Y-92220000D02*
X129450000Y-92175000D01*
X131430000Y-92220000D02*
X129495000Y-92220000D01*
X122410000Y-95310000D02*
X122440000Y-95280000D01*
X120615000Y-95310000D02*
X122410000Y-95310000D01*
X120525000Y-95400000D02*
X120615000Y-95310000D01*
%TO.N,Net-(J2-PadA7)*%
X121205000Y-92396853D02*
X121205000Y-89672500D01*
X121335500Y-92527353D02*
X121205000Y-92396853D01*
X122205000Y-90908635D02*
X122205000Y-89672500D01*
X122700000Y-91403635D02*
X122205000Y-90908635D01*
X121972647Y-92527353D02*
X122700000Y-91800000D01*
X122700000Y-91800000D02*
X122700000Y-91403635D01*
X121335500Y-92527353D02*
X121972647Y-92527353D01*
%TO.N,Net-(JP2-Pad1)*%
X124050000Y-93310000D02*
X124050000Y-94200000D01*
X123669316Y-92929316D02*
X124050000Y-93310000D01*
X123669316Y-92550036D02*
X123669316Y-92929316D01*
%TO.N,/USB_DP*%
X118092588Y-95398628D02*
X119073628Y-95398628D01*
X119073628Y-95398628D02*
X119075000Y-95400000D01*
X136945000Y-92175000D02*
X136930000Y-92190000D01*
X138750000Y-92175000D02*
X136945000Y-92175000D01*
%TO.N,+3V3*%
X144528292Y-83789029D02*
X145440000Y-84700737D01*
D61*
X136775000Y-84555000D02*
X138750000Y-84555000D01*
X152360000Y-97100000D02*
X152400000Y-97140000D01*
X151500000Y-98500000D02*
X152360000Y-98500000D01*
D63*
X129732500Y-96522500D02*
X131170000Y-97960000D01*
X150890000Y-97710000D02*
X151500000Y-97100000D01*
D61*
X138750000Y-87095000D02*
X136675000Y-87095000D01*
D63*
X126920000Y-113845000D02*
X126920000Y-115335000D01*
X126175000Y-113100000D02*
X126920000Y-113845000D01*
D61*
X144553984Y-96200000D02*
X143451992Y-95098008D01*
X141855000Y-84625000D02*
X140900000Y-84625000D01*
D63*
X142690971Y-83789029D02*
X144528292Y-83789029D01*
X149937500Y-97700000D02*
X150280000Y-97700000D01*
X125950000Y-110065000D02*
X125950000Y-111325000D01*
X145440000Y-86245000D02*
X145795000Y-86600000D01*
D61*
X152360000Y-98500000D02*
X152400000Y-98540000D01*
X151048008Y-101958008D02*
X151680000Y-102590000D01*
X138750000Y-88365000D02*
X136695000Y-88365000D01*
D63*
X131840000Y-97960000D02*
X131890000Y-97910000D01*
D61*
X151500000Y-97100000D02*
X152360000Y-97100000D01*
X145062500Y-96200000D02*
X144553984Y-96200000D01*
X136695000Y-88365000D02*
X136640000Y-88420000D01*
D63*
X138750000Y-87095000D02*
X140320861Y-87095000D01*
D61*
X136640000Y-84690000D02*
X136775000Y-84555000D01*
X136640000Y-89460000D02*
X136920000Y-89740000D01*
X126175000Y-111633146D02*
X126175000Y-111550000D01*
X141870000Y-84610000D02*
X141855000Y-84625000D01*
D63*
X145440000Y-84700737D02*
X145440000Y-86245000D01*
D61*
X127775000Y-117035000D02*
X127590000Y-117220000D01*
D63*
X131170000Y-97960000D02*
X131840000Y-97960000D01*
D61*
X138645000Y-89740000D02*
X138750000Y-89635000D01*
X120530000Y-118220000D02*
X120550000Y-118240000D01*
X126853288Y-112311434D02*
X126175000Y-111633146D01*
X120530000Y-117395000D02*
X120530000Y-118220000D01*
X136920000Y-89740000D02*
X138645000Y-89740000D01*
D63*
X126175000Y-111550000D02*
X126175000Y-113100000D01*
D61*
X138750000Y-84555000D02*
X140830000Y-84555000D01*
X136640000Y-88250000D02*
X136640000Y-84690000D01*
X140830000Y-84555000D02*
X140900000Y-84625000D01*
D63*
X150290000Y-97710000D02*
X150890000Y-97710000D01*
X141870000Y-84610000D02*
X142690971Y-83789029D01*
X126920000Y-115335000D02*
X127775000Y-116190000D01*
D62*
X132795000Y-108075000D02*
X132800000Y-108080000D01*
X130300000Y-106380000D02*
X130280000Y-106360000D01*
D61*
X149937500Y-100841484D02*
X151048008Y-101951992D01*
D63*
X140320861Y-87095000D02*
X140416652Y-87190791D01*
D61*
X127775000Y-116190000D02*
X127775000Y-117035000D01*
D62*
X127710000Y-106260000D02*
X128485000Y-106260000D01*
X130300000Y-107175000D02*
X130300000Y-106380000D01*
D61*
X149937500Y-99700000D02*
X149937500Y-100841484D01*
X151048008Y-101951992D02*
X151048008Y-101958008D01*
D63*
X125950000Y-111325000D02*
X126175000Y-111550000D01*
X129732500Y-96320000D02*
X129732500Y-96522500D01*
D61*
X136640000Y-88250000D02*
X136640000Y-89460000D01*
X136640000Y-88420000D02*
X136640000Y-88250000D01*
D63*
X150280000Y-97700000D02*
X150290000Y-97710000D01*
D62*
X131900000Y-108075000D02*
X132795000Y-108075000D01*
D61*
%TO.N,+5V*%
X131495000Y-84555000D02*
X131500000Y-84560000D01*
X123971697Y-91289377D02*
X123835000Y-91152680D01*
D62*
X119035000Y-91635000D02*
X119035000Y-90262500D01*
X123971697Y-91289377D02*
X123907320Y-91225000D01*
X114575830Y-92448838D02*
X113932472Y-91805480D01*
X118580000Y-92090000D02*
X119035000Y-91635000D01*
X123907320Y-91225000D02*
X123835000Y-91225000D01*
D61*
X129450000Y-84555000D02*
X131495000Y-84555000D01*
D62*
X113932472Y-91805480D02*
X113892980Y-91805480D01*
X113887500Y-91800000D02*
X113887500Y-89767500D01*
D61*
X123835000Y-91152680D02*
X123835000Y-90262500D01*
D62*
X113887500Y-89767500D02*
X113810000Y-89690000D01*
X113892980Y-91805480D02*
X113887500Y-91800000D01*
D63*
%TO.N,VBUS*%
X125450000Y-110065000D02*
X125450000Y-110451973D01*
D62*
X118662500Y-99587500D02*
X118525000Y-99450000D01*
D63*
X125151484Y-110750489D02*
X123130489Y-110750489D01*
D64*
X123200000Y-113400000D02*
X123200000Y-113220000D01*
D63*
X125450000Y-110451973D02*
X125151484Y-110750489D01*
D62*
X118562500Y-101700000D02*
X118662500Y-101600000D01*
X118562500Y-103650000D02*
X118462500Y-103750000D01*
D65*
%TO.N,GND*%
X134700000Y-98425000D02*
X133775000Y-98425000D01*
D61*
X127725000Y-113100000D02*
X128870000Y-113100000D01*
D63*
X125450000Y-108310000D02*
X125450000Y-107115000D01*
D61*
X148100000Y-103675000D02*
X148100000Y-104480000D01*
X128820000Y-111550000D02*
X128830000Y-111560000D01*
X127725000Y-111550000D02*
X128820000Y-111550000D01*
D63*
X126150000Y-117400000D02*
X125990000Y-117560000D01*
X125250000Y-109040000D02*
X125700000Y-108590000D01*
D62*
X132100000Y-100000000D02*
X132740000Y-100000000D01*
X128100000Y-99200000D02*
X128100000Y-98270000D01*
D63*
X149250000Y-100387500D02*
X149200480Y-100337980D01*
D62*
X124467661Y-95630011D02*
X124625000Y-95787350D01*
D61*
X144870000Y-104550000D02*
X144875000Y-104545000D01*
X138750000Y-85825000D02*
X139925000Y-85825000D01*
D63*
X145750000Y-95512500D02*
X145799520Y-95562020D01*
X125700000Y-108560000D02*
X125450000Y-108310000D01*
D62*
X129700000Y-99200000D02*
X129700000Y-98270000D01*
D61*
X149951992Y-103061992D02*
X149951992Y-103048008D01*
D62*
X124625000Y-95787350D02*
X124625000Y-96400000D01*
D63*
X146500000Y-89845000D02*
X145795000Y-89140000D01*
D61*
X150580000Y-103690000D02*
X149951992Y-103061992D01*
D62*
X132740000Y-100000000D02*
X132750000Y-100010000D01*
X127300000Y-99200000D02*
X127300000Y-98250000D01*
D61*
X144875000Y-104545000D02*
X144875000Y-103650000D01*
D63*
X149200480Y-99650480D02*
X147500000Y-97950000D01*
D61*
X140900000Y-86175000D02*
X142045000Y-86175000D01*
X145750000Y-95512500D02*
X145750000Y-95203984D01*
D63*
X125700000Y-108560000D02*
X125700000Y-108590000D01*
X131074067Y-97294511D02*
X132644511Y-97294511D01*
X125230000Y-109040000D02*
X124930000Y-109340000D01*
X149200480Y-100337980D02*
X149200480Y-99650480D01*
X146500000Y-91240000D02*
X146500000Y-89845000D01*
D61*
X138750000Y-93445000D02*
X138750000Y-94320000D01*
X128860000Y-114650000D02*
X128880000Y-114630000D01*
X142045000Y-86175000D02*
X142050000Y-86180000D01*
X145750000Y-95203984D02*
X144548008Y-94001992D01*
D63*
X125450000Y-107115000D02*
X125450000Y-106710000D01*
D66*
X120120000Y-103642500D02*
X120112500Y-103650000D01*
D63*
X145799520Y-95562020D02*
X145799520Y-96249520D01*
X125230000Y-109040000D02*
X125250000Y-109040000D01*
X125990000Y-117560000D02*
X124710000Y-117560000D01*
D65*
X133775000Y-98425000D02*
X133770000Y-98420000D01*
D61*
X139925000Y-85825000D02*
X140275000Y-86175000D01*
D63*
X124930000Y-109340000D02*
X124225000Y-109340000D01*
D61*
X127775000Y-114650000D02*
X128860000Y-114650000D01*
D63*
X130570480Y-95645480D02*
X130570480Y-96790924D01*
D61*
X138750000Y-94320000D02*
X138740000Y-94330000D01*
X149250000Y-102346016D02*
X149951992Y-103048008D01*
X149250000Y-100387500D02*
X149250000Y-102346016D01*
D63*
X125450000Y-106710000D02*
X126080000Y-106080000D01*
D62*
X127300000Y-99200000D02*
X128100000Y-99200000D01*
D63*
X129695000Y-94770000D02*
X130570480Y-95645480D01*
X145799520Y-96249520D02*
X147500000Y-97950000D01*
X130570480Y-96790924D02*
X131074067Y-97294511D01*
D61*
X140275000Y-86175000D02*
X140900000Y-86175000D01*
D63*
X132644511Y-97294511D02*
X133770000Y-98420000D01*
D64*
X123200000Y-113800000D02*
X124000000Y-113800000D01*
D61*
X151500000Y-95550000D02*
X152450000Y-95550000D01*
D63*
%TO.N,/CC2*%
X124225000Y-108840000D02*
X122360000Y-108840000D01*
X115349500Y-107300000D02*
X114657564Y-107991936D01*
X122360000Y-108840000D02*
X122200000Y-109000000D01*
D61*
X122660000Y-108509954D02*
X122660000Y-108540000D01*
X122660000Y-108540000D02*
X122200000Y-109000000D01*
D63*
X114657564Y-107991936D02*
X113520000Y-107991936D01*
D61*
X121810023Y-107659977D02*
X122660000Y-108509954D01*
%TO.N,/CC1*%
X122200000Y-105468232D02*
X122200000Y-106000000D01*
D63*
X114900000Y-104860497D02*
X114819050Y-104941447D01*
D61*
X123050000Y-107840000D02*
X124225000Y-107840000D01*
X122200000Y-106990000D02*
X123050000Y-107840000D01*
X121424993Y-104693225D02*
X122200000Y-105468232D01*
D63*
X114819050Y-104941447D02*
X113546447Y-104941447D01*
D61*
X122200000Y-106000000D02*
X122200000Y-106990000D01*
%TO.N,Net-(C11-Pad1)*%
X128355000Y-89635000D02*
X127654520Y-90335480D01*
X127300000Y-91920000D02*
X127300000Y-93225000D01*
X129450000Y-89635000D02*
X128355000Y-89635000D01*
X127654520Y-91565480D02*
X127300000Y-91920000D01*
D62*
X129450000Y-87095000D02*
X129450000Y-89635000D01*
D61*
X127654520Y-90335480D02*
X127654520Y-91565480D01*
%TO.N,GND1*%
X129450000Y-93445000D02*
X131205000Y-93445000D01*
D62*
X115815000Y-89112500D02*
X115815000Y-90585000D01*
X115815000Y-90655000D02*
X115512500Y-90957500D01*
D63*
X130975000Y-85825000D02*
X131000000Y-85800000D01*
D61*
X129450000Y-85825000D02*
X128988573Y-85825000D01*
X124690000Y-92680000D02*
X124721208Y-92648792D01*
D63*
X129450000Y-85825000D02*
X130975000Y-85825000D01*
D62*
X117315000Y-90655000D02*
X117707500Y-90262500D01*
D61*
X128983573Y-85830000D02*
X128330000Y-85830000D01*
D62*
X115512500Y-96400000D02*
X115512500Y-91800000D01*
X115815000Y-89112500D02*
X115815000Y-85112500D01*
X117707500Y-90262500D02*
X118235000Y-90262500D01*
X115815000Y-90585000D02*
X115815000Y-90655000D01*
D61*
X124721208Y-90348708D02*
X124635000Y-90262500D01*
X128330000Y-85830000D02*
X127060000Y-87100000D01*
X128120000Y-94775000D02*
X129450000Y-93445000D01*
D62*
X113925000Y-93400000D02*
X115475000Y-93400000D01*
X115815000Y-90655000D02*
X117315000Y-90655000D01*
D61*
X128988573Y-85825000D02*
X128983573Y-85830000D01*
X124721208Y-92648792D02*
X124721208Y-90348708D01*
X131205000Y-93445000D02*
X131220000Y-93460000D01*
X127300000Y-94775000D02*
X128120000Y-94775000D01*
D62*
X115512500Y-90957500D02*
X115512500Y-91800000D01*
D64*
%TO.N,/Vbus_pre*%
X123600000Y-113400000D02*
X123600000Y-113000000D01*
D62*
%TO.N,Net-(D3-Pad1)*%
X112312500Y-91800000D02*
X112312500Y-93362500D01*
X112312500Y-93362500D02*
X112275000Y-93400000D01*
D63*
%TO.N,Net-(D4-Pad1)*%
X117225000Y-93300000D02*
X117125000Y-93400000D01*
X118359259Y-93300000D02*
X117225000Y-93300000D01*
X119685000Y-90262500D02*
X119685000Y-91974259D01*
X119685000Y-91974259D02*
X118359259Y-93300000D01*
X117087500Y-91800000D02*
X117087500Y-93362500D01*
X117087500Y-93362500D02*
X117125000Y-93400000D01*
%TO.N,Net-(D5-Pad1)*%
X131307500Y-94807500D02*
X131345000Y-94770000D01*
X131307500Y-96320000D02*
X131307500Y-94807500D01*
%TO.N,Net-(D6-Pad1)*%
X123100000Y-91989283D02*
X121779283Y-93310000D01*
X120690000Y-93310000D02*
X119649520Y-94350480D01*
X123100000Y-90866522D02*
X123100000Y-91989283D01*
X121779283Y-93310000D02*
X120690000Y-93310000D01*
X122685000Y-90262500D02*
X122685000Y-90451522D01*
X117674520Y-94350480D02*
X117125000Y-94900000D01*
X117087500Y-96400000D02*
X117087500Y-94937500D01*
X119649520Y-94350480D02*
X117674520Y-94350480D01*
X117087500Y-94937500D02*
X117125000Y-94900000D01*
X122685000Y-90451522D02*
X123100000Y-90866522D01*
D61*
%TO.N,Net-(D7-Pad1)*%
X146512500Y-103650000D02*
X144912500Y-102050000D01*
X146525000Y-103650000D02*
X146512500Y-103650000D01*
%TO.N,Net-(D7-Pad2)*%
X146250000Y-101812500D02*
X146487500Y-102050000D01*
X146250000Y-100387500D02*
X146250000Y-101812500D01*
D63*
%TO.N,/DBG_N*%
X141950000Y-105950000D02*
X140780000Y-104780000D01*
X142860000Y-105270000D02*
X143010000Y-105120000D01*
X143010000Y-99980000D02*
X142689286Y-99659286D01*
X142120000Y-105950000D02*
X141950000Y-105950000D01*
X142689286Y-99659286D02*
X142262239Y-99659286D01*
X143010000Y-105120000D02*
X143010000Y-99980000D01*
X142860000Y-105270000D02*
X142800000Y-105270000D01*
X147750000Y-95512500D02*
X147750000Y-95030000D01*
X142800000Y-105270000D02*
X142120000Y-105950000D01*
X147750000Y-95030000D02*
X149630000Y-93150000D01*
X126450000Y-110065000D02*
X127115000Y-110065000D01*
X127115000Y-110065000D02*
X127330000Y-110280000D01*
D64*
%TO.N,/FLAGB*%
X123200000Y-114840000D02*
X123580000Y-115220000D01*
D63*
X132280000Y-93389259D02*
X132770000Y-93879259D01*
X132280000Y-90930000D02*
X132280000Y-93389259D01*
X146250000Y-93610000D02*
X146250000Y-95512500D01*
X132770000Y-93879259D02*
X132770000Y-96020000D01*
D64*
X123200000Y-114200000D02*
X123200000Y-114840000D01*
D63*
X146210000Y-93570000D02*
X146250000Y-93610000D01*
%TO.N,Net-(GPIO1-Pad1)*%
X124950000Y-107115000D02*
X124950000Y-106250000D01*
X124950000Y-106250000D02*
X124500000Y-105800000D01*
%TO.N,Net-(GPIO2-Pad1)*%
X127599259Y-109340000D02*
X129959259Y-111700000D01*
X127175000Y-109340000D02*
X127599259Y-109340000D01*
X129959259Y-111700000D02*
X130100000Y-111700000D01*
D61*
%TO.N,Net-(IC1-PadE7)*%
X130500000Y-99200000D02*
X130500000Y-98100030D01*
X129990459Y-97590489D02*
X127465489Y-97590489D01*
X130500000Y-98100030D02*
X129990459Y-97590489D01*
X127465489Y-97590489D02*
X126275000Y-96400000D01*
%TO.N,Net-(IC1-PadF7)*%
X131364511Y-98625489D02*
X132655489Y-98625489D01*
X134105000Y-100075000D02*
X134700000Y-100075000D01*
X135965000Y-98425000D02*
X136500000Y-98425000D01*
X131300000Y-99200000D02*
X131300000Y-98690000D01*
X131300000Y-98690000D02*
X131364511Y-98625489D01*
X134700000Y-99690000D02*
X135965000Y-98425000D01*
X132655489Y-98625489D02*
X134105000Y-100075000D01*
X134700000Y-100075000D02*
X134700000Y-99690000D01*
D63*
%TO.N,/VSINK_EN*%
X147038125Y-93408866D02*
X143729259Y-90100000D01*
D64*
X123600000Y-114300000D02*
X123600000Y-114200000D01*
D63*
X147038125Y-94187625D02*
X147038125Y-93408866D01*
X134470000Y-94290000D02*
X134470000Y-96020000D01*
D64*
X124512838Y-115212838D02*
X123600000Y-114300000D01*
X125009858Y-115212838D02*
X124512838Y-115212838D01*
D63*
X143729259Y-90100000D02*
X141540000Y-90100000D01*
X146750000Y-94475750D02*
X147038125Y-94187625D01*
X141540000Y-90100000D02*
X141319500Y-90100000D01*
X141319500Y-90100000D02*
X140970000Y-89750500D01*
X133230000Y-89400000D02*
X133230000Y-93050000D01*
X133230000Y-93050000D02*
X134470000Y-94290000D01*
X146750000Y-95512500D02*
X146750000Y-94475750D01*
D64*
%TO.N,Net-(IC2-PadC1)*%
X124000000Y-113400000D02*
X124099941Y-113400000D01*
X124590000Y-113890000D02*
X125350000Y-114650000D01*
X125350000Y-114650000D02*
X126125000Y-114650000D01*
X124099941Y-113400000D02*
X124589941Y-113890000D01*
X124589941Y-113890000D02*
X124590000Y-113890000D01*
D63*
%TO.N,/INT_N*%
X131900000Y-109725000D02*
X128549265Y-109725000D01*
D61*
X131900000Y-109725000D02*
X131900000Y-111700000D01*
D63*
X127664265Y-108840000D02*
X127175000Y-108840000D01*
X144418266Y-96700000D02*
X145062500Y-96700000D01*
X131900000Y-109725000D02*
X132855000Y-109725000D01*
X141050000Y-95990000D02*
X143708266Y-95990000D01*
X128549265Y-109725000D02*
X127664265Y-108840000D01*
X140170000Y-95110000D02*
X141050000Y-95990000D01*
X143708266Y-95990000D02*
X144418266Y-96700000D01*
X132855000Y-109725000D02*
X132860000Y-109730000D01*
%TO.N,/Isense*%
X150500564Y-94691488D02*
X150674520Y-94865444D01*
X134890000Y-87970000D02*
X134850000Y-88010000D01*
X150674520Y-94865444D02*
X150674520Y-97145480D01*
X121860489Y-117110489D02*
X122730489Y-117110489D01*
X122730489Y-117110489D02*
X123170000Y-117550000D01*
X150674520Y-97145480D02*
X150600000Y-97220000D01*
X134850000Y-91800000D02*
X137700000Y-94650000D01*
X134850000Y-88010000D02*
X134850000Y-91800000D01*
X121810000Y-117060000D02*
X121860489Y-117110489D01*
X137700000Y-94650000D02*
X137700000Y-96060000D01*
X150600000Y-97220000D02*
X150108460Y-97220000D01*
%TO.N,Net-(J2-PadA6)*%
X119385265Y-93650980D02*
X120135997Y-92900248D01*
X121705000Y-91397894D02*
X121705000Y-89672500D01*
X120135997Y-92900248D02*
X120135997Y-92320752D01*
X121904500Y-91597394D02*
X121705000Y-91397894D01*
X119200000Y-93650980D02*
X119385265Y-93650980D01*
X120135997Y-92320752D02*
X120705000Y-91751749D01*
X120705000Y-91751749D02*
X120705000Y-89672500D01*
%TO.N,/USB_DP*%
X143760000Y-98730000D02*
X143790000Y-98700000D01*
X143790000Y-98700000D02*
X145062500Y-98700000D01*
D61*
%TO.N,Net-(JP2-Pad1)*%
X123669316Y-92550036D02*
X123669316Y-92769316D01*
D63*
%TO.N,/USB_DM*%
X143470252Y-98030489D02*
X144049748Y-98030489D01*
X144219259Y-98200000D02*
X145062500Y-98200000D01*
X143406442Y-98094299D02*
X143470252Y-98030489D01*
X144049748Y-98030489D02*
X144219259Y-98200000D01*
X143208539Y-97896396D02*
X143406442Y-98094299D01*
%TO.N,/SDA*%
X134910000Y-107220000D02*
X131573573Y-107220000D01*
X127175000Y-107840000D02*
X128415000Y-107840000D01*
X142290000Y-98760000D02*
X140800000Y-98760000D01*
X131573573Y-107220000D02*
X130843573Y-107950000D01*
X142380000Y-98670000D02*
X142380000Y-97735676D01*
X144284265Y-97700000D02*
X145062500Y-97700000D01*
X130843573Y-107950000D02*
X128700000Y-107950000D01*
X143781150Y-97196885D02*
X144284265Y-97700000D01*
X142380000Y-97735676D02*
X142918791Y-97196885D01*
X139225498Y-97550000D02*
X140435498Y-98760000D01*
X142380000Y-98670000D02*
X142290000Y-98760000D01*
X140435498Y-98760000D02*
X140800000Y-98760000D01*
X142918791Y-97196885D02*
X143781150Y-97196885D01*
%TO.N,/SCL*%
X143709271Y-96560000D02*
X142710000Y-96560000D01*
X139584622Y-96054622D02*
X139794622Y-96054622D01*
X127729271Y-108340000D02*
X128219636Y-108830365D01*
X130300000Y-108825000D02*
X133945000Y-108825000D01*
X144349271Y-97200000D02*
X143709271Y-96560000D01*
X142210000Y-97060000D02*
X140800000Y-97060000D01*
X145062500Y-97200000D02*
X144349271Y-97200000D01*
X133945000Y-108825000D02*
X134420000Y-108350000D01*
X142710000Y-96560000D02*
X142210000Y-97060000D01*
X128219636Y-108830365D02*
X130294635Y-108830365D01*
X127175000Y-108340000D02*
X127729271Y-108340000D01*
X139794622Y-96054622D02*
X140800000Y-97060000D01*
X130294635Y-108830365D02*
X130300000Y-108825000D01*
%TO.N,Net-(R17-Pad2)*%
X153149511Y-94762569D02*
X149826187Y-91439245D01*
X150386973Y-98200000D02*
X150720000Y-98533027D01*
X150720000Y-98533027D02*
X150720000Y-99370000D01*
X149826187Y-91423927D02*
X149541527Y-91139267D01*
X151779259Y-100150000D02*
X153149511Y-98779748D01*
X153149511Y-98779748D02*
X153149511Y-94762569D01*
X142130000Y-87770000D02*
X142935971Y-86964029D01*
X144889029Y-86964029D02*
X145795000Y-87870000D01*
X149937500Y-98200000D02*
X150386973Y-98200000D01*
X151500000Y-100150000D02*
X151779259Y-100150000D01*
X149826187Y-91439245D02*
X149826187Y-91423927D01*
X142935971Y-86964029D02*
X144889029Y-86964029D01*
X150720000Y-99370000D02*
X151500000Y-100150000D01*
D61*
%TO.N,Net-(R18-Pad1)*%
X148750000Y-101375000D02*
X148100000Y-102025000D01*
X148750000Y-100387500D02*
X148750000Y-101375000D01*
D63*
%TO.N,/SenseFault*%
X148000378Y-93790378D02*
X147810000Y-93980756D01*
X147810000Y-94404994D02*
X147250000Y-94964994D01*
X134150000Y-90139500D02*
X134129511Y-90159989D01*
X147810000Y-93980756D02*
X147810000Y-94404994D01*
X136170000Y-94640000D02*
X136170000Y-96020000D01*
X124710000Y-117060000D02*
X125255000Y-117060000D01*
X125255000Y-117060000D02*
X126125000Y-116190000D01*
X147250000Y-94964994D02*
X147250000Y-95512500D01*
X134129511Y-92599511D02*
X136170000Y-94640000D01*
X134129511Y-90159989D02*
X134129511Y-92599511D01*
X126125000Y-116190000D02*
X125220000Y-116190000D01*
%TO.N,Net-(TC1-Pad2)*%
X145062500Y-99200000D02*
X144279259Y-99200000D01*
X147340000Y-86325000D02*
X147065000Y-86600000D01*
X144279259Y-99200000D02*
X144049748Y-99429511D01*
X144049748Y-99429511D02*
X143800489Y-99429511D01*
X147340000Y-84330000D02*
X147340000Y-86325000D01*
X143409520Y-99820480D02*
X143409520Y-104830261D01*
X143800489Y-99429511D02*
X143409520Y-99820480D01*
X143760000Y-105180741D02*
X143760000Y-106270000D01*
X143409520Y-104830261D02*
X143760000Y-105180741D01*
%TO.N,Net-(TC1-Pad4)*%
X149608292Y-86964029D02*
X147970971Y-86964029D01*
X144509511Y-105249511D02*
X150009748Y-105249511D01*
X150510971Y-91100971D02*
X150510971Y-87866708D01*
X143809040Y-100235225D02*
X143809040Y-104549040D01*
X150009748Y-105249511D02*
X153549031Y-101710228D01*
X145062500Y-99700000D02*
X145062500Y-99642500D01*
X145062500Y-99642500D02*
X145044520Y-99624520D01*
X143809040Y-104549040D02*
X144509511Y-105249511D01*
X144419745Y-99624520D02*
X143809040Y-100235225D01*
X153549031Y-101710228D02*
X153549031Y-94139031D01*
X145044520Y-99624520D02*
X144419745Y-99624520D01*
X153549031Y-94139031D02*
X150510971Y-91100971D01*
X150510971Y-87866708D02*
X149608292Y-86964029D01*
X147970971Y-86964029D02*
X147065000Y-87870000D01*
%TD*%
%TA.AperFunction,Conductor*%
%TO.N,+3V3*%
G36*
X141967612Y-100187225D02*
G01*
X142097847Y-100241170D01*
X142097850Y-100241171D01*
X142105477Y-100244330D01*
X142262239Y-100264968D01*
X142270427Y-100263890D01*
X142410813Y-100245408D01*
X142419001Y-100244330D01*
X142426628Y-100241171D01*
X142426631Y-100241170D01*
X142499318Y-100211062D01*
X142569908Y-100203473D01*
X142633395Y-100235253D01*
X142669622Y-100296311D01*
X142673533Y-100328294D01*
X142653629Y-103374111D01*
X142633183Y-103442100D01*
X142579224Y-103488241D01*
X142525442Y-103499269D01*
X140780700Y-103468940D01*
X137514583Y-103412166D01*
X137446821Y-103390983D01*
X137401268Y-103336527D01*
X137390776Y-103285400D01*
X137409224Y-100324595D01*
X137429651Y-100256600D01*
X137483595Y-100210442D01*
X137534597Y-100199382D01*
X141918769Y-100177636D01*
X141967612Y-100187225D01*
G37*
%TD.AperFunction*%
%TD*%
%TA.AperFunction,Conductor*%
%TO.N,GND*%
G36*
X109224982Y-94114449D02*
G01*
X111598937Y-94119998D01*
X111601137Y-94120023D01*
X114505666Y-94177538D01*
X114573377Y-94198884D01*
X114618798Y-94253450D01*
X114629168Y-94304356D01*
X114610000Y-97170000D01*
X114623860Y-97169957D01*
X114623861Y-97169957D01*
X117684023Y-97160394D01*
X117752206Y-97180183D01*
X117798867Y-97233693D01*
X117810416Y-97285976D01*
X117818231Y-99653886D01*
X117829588Y-103095194D01*
X117809811Y-103163381D01*
X117756309Y-103210050D01*
X117705204Y-103221600D01*
X116271323Y-103239983D01*
X116268636Y-103239988D01*
X113221334Y-103213106D01*
X113153394Y-103192505D01*
X113107376Y-103138441D01*
X113096447Y-103087112D01*
X113096447Y-103031140D01*
X113096456Y-103029661D01*
X113103411Y-102437142D01*
X113124211Y-102369261D01*
X113173435Y-102325733D01*
X113199003Y-102313057D01*
X113213417Y-102306994D01*
X113220015Y-102304689D01*
X113228096Y-102303008D01*
X113235469Y-102299291D01*
X113235472Y-102299290D01*
X113275147Y-102279288D01*
X113322927Y-102255201D01*
X113328766Y-102249989D01*
X113343007Y-102241663D01*
X113609945Y-102109322D01*
X113616267Y-99778282D01*
X107021219Y-99728408D01*
X106953252Y-99707892D01*
X106907166Y-99653886D01*
X106896173Y-99602915D01*
X106874730Y-94235754D01*
X106894460Y-94167554D01*
X106947929Y-94120847D01*
X107001022Y-94109251D01*
X109224982Y-94114449D01*
G37*
%TD.AperFunction*%
%TD*%
%TA.AperFunction,Conductor*%
%TO.N,VBUS*%
G36*
X119445945Y-96654291D02*
G01*
X119492748Y-96707677D01*
X119504438Y-96760303D01*
X119523587Y-103146345D01*
X119509855Y-103203925D01*
X119477781Y-103266874D01*
X119462000Y-103366512D01*
X119462000Y-103933488D01*
X119466983Y-103964947D01*
X119475273Y-104017289D01*
X119477781Y-104033126D01*
X119482282Y-104041959D01*
X119512891Y-104102033D01*
X119526623Y-104158858D01*
X119527034Y-104295919D01*
X119693354Y-104294566D01*
X119735354Y-104304471D01*
X119736107Y-104302153D01*
X119745540Y-104305218D01*
X119754374Y-104309719D01*
X119764163Y-104311269D01*
X119764165Y-104311270D01*
X119793649Y-104315940D01*
X119854012Y-104325500D01*
X120370988Y-104325500D01*
X120431351Y-104315940D01*
X120460835Y-104311270D01*
X120460837Y-104311269D01*
X120470626Y-104309719D01*
X120479457Y-104305219D01*
X120479461Y-104305218D01*
X120486983Y-104301385D01*
X120543162Y-104287655D01*
X120671688Y-104286610D01*
X120739969Y-104306058D01*
X120786896Y-104359334D01*
X120798705Y-104411261D01*
X120860000Y-110151429D01*
X120873480Y-110151313D01*
X123182519Y-110131435D01*
X123250810Y-110150850D01*
X123297763Y-110204103D01*
X123309603Y-110257056D01*
X123314926Y-112062208D01*
X123309328Y-112094227D01*
X123309450Y-112094248D01*
X123290803Y-112200000D01*
X123309450Y-112305752D01*
X123309923Y-112306572D01*
X123315743Y-112339293D01*
X123316096Y-112458992D01*
X123310143Y-112493048D01*
X123309450Y-112494248D01*
X123290803Y-112600000D01*
X123309450Y-112705752D01*
X123310803Y-112708095D01*
X123316932Y-112742560D01*
X123317266Y-112855778D01*
X123311015Y-112891537D01*
X123309450Y-112894248D01*
X123290803Y-113000000D01*
X123309450Y-113105752D01*
X123311681Y-113109617D01*
X123318121Y-113145826D01*
X123318335Y-113218174D01*
X123298535Y-113286354D01*
X123245017Y-113333005D01*
X123174773Y-113343317D01*
X123110106Y-113314015D01*
X123083217Y-113281547D01*
X123079341Y-113274833D01*
X123044661Y-113214765D01*
X123027782Y-113152429D01*
X123027607Y-113119166D01*
X123027567Y-113111547D01*
X123002239Y-113010979D01*
X122990323Y-113010683D01*
X122990322Y-113010683D01*
X121271451Y-112968047D01*
X121271450Y-112968047D01*
X121253342Y-112967598D01*
X121248812Y-113103104D01*
X121245325Y-113207419D01*
X121223058Y-113274833D01*
X121167879Y-113319507D01*
X121120866Y-113329200D01*
X120265717Y-113339184D01*
X120197367Y-113319979D01*
X120150251Y-113266870D01*
X120138250Y-113214168D01*
X120127455Y-111819775D01*
X120127315Y-111801657D01*
X120113552Y-111801858D01*
X120113551Y-111801858D01*
X118887561Y-111819775D01*
X118214385Y-111829613D01*
X118145979Y-111810608D01*
X118098707Y-111757638D01*
X118086546Y-111704386D01*
X118077074Y-110133316D01*
X118070000Y-108960000D01*
X114300466Y-108961067D01*
X114230428Y-108939831D01*
X114184998Y-108909475D01*
X114184995Y-108909474D01*
X114174678Y-108902580D01*
X114162509Y-108900159D01*
X114162508Y-108900159D01*
X114122263Y-108892154D01*
X114116195Y-108890947D01*
X113222447Y-108890947D01*
X113154326Y-108870945D01*
X113107833Y-108817289D01*
X113096447Y-108764947D01*
X113096447Y-108417947D01*
X113116449Y-108349826D01*
X113170105Y-108303333D01*
X113222447Y-108291947D01*
X113456910Y-108291947D01*
X113463061Y-108292097D01*
X113463852Y-108292136D01*
X113466915Y-108292436D01*
X114605198Y-108292436D01*
X114607871Y-108292632D01*
X114612906Y-108294361D01*
X114624528Y-108293925D01*
X114624530Y-108293925D01*
X114661819Y-108292525D01*
X114666545Y-108292436D01*
X114685512Y-108292436D01*
X114690247Y-108291554D01*
X114693773Y-108291326D01*
X114697513Y-108291185D01*
X114724772Y-108290162D01*
X114735457Y-108285572D01*
X114740057Y-108284535D01*
X114751779Y-108280974D01*
X114756183Y-108279275D01*
X114767617Y-108277145D01*
X114777240Y-108271213D01*
X114822375Y-108262825D01*
X115851091Y-108263622D01*
X116001893Y-108263739D01*
X116020010Y-108263753D01*
X116001207Y-104219513D01*
X114737801Y-104241588D01*
X114378034Y-104247874D01*
X114309574Y-104229065D01*
X114271068Y-104191895D01*
X114247892Y-104157210D01*
X114247890Y-104157208D01*
X114240999Y-104146895D01*
X114174678Y-104102580D01*
X114162509Y-104100159D01*
X114162508Y-104100159D01*
X114122263Y-104092154D01*
X114116195Y-104090947D01*
X113222447Y-104090947D01*
X113154326Y-104070945D01*
X113107833Y-104017289D01*
X113096447Y-103964947D01*
X113096447Y-103617947D01*
X113116449Y-103549826D01*
X113170105Y-103503333D01*
X113222447Y-103491947D01*
X114116195Y-103491947D01*
X114122263Y-103490740D01*
X114162508Y-103482735D01*
X114162509Y-103482735D01*
X114174678Y-103480314D01*
X114240999Y-103435999D01*
X114247890Y-103425686D01*
X114247893Y-103425683D01*
X114255321Y-103414567D01*
X114309799Y-103369041D01*
X114359826Y-103358572D01*
X117039219Y-103353078D01*
X118021460Y-103351064D01*
X117976477Y-96768923D01*
X117996013Y-96700667D01*
X118049350Y-96653809D01*
X118101743Y-96642064D01*
X119148076Y-96636011D01*
X119377710Y-96634683D01*
X119445945Y-96654291D01*
G37*
%TD.AperFunction*%
%TD*%
%TA.AperFunction,Conductor*%
%TO.N,GND*%
G36*
X130781244Y-100520488D02*
G01*
X130828178Y-100573758D01*
X130840000Y-100627044D01*
X130840000Y-102860000D01*
X130853807Y-102859886D01*
X131231026Y-102856770D01*
X131231556Y-102856767D01*
X131913839Y-102854000D01*
X132900000Y-102850000D01*
X132897363Y-102688565D01*
X132897359Y-102684706D01*
X132898203Y-102625651D01*
X132919176Y-102557823D01*
X132973491Y-102512102D01*
X133025655Y-102501461D01*
X133368673Y-102505450D01*
X133635465Y-102508552D01*
X133703349Y-102529344D01*
X133749214Y-102583537D01*
X133760000Y-102634543D01*
X133760000Y-103650000D01*
X139335266Y-103650000D01*
X139403387Y-103670002D01*
X139449880Y-103723658D01*
X139461260Y-103774726D01*
X139480000Y-105630000D01*
X139530307Y-106454946D01*
X139532140Y-106485012D01*
X139516322Y-106554223D01*
X139465596Y-106603896D01*
X139405789Y-106618680D01*
X131013875Y-106579682D01*
X130945848Y-106559363D01*
X130899605Y-106505492D01*
X130888467Y-106454946D01*
X130880182Y-105628114D01*
X130880181Y-105628112D01*
X130880000Y-105610000D01*
X125841950Y-105611452D01*
X125773824Y-105591470D01*
X125727315Y-105537827D01*
X125715919Y-105486571D01*
X125710161Y-104838114D01*
X125710161Y-104838113D01*
X125710000Y-104820000D01*
X122256000Y-104820000D01*
X122187879Y-104799998D01*
X122141386Y-104746342D01*
X122130000Y-104694000D01*
X122130000Y-104060000D01*
X120880595Y-104060000D01*
X120879450Y-104059995D01*
X119847810Y-104050616D01*
X119779873Y-104029995D01*
X119733870Y-103975919D01*
X119722955Y-103924296D01*
X119723342Y-103774727D01*
X119731164Y-100746089D01*
X119751342Y-100678021D01*
X119805118Y-100631667D01*
X119857602Y-100620416D01*
X122572046Y-100629845D01*
X122640096Y-100650083D01*
X122686402Y-100703900D01*
X122697606Y-100755426D01*
X122700000Y-101480000D01*
X125632047Y-101480000D01*
X125700168Y-101500002D01*
X125746661Y-101553658D01*
X125758032Y-101607937D01*
X125750000Y-102130000D01*
X127812087Y-102068626D01*
X128646262Y-102043798D01*
X128664370Y-102043259D01*
X128655133Y-101500002D01*
X128640598Y-100645247D01*
X128659439Y-100576796D01*
X128712297Y-100529398D01*
X128765541Y-100517109D01*
X130712961Y-100501048D01*
X130781244Y-100520488D01*
G37*
%TD.AperFunction*%
%TD*%
%TA.AperFunction,Conductor*%
%TO.N,GND*%
G36*
X146028256Y-107191152D02*
G01*
X146074898Y-107244677D01*
X146086431Y-107297516D01*
X146080538Y-111492444D01*
X146060440Y-111560537D01*
X146006719Y-111606954D01*
X145954926Y-111618266D01*
X135777243Y-111649608D01*
X135709061Y-111629816D01*
X135662403Y-111576304D01*
X135650858Y-111522760D01*
X135679159Y-107324803D01*
X135699620Y-107256818D01*
X135753588Y-107210688D01*
X135804805Y-107199652D01*
X136393034Y-107198012D01*
X145960080Y-107171339D01*
X146028256Y-107191152D01*
G37*
%TD.AperFunction*%
%TD*%
%TA.AperFunction,Conductor*%
%TO.N,/VBus_Out*%
G36*
X146021511Y-111851853D02*
G01*
X146068252Y-111905292D01*
X146079883Y-111958343D01*
X146070052Y-118955818D01*
X146068046Y-118973388D01*
X146068037Y-118978706D01*
X146064857Y-118992535D01*
X146067989Y-119006374D01*
X146067987Y-119007365D01*
X146067380Y-119019497D01*
X146055845Y-119136612D01*
X146051028Y-119160832D01*
X146012706Y-119287166D01*
X146003253Y-119309986D01*
X145941026Y-119426404D01*
X145927303Y-119446941D01*
X145843558Y-119548985D01*
X145826092Y-119566451D01*
X145724048Y-119650196D01*
X145703511Y-119663919D01*
X145587093Y-119726146D01*
X145564274Y-119735599D01*
X145437939Y-119773921D01*
X145413722Y-119778737D01*
X145316147Y-119788348D01*
X145296102Y-119790322D01*
X145284070Y-119790903D01*
X145270358Y-119787750D01*
X145256517Y-119790882D01*
X145251855Y-119790874D01*
X145233512Y-119792933D01*
X123483896Y-119816948D01*
X123415753Y-119797021D01*
X123369201Y-119743417D01*
X123361452Y-119677251D01*
X123358686Y-119676979D01*
X123359293Y-119670816D01*
X123360500Y-119664748D01*
X123360500Y-118355252D01*
X123352421Y-118314636D01*
X123350000Y-118290055D01*
X123350000Y-118209609D01*
X123370002Y-118141488D01*
X123427782Y-118093200D01*
X123472841Y-118074536D01*
X123549078Y-118016037D01*
X123615300Y-117990437D01*
X123625783Y-117990000D01*
X126022625Y-117990000D01*
X126039071Y-117991078D01*
X126150000Y-118005682D01*
X126158188Y-118004604D01*
X126260929Y-117991078D01*
X126277375Y-117990000D01*
X128940000Y-117990000D01*
X135614187Y-111912610D01*
X135678021Y-111881536D01*
X135698432Y-111879775D01*
X145953298Y-111832167D01*
X146021511Y-111851853D01*
G37*
%TD.AperFunction*%
%TD*%
%TA.AperFunction,Conductor*%
%TO.N,/+3.3V_Pre*%
G36*
X139292823Y-98270002D02*
G01*
X139339316Y-98323658D01*
X139350700Y-98375296D01*
X139355936Y-99312450D01*
X139359286Y-99912117D01*
X139339665Y-99980348D01*
X139286270Y-100027140D01*
X139232121Y-100038816D01*
X137200000Y-100020000D01*
X137199911Y-100033633D01*
X137178667Y-103279099D01*
X137158220Y-103347087D01*
X137104261Y-103393228D01*
X137053111Y-103404273D01*
X134087853Y-103414661D01*
X134019664Y-103394898D01*
X133972983Y-103341405D01*
X133961419Y-103287457D01*
X133969827Y-102408117D01*
X133969827Y-102408116D01*
X133970000Y-102390000D01*
X132599045Y-102403249D01*
X132599565Y-102417628D01*
X132603629Y-102530048D01*
X132586101Y-102598847D01*
X132534160Y-102647248D01*
X132478292Y-102660599D01*
X131145309Y-102666736D01*
X131077098Y-102647047D01*
X131030359Y-102593606D01*
X131018731Y-102541287D01*
X131010464Y-100647240D01*
X131030169Y-100579033D01*
X131083621Y-100532306D01*
X131136967Y-100520691D01*
X132282882Y-100525272D01*
X132316476Y-100529972D01*
X133251452Y-100792800D01*
X133251455Y-100792800D01*
X133259838Y-100795157D01*
X133268548Y-100795138D01*
X133268550Y-100795138D01*
X135017728Y-100791267D01*
X135590000Y-100790000D01*
X135593634Y-100353701D01*
X135601292Y-99434204D01*
X135621861Y-99366252D01*
X135675902Y-99320207D01*
X135724023Y-99309295D01*
X137240000Y-99270000D01*
X137266403Y-98372296D01*
X137288400Y-98304792D01*
X137343399Y-98259897D01*
X137392349Y-98250000D01*
X139224702Y-98250000D01*
X139292823Y-98270002D01*
G37*
%TD.AperFunction*%
%TD*%
%TA.AperFunction,Conductor*%
%TO.N,/VBUS_Rdy*%
G36*
X121289250Y-96810002D02*
G01*
X121335743Y-96863658D01*
X121347097Y-96918837D01*
X121339149Y-97271512D01*
X121353363Y-97271535D01*
X123386648Y-97274809D01*
X126486531Y-97279801D01*
X126554618Y-97299913D01*
X126601025Y-97353643D01*
X126611602Y-97402456D01*
X126612282Y-97402438D01*
X126622468Y-97783516D01*
X126604293Y-97852147D01*
X126596475Y-97863587D01*
X126553490Y-97919606D01*
X126553488Y-97919609D01*
X126548460Y-97926162D01*
X126487952Y-98072241D01*
X126467314Y-98229003D01*
X126468392Y-98237191D01*
X126485877Y-98370000D01*
X126487952Y-98385765D01*
X126548460Y-98531844D01*
X126553487Y-98538395D01*
X126620964Y-98626333D01*
X126646956Y-98699670D01*
X126674099Y-99715159D01*
X126687168Y-99715006D01*
X126687170Y-99715006D01*
X127670906Y-99703460D01*
X128321772Y-99695821D01*
X128390122Y-99715022D01*
X128437241Y-99768128D01*
X128449248Y-99821147D01*
X128456109Y-101122032D01*
X128459348Y-101736304D01*
X128439706Y-101804529D01*
X128386296Y-101851304D01*
X128336338Y-101862933D01*
X126313766Y-101910899D01*
X126057384Y-101916979D01*
X125988808Y-101898597D01*
X125941057Y-101846059D01*
X125928407Y-101792589D01*
X125920000Y-101120000D01*
X123331878Y-101186852D01*
X123263263Y-101168616D01*
X123215400Y-101116178D01*
X123202841Y-101068293D01*
X123161064Y-100358084D01*
X123161064Y-100358083D01*
X123160000Y-100340000D01*
X123148415Y-100339967D01*
X123148413Y-100339967D01*
X119892457Y-100330814D01*
X119824393Y-100310620D01*
X119778051Y-100256834D01*
X119766811Y-100205070D01*
X119765817Y-99715159D01*
X119761122Y-97402438D01*
X119760185Y-96941010D01*
X119780049Y-96872849D01*
X119833610Y-96826247D01*
X119846340Y-96821220D01*
X119920602Y-96796466D01*
X119960447Y-96790000D01*
X121221129Y-96790000D01*
X121289250Y-96810002D01*
G37*
%TD.AperFunction*%
%TD*%
%TA.AperFunction,Conductor*%
%TO.N,GND*%
G36*
X115438883Y-109136803D02*
G01*
X117700962Y-109162004D01*
X117768855Y-109182763D01*
X117814748Y-109236934D01*
X117825557Y-109287489D01*
X117837068Y-112150000D01*
X118162971Y-112148893D01*
X119743042Y-112143527D01*
X119811230Y-112163297D01*
X119857905Y-112216795D01*
X119869468Y-112268735D01*
X119870493Y-112432265D01*
X119876804Y-113438638D01*
X119876791Y-113441386D01*
X119873647Y-113643659D01*
X119873647Y-113643661D01*
X119873366Y-113661771D01*
X121450000Y-113670000D01*
X121443127Y-113388213D01*
X121461463Y-113319626D01*
X121513969Y-113271839D01*
X121568250Y-113259145D01*
X122587907Y-113252348D01*
X122645011Y-113267445D01*
X122645401Y-113267772D01*
X122746309Y-113304500D01*
X122768237Y-113304500D01*
X122836358Y-113324502D01*
X122882851Y-113378158D01*
X122892323Y-113408620D01*
X122909450Y-113505752D01*
X122963141Y-113598748D01*
X123045401Y-113667772D01*
X123055760Y-113671542D01*
X123055761Y-113671543D01*
X123083390Y-113681599D01*
X123140561Y-113723693D01*
X123165899Y-113790015D01*
X123151358Y-113859507D01*
X123101555Y-113910105D01*
X123083393Y-113918400D01*
X123045402Y-113932228D01*
X122963141Y-114001252D01*
X122909450Y-114094248D01*
X122890803Y-114200000D01*
X122909450Y-114305752D01*
X122914963Y-114315300D01*
X122932619Y-114345882D01*
X122949500Y-114408882D01*
X122949500Y-114802915D01*
X122947079Y-114827496D01*
X122944592Y-114840000D01*
X122964034Y-114937741D01*
X122970927Y-114948056D01*
X122970927Y-114948057D01*
X122979185Y-114960415D01*
X123000401Y-115028167D01*
X122996584Y-115059307D01*
X122994956Y-115063238D01*
X122974318Y-115220000D01*
X122975396Y-115228188D01*
X122994521Y-115373459D01*
X122995579Y-115392148D01*
X122993577Y-115504615D01*
X122972366Y-115572368D01*
X122917891Y-115617899D01*
X122865790Y-115628359D01*
X121974096Y-115615566D01*
X121976235Y-115633285D01*
X122052765Y-116267229D01*
X122041071Y-116337256D01*
X121993374Y-116389844D01*
X121926203Y-116408321D01*
X115272644Y-116330615D01*
X115204762Y-116309819D01*
X115183444Y-116292114D01*
X114670260Y-115760268D01*
X114669863Y-115759859D01*
X113354438Y-114408882D01*
X113224884Y-114275827D01*
X113191692Y-114213066D01*
X113189176Y-114190004D01*
X113174580Y-113304500D01*
X113162111Y-112548076D01*
X113180988Y-112479636D01*
X113233870Y-112432265D01*
X113288094Y-112420000D01*
X113510000Y-112420000D01*
X113508262Y-112163297D01*
X113499104Y-110811187D01*
X113499109Y-110808873D01*
X113507181Y-110112549D01*
X113507391Y-110094435D01*
X113492349Y-110094970D01*
X113492348Y-110094970D01*
X113432729Y-110097092D01*
X113305789Y-110101609D01*
X113244588Y-110088200D01*
X113235474Y-110083605D01*
X113235471Y-110083604D01*
X113228096Y-110079886D01*
X113220010Y-110078204D01*
X113220008Y-110078203D01*
X113196782Y-110073371D01*
X113134163Y-110039913D01*
X113099575Y-109977912D01*
X113096447Y-109950013D01*
X113096447Y-109238119D01*
X113116449Y-109169998D01*
X113170105Y-109123505D01*
X113223849Y-109112127D01*
X115438883Y-109136803D01*
G37*
%TD.AperFunction*%
%TA.AperFunction,Conductor*%
G36*
X123844487Y-113670283D02*
G01*
X123845401Y-113667772D01*
X123883390Y-113681599D01*
X123940561Y-113723693D01*
X123965899Y-113790015D01*
X123951358Y-113859507D01*
X123901555Y-113910105D01*
X123883393Y-113918400D01*
X123845403Y-113932228D01*
X123844171Y-113928843D01*
X123794031Y-113941018D01*
X123755515Y-113929712D01*
X123754599Y-113932228D01*
X123716610Y-113918401D01*
X123659439Y-113876307D01*
X123634101Y-113809985D01*
X123648642Y-113740493D01*
X123698445Y-113689895D01*
X123716610Y-113681599D01*
X123754599Y-113667772D01*
X123755829Y-113671153D01*
X123806010Y-113658985D01*
X123844487Y-113670283D01*
G37*
%TD.AperFunction*%
%TA.AperFunction,Conductor*%
G36*
X123444487Y-113670283D02*
G01*
X123445401Y-113667772D01*
X123483390Y-113681599D01*
X123540561Y-113723693D01*
X123565899Y-113790015D01*
X123551358Y-113859507D01*
X123501555Y-113910105D01*
X123483393Y-113918400D01*
X123445403Y-113932228D01*
X123444171Y-113928843D01*
X123394031Y-113941018D01*
X123355515Y-113929712D01*
X123354599Y-113932228D01*
X123316610Y-113918401D01*
X123259439Y-113876307D01*
X123234101Y-113809985D01*
X123248642Y-113740493D01*
X123298445Y-113689895D01*
X123316610Y-113681599D01*
X123354599Y-113667772D01*
X123355829Y-113671153D01*
X123406010Y-113658985D01*
X123444487Y-113670283D01*
G37*
%TD.AperFunction*%
%TD*%
%TA.AperFunction,Conductor*%
%TO.N,/Vbus_pre*%
G36*
X118134972Y-116688982D02*
G01*
X119685708Y-116717699D01*
X119753446Y-116738959D01*
X119798937Y-116793466D01*
X119809373Y-116844263D01*
X119803209Y-118169984D01*
X119800000Y-118860000D01*
X121190000Y-118860000D01*
X121196906Y-118275752D01*
X121217712Y-118207873D01*
X121271913Y-118162018D01*
X121324163Y-118151248D01*
X121405114Y-118152062D01*
X123044376Y-118168537D01*
X123112293Y-118189223D01*
X123158244Y-118243343D01*
X123166689Y-118319111D01*
X123159500Y-118355252D01*
X123159500Y-119664748D01*
X123160707Y-119670816D01*
X123161314Y-119676979D01*
X123158997Y-119677207D01*
X123153586Y-119737591D01*
X123110024Y-119793652D01*
X123036480Y-119817442D01*
X118560400Y-119822385D01*
X113996138Y-119827425D01*
X113927996Y-119807498D01*
X113881444Y-119753894D01*
X113870000Y-119701425D01*
X113870000Y-116738355D01*
X113890002Y-116670234D01*
X113943658Y-116623741D01*
X113998333Y-116612377D01*
X118134972Y-116688982D01*
G37*
%TD.AperFunction*%
%TD*%
%TA.AperFunction,Conductor*%
%TO.N,/Vbus_pre*%
G36*
X125443619Y-111060600D02*
G01*
X125490366Y-111114034D01*
X125501989Y-111165105D01*
X125525552Y-112801162D01*
X125525202Y-112812079D01*
X125524500Y-112816512D01*
X125524500Y-113383488D01*
X125525275Y-113388380D01*
X125537080Y-113462919D01*
X125538597Y-113479699D01*
X125545629Y-113782062D01*
X125527216Y-113850630D01*
X125474656Y-113898358D01*
X125404636Y-113910093D01*
X125374502Y-113902621D01*
X125048016Y-113777274D01*
X124721529Y-113651926D01*
X124677596Y-113623394D01*
X124303297Y-113249096D01*
X124287627Y-113230002D01*
X124287436Y-113229716D01*
X124287434Y-113229714D01*
X124280542Y-113219399D01*
X124227477Y-113183943D01*
X124197683Y-113164035D01*
X124197706Y-113164001D01*
X124178769Y-113152509D01*
X124163044Y-113139314D01*
X124163043Y-113139314D01*
X124154599Y-113132228D01*
X124144240Y-113128458D01*
X124144239Y-113128457D01*
X124064052Y-113099271D01*
X124064051Y-113099271D01*
X124053691Y-113095500D01*
X123946309Y-113095500D01*
X123935950Y-113099270D01*
X123935947Y-113099271D01*
X123927348Y-113102401D01*
X123884253Y-113110000D01*
X123633283Y-113110000D01*
X123565162Y-113089998D01*
X123518669Y-113036342D01*
X123510706Y-112999734D01*
X123509197Y-113000000D01*
X123490550Y-112894248D01*
X123491213Y-112894131D01*
X123485901Y-112861755D01*
X123489244Y-112721389D01*
X123491122Y-112702509D01*
X123507283Y-112610855D01*
X123509197Y-112600000D01*
X123499008Y-112542213D01*
X123496342Y-112527092D01*
X123494464Y-112502214D01*
X123500257Y-112258930D01*
X123502135Y-112240049D01*
X123504701Y-112225500D01*
X123509197Y-112200000D01*
X123507283Y-112189145D01*
X123507283Y-112189142D01*
X123504734Y-112174685D01*
X123502856Y-112149807D01*
X123526095Y-111173989D01*
X123547713Y-111106364D01*
X123602460Y-111061162D01*
X123652059Y-111050989D01*
X125099118Y-111050989D01*
X125101791Y-111051185D01*
X125106826Y-111052914D01*
X125118448Y-111052478D01*
X125118450Y-111052478D01*
X125155739Y-111051078D01*
X125160465Y-111050989D01*
X125179432Y-111050989D01*
X125184167Y-111050107D01*
X125187693Y-111049879D01*
X125207066Y-111049152D01*
X125207069Y-111049151D01*
X125218692Y-111048715D01*
X125228669Y-111044429D01*
X125254467Y-111041495D01*
X125375405Y-111040921D01*
X125443619Y-111060600D01*
G37*
%TD.AperFunction*%
%TD*%
M02*
