%TF.GenerationSoftware,KiCad,Pcbnew,(6.0.2)*%
%TF.CreationDate,2022-07-06T09:12:25-05:00*%
%TF.ProjectId,pdsupply-PPS,70647375-7070-46c7-992d-5050532e6b69,rev?*%
%TF.SameCoordinates,Original*%
%TF.FileFunction,Copper,L4,Bot*%
%TF.FilePolarity,Positive*%
%FSLAX46Y46*%
G04 Gerber Fmt 4.6, Leading zero omitted, Abs format (unit mm)*
G04 Created by KiCad (PCBNEW (6.0.2)) date 2022-07-06 09:12:25*
%MOMM*%
%LPD*%
G01*
G04 APERTURE LIST*
G04 Aperture macros list*
%AMRoundRect*
0 Rectangle with rounded corners*
0 $1 Rounding radius*
0 $2 $3 $4 $5 $6 $7 $8 $9 X,Y pos of 4 corners*
0 Add a 4 corners polygon primitive as box body*
4,1,4,$2,$3,$4,$5,$6,$7,$8,$9,$2,$3,0*
0 Add four circle primitives for the rounded corners*
1,1,$1+$1,$2,$3*
1,1,$1+$1,$4,$5*
1,1,$1+$1,$6,$7*
1,1,$1+$1,$8,$9*
0 Add four rect primitives between the rounded corners*
20,1,$1+$1,$2,$3,$4,$5,0*
20,1,$1+$1,$4,$5,$6,$7,0*
20,1,$1+$1,$6,$7,$8,$9,0*
20,1,$1+$1,$8,$9,$2,$3,0*%
G04 Aperture macros list end*
%TA.AperFunction,EtchedComponent*%
%ADD10C,0.010000*%
%TD*%
%TA.AperFunction,ComponentPad*%
%ADD11O,1.900000X0.950000*%
%TD*%
%TA.AperFunction,ComponentPad*%
%ADD12O,1.600000X0.800000*%
%TD*%
%TA.AperFunction,ComponentPad*%
%ADD13R,2.600000X2.600000*%
%TD*%
%TA.AperFunction,ComponentPad*%
%ADD14C,2.600000*%
%TD*%
%TA.AperFunction,ComponentPad*%
%ADD15C,6.000000*%
%TD*%
%TA.AperFunction,ComponentPad*%
%ADD16O,0.950000X1.900000*%
%TD*%
%TA.AperFunction,ComponentPad*%
%ADD17O,0.800000X1.600000*%
%TD*%
%TA.AperFunction,SMDPad,CuDef*%
%ADD18RoundRect,0.218750X-0.256250X0.218750X-0.256250X-0.218750X0.256250X-0.218750X0.256250X0.218750X0*%
%TD*%
%TA.AperFunction,SMDPad,CuDef*%
%ADD19RoundRect,0.200000X0.275000X-0.200000X0.275000X0.200000X-0.275000X0.200000X-0.275000X-0.200000X0*%
%TD*%
%TA.AperFunction,SMDPad,CuDef*%
%ADD20RoundRect,0.200000X-0.275000X0.200000X-0.275000X-0.200000X0.275000X-0.200000X0.275000X0.200000X0*%
%TD*%
%TA.AperFunction,SMDPad,CuDef*%
%ADD21RoundRect,0.225000X-0.250000X0.225000X-0.250000X-0.225000X0.250000X-0.225000X0.250000X0.225000X0*%
%TD*%
%TA.AperFunction,ViaPad*%
%ADD22C,0.800000*%
%TD*%
%TA.AperFunction,Conductor*%
%ADD23C,0.300000*%
%TD*%
%TA.AperFunction,Conductor*%
%ADD24C,0.200000*%
%TD*%
%TA.AperFunction,Conductor*%
%ADD25C,0.500000*%
%TD*%
G04 APERTURE END LIST*
D10*
%TO.C,J1*%
X107296447Y-100571447D02*
X107297447Y-100545447D01*
X107297447Y-100545447D02*
X107299447Y-100519447D01*
X107299447Y-100519447D02*
X107302447Y-100493447D01*
X107302447Y-100493447D02*
X107307447Y-100467447D01*
X107307447Y-100467447D02*
X107313447Y-100442447D01*
X107313447Y-100442447D02*
X107320447Y-100416447D01*
X107320447Y-100416447D02*
X107329447Y-100392447D01*
X107329447Y-100392447D02*
X107339447Y-100368447D01*
X107339447Y-100368447D02*
X107350447Y-100344447D01*
X107350447Y-100344447D02*
X107363447Y-100321447D01*
X107363447Y-100321447D02*
X107377447Y-100299447D01*
X107377447Y-100299447D02*
X107391447Y-100277447D01*
X107391447Y-100277447D02*
X107407447Y-100256447D01*
X107407447Y-100256447D02*
X107424447Y-100236447D01*
X107424447Y-100236447D02*
X107442447Y-100217447D01*
X107442447Y-100217447D02*
X107461447Y-100199447D01*
X107461447Y-100199447D02*
X107481447Y-100182447D01*
X107481447Y-100182447D02*
X107502447Y-100166447D01*
X107502447Y-100166447D02*
X107524447Y-100152447D01*
X107524447Y-100152447D02*
X107546447Y-100138447D01*
X107546447Y-100138447D02*
X107569447Y-100125447D01*
X107569447Y-100125447D02*
X107593447Y-100114447D01*
X107593447Y-100114447D02*
X107617447Y-100104447D01*
X107617447Y-100104447D02*
X107641447Y-100095447D01*
X107641447Y-100095447D02*
X107667447Y-100088447D01*
X107667447Y-100088447D02*
X107692447Y-100082447D01*
X107692447Y-100082447D02*
X107718447Y-100077447D01*
X107718447Y-100077447D02*
X107744447Y-100074447D01*
X107744447Y-100074447D02*
X107770447Y-100072447D01*
X107770447Y-100072447D02*
X107796447Y-100071447D01*
X107796447Y-100071447D02*
X108996447Y-100071447D01*
X108996447Y-100071447D02*
X109022447Y-100072447D01*
X109022447Y-100072447D02*
X109048447Y-100074447D01*
X109048447Y-100074447D02*
X109074447Y-100077447D01*
X109074447Y-100077447D02*
X109100447Y-100082447D01*
X109100447Y-100082447D02*
X109125447Y-100088447D01*
X109125447Y-100088447D02*
X109151447Y-100095447D01*
X109151447Y-100095447D02*
X109175447Y-100104447D01*
X109175447Y-100104447D02*
X109199447Y-100114447D01*
X109199447Y-100114447D02*
X109223447Y-100125447D01*
X109223447Y-100125447D02*
X109246447Y-100138447D01*
X109246447Y-100138447D02*
X109268447Y-100152447D01*
X109268447Y-100152447D02*
X109290447Y-100166447D01*
X109290447Y-100166447D02*
X109311447Y-100182447D01*
X109311447Y-100182447D02*
X109331447Y-100199447D01*
X109331447Y-100199447D02*
X109350447Y-100217447D01*
X109350447Y-100217447D02*
X109368447Y-100236447D01*
X109368447Y-100236447D02*
X109385447Y-100256447D01*
X109385447Y-100256447D02*
X109401447Y-100277447D01*
X109401447Y-100277447D02*
X109415447Y-100299447D01*
X109415447Y-100299447D02*
X109429447Y-100321447D01*
X109429447Y-100321447D02*
X109442447Y-100344447D01*
X109442447Y-100344447D02*
X109453447Y-100368447D01*
X109453447Y-100368447D02*
X109463447Y-100392447D01*
X109463447Y-100392447D02*
X109472447Y-100416447D01*
X109472447Y-100416447D02*
X109479447Y-100442447D01*
X109479447Y-100442447D02*
X109485447Y-100467447D01*
X109485447Y-100467447D02*
X109490447Y-100493447D01*
X109490447Y-100493447D02*
X109493447Y-100519447D01*
X109493447Y-100519447D02*
X109495447Y-100545447D01*
X109495447Y-100545447D02*
X109496447Y-100571447D01*
X109496447Y-100571447D02*
X109495447Y-100597447D01*
X109495447Y-100597447D02*
X109493447Y-100623447D01*
X109493447Y-100623447D02*
X109490447Y-100649447D01*
X109490447Y-100649447D02*
X109485447Y-100675447D01*
X109485447Y-100675447D02*
X109479447Y-100700447D01*
X109479447Y-100700447D02*
X109472447Y-100726447D01*
X109472447Y-100726447D02*
X109463447Y-100750447D01*
X109463447Y-100750447D02*
X109453447Y-100774447D01*
X109453447Y-100774447D02*
X109442447Y-100798447D01*
X109442447Y-100798447D02*
X109429447Y-100821447D01*
X109429447Y-100821447D02*
X109415447Y-100843447D01*
X109415447Y-100843447D02*
X109401447Y-100865447D01*
X109401447Y-100865447D02*
X109385447Y-100886447D01*
X109385447Y-100886447D02*
X109368447Y-100906447D01*
X109368447Y-100906447D02*
X109350447Y-100925447D01*
X109350447Y-100925447D02*
X109331447Y-100943447D01*
X109331447Y-100943447D02*
X109311447Y-100960447D01*
X109311447Y-100960447D02*
X109290447Y-100976447D01*
X109290447Y-100976447D02*
X109268447Y-100990447D01*
X109268447Y-100990447D02*
X109246447Y-101004447D01*
X109246447Y-101004447D02*
X109223447Y-101017447D01*
X109223447Y-101017447D02*
X109199447Y-101028447D01*
X109199447Y-101028447D02*
X109175447Y-101038447D01*
X109175447Y-101038447D02*
X109151447Y-101047447D01*
X109151447Y-101047447D02*
X109125447Y-101054447D01*
X109125447Y-101054447D02*
X109100447Y-101060447D01*
X109100447Y-101060447D02*
X109074447Y-101065447D01*
X109074447Y-101065447D02*
X109048447Y-101068447D01*
X109048447Y-101068447D02*
X109022447Y-101070447D01*
X109022447Y-101070447D02*
X108996447Y-101071447D01*
X108996447Y-101071447D02*
X107796447Y-101071447D01*
X107796447Y-101071447D02*
X107770447Y-101070447D01*
X107770447Y-101070447D02*
X107744447Y-101068447D01*
X107744447Y-101068447D02*
X107718447Y-101065447D01*
X107718447Y-101065447D02*
X107692447Y-101060447D01*
X107692447Y-101060447D02*
X107667447Y-101054447D01*
X107667447Y-101054447D02*
X107641447Y-101047447D01*
X107641447Y-101047447D02*
X107617447Y-101038447D01*
X107617447Y-101038447D02*
X107593447Y-101028447D01*
X107593447Y-101028447D02*
X107569447Y-101017447D01*
X107569447Y-101017447D02*
X107546447Y-101004447D01*
X107546447Y-101004447D02*
X107524447Y-100990447D01*
X107524447Y-100990447D02*
X107502447Y-100976447D01*
X107502447Y-100976447D02*
X107481447Y-100960447D01*
X107481447Y-100960447D02*
X107461447Y-100943447D01*
X107461447Y-100943447D02*
X107442447Y-100925447D01*
X107442447Y-100925447D02*
X107424447Y-100906447D01*
X107424447Y-100906447D02*
X107407447Y-100886447D01*
X107407447Y-100886447D02*
X107391447Y-100865447D01*
X107391447Y-100865447D02*
X107377447Y-100843447D01*
X107377447Y-100843447D02*
X107363447Y-100821447D01*
X107363447Y-100821447D02*
X107350447Y-100798447D01*
X107350447Y-100798447D02*
X107339447Y-100774447D01*
X107339447Y-100774447D02*
X107329447Y-100750447D01*
X107329447Y-100750447D02*
X107320447Y-100726447D01*
X107320447Y-100726447D02*
X107313447Y-100700447D01*
X107313447Y-100700447D02*
X107307447Y-100675447D01*
X107307447Y-100675447D02*
X107302447Y-100649447D01*
X107302447Y-100649447D02*
X107299447Y-100623447D01*
X107299447Y-100623447D02*
X107297447Y-100597447D01*
X107297447Y-100597447D02*
X107296447Y-100571447D01*
X107296447Y-100571447D02*
X107296447Y-100571447D01*
G36*
X109022447Y-100072447D02*
G01*
X109048447Y-100074447D01*
X109074447Y-100077447D01*
X109100447Y-100082447D01*
X109125447Y-100088447D01*
X109151447Y-100095447D01*
X109175447Y-100104447D01*
X109199447Y-100114447D01*
X109223447Y-100125447D01*
X109246447Y-100138447D01*
X109290447Y-100166447D01*
X109311447Y-100182447D01*
X109331447Y-100199447D01*
X109350447Y-100217447D01*
X109368447Y-100236447D01*
X109385447Y-100256447D01*
X109401447Y-100277447D01*
X109429447Y-100321447D01*
X109442447Y-100344447D01*
X109453447Y-100368447D01*
X109463447Y-100392447D01*
X109472447Y-100416447D01*
X109479447Y-100442447D01*
X109485447Y-100467447D01*
X109490447Y-100493447D01*
X109493447Y-100519447D01*
X109495447Y-100545447D01*
X109496447Y-100571447D01*
X109495447Y-100597447D01*
X109493447Y-100623447D01*
X109490447Y-100649447D01*
X109485447Y-100675447D01*
X109479447Y-100700447D01*
X109472447Y-100726447D01*
X109463447Y-100750447D01*
X109453447Y-100774447D01*
X109442447Y-100798447D01*
X109429447Y-100821447D01*
X109401447Y-100865447D01*
X109385447Y-100886447D01*
X109368447Y-100906447D01*
X109350447Y-100925447D01*
X109331447Y-100943447D01*
X109311447Y-100960447D01*
X109290447Y-100976447D01*
X109246447Y-101004447D01*
X109223447Y-101017447D01*
X109199447Y-101028447D01*
X109175447Y-101038447D01*
X109151447Y-101047447D01*
X109125447Y-101054447D01*
X109100447Y-101060447D01*
X109074447Y-101065447D01*
X109048447Y-101068447D01*
X109022447Y-101070447D01*
X108996447Y-101071447D01*
X107796447Y-101071447D01*
X107770447Y-101070447D01*
X107744447Y-101068447D01*
X107718447Y-101065447D01*
X107692447Y-101060447D01*
X107667447Y-101054447D01*
X107641447Y-101047447D01*
X107617447Y-101038447D01*
X107593447Y-101028447D01*
X107569447Y-101017447D01*
X107546447Y-101004447D01*
X107502447Y-100976447D01*
X107481447Y-100960447D01*
X107461447Y-100943447D01*
X107442447Y-100925447D01*
X107424447Y-100906447D01*
X107407447Y-100886447D01*
X107391447Y-100865447D01*
X107363447Y-100821447D01*
X107350447Y-100798447D01*
X107339447Y-100774447D01*
X107329447Y-100750447D01*
X107320447Y-100726447D01*
X107313447Y-100700447D01*
X107307447Y-100675447D01*
X107302447Y-100649447D01*
X107299447Y-100623447D01*
X107297447Y-100597447D01*
X107296447Y-100571447D01*
X107297447Y-100545447D01*
X107299447Y-100519447D01*
X107302447Y-100493447D01*
X107307447Y-100467447D01*
X107313447Y-100442447D01*
X107320447Y-100416447D01*
X107329447Y-100392447D01*
X107339447Y-100368447D01*
X107350447Y-100344447D01*
X107363447Y-100321447D01*
X107391447Y-100277447D01*
X107407447Y-100256447D01*
X107424447Y-100236447D01*
X107442447Y-100217447D01*
X107461447Y-100199447D01*
X107481447Y-100182447D01*
X107502447Y-100166447D01*
X107546447Y-100138447D01*
X107569447Y-100125447D01*
X107593447Y-100114447D01*
X107617447Y-100104447D01*
X107641447Y-100095447D01*
X107667447Y-100088447D01*
X107692447Y-100082447D01*
X107718447Y-100077447D01*
X107744447Y-100074447D01*
X107770447Y-100072447D01*
X107796447Y-100071447D01*
X108996447Y-100071447D01*
X109022447Y-100072447D01*
G37*
X109022447Y-100072447D02*
X109048447Y-100074447D01*
X109074447Y-100077447D01*
X109100447Y-100082447D01*
X109125447Y-100088447D01*
X109151447Y-100095447D01*
X109175447Y-100104447D01*
X109199447Y-100114447D01*
X109223447Y-100125447D01*
X109246447Y-100138447D01*
X109290447Y-100166447D01*
X109311447Y-100182447D01*
X109331447Y-100199447D01*
X109350447Y-100217447D01*
X109368447Y-100236447D01*
X109385447Y-100256447D01*
X109401447Y-100277447D01*
X109429447Y-100321447D01*
X109442447Y-100344447D01*
X109453447Y-100368447D01*
X109463447Y-100392447D01*
X109472447Y-100416447D01*
X109479447Y-100442447D01*
X109485447Y-100467447D01*
X109490447Y-100493447D01*
X109493447Y-100519447D01*
X109495447Y-100545447D01*
X109496447Y-100571447D01*
X109495447Y-100597447D01*
X109493447Y-100623447D01*
X109490447Y-100649447D01*
X109485447Y-100675447D01*
X109479447Y-100700447D01*
X109472447Y-100726447D01*
X109463447Y-100750447D01*
X109453447Y-100774447D01*
X109442447Y-100798447D01*
X109429447Y-100821447D01*
X109401447Y-100865447D01*
X109385447Y-100886447D01*
X109368447Y-100906447D01*
X109350447Y-100925447D01*
X109331447Y-100943447D01*
X109311447Y-100960447D01*
X109290447Y-100976447D01*
X109246447Y-101004447D01*
X109223447Y-101017447D01*
X109199447Y-101028447D01*
X109175447Y-101038447D01*
X109151447Y-101047447D01*
X109125447Y-101054447D01*
X109100447Y-101060447D01*
X109074447Y-101065447D01*
X109048447Y-101068447D01*
X109022447Y-101070447D01*
X108996447Y-101071447D01*
X107796447Y-101071447D01*
X107770447Y-101070447D01*
X107744447Y-101068447D01*
X107718447Y-101065447D01*
X107692447Y-101060447D01*
X107667447Y-101054447D01*
X107641447Y-101047447D01*
X107617447Y-101038447D01*
X107593447Y-101028447D01*
X107569447Y-101017447D01*
X107546447Y-101004447D01*
X107502447Y-100976447D01*
X107481447Y-100960447D01*
X107461447Y-100943447D01*
X107442447Y-100925447D01*
X107424447Y-100906447D01*
X107407447Y-100886447D01*
X107391447Y-100865447D01*
X107363447Y-100821447D01*
X107350447Y-100798447D01*
X107339447Y-100774447D01*
X107329447Y-100750447D01*
X107320447Y-100726447D01*
X107313447Y-100700447D01*
X107307447Y-100675447D01*
X107302447Y-100649447D01*
X107299447Y-100623447D01*
X107297447Y-100597447D01*
X107296447Y-100571447D01*
X107297447Y-100545447D01*
X107299447Y-100519447D01*
X107302447Y-100493447D01*
X107307447Y-100467447D01*
X107313447Y-100442447D01*
X107320447Y-100416447D01*
X107329447Y-100392447D01*
X107339447Y-100368447D01*
X107350447Y-100344447D01*
X107363447Y-100321447D01*
X107391447Y-100277447D01*
X107407447Y-100256447D01*
X107424447Y-100236447D01*
X107442447Y-100217447D01*
X107461447Y-100199447D01*
X107481447Y-100182447D01*
X107502447Y-100166447D01*
X107546447Y-100138447D01*
X107569447Y-100125447D01*
X107593447Y-100114447D01*
X107617447Y-100104447D01*
X107641447Y-100095447D01*
X107667447Y-100088447D01*
X107692447Y-100082447D01*
X107718447Y-100077447D01*
X107744447Y-100074447D01*
X107770447Y-100072447D01*
X107796447Y-100071447D01*
X108996447Y-100071447D01*
X109022447Y-100072447D01*
X111496447Y-111811447D02*
X111497447Y-111785447D01*
X111497447Y-111785447D02*
X111499447Y-111759447D01*
X111499447Y-111759447D02*
X111502447Y-111733447D01*
X111502447Y-111733447D02*
X111507447Y-111707447D01*
X111507447Y-111707447D02*
X111513447Y-111682447D01*
X111513447Y-111682447D02*
X111520447Y-111656447D01*
X111520447Y-111656447D02*
X111529447Y-111632447D01*
X111529447Y-111632447D02*
X111539447Y-111608447D01*
X111539447Y-111608447D02*
X111550447Y-111584447D01*
X111550447Y-111584447D02*
X111563447Y-111561447D01*
X111563447Y-111561447D02*
X111577447Y-111539447D01*
X111577447Y-111539447D02*
X111591447Y-111517447D01*
X111591447Y-111517447D02*
X111607447Y-111496447D01*
X111607447Y-111496447D02*
X111624447Y-111476447D01*
X111624447Y-111476447D02*
X111642447Y-111457447D01*
X111642447Y-111457447D02*
X111661447Y-111439447D01*
X111661447Y-111439447D02*
X111681447Y-111422447D01*
X111681447Y-111422447D02*
X111702447Y-111406447D01*
X111702447Y-111406447D02*
X111724447Y-111392447D01*
X111724447Y-111392447D02*
X111746447Y-111378447D01*
X111746447Y-111378447D02*
X111769447Y-111365447D01*
X111769447Y-111365447D02*
X111793447Y-111354447D01*
X111793447Y-111354447D02*
X111817447Y-111344447D01*
X111817447Y-111344447D02*
X111841447Y-111335447D01*
X111841447Y-111335447D02*
X111867447Y-111328447D01*
X111867447Y-111328447D02*
X111892447Y-111322447D01*
X111892447Y-111322447D02*
X111918447Y-111317447D01*
X111918447Y-111317447D02*
X111944447Y-111314447D01*
X111944447Y-111314447D02*
X111970447Y-111312447D01*
X111970447Y-111312447D02*
X111996447Y-111311447D01*
X111996447Y-111311447D02*
X112796447Y-111311447D01*
X112796447Y-111311447D02*
X112822447Y-111312447D01*
X112822447Y-111312447D02*
X112848447Y-111314447D01*
X112848447Y-111314447D02*
X112874447Y-111317447D01*
X112874447Y-111317447D02*
X112900447Y-111322447D01*
X112900447Y-111322447D02*
X112925447Y-111328447D01*
X112925447Y-111328447D02*
X112951447Y-111335447D01*
X112951447Y-111335447D02*
X112975447Y-111344447D01*
X112975447Y-111344447D02*
X112999447Y-111354447D01*
X112999447Y-111354447D02*
X113023447Y-111365447D01*
X113023447Y-111365447D02*
X113046447Y-111378447D01*
X113046447Y-111378447D02*
X113068447Y-111392447D01*
X113068447Y-111392447D02*
X113090447Y-111406447D01*
X113090447Y-111406447D02*
X113111447Y-111422447D01*
X113111447Y-111422447D02*
X113131447Y-111439447D01*
X113131447Y-111439447D02*
X113150447Y-111457447D01*
X113150447Y-111457447D02*
X113168447Y-111476447D01*
X113168447Y-111476447D02*
X113185447Y-111496447D01*
X113185447Y-111496447D02*
X113201447Y-111517447D01*
X113201447Y-111517447D02*
X113215447Y-111539447D01*
X113215447Y-111539447D02*
X113229447Y-111561447D01*
X113229447Y-111561447D02*
X113242447Y-111584447D01*
X113242447Y-111584447D02*
X113253447Y-111608447D01*
X113253447Y-111608447D02*
X113263447Y-111632447D01*
X113263447Y-111632447D02*
X113272447Y-111656447D01*
X113272447Y-111656447D02*
X113279447Y-111682447D01*
X113279447Y-111682447D02*
X113285447Y-111707447D01*
X113285447Y-111707447D02*
X113290447Y-111733447D01*
X113290447Y-111733447D02*
X113293447Y-111759447D01*
X113293447Y-111759447D02*
X113295447Y-111785447D01*
X113295447Y-111785447D02*
X113296447Y-111811447D01*
X113296447Y-111811447D02*
X113295447Y-111837447D01*
X113295447Y-111837447D02*
X113293447Y-111863447D01*
X113293447Y-111863447D02*
X113290447Y-111889447D01*
X113290447Y-111889447D02*
X113285447Y-111915447D01*
X113285447Y-111915447D02*
X113279447Y-111940447D01*
X113279447Y-111940447D02*
X113272447Y-111966447D01*
X113272447Y-111966447D02*
X113263447Y-111990447D01*
X113263447Y-111990447D02*
X113253447Y-112014447D01*
X113253447Y-112014447D02*
X113242447Y-112038447D01*
X113242447Y-112038447D02*
X113229447Y-112061447D01*
X113229447Y-112061447D02*
X113215447Y-112083447D01*
X113215447Y-112083447D02*
X113201447Y-112105447D01*
X113201447Y-112105447D02*
X113185447Y-112126447D01*
X113185447Y-112126447D02*
X113168447Y-112146447D01*
X113168447Y-112146447D02*
X113150447Y-112165447D01*
X113150447Y-112165447D02*
X113131447Y-112183447D01*
X113131447Y-112183447D02*
X113111447Y-112200447D01*
X113111447Y-112200447D02*
X113090447Y-112216447D01*
X113090447Y-112216447D02*
X113068447Y-112230447D01*
X113068447Y-112230447D02*
X113046447Y-112244447D01*
X113046447Y-112244447D02*
X113023447Y-112257447D01*
X113023447Y-112257447D02*
X112999447Y-112268447D01*
X112999447Y-112268447D02*
X112975447Y-112278447D01*
X112975447Y-112278447D02*
X112951447Y-112287447D01*
X112951447Y-112287447D02*
X112925447Y-112294447D01*
X112925447Y-112294447D02*
X112900447Y-112300447D01*
X112900447Y-112300447D02*
X112874447Y-112305447D01*
X112874447Y-112305447D02*
X112848447Y-112308447D01*
X112848447Y-112308447D02*
X112822447Y-112310447D01*
X112822447Y-112310447D02*
X112796447Y-112311447D01*
X112796447Y-112311447D02*
X111996447Y-112311447D01*
X111996447Y-112311447D02*
X111970447Y-112310447D01*
X111970447Y-112310447D02*
X111944447Y-112308447D01*
X111944447Y-112308447D02*
X111918447Y-112305447D01*
X111918447Y-112305447D02*
X111892447Y-112300447D01*
X111892447Y-112300447D02*
X111867447Y-112294447D01*
X111867447Y-112294447D02*
X111841447Y-112287447D01*
X111841447Y-112287447D02*
X111817447Y-112278447D01*
X111817447Y-112278447D02*
X111793447Y-112268447D01*
X111793447Y-112268447D02*
X111769447Y-112257447D01*
X111769447Y-112257447D02*
X111746447Y-112244447D01*
X111746447Y-112244447D02*
X111724447Y-112230447D01*
X111724447Y-112230447D02*
X111702447Y-112216447D01*
X111702447Y-112216447D02*
X111681447Y-112200447D01*
X111681447Y-112200447D02*
X111661447Y-112183447D01*
X111661447Y-112183447D02*
X111642447Y-112165447D01*
X111642447Y-112165447D02*
X111624447Y-112146447D01*
X111624447Y-112146447D02*
X111607447Y-112126447D01*
X111607447Y-112126447D02*
X111591447Y-112105447D01*
X111591447Y-112105447D02*
X111577447Y-112083447D01*
X111577447Y-112083447D02*
X111563447Y-112061447D01*
X111563447Y-112061447D02*
X111550447Y-112038447D01*
X111550447Y-112038447D02*
X111539447Y-112014447D01*
X111539447Y-112014447D02*
X111529447Y-111990447D01*
X111529447Y-111990447D02*
X111520447Y-111966447D01*
X111520447Y-111966447D02*
X111513447Y-111940447D01*
X111513447Y-111940447D02*
X111507447Y-111915447D01*
X111507447Y-111915447D02*
X111502447Y-111889447D01*
X111502447Y-111889447D02*
X111499447Y-111863447D01*
X111499447Y-111863447D02*
X111497447Y-111837447D01*
X111497447Y-111837447D02*
X111496447Y-111811447D01*
X111496447Y-111811447D02*
X111496447Y-111811447D01*
G36*
X112822447Y-111312447D02*
G01*
X112848447Y-111314447D01*
X112874447Y-111317447D01*
X112900447Y-111322447D01*
X112925447Y-111328447D01*
X112951447Y-111335447D01*
X112975447Y-111344447D01*
X112999447Y-111354447D01*
X113023447Y-111365447D01*
X113046447Y-111378447D01*
X113090447Y-111406447D01*
X113111447Y-111422447D01*
X113131447Y-111439447D01*
X113150447Y-111457447D01*
X113168447Y-111476447D01*
X113185447Y-111496447D01*
X113201447Y-111517447D01*
X113229447Y-111561447D01*
X113242447Y-111584447D01*
X113253447Y-111608447D01*
X113263447Y-111632447D01*
X113272447Y-111656447D01*
X113279447Y-111682447D01*
X113285447Y-111707447D01*
X113290447Y-111733447D01*
X113293447Y-111759447D01*
X113295447Y-111785447D01*
X113296447Y-111811447D01*
X113295447Y-111837447D01*
X113293447Y-111863447D01*
X113290447Y-111889447D01*
X113285447Y-111915447D01*
X113279447Y-111940447D01*
X113272447Y-111966447D01*
X113263447Y-111990447D01*
X113253447Y-112014447D01*
X113242447Y-112038447D01*
X113229447Y-112061447D01*
X113201447Y-112105447D01*
X113185447Y-112126447D01*
X113168447Y-112146447D01*
X113150447Y-112165447D01*
X113131447Y-112183447D01*
X113111447Y-112200447D01*
X113090447Y-112216447D01*
X113046447Y-112244447D01*
X113023447Y-112257447D01*
X112999447Y-112268447D01*
X112975447Y-112278447D01*
X112951447Y-112287447D01*
X112925447Y-112294447D01*
X112900447Y-112300447D01*
X112874447Y-112305447D01*
X112848447Y-112308447D01*
X112822447Y-112310447D01*
X112796447Y-112311447D01*
X111996447Y-112311447D01*
X111970447Y-112310447D01*
X111944447Y-112308447D01*
X111918447Y-112305447D01*
X111892447Y-112300447D01*
X111867447Y-112294447D01*
X111841447Y-112287447D01*
X111817447Y-112278447D01*
X111793447Y-112268447D01*
X111769447Y-112257447D01*
X111746447Y-112244447D01*
X111702447Y-112216447D01*
X111681447Y-112200447D01*
X111661447Y-112183447D01*
X111642447Y-112165447D01*
X111624447Y-112146447D01*
X111607447Y-112126447D01*
X111591447Y-112105447D01*
X111563447Y-112061447D01*
X111550447Y-112038447D01*
X111539447Y-112014447D01*
X111529447Y-111990447D01*
X111520447Y-111966447D01*
X111513447Y-111940447D01*
X111507447Y-111915447D01*
X111502447Y-111889447D01*
X111499447Y-111863447D01*
X111497447Y-111837447D01*
X111496447Y-111811447D01*
X111497447Y-111785447D01*
X111499447Y-111759447D01*
X111502447Y-111733447D01*
X111507447Y-111707447D01*
X111513447Y-111682447D01*
X111520447Y-111656447D01*
X111529447Y-111632447D01*
X111539447Y-111608447D01*
X111550447Y-111584447D01*
X111563447Y-111561447D01*
X111591447Y-111517447D01*
X111607447Y-111496447D01*
X111624447Y-111476447D01*
X111642447Y-111457447D01*
X111661447Y-111439447D01*
X111681447Y-111422447D01*
X111702447Y-111406447D01*
X111746447Y-111378447D01*
X111769447Y-111365447D01*
X111793447Y-111354447D01*
X111817447Y-111344447D01*
X111841447Y-111335447D01*
X111867447Y-111328447D01*
X111892447Y-111322447D01*
X111918447Y-111317447D01*
X111944447Y-111314447D01*
X111970447Y-111312447D01*
X111996447Y-111311447D01*
X112796447Y-111311447D01*
X112822447Y-111312447D01*
G37*
X112822447Y-111312447D02*
X112848447Y-111314447D01*
X112874447Y-111317447D01*
X112900447Y-111322447D01*
X112925447Y-111328447D01*
X112951447Y-111335447D01*
X112975447Y-111344447D01*
X112999447Y-111354447D01*
X113023447Y-111365447D01*
X113046447Y-111378447D01*
X113090447Y-111406447D01*
X113111447Y-111422447D01*
X113131447Y-111439447D01*
X113150447Y-111457447D01*
X113168447Y-111476447D01*
X113185447Y-111496447D01*
X113201447Y-111517447D01*
X113229447Y-111561447D01*
X113242447Y-111584447D01*
X113253447Y-111608447D01*
X113263447Y-111632447D01*
X113272447Y-111656447D01*
X113279447Y-111682447D01*
X113285447Y-111707447D01*
X113290447Y-111733447D01*
X113293447Y-111759447D01*
X113295447Y-111785447D01*
X113296447Y-111811447D01*
X113295447Y-111837447D01*
X113293447Y-111863447D01*
X113290447Y-111889447D01*
X113285447Y-111915447D01*
X113279447Y-111940447D01*
X113272447Y-111966447D01*
X113263447Y-111990447D01*
X113253447Y-112014447D01*
X113242447Y-112038447D01*
X113229447Y-112061447D01*
X113201447Y-112105447D01*
X113185447Y-112126447D01*
X113168447Y-112146447D01*
X113150447Y-112165447D01*
X113131447Y-112183447D01*
X113111447Y-112200447D01*
X113090447Y-112216447D01*
X113046447Y-112244447D01*
X113023447Y-112257447D01*
X112999447Y-112268447D01*
X112975447Y-112278447D01*
X112951447Y-112287447D01*
X112925447Y-112294447D01*
X112900447Y-112300447D01*
X112874447Y-112305447D01*
X112848447Y-112308447D01*
X112822447Y-112310447D01*
X112796447Y-112311447D01*
X111996447Y-112311447D01*
X111970447Y-112310447D01*
X111944447Y-112308447D01*
X111918447Y-112305447D01*
X111892447Y-112300447D01*
X111867447Y-112294447D01*
X111841447Y-112287447D01*
X111817447Y-112278447D01*
X111793447Y-112268447D01*
X111769447Y-112257447D01*
X111746447Y-112244447D01*
X111702447Y-112216447D01*
X111681447Y-112200447D01*
X111661447Y-112183447D01*
X111642447Y-112165447D01*
X111624447Y-112146447D01*
X111607447Y-112126447D01*
X111591447Y-112105447D01*
X111563447Y-112061447D01*
X111550447Y-112038447D01*
X111539447Y-112014447D01*
X111529447Y-111990447D01*
X111520447Y-111966447D01*
X111513447Y-111940447D01*
X111507447Y-111915447D01*
X111502447Y-111889447D01*
X111499447Y-111863447D01*
X111497447Y-111837447D01*
X111496447Y-111811447D01*
X111497447Y-111785447D01*
X111499447Y-111759447D01*
X111502447Y-111733447D01*
X111507447Y-111707447D01*
X111513447Y-111682447D01*
X111520447Y-111656447D01*
X111529447Y-111632447D01*
X111539447Y-111608447D01*
X111550447Y-111584447D01*
X111563447Y-111561447D01*
X111591447Y-111517447D01*
X111607447Y-111496447D01*
X111624447Y-111476447D01*
X111642447Y-111457447D01*
X111661447Y-111439447D01*
X111681447Y-111422447D01*
X111702447Y-111406447D01*
X111746447Y-111378447D01*
X111769447Y-111365447D01*
X111793447Y-111354447D01*
X111817447Y-111344447D01*
X111841447Y-111335447D01*
X111867447Y-111328447D01*
X111892447Y-111322447D01*
X111918447Y-111317447D01*
X111944447Y-111314447D01*
X111970447Y-111312447D01*
X111996447Y-111311447D01*
X112796447Y-111311447D01*
X112822447Y-111312447D01*
X107296447Y-111811447D02*
X107297447Y-111785447D01*
X107297447Y-111785447D02*
X107299447Y-111759447D01*
X107299447Y-111759447D02*
X107302447Y-111733447D01*
X107302447Y-111733447D02*
X107307447Y-111707447D01*
X107307447Y-111707447D02*
X107313447Y-111682447D01*
X107313447Y-111682447D02*
X107320447Y-111656447D01*
X107320447Y-111656447D02*
X107329447Y-111632447D01*
X107329447Y-111632447D02*
X107339447Y-111608447D01*
X107339447Y-111608447D02*
X107350447Y-111584447D01*
X107350447Y-111584447D02*
X107363447Y-111561447D01*
X107363447Y-111561447D02*
X107377447Y-111539447D01*
X107377447Y-111539447D02*
X107391447Y-111517447D01*
X107391447Y-111517447D02*
X107407447Y-111496447D01*
X107407447Y-111496447D02*
X107424447Y-111476447D01*
X107424447Y-111476447D02*
X107442447Y-111457447D01*
X107442447Y-111457447D02*
X107461447Y-111439447D01*
X107461447Y-111439447D02*
X107481447Y-111422447D01*
X107481447Y-111422447D02*
X107502447Y-111406447D01*
X107502447Y-111406447D02*
X107524447Y-111392447D01*
X107524447Y-111392447D02*
X107546447Y-111378447D01*
X107546447Y-111378447D02*
X107569447Y-111365447D01*
X107569447Y-111365447D02*
X107593447Y-111354447D01*
X107593447Y-111354447D02*
X107617447Y-111344447D01*
X107617447Y-111344447D02*
X107641447Y-111335447D01*
X107641447Y-111335447D02*
X107667447Y-111328447D01*
X107667447Y-111328447D02*
X107692447Y-111322447D01*
X107692447Y-111322447D02*
X107718447Y-111317447D01*
X107718447Y-111317447D02*
X107744447Y-111314447D01*
X107744447Y-111314447D02*
X107770447Y-111312447D01*
X107770447Y-111312447D02*
X107796447Y-111311447D01*
X107796447Y-111311447D02*
X108996447Y-111311447D01*
X108996447Y-111311447D02*
X109022447Y-111312447D01*
X109022447Y-111312447D02*
X109048447Y-111314447D01*
X109048447Y-111314447D02*
X109074447Y-111317447D01*
X109074447Y-111317447D02*
X109100447Y-111322447D01*
X109100447Y-111322447D02*
X109125447Y-111328447D01*
X109125447Y-111328447D02*
X109151447Y-111335447D01*
X109151447Y-111335447D02*
X109175447Y-111344447D01*
X109175447Y-111344447D02*
X109199447Y-111354447D01*
X109199447Y-111354447D02*
X109223447Y-111365447D01*
X109223447Y-111365447D02*
X109246447Y-111378447D01*
X109246447Y-111378447D02*
X109268447Y-111392447D01*
X109268447Y-111392447D02*
X109290447Y-111406447D01*
X109290447Y-111406447D02*
X109311447Y-111422447D01*
X109311447Y-111422447D02*
X109331447Y-111439447D01*
X109331447Y-111439447D02*
X109350447Y-111457447D01*
X109350447Y-111457447D02*
X109368447Y-111476447D01*
X109368447Y-111476447D02*
X109385447Y-111496447D01*
X109385447Y-111496447D02*
X109401447Y-111517447D01*
X109401447Y-111517447D02*
X109415447Y-111539447D01*
X109415447Y-111539447D02*
X109429447Y-111561447D01*
X109429447Y-111561447D02*
X109442447Y-111584447D01*
X109442447Y-111584447D02*
X109453447Y-111608447D01*
X109453447Y-111608447D02*
X109463447Y-111632447D01*
X109463447Y-111632447D02*
X109472447Y-111656447D01*
X109472447Y-111656447D02*
X109479447Y-111682447D01*
X109479447Y-111682447D02*
X109485447Y-111707447D01*
X109485447Y-111707447D02*
X109490447Y-111733447D01*
X109490447Y-111733447D02*
X109493447Y-111759447D01*
X109493447Y-111759447D02*
X109495447Y-111785447D01*
X109495447Y-111785447D02*
X109496447Y-111811447D01*
X109496447Y-111811447D02*
X109495447Y-111837447D01*
X109495447Y-111837447D02*
X109493447Y-111863447D01*
X109493447Y-111863447D02*
X109490447Y-111889447D01*
X109490447Y-111889447D02*
X109485447Y-111915447D01*
X109485447Y-111915447D02*
X109479447Y-111940447D01*
X109479447Y-111940447D02*
X109472447Y-111966447D01*
X109472447Y-111966447D02*
X109463447Y-111990447D01*
X109463447Y-111990447D02*
X109453447Y-112014447D01*
X109453447Y-112014447D02*
X109442447Y-112038447D01*
X109442447Y-112038447D02*
X109429447Y-112061447D01*
X109429447Y-112061447D02*
X109415447Y-112083447D01*
X109415447Y-112083447D02*
X109401447Y-112105447D01*
X109401447Y-112105447D02*
X109385447Y-112126447D01*
X109385447Y-112126447D02*
X109368447Y-112146447D01*
X109368447Y-112146447D02*
X109350447Y-112165447D01*
X109350447Y-112165447D02*
X109331447Y-112183447D01*
X109331447Y-112183447D02*
X109311447Y-112200447D01*
X109311447Y-112200447D02*
X109290447Y-112216447D01*
X109290447Y-112216447D02*
X109268447Y-112230447D01*
X109268447Y-112230447D02*
X109246447Y-112244447D01*
X109246447Y-112244447D02*
X109223447Y-112257447D01*
X109223447Y-112257447D02*
X109199447Y-112268447D01*
X109199447Y-112268447D02*
X109175447Y-112278447D01*
X109175447Y-112278447D02*
X109151447Y-112287447D01*
X109151447Y-112287447D02*
X109125447Y-112294447D01*
X109125447Y-112294447D02*
X109100447Y-112300447D01*
X109100447Y-112300447D02*
X109074447Y-112305447D01*
X109074447Y-112305447D02*
X109048447Y-112308447D01*
X109048447Y-112308447D02*
X109022447Y-112310447D01*
X109022447Y-112310447D02*
X108996447Y-112311447D01*
X108996447Y-112311447D02*
X107796447Y-112311447D01*
X107796447Y-112311447D02*
X107770447Y-112310447D01*
X107770447Y-112310447D02*
X107744447Y-112308447D01*
X107744447Y-112308447D02*
X107718447Y-112305447D01*
X107718447Y-112305447D02*
X107692447Y-112300447D01*
X107692447Y-112300447D02*
X107667447Y-112294447D01*
X107667447Y-112294447D02*
X107641447Y-112287447D01*
X107641447Y-112287447D02*
X107617447Y-112278447D01*
X107617447Y-112278447D02*
X107593447Y-112268447D01*
X107593447Y-112268447D02*
X107569447Y-112257447D01*
X107569447Y-112257447D02*
X107546447Y-112244447D01*
X107546447Y-112244447D02*
X107524447Y-112230447D01*
X107524447Y-112230447D02*
X107502447Y-112216447D01*
X107502447Y-112216447D02*
X107481447Y-112200447D01*
X107481447Y-112200447D02*
X107461447Y-112183447D01*
X107461447Y-112183447D02*
X107442447Y-112165447D01*
X107442447Y-112165447D02*
X107424447Y-112146447D01*
X107424447Y-112146447D02*
X107407447Y-112126447D01*
X107407447Y-112126447D02*
X107391447Y-112105447D01*
X107391447Y-112105447D02*
X107377447Y-112083447D01*
X107377447Y-112083447D02*
X107363447Y-112061447D01*
X107363447Y-112061447D02*
X107350447Y-112038447D01*
X107350447Y-112038447D02*
X107339447Y-112014447D01*
X107339447Y-112014447D02*
X107329447Y-111990447D01*
X107329447Y-111990447D02*
X107320447Y-111966447D01*
X107320447Y-111966447D02*
X107313447Y-111940447D01*
X107313447Y-111940447D02*
X107307447Y-111915447D01*
X107307447Y-111915447D02*
X107302447Y-111889447D01*
X107302447Y-111889447D02*
X107299447Y-111863447D01*
X107299447Y-111863447D02*
X107297447Y-111837447D01*
X107297447Y-111837447D02*
X107296447Y-111811447D01*
X107296447Y-111811447D02*
X107296447Y-111811447D01*
G36*
X109022447Y-111312447D02*
G01*
X109048447Y-111314447D01*
X109074447Y-111317447D01*
X109100447Y-111322447D01*
X109125447Y-111328447D01*
X109151447Y-111335447D01*
X109175447Y-111344447D01*
X109199447Y-111354447D01*
X109223447Y-111365447D01*
X109246447Y-111378447D01*
X109290447Y-111406447D01*
X109311447Y-111422447D01*
X109331447Y-111439447D01*
X109350447Y-111457447D01*
X109368447Y-111476447D01*
X109385447Y-111496447D01*
X109401447Y-111517447D01*
X109429447Y-111561447D01*
X109442447Y-111584447D01*
X109453447Y-111608447D01*
X109463447Y-111632447D01*
X109472447Y-111656447D01*
X109479447Y-111682447D01*
X109485447Y-111707447D01*
X109490447Y-111733447D01*
X109493447Y-111759447D01*
X109495447Y-111785447D01*
X109496447Y-111811447D01*
X109495447Y-111837447D01*
X109493447Y-111863447D01*
X109490447Y-111889447D01*
X109485447Y-111915447D01*
X109479447Y-111940447D01*
X109472447Y-111966447D01*
X109463447Y-111990447D01*
X109453447Y-112014447D01*
X109442447Y-112038447D01*
X109429447Y-112061447D01*
X109401447Y-112105447D01*
X109385447Y-112126447D01*
X109368447Y-112146447D01*
X109350447Y-112165447D01*
X109331447Y-112183447D01*
X109311447Y-112200447D01*
X109290447Y-112216447D01*
X109246447Y-112244447D01*
X109223447Y-112257447D01*
X109199447Y-112268447D01*
X109175447Y-112278447D01*
X109151447Y-112287447D01*
X109125447Y-112294447D01*
X109100447Y-112300447D01*
X109074447Y-112305447D01*
X109048447Y-112308447D01*
X109022447Y-112310447D01*
X108996447Y-112311447D01*
X107796447Y-112311447D01*
X107770447Y-112310447D01*
X107744447Y-112308447D01*
X107718447Y-112305447D01*
X107692447Y-112300447D01*
X107667447Y-112294447D01*
X107641447Y-112287447D01*
X107617447Y-112278447D01*
X107593447Y-112268447D01*
X107569447Y-112257447D01*
X107546447Y-112244447D01*
X107502447Y-112216447D01*
X107481447Y-112200447D01*
X107461447Y-112183447D01*
X107442447Y-112165447D01*
X107424447Y-112146447D01*
X107407447Y-112126447D01*
X107391447Y-112105447D01*
X107363447Y-112061447D01*
X107350447Y-112038447D01*
X107339447Y-112014447D01*
X107329447Y-111990447D01*
X107320447Y-111966447D01*
X107313447Y-111940447D01*
X107307447Y-111915447D01*
X107302447Y-111889447D01*
X107299447Y-111863447D01*
X107297447Y-111837447D01*
X107296447Y-111811447D01*
X107297447Y-111785447D01*
X107299447Y-111759447D01*
X107302447Y-111733447D01*
X107307447Y-111707447D01*
X107313447Y-111682447D01*
X107320447Y-111656447D01*
X107329447Y-111632447D01*
X107339447Y-111608447D01*
X107350447Y-111584447D01*
X107363447Y-111561447D01*
X107391447Y-111517447D01*
X107407447Y-111496447D01*
X107424447Y-111476447D01*
X107442447Y-111457447D01*
X107461447Y-111439447D01*
X107481447Y-111422447D01*
X107502447Y-111406447D01*
X107546447Y-111378447D01*
X107569447Y-111365447D01*
X107593447Y-111354447D01*
X107617447Y-111344447D01*
X107641447Y-111335447D01*
X107667447Y-111328447D01*
X107692447Y-111322447D01*
X107718447Y-111317447D01*
X107744447Y-111314447D01*
X107770447Y-111312447D01*
X107796447Y-111311447D01*
X108996447Y-111311447D01*
X109022447Y-111312447D01*
G37*
X109022447Y-111312447D02*
X109048447Y-111314447D01*
X109074447Y-111317447D01*
X109100447Y-111322447D01*
X109125447Y-111328447D01*
X109151447Y-111335447D01*
X109175447Y-111344447D01*
X109199447Y-111354447D01*
X109223447Y-111365447D01*
X109246447Y-111378447D01*
X109290447Y-111406447D01*
X109311447Y-111422447D01*
X109331447Y-111439447D01*
X109350447Y-111457447D01*
X109368447Y-111476447D01*
X109385447Y-111496447D01*
X109401447Y-111517447D01*
X109429447Y-111561447D01*
X109442447Y-111584447D01*
X109453447Y-111608447D01*
X109463447Y-111632447D01*
X109472447Y-111656447D01*
X109479447Y-111682447D01*
X109485447Y-111707447D01*
X109490447Y-111733447D01*
X109493447Y-111759447D01*
X109495447Y-111785447D01*
X109496447Y-111811447D01*
X109495447Y-111837447D01*
X109493447Y-111863447D01*
X109490447Y-111889447D01*
X109485447Y-111915447D01*
X109479447Y-111940447D01*
X109472447Y-111966447D01*
X109463447Y-111990447D01*
X109453447Y-112014447D01*
X109442447Y-112038447D01*
X109429447Y-112061447D01*
X109401447Y-112105447D01*
X109385447Y-112126447D01*
X109368447Y-112146447D01*
X109350447Y-112165447D01*
X109331447Y-112183447D01*
X109311447Y-112200447D01*
X109290447Y-112216447D01*
X109246447Y-112244447D01*
X109223447Y-112257447D01*
X109199447Y-112268447D01*
X109175447Y-112278447D01*
X109151447Y-112287447D01*
X109125447Y-112294447D01*
X109100447Y-112300447D01*
X109074447Y-112305447D01*
X109048447Y-112308447D01*
X109022447Y-112310447D01*
X108996447Y-112311447D01*
X107796447Y-112311447D01*
X107770447Y-112310447D01*
X107744447Y-112308447D01*
X107718447Y-112305447D01*
X107692447Y-112300447D01*
X107667447Y-112294447D01*
X107641447Y-112287447D01*
X107617447Y-112278447D01*
X107593447Y-112268447D01*
X107569447Y-112257447D01*
X107546447Y-112244447D01*
X107502447Y-112216447D01*
X107481447Y-112200447D01*
X107461447Y-112183447D01*
X107442447Y-112165447D01*
X107424447Y-112146447D01*
X107407447Y-112126447D01*
X107391447Y-112105447D01*
X107363447Y-112061447D01*
X107350447Y-112038447D01*
X107339447Y-112014447D01*
X107329447Y-111990447D01*
X107320447Y-111966447D01*
X107313447Y-111940447D01*
X107307447Y-111915447D01*
X107302447Y-111889447D01*
X107299447Y-111863447D01*
X107297447Y-111837447D01*
X107296447Y-111811447D01*
X107297447Y-111785447D01*
X107299447Y-111759447D01*
X107302447Y-111733447D01*
X107307447Y-111707447D01*
X107313447Y-111682447D01*
X107320447Y-111656447D01*
X107329447Y-111632447D01*
X107339447Y-111608447D01*
X107350447Y-111584447D01*
X107363447Y-111561447D01*
X107391447Y-111517447D01*
X107407447Y-111496447D01*
X107424447Y-111476447D01*
X107442447Y-111457447D01*
X107461447Y-111439447D01*
X107481447Y-111422447D01*
X107502447Y-111406447D01*
X107546447Y-111378447D01*
X107569447Y-111365447D01*
X107593447Y-111354447D01*
X107617447Y-111344447D01*
X107641447Y-111335447D01*
X107667447Y-111328447D01*
X107692447Y-111322447D01*
X107718447Y-111317447D01*
X107744447Y-111314447D01*
X107770447Y-111312447D01*
X107796447Y-111311447D01*
X108996447Y-111311447D01*
X109022447Y-111312447D01*
X111496447Y-100571447D02*
X111497447Y-100545447D01*
X111497447Y-100545447D02*
X111499447Y-100519447D01*
X111499447Y-100519447D02*
X111502447Y-100493447D01*
X111502447Y-100493447D02*
X111507447Y-100467447D01*
X111507447Y-100467447D02*
X111513447Y-100442447D01*
X111513447Y-100442447D02*
X111520447Y-100416447D01*
X111520447Y-100416447D02*
X111529447Y-100392447D01*
X111529447Y-100392447D02*
X111539447Y-100368447D01*
X111539447Y-100368447D02*
X111550447Y-100344447D01*
X111550447Y-100344447D02*
X111563447Y-100321447D01*
X111563447Y-100321447D02*
X111577447Y-100299447D01*
X111577447Y-100299447D02*
X111591447Y-100277447D01*
X111591447Y-100277447D02*
X111607447Y-100256447D01*
X111607447Y-100256447D02*
X111624447Y-100236447D01*
X111624447Y-100236447D02*
X111642447Y-100217447D01*
X111642447Y-100217447D02*
X111661447Y-100199447D01*
X111661447Y-100199447D02*
X111681447Y-100182447D01*
X111681447Y-100182447D02*
X111702447Y-100166447D01*
X111702447Y-100166447D02*
X111724447Y-100152447D01*
X111724447Y-100152447D02*
X111746447Y-100138447D01*
X111746447Y-100138447D02*
X111769447Y-100125447D01*
X111769447Y-100125447D02*
X111793447Y-100114447D01*
X111793447Y-100114447D02*
X111817447Y-100104447D01*
X111817447Y-100104447D02*
X111841447Y-100095447D01*
X111841447Y-100095447D02*
X111867447Y-100088447D01*
X111867447Y-100088447D02*
X111892447Y-100082447D01*
X111892447Y-100082447D02*
X111918447Y-100077447D01*
X111918447Y-100077447D02*
X111944447Y-100074447D01*
X111944447Y-100074447D02*
X111970447Y-100072447D01*
X111970447Y-100072447D02*
X111996447Y-100071447D01*
X111996447Y-100071447D02*
X112796447Y-100071447D01*
X112796447Y-100071447D02*
X112822447Y-100072447D01*
X112822447Y-100072447D02*
X112848447Y-100074447D01*
X112848447Y-100074447D02*
X112874447Y-100077447D01*
X112874447Y-100077447D02*
X112900447Y-100082447D01*
X112900447Y-100082447D02*
X112925447Y-100088447D01*
X112925447Y-100088447D02*
X112951447Y-100095447D01*
X112951447Y-100095447D02*
X112975447Y-100104447D01*
X112975447Y-100104447D02*
X112999447Y-100114447D01*
X112999447Y-100114447D02*
X113023447Y-100125447D01*
X113023447Y-100125447D02*
X113046447Y-100138447D01*
X113046447Y-100138447D02*
X113068447Y-100152447D01*
X113068447Y-100152447D02*
X113090447Y-100166447D01*
X113090447Y-100166447D02*
X113111447Y-100182447D01*
X113111447Y-100182447D02*
X113131447Y-100199447D01*
X113131447Y-100199447D02*
X113150447Y-100217447D01*
X113150447Y-100217447D02*
X113168447Y-100236447D01*
X113168447Y-100236447D02*
X113185447Y-100256447D01*
X113185447Y-100256447D02*
X113201447Y-100277447D01*
X113201447Y-100277447D02*
X113215447Y-100299447D01*
X113215447Y-100299447D02*
X113229447Y-100321447D01*
X113229447Y-100321447D02*
X113242447Y-100344447D01*
X113242447Y-100344447D02*
X113253447Y-100368447D01*
X113253447Y-100368447D02*
X113263447Y-100392447D01*
X113263447Y-100392447D02*
X113272447Y-100416447D01*
X113272447Y-100416447D02*
X113279447Y-100442447D01*
X113279447Y-100442447D02*
X113285447Y-100467447D01*
X113285447Y-100467447D02*
X113290447Y-100493447D01*
X113290447Y-100493447D02*
X113293447Y-100519447D01*
X113293447Y-100519447D02*
X113295447Y-100545447D01*
X113295447Y-100545447D02*
X113296447Y-100571447D01*
X113296447Y-100571447D02*
X113295447Y-100597447D01*
X113295447Y-100597447D02*
X113293447Y-100623447D01*
X113293447Y-100623447D02*
X113290447Y-100649447D01*
X113290447Y-100649447D02*
X113285447Y-100675447D01*
X113285447Y-100675447D02*
X113279447Y-100700447D01*
X113279447Y-100700447D02*
X113272447Y-100726447D01*
X113272447Y-100726447D02*
X113263447Y-100750447D01*
X113263447Y-100750447D02*
X113253447Y-100774447D01*
X113253447Y-100774447D02*
X113242447Y-100798447D01*
X113242447Y-100798447D02*
X113229447Y-100821447D01*
X113229447Y-100821447D02*
X113215447Y-100843447D01*
X113215447Y-100843447D02*
X113201447Y-100865447D01*
X113201447Y-100865447D02*
X113185447Y-100886447D01*
X113185447Y-100886447D02*
X113168447Y-100906447D01*
X113168447Y-100906447D02*
X113150447Y-100925447D01*
X113150447Y-100925447D02*
X113131447Y-100943447D01*
X113131447Y-100943447D02*
X113111447Y-100960447D01*
X113111447Y-100960447D02*
X113090447Y-100976447D01*
X113090447Y-100976447D02*
X113068447Y-100990447D01*
X113068447Y-100990447D02*
X113046447Y-101004447D01*
X113046447Y-101004447D02*
X113023447Y-101017447D01*
X113023447Y-101017447D02*
X112999447Y-101028447D01*
X112999447Y-101028447D02*
X112975447Y-101038447D01*
X112975447Y-101038447D02*
X112951447Y-101047447D01*
X112951447Y-101047447D02*
X112925447Y-101054447D01*
X112925447Y-101054447D02*
X112900447Y-101060447D01*
X112900447Y-101060447D02*
X112874447Y-101065447D01*
X112874447Y-101065447D02*
X112848447Y-101068447D01*
X112848447Y-101068447D02*
X112822447Y-101070447D01*
X112822447Y-101070447D02*
X112796447Y-101071447D01*
X112796447Y-101071447D02*
X111996447Y-101071447D01*
X111996447Y-101071447D02*
X111970447Y-101070447D01*
X111970447Y-101070447D02*
X111944447Y-101068447D01*
X111944447Y-101068447D02*
X111918447Y-101065447D01*
X111918447Y-101065447D02*
X111892447Y-101060447D01*
X111892447Y-101060447D02*
X111867447Y-101054447D01*
X111867447Y-101054447D02*
X111841447Y-101047447D01*
X111841447Y-101047447D02*
X111817447Y-101038447D01*
X111817447Y-101038447D02*
X111793447Y-101028447D01*
X111793447Y-101028447D02*
X111769447Y-101017447D01*
X111769447Y-101017447D02*
X111746447Y-101004447D01*
X111746447Y-101004447D02*
X111724447Y-100990447D01*
X111724447Y-100990447D02*
X111702447Y-100976447D01*
X111702447Y-100976447D02*
X111681447Y-100960447D01*
X111681447Y-100960447D02*
X111661447Y-100943447D01*
X111661447Y-100943447D02*
X111642447Y-100925447D01*
X111642447Y-100925447D02*
X111624447Y-100906447D01*
X111624447Y-100906447D02*
X111607447Y-100886447D01*
X111607447Y-100886447D02*
X111591447Y-100865447D01*
X111591447Y-100865447D02*
X111577447Y-100843447D01*
X111577447Y-100843447D02*
X111563447Y-100821447D01*
X111563447Y-100821447D02*
X111550447Y-100798447D01*
X111550447Y-100798447D02*
X111539447Y-100774447D01*
X111539447Y-100774447D02*
X111529447Y-100750447D01*
X111529447Y-100750447D02*
X111520447Y-100726447D01*
X111520447Y-100726447D02*
X111513447Y-100700447D01*
X111513447Y-100700447D02*
X111507447Y-100675447D01*
X111507447Y-100675447D02*
X111502447Y-100649447D01*
X111502447Y-100649447D02*
X111499447Y-100623447D01*
X111499447Y-100623447D02*
X111497447Y-100597447D01*
X111497447Y-100597447D02*
X111496447Y-100571447D01*
X111496447Y-100571447D02*
X111496447Y-100571447D01*
G36*
X112822447Y-100072447D02*
G01*
X112848447Y-100074447D01*
X112874447Y-100077447D01*
X112900447Y-100082447D01*
X112925447Y-100088447D01*
X112951447Y-100095447D01*
X112975447Y-100104447D01*
X112999447Y-100114447D01*
X113023447Y-100125447D01*
X113046447Y-100138447D01*
X113090447Y-100166447D01*
X113111447Y-100182447D01*
X113131447Y-100199447D01*
X113150447Y-100217447D01*
X113168447Y-100236447D01*
X113185447Y-100256447D01*
X113201447Y-100277447D01*
X113229447Y-100321447D01*
X113242447Y-100344447D01*
X113253447Y-100368447D01*
X113263447Y-100392447D01*
X113272447Y-100416447D01*
X113279447Y-100442447D01*
X113285447Y-100467447D01*
X113290447Y-100493447D01*
X113293447Y-100519447D01*
X113295447Y-100545447D01*
X113296447Y-100571447D01*
X113295447Y-100597447D01*
X113293447Y-100623447D01*
X113290447Y-100649447D01*
X113285447Y-100675447D01*
X113279447Y-100700447D01*
X113272447Y-100726447D01*
X113263447Y-100750447D01*
X113253447Y-100774447D01*
X113242447Y-100798447D01*
X113229447Y-100821447D01*
X113201447Y-100865447D01*
X113185447Y-100886447D01*
X113168447Y-100906447D01*
X113150447Y-100925447D01*
X113131447Y-100943447D01*
X113111447Y-100960447D01*
X113090447Y-100976447D01*
X113046447Y-101004447D01*
X113023447Y-101017447D01*
X112999447Y-101028447D01*
X112975447Y-101038447D01*
X112951447Y-101047447D01*
X112925447Y-101054447D01*
X112900447Y-101060447D01*
X112874447Y-101065447D01*
X112848447Y-101068447D01*
X112822447Y-101070447D01*
X112796447Y-101071447D01*
X111996447Y-101071447D01*
X111970447Y-101070447D01*
X111944447Y-101068447D01*
X111918447Y-101065447D01*
X111892447Y-101060447D01*
X111867447Y-101054447D01*
X111841447Y-101047447D01*
X111817447Y-101038447D01*
X111793447Y-101028447D01*
X111769447Y-101017447D01*
X111746447Y-101004447D01*
X111702447Y-100976447D01*
X111681447Y-100960447D01*
X111661447Y-100943447D01*
X111642447Y-100925447D01*
X111624447Y-100906447D01*
X111607447Y-100886447D01*
X111591447Y-100865447D01*
X111563447Y-100821447D01*
X111550447Y-100798447D01*
X111539447Y-100774447D01*
X111529447Y-100750447D01*
X111520447Y-100726447D01*
X111513447Y-100700447D01*
X111507447Y-100675447D01*
X111502447Y-100649447D01*
X111499447Y-100623447D01*
X111497447Y-100597447D01*
X111496447Y-100571447D01*
X111497447Y-100545447D01*
X111499447Y-100519447D01*
X111502447Y-100493447D01*
X111507447Y-100467447D01*
X111513447Y-100442447D01*
X111520447Y-100416447D01*
X111529447Y-100392447D01*
X111539447Y-100368447D01*
X111550447Y-100344447D01*
X111563447Y-100321447D01*
X111591447Y-100277447D01*
X111607447Y-100256447D01*
X111624447Y-100236447D01*
X111642447Y-100217447D01*
X111661447Y-100199447D01*
X111681447Y-100182447D01*
X111702447Y-100166447D01*
X111746447Y-100138447D01*
X111769447Y-100125447D01*
X111793447Y-100114447D01*
X111817447Y-100104447D01*
X111841447Y-100095447D01*
X111867447Y-100088447D01*
X111892447Y-100082447D01*
X111918447Y-100077447D01*
X111944447Y-100074447D01*
X111970447Y-100072447D01*
X111996447Y-100071447D01*
X112796447Y-100071447D01*
X112822447Y-100072447D01*
G37*
X112822447Y-100072447D02*
X112848447Y-100074447D01*
X112874447Y-100077447D01*
X112900447Y-100082447D01*
X112925447Y-100088447D01*
X112951447Y-100095447D01*
X112975447Y-100104447D01*
X112999447Y-100114447D01*
X113023447Y-100125447D01*
X113046447Y-100138447D01*
X113090447Y-100166447D01*
X113111447Y-100182447D01*
X113131447Y-100199447D01*
X113150447Y-100217447D01*
X113168447Y-100236447D01*
X113185447Y-100256447D01*
X113201447Y-100277447D01*
X113229447Y-100321447D01*
X113242447Y-100344447D01*
X113253447Y-100368447D01*
X113263447Y-100392447D01*
X113272447Y-100416447D01*
X113279447Y-100442447D01*
X113285447Y-100467447D01*
X113290447Y-100493447D01*
X113293447Y-100519447D01*
X113295447Y-100545447D01*
X113296447Y-100571447D01*
X113295447Y-100597447D01*
X113293447Y-100623447D01*
X113290447Y-100649447D01*
X113285447Y-100675447D01*
X113279447Y-100700447D01*
X113272447Y-100726447D01*
X113263447Y-100750447D01*
X113253447Y-100774447D01*
X113242447Y-100798447D01*
X113229447Y-100821447D01*
X113201447Y-100865447D01*
X113185447Y-100886447D01*
X113168447Y-100906447D01*
X113150447Y-100925447D01*
X113131447Y-100943447D01*
X113111447Y-100960447D01*
X113090447Y-100976447D01*
X113046447Y-101004447D01*
X113023447Y-101017447D01*
X112999447Y-101028447D01*
X112975447Y-101038447D01*
X112951447Y-101047447D01*
X112925447Y-101054447D01*
X112900447Y-101060447D01*
X112874447Y-101065447D01*
X112848447Y-101068447D01*
X112822447Y-101070447D01*
X112796447Y-101071447D01*
X111996447Y-101071447D01*
X111970447Y-101070447D01*
X111944447Y-101068447D01*
X111918447Y-101065447D01*
X111892447Y-101060447D01*
X111867447Y-101054447D01*
X111841447Y-101047447D01*
X111817447Y-101038447D01*
X111793447Y-101028447D01*
X111769447Y-101017447D01*
X111746447Y-101004447D01*
X111702447Y-100976447D01*
X111681447Y-100960447D01*
X111661447Y-100943447D01*
X111642447Y-100925447D01*
X111624447Y-100906447D01*
X111607447Y-100886447D01*
X111591447Y-100865447D01*
X111563447Y-100821447D01*
X111550447Y-100798447D01*
X111539447Y-100774447D01*
X111529447Y-100750447D01*
X111520447Y-100726447D01*
X111513447Y-100700447D01*
X111507447Y-100675447D01*
X111502447Y-100649447D01*
X111499447Y-100623447D01*
X111497447Y-100597447D01*
X111496447Y-100571447D01*
X111497447Y-100545447D01*
X111499447Y-100519447D01*
X111502447Y-100493447D01*
X111507447Y-100467447D01*
X111513447Y-100442447D01*
X111520447Y-100416447D01*
X111529447Y-100392447D01*
X111539447Y-100368447D01*
X111550447Y-100344447D01*
X111563447Y-100321447D01*
X111591447Y-100277447D01*
X111607447Y-100256447D01*
X111624447Y-100236447D01*
X111642447Y-100217447D01*
X111661447Y-100199447D01*
X111681447Y-100182447D01*
X111702447Y-100166447D01*
X111746447Y-100138447D01*
X111769447Y-100125447D01*
X111793447Y-100114447D01*
X111817447Y-100104447D01*
X111841447Y-100095447D01*
X111867447Y-100088447D01*
X111892447Y-100082447D01*
X111918447Y-100077447D01*
X111944447Y-100074447D01*
X111970447Y-100072447D01*
X111996447Y-100071447D01*
X112796447Y-100071447D01*
X112822447Y-100072447D01*
%TO.C,J2*%
X127075000Y-83422500D02*
X127101000Y-83423500D01*
X127101000Y-83423500D02*
X127127000Y-83425500D01*
X127127000Y-83425500D02*
X127153000Y-83428500D01*
X127153000Y-83428500D02*
X127179000Y-83433500D01*
X127179000Y-83433500D02*
X127204000Y-83439500D01*
X127204000Y-83439500D02*
X127230000Y-83446500D01*
X127230000Y-83446500D02*
X127254000Y-83455500D01*
X127254000Y-83455500D02*
X127278000Y-83465500D01*
X127278000Y-83465500D02*
X127302000Y-83476500D01*
X127302000Y-83476500D02*
X127325000Y-83489500D01*
X127325000Y-83489500D02*
X127347000Y-83503500D01*
X127347000Y-83503500D02*
X127369000Y-83517500D01*
X127369000Y-83517500D02*
X127390000Y-83533500D01*
X127390000Y-83533500D02*
X127410000Y-83550500D01*
X127410000Y-83550500D02*
X127429000Y-83568500D01*
X127429000Y-83568500D02*
X127447000Y-83587500D01*
X127447000Y-83587500D02*
X127464000Y-83607500D01*
X127464000Y-83607500D02*
X127480000Y-83628500D01*
X127480000Y-83628500D02*
X127494000Y-83650500D01*
X127494000Y-83650500D02*
X127508000Y-83672500D01*
X127508000Y-83672500D02*
X127521000Y-83695500D01*
X127521000Y-83695500D02*
X127532000Y-83719500D01*
X127532000Y-83719500D02*
X127542000Y-83743500D01*
X127542000Y-83743500D02*
X127551000Y-83767500D01*
X127551000Y-83767500D02*
X127558000Y-83793500D01*
X127558000Y-83793500D02*
X127564000Y-83818500D01*
X127564000Y-83818500D02*
X127569000Y-83844500D01*
X127569000Y-83844500D02*
X127572000Y-83870500D01*
X127572000Y-83870500D02*
X127574000Y-83896500D01*
X127574000Y-83896500D02*
X127575000Y-83922500D01*
X127575000Y-83922500D02*
X127575000Y-85122500D01*
X127575000Y-85122500D02*
X127574000Y-85148500D01*
X127574000Y-85148500D02*
X127572000Y-85174500D01*
X127572000Y-85174500D02*
X127569000Y-85200500D01*
X127569000Y-85200500D02*
X127564000Y-85226500D01*
X127564000Y-85226500D02*
X127558000Y-85251500D01*
X127558000Y-85251500D02*
X127551000Y-85277500D01*
X127551000Y-85277500D02*
X127542000Y-85301500D01*
X127542000Y-85301500D02*
X127532000Y-85325500D01*
X127532000Y-85325500D02*
X127521000Y-85349500D01*
X127521000Y-85349500D02*
X127508000Y-85372500D01*
X127508000Y-85372500D02*
X127494000Y-85394500D01*
X127494000Y-85394500D02*
X127480000Y-85416500D01*
X127480000Y-85416500D02*
X127464000Y-85437500D01*
X127464000Y-85437500D02*
X127447000Y-85457500D01*
X127447000Y-85457500D02*
X127429000Y-85476500D01*
X127429000Y-85476500D02*
X127410000Y-85494500D01*
X127410000Y-85494500D02*
X127390000Y-85511500D01*
X127390000Y-85511500D02*
X127369000Y-85527500D01*
X127369000Y-85527500D02*
X127347000Y-85541500D01*
X127347000Y-85541500D02*
X127325000Y-85555500D01*
X127325000Y-85555500D02*
X127302000Y-85568500D01*
X127302000Y-85568500D02*
X127278000Y-85579500D01*
X127278000Y-85579500D02*
X127254000Y-85589500D01*
X127254000Y-85589500D02*
X127230000Y-85598500D01*
X127230000Y-85598500D02*
X127204000Y-85605500D01*
X127204000Y-85605500D02*
X127179000Y-85611500D01*
X127179000Y-85611500D02*
X127153000Y-85616500D01*
X127153000Y-85616500D02*
X127127000Y-85619500D01*
X127127000Y-85619500D02*
X127101000Y-85621500D01*
X127101000Y-85621500D02*
X127075000Y-85622500D01*
X127075000Y-85622500D02*
X127049000Y-85621500D01*
X127049000Y-85621500D02*
X127023000Y-85619500D01*
X127023000Y-85619500D02*
X126997000Y-85616500D01*
X126997000Y-85616500D02*
X126971000Y-85611500D01*
X126971000Y-85611500D02*
X126946000Y-85605500D01*
X126946000Y-85605500D02*
X126920000Y-85598500D01*
X126920000Y-85598500D02*
X126896000Y-85589500D01*
X126896000Y-85589500D02*
X126872000Y-85579500D01*
X126872000Y-85579500D02*
X126848000Y-85568500D01*
X126848000Y-85568500D02*
X126825000Y-85555500D01*
X126825000Y-85555500D02*
X126803000Y-85541500D01*
X126803000Y-85541500D02*
X126781000Y-85527500D01*
X126781000Y-85527500D02*
X126760000Y-85511500D01*
X126760000Y-85511500D02*
X126740000Y-85494500D01*
X126740000Y-85494500D02*
X126721000Y-85476500D01*
X126721000Y-85476500D02*
X126703000Y-85457500D01*
X126703000Y-85457500D02*
X126686000Y-85437500D01*
X126686000Y-85437500D02*
X126670000Y-85416500D01*
X126670000Y-85416500D02*
X126656000Y-85394500D01*
X126656000Y-85394500D02*
X126642000Y-85372500D01*
X126642000Y-85372500D02*
X126629000Y-85349500D01*
X126629000Y-85349500D02*
X126618000Y-85325500D01*
X126618000Y-85325500D02*
X126608000Y-85301500D01*
X126608000Y-85301500D02*
X126599000Y-85277500D01*
X126599000Y-85277500D02*
X126592000Y-85251500D01*
X126592000Y-85251500D02*
X126586000Y-85226500D01*
X126586000Y-85226500D02*
X126581000Y-85200500D01*
X126581000Y-85200500D02*
X126578000Y-85174500D01*
X126578000Y-85174500D02*
X126576000Y-85148500D01*
X126576000Y-85148500D02*
X126575000Y-85122500D01*
X126575000Y-85122500D02*
X126575000Y-83922500D01*
X126575000Y-83922500D02*
X126576000Y-83896500D01*
X126576000Y-83896500D02*
X126578000Y-83870500D01*
X126578000Y-83870500D02*
X126581000Y-83844500D01*
X126581000Y-83844500D02*
X126586000Y-83818500D01*
X126586000Y-83818500D02*
X126592000Y-83793500D01*
X126592000Y-83793500D02*
X126599000Y-83767500D01*
X126599000Y-83767500D02*
X126608000Y-83743500D01*
X126608000Y-83743500D02*
X126618000Y-83719500D01*
X126618000Y-83719500D02*
X126629000Y-83695500D01*
X126629000Y-83695500D02*
X126642000Y-83672500D01*
X126642000Y-83672500D02*
X126656000Y-83650500D01*
X126656000Y-83650500D02*
X126670000Y-83628500D01*
X126670000Y-83628500D02*
X126686000Y-83607500D01*
X126686000Y-83607500D02*
X126703000Y-83587500D01*
X126703000Y-83587500D02*
X126721000Y-83568500D01*
X126721000Y-83568500D02*
X126740000Y-83550500D01*
X126740000Y-83550500D02*
X126760000Y-83533500D01*
X126760000Y-83533500D02*
X126781000Y-83517500D01*
X126781000Y-83517500D02*
X126803000Y-83503500D01*
X126803000Y-83503500D02*
X126825000Y-83489500D01*
X126825000Y-83489500D02*
X126848000Y-83476500D01*
X126848000Y-83476500D02*
X126872000Y-83465500D01*
X126872000Y-83465500D02*
X126896000Y-83455500D01*
X126896000Y-83455500D02*
X126920000Y-83446500D01*
X126920000Y-83446500D02*
X126946000Y-83439500D01*
X126946000Y-83439500D02*
X126971000Y-83433500D01*
X126971000Y-83433500D02*
X126997000Y-83428500D01*
X126997000Y-83428500D02*
X127023000Y-83425500D01*
X127023000Y-83425500D02*
X127049000Y-83423500D01*
X127049000Y-83423500D02*
X127075000Y-83422500D01*
X127075000Y-83422500D02*
X127075000Y-83422500D01*
G36*
X127101000Y-83423500D02*
G01*
X127127000Y-83425500D01*
X127153000Y-83428500D01*
X127179000Y-83433500D01*
X127204000Y-83439500D01*
X127230000Y-83446500D01*
X127254000Y-83455500D01*
X127278000Y-83465500D01*
X127302000Y-83476500D01*
X127325000Y-83489500D01*
X127369000Y-83517500D01*
X127390000Y-83533500D01*
X127410000Y-83550500D01*
X127429000Y-83568500D01*
X127447000Y-83587500D01*
X127464000Y-83607500D01*
X127480000Y-83628500D01*
X127508000Y-83672500D01*
X127521000Y-83695500D01*
X127532000Y-83719500D01*
X127542000Y-83743500D01*
X127551000Y-83767500D01*
X127558000Y-83793500D01*
X127564000Y-83818500D01*
X127569000Y-83844500D01*
X127572000Y-83870500D01*
X127574000Y-83896500D01*
X127575000Y-83922500D01*
X127575000Y-85122500D01*
X127574000Y-85148500D01*
X127572000Y-85174500D01*
X127569000Y-85200500D01*
X127564000Y-85226500D01*
X127558000Y-85251500D01*
X127551000Y-85277500D01*
X127542000Y-85301500D01*
X127532000Y-85325500D01*
X127521000Y-85349500D01*
X127508000Y-85372500D01*
X127480000Y-85416500D01*
X127464000Y-85437500D01*
X127447000Y-85457500D01*
X127429000Y-85476500D01*
X127410000Y-85494500D01*
X127390000Y-85511500D01*
X127369000Y-85527500D01*
X127325000Y-85555500D01*
X127302000Y-85568500D01*
X127278000Y-85579500D01*
X127254000Y-85589500D01*
X127230000Y-85598500D01*
X127204000Y-85605500D01*
X127179000Y-85611500D01*
X127153000Y-85616500D01*
X127127000Y-85619500D01*
X127101000Y-85621500D01*
X127075000Y-85622500D01*
X127049000Y-85621500D01*
X127023000Y-85619500D01*
X126997000Y-85616500D01*
X126971000Y-85611500D01*
X126946000Y-85605500D01*
X126920000Y-85598500D01*
X126896000Y-85589500D01*
X126872000Y-85579500D01*
X126848000Y-85568500D01*
X126825000Y-85555500D01*
X126781000Y-85527500D01*
X126760000Y-85511500D01*
X126740000Y-85494500D01*
X126721000Y-85476500D01*
X126703000Y-85457500D01*
X126686000Y-85437500D01*
X126670000Y-85416500D01*
X126642000Y-85372500D01*
X126629000Y-85349500D01*
X126618000Y-85325500D01*
X126608000Y-85301500D01*
X126599000Y-85277500D01*
X126592000Y-85251500D01*
X126586000Y-85226500D01*
X126581000Y-85200500D01*
X126578000Y-85174500D01*
X126576000Y-85148500D01*
X126575000Y-85122500D01*
X126575000Y-83922500D01*
X126576000Y-83896500D01*
X126578000Y-83870500D01*
X126581000Y-83844500D01*
X126586000Y-83818500D01*
X126592000Y-83793500D01*
X126599000Y-83767500D01*
X126608000Y-83743500D01*
X126618000Y-83719500D01*
X126629000Y-83695500D01*
X126642000Y-83672500D01*
X126670000Y-83628500D01*
X126686000Y-83607500D01*
X126703000Y-83587500D01*
X126721000Y-83568500D01*
X126740000Y-83550500D01*
X126760000Y-83533500D01*
X126781000Y-83517500D01*
X126825000Y-83489500D01*
X126848000Y-83476500D01*
X126872000Y-83465500D01*
X126896000Y-83455500D01*
X126920000Y-83446500D01*
X126946000Y-83439500D01*
X126971000Y-83433500D01*
X126997000Y-83428500D01*
X127023000Y-83425500D01*
X127049000Y-83423500D01*
X127075000Y-83422500D01*
X127101000Y-83423500D01*
G37*
X127101000Y-83423500D02*
X127127000Y-83425500D01*
X127153000Y-83428500D01*
X127179000Y-83433500D01*
X127204000Y-83439500D01*
X127230000Y-83446500D01*
X127254000Y-83455500D01*
X127278000Y-83465500D01*
X127302000Y-83476500D01*
X127325000Y-83489500D01*
X127369000Y-83517500D01*
X127390000Y-83533500D01*
X127410000Y-83550500D01*
X127429000Y-83568500D01*
X127447000Y-83587500D01*
X127464000Y-83607500D01*
X127480000Y-83628500D01*
X127508000Y-83672500D01*
X127521000Y-83695500D01*
X127532000Y-83719500D01*
X127542000Y-83743500D01*
X127551000Y-83767500D01*
X127558000Y-83793500D01*
X127564000Y-83818500D01*
X127569000Y-83844500D01*
X127572000Y-83870500D01*
X127574000Y-83896500D01*
X127575000Y-83922500D01*
X127575000Y-85122500D01*
X127574000Y-85148500D01*
X127572000Y-85174500D01*
X127569000Y-85200500D01*
X127564000Y-85226500D01*
X127558000Y-85251500D01*
X127551000Y-85277500D01*
X127542000Y-85301500D01*
X127532000Y-85325500D01*
X127521000Y-85349500D01*
X127508000Y-85372500D01*
X127480000Y-85416500D01*
X127464000Y-85437500D01*
X127447000Y-85457500D01*
X127429000Y-85476500D01*
X127410000Y-85494500D01*
X127390000Y-85511500D01*
X127369000Y-85527500D01*
X127325000Y-85555500D01*
X127302000Y-85568500D01*
X127278000Y-85579500D01*
X127254000Y-85589500D01*
X127230000Y-85598500D01*
X127204000Y-85605500D01*
X127179000Y-85611500D01*
X127153000Y-85616500D01*
X127127000Y-85619500D01*
X127101000Y-85621500D01*
X127075000Y-85622500D01*
X127049000Y-85621500D01*
X127023000Y-85619500D01*
X126997000Y-85616500D01*
X126971000Y-85611500D01*
X126946000Y-85605500D01*
X126920000Y-85598500D01*
X126896000Y-85589500D01*
X126872000Y-85579500D01*
X126848000Y-85568500D01*
X126825000Y-85555500D01*
X126781000Y-85527500D01*
X126760000Y-85511500D01*
X126740000Y-85494500D01*
X126721000Y-85476500D01*
X126703000Y-85457500D01*
X126686000Y-85437500D01*
X126670000Y-85416500D01*
X126642000Y-85372500D01*
X126629000Y-85349500D01*
X126618000Y-85325500D01*
X126608000Y-85301500D01*
X126599000Y-85277500D01*
X126592000Y-85251500D01*
X126586000Y-85226500D01*
X126581000Y-85200500D01*
X126578000Y-85174500D01*
X126576000Y-85148500D01*
X126575000Y-85122500D01*
X126575000Y-83922500D01*
X126576000Y-83896500D01*
X126578000Y-83870500D01*
X126581000Y-83844500D01*
X126586000Y-83818500D01*
X126592000Y-83793500D01*
X126599000Y-83767500D01*
X126608000Y-83743500D01*
X126618000Y-83719500D01*
X126629000Y-83695500D01*
X126642000Y-83672500D01*
X126670000Y-83628500D01*
X126686000Y-83607500D01*
X126703000Y-83587500D01*
X126721000Y-83568500D01*
X126740000Y-83550500D01*
X126760000Y-83533500D01*
X126781000Y-83517500D01*
X126825000Y-83489500D01*
X126848000Y-83476500D01*
X126872000Y-83465500D01*
X126896000Y-83455500D01*
X126920000Y-83446500D01*
X126946000Y-83439500D01*
X126971000Y-83433500D01*
X126997000Y-83428500D01*
X127023000Y-83425500D01*
X127049000Y-83423500D01*
X127075000Y-83422500D01*
X127101000Y-83423500D01*
X115835000Y-87622500D02*
X115861000Y-87623500D01*
X115861000Y-87623500D02*
X115887000Y-87625500D01*
X115887000Y-87625500D02*
X115913000Y-87628500D01*
X115913000Y-87628500D02*
X115939000Y-87633500D01*
X115939000Y-87633500D02*
X115964000Y-87639500D01*
X115964000Y-87639500D02*
X115990000Y-87646500D01*
X115990000Y-87646500D02*
X116014000Y-87655500D01*
X116014000Y-87655500D02*
X116038000Y-87665500D01*
X116038000Y-87665500D02*
X116062000Y-87676500D01*
X116062000Y-87676500D02*
X116085000Y-87689500D01*
X116085000Y-87689500D02*
X116107000Y-87703500D01*
X116107000Y-87703500D02*
X116129000Y-87717500D01*
X116129000Y-87717500D02*
X116150000Y-87733500D01*
X116150000Y-87733500D02*
X116170000Y-87750500D01*
X116170000Y-87750500D02*
X116189000Y-87768500D01*
X116189000Y-87768500D02*
X116207000Y-87787500D01*
X116207000Y-87787500D02*
X116224000Y-87807500D01*
X116224000Y-87807500D02*
X116240000Y-87828500D01*
X116240000Y-87828500D02*
X116254000Y-87850500D01*
X116254000Y-87850500D02*
X116268000Y-87872500D01*
X116268000Y-87872500D02*
X116281000Y-87895500D01*
X116281000Y-87895500D02*
X116292000Y-87919500D01*
X116292000Y-87919500D02*
X116302000Y-87943500D01*
X116302000Y-87943500D02*
X116311000Y-87967500D01*
X116311000Y-87967500D02*
X116318000Y-87993500D01*
X116318000Y-87993500D02*
X116324000Y-88018500D01*
X116324000Y-88018500D02*
X116329000Y-88044500D01*
X116329000Y-88044500D02*
X116332000Y-88070500D01*
X116332000Y-88070500D02*
X116334000Y-88096500D01*
X116334000Y-88096500D02*
X116335000Y-88122500D01*
X116335000Y-88122500D02*
X116335000Y-88922500D01*
X116335000Y-88922500D02*
X116334000Y-88948500D01*
X116334000Y-88948500D02*
X116332000Y-88974500D01*
X116332000Y-88974500D02*
X116329000Y-89000500D01*
X116329000Y-89000500D02*
X116324000Y-89026500D01*
X116324000Y-89026500D02*
X116318000Y-89051500D01*
X116318000Y-89051500D02*
X116311000Y-89077500D01*
X116311000Y-89077500D02*
X116302000Y-89101500D01*
X116302000Y-89101500D02*
X116292000Y-89125500D01*
X116292000Y-89125500D02*
X116281000Y-89149500D01*
X116281000Y-89149500D02*
X116268000Y-89172500D01*
X116268000Y-89172500D02*
X116254000Y-89194500D01*
X116254000Y-89194500D02*
X116240000Y-89216500D01*
X116240000Y-89216500D02*
X116224000Y-89237500D01*
X116224000Y-89237500D02*
X116207000Y-89257500D01*
X116207000Y-89257500D02*
X116189000Y-89276500D01*
X116189000Y-89276500D02*
X116170000Y-89294500D01*
X116170000Y-89294500D02*
X116150000Y-89311500D01*
X116150000Y-89311500D02*
X116129000Y-89327500D01*
X116129000Y-89327500D02*
X116107000Y-89341500D01*
X116107000Y-89341500D02*
X116085000Y-89355500D01*
X116085000Y-89355500D02*
X116062000Y-89368500D01*
X116062000Y-89368500D02*
X116038000Y-89379500D01*
X116038000Y-89379500D02*
X116014000Y-89389500D01*
X116014000Y-89389500D02*
X115990000Y-89398500D01*
X115990000Y-89398500D02*
X115964000Y-89405500D01*
X115964000Y-89405500D02*
X115939000Y-89411500D01*
X115939000Y-89411500D02*
X115913000Y-89416500D01*
X115913000Y-89416500D02*
X115887000Y-89419500D01*
X115887000Y-89419500D02*
X115861000Y-89421500D01*
X115861000Y-89421500D02*
X115835000Y-89422500D01*
X115835000Y-89422500D02*
X115809000Y-89421500D01*
X115809000Y-89421500D02*
X115783000Y-89419500D01*
X115783000Y-89419500D02*
X115757000Y-89416500D01*
X115757000Y-89416500D02*
X115731000Y-89411500D01*
X115731000Y-89411500D02*
X115706000Y-89405500D01*
X115706000Y-89405500D02*
X115680000Y-89398500D01*
X115680000Y-89398500D02*
X115656000Y-89389500D01*
X115656000Y-89389500D02*
X115632000Y-89379500D01*
X115632000Y-89379500D02*
X115608000Y-89368500D01*
X115608000Y-89368500D02*
X115585000Y-89355500D01*
X115585000Y-89355500D02*
X115563000Y-89341500D01*
X115563000Y-89341500D02*
X115541000Y-89327500D01*
X115541000Y-89327500D02*
X115520000Y-89311500D01*
X115520000Y-89311500D02*
X115500000Y-89294500D01*
X115500000Y-89294500D02*
X115481000Y-89276500D01*
X115481000Y-89276500D02*
X115463000Y-89257500D01*
X115463000Y-89257500D02*
X115446000Y-89237500D01*
X115446000Y-89237500D02*
X115430000Y-89216500D01*
X115430000Y-89216500D02*
X115416000Y-89194500D01*
X115416000Y-89194500D02*
X115402000Y-89172500D01*
X115402000Y-89172500D02*
X115389000Y-89149500D01*
X115389000Y-89149500D02*
X115378000Y-89125500D01*
X115378000Y-89125500D02*
X115368000Y-89101500D01*
X115368000Y-89101500D02*
X115359000Y-89077500D01*
X115359000Y-89077500D02*
X115352000Y-89051500D01*
X115352000Y-89051500D02*
X115346000Y-89026500D01*
X115346000Y-89026500D02*
X115341000Y-89000500D01*
X115341000Y-89000500D02*
X115338000Y-88974500D01*
X115338000Y-88974500D02*
X115336000Y-88948500D01*
X115336000Y-88948500D02*
X115335000Y-88922500D01*
X115335000Y-88922500D02*
X115335000Y-88122500D01*
X115335000Y-88122500D02*
X115336000Y-88096500D01*
X115336000Y-88096500D02*
X115338000Y-88070500D01*
X115338000Y-88070500D02*
X115341000Y-88044500D01*
X115341000Y-88044500D02*
X115346000Y-88018500D01*
X115346000Y-88018500D02*
X115352000Y-87993500D01*
X115352000Y-87993500D02*
X115359000Y-87967500D01*
X115359000Y-87967500D02*
X115368000Y-87943500D01*
X115368000Y-87943500D02*
X115378000Y-87919500D01*
X115378000Y-87919500D02*
X115389000Y-87895500D01*
X115389000Y-87895500D02*
X115402000Y-87872500D01*
X115402000Y-87872500D02*
X115416000Y-87850500D01*
X115416000Y-87850500D02*
X115430000Y-87828500D01*
X115430000Y-87828500D02*
X115446000Y-87807500D01*
X115446000Y-87807500D02*
X115463000Y-87787500D01*
X115463000Y-87787500D02*
X115481000Y-87768500D01*
X115481000Y-87768500D02*
X115500000Y-87750500D01*
X115500000Y-87750500D02*
X115520000Y-87733500D01*
X115520000Y-87733500D02*
X115541000Y-87717500D01*
X115541000Y-87717500D02*
X115563000Y-87703500D01*
X115563000Y-87703500D02*
X115585000Y-87689500D01*
X115585000Y-87689500D02*
X115608000Y-87676500D01*
X115608000Y-87676500D02*
X115632000Y-87665500D01*
X115632000Y-87665500D02*
X115656000Y-87655500D01*
X115656000Y-87655500D02*
X115680000Y-87646500D01*
X115680000Y-87646500D02*
X115706000Y-87639500D01*
X115706000Y-87639500D02*
X115731000Y-87633500D01*
X115731000Y-87633500D02*
X115757000Y-87628500D01*
X115757000Y-87628500D02*
X115783000Y-87625500D01*
X115783000Y-87625500D02*
X115809000Y-87623500D01*
X115809000Y-87623500D02*
X115835000Y-87622500D01*
X115835000Y-87622500D02*
X115835000Y-87622500D01*
G36*
X115861000Y-87623500D02*
G01*
X115887000Y-87625500D01*
X115913000Y-87628500D01*
X115939000Y-87633500D01*
X115964000Y-87639500D01*
X115990000Y-87646500D01*
X116014000Y-87655500D01*
X116038000Y-87665500D01*
X116062000Y-87676500D01*
X116085000Y-87689500D01*
X116129000Y-87717500D01*
X116150000Y-87733500D01*
X116170000Y-87750500D01*
X116189000Y-87768500D01*
X116207000Y-87787500D01*
X116224000Y-87807500D01*
X116240000Y-87828500D01*
X116268000Y-87872500D01*
X116281000Y-87895500D01*
X116292000Y-87919500D01*
X116302000Y-87943500D01*
X116311000Y-87967500D01*
X116318000Y-87993500D01*
X116324000Y-88018500D01*
X116329000Y-88044500D01*
X116332000Y-88070500D01*
X116334000Y-88096500D01*
X116335000Y-88122500D01*
X116335000Y-88922500D01*
X116334000Y-88948500D01*
X116332000Y-88974500D01*
X116329000Y-89000500D01*
X116324000Y-89026500D01*
X116318000Y-89051500D01*
X116311000Y-89077500D01*
X116302000Y-89101500D01*
X116292000Y-89125500D01*
X116281000Y-89149500D01*
X116268000Y-89172500D01*
X116240000Y-89216500D01*
X116224000Y-89237500D01*
X116207000Y-89257500D01*
X116189000Y-89276500D01*
X116170000Y-89294500D01*
X116150000Y-89311500D01*
X116129000Y-89327500D01*
X116085000Y-89355500D01*
X116062000Y-89368500D01*
X116038000Y-89379500D01*
X116014000Y-89389500D01*
X115990000Y-89398500D01*
X115964000Y-89405500D01*
X115939000Y-89411500D01*
X115913000Y-89416500D01*
X115887000Y-89419500D01*
X115861000Y-89421500D01*
X115835000Y-89422500D01*
X115809000Y-89421500D01*
X115783000Y-89419500D01*
X115757000Y-89416500D01*
X115731000Y-89411500D01*
X115706000Y-89405500D01*
X115680000Y-89398500D01*
X115656000Y-89389500D01*
X115632000Y-89379500D01*
X115608000Y-89368500D01*
X115585000Y-89355500D01*
X115541000Y-89327500D01*
X115520000Y-89311500D01*
X115500000Y-89294500D01*
X115481000Y-89276500D01*
X115463000Y-89257500D01*
X115446000Y-89237500D01*
X115430000Y-89216500D01*
X115402000Y-89172500D01*
X115389000Y-89149500D01*
X115378000Y-89125500D01*
X115368000Y-89101500D01*
X115359000Y-89077500D01*
X115352000Y-89051500D01*
X115346000Y-89026500D01*
X115341000Y-89000500D01*
X115338000Y-88974500D01*
X115336000Y-88948500D01*
X115335000Y-88922500D01*
X115335000Y-88122500D01*
X115336000Y-88096500D01*
X115338000Y-88070500D01*
X115341000Y-88044500D01*
X115346000Y-88018500D01*
X115352000Y-87993500D01*
X115359000Y-87967500D01*
X115368000Y-87943500D01*
X115378000Y-87919500D01*
X115389000Y-87895500D01*
X115402000Y-87872500D01*
X115430000Y-87828500D01*
X115446000Y-87807500D01*
X115463000Y-87787500D01*
X115481000Y-87768500D01*
X115500000Y-87750500D01*
X115520000Y-87733500D01*
X115541000Y-87717500D01*
X115585000Y-87689500D01*
X115608000Y-87676500D01*
X115632000Y-87665500D01*
X115656000Y-87655500D01*
X115680000Y-87646500D01*
X115706000Y-87639500D01*
X115731000Y-87633500D01*
X115757000Y-87628500D01*
X115783000Y-87625500D01*
X115809000Y-87623500D01*
X115835000Y-87622500D01*
X115861000Y-87623500D01*
G37*
X115861000Y-87623500D02*
X115887000Y-87625500D01*
X115913000Y-87628500D01*
X115939000Y-87633500D01*
X115964000Y-87639500D01*
X115990000Y-87646500D01*
X116014000Y-87655500D01*
X116038000Y-87665500D01*
X116062000Y-87676500D01*
X116085000Y-87689500D01*
X116129000Y-87717500D01*
X116150000Y-87733500D01*
X116170000Y-87750500D01*
X116189000Y-87768500D01*
X116207000Y-87787500D01*
X116224000Y-87807500D01*
X116240000Y-87828500D01*
X116268000Y-87872500D01*
X116281000Y-87895500D01*
X116292000Y-87919500D01*
X116302000Y-87943500D01*
X116311000Y-87967500D01*
X116318000Y-87993500D01*
X116324000Y-88018500D01*
X116329000Y-88044500D01*
X116332000Y-88070500D01*
X116334000Y-88096500D01*
X116335000Y-88122500D01*
X116335000Y-88922500D01*
X116334000Y-88948500D01*
X116332000Y-88974500D01*
X116329000Y-89000500D01*
X116324000Y-89026500D01*
X116318000Y-89051500D01*
X116311000Y-89077500D01*
X116302000Y-89101500D01*
X116292000Y-89125500D01*
X116281000Y-89149500D01*
X116268000Y-89172500D01*
X116240000Y-89216500D01*
X116224000Y-89237500D01*
X116207000Y-89257500D01*
X116189000Y-89276500D01*
X116170000Y-89294500D01*
X116150000Y-89311500D01*
X116129000Y-89327500D01*
X116085000Y-89355500D01*
X116062000Y-89368500D01*
X116038000Y-89379500D01*
X116014000Y-89389500D01*
X115990000Y-89398500D01*
X115964000Y-89405500D01*
X115939000Y-89411500D01*
X115913000Y-89416500D01*
X115887000Y-89419500D01*
X115861000Y-89421500D01*
X115835000Y-89422500D01*
X115809000Y-89421500D01*
X115783000Y-89419500D01*
X115757000Y-89416500D01*
X115731000Y-89411500D01*
X115706000Y-89405500D01*
X115680000Y-89398500D01*
X115656000Y-89389500D01*
X115632000Y-89379500D01*
X115608000Y-89368500D01*
X115585000Y-89355500D01*
X115541000Y-89327500D01*
X115520000Y-89311500D01*
X115500000Y-89294500D01*
X115481000Y-89276500D01*
X115463000Y-89257500D01*
X115446000Y-89237500D01*
X115430000Y-89216500D01*
X115402000Y-89172500D01*
X115389000Y-89149500D01*
X115378000Y-89125500D01*
X115368000Y-89101500D01*
X115359000Y-89077500D01*
X115352000Y-89051500D01*
X115346000Y-89026500D01*
X115341000Y-89000500D01*
X115338000Y-88974500D01*
X115336000Y-88948500D01*
X115335000Y-88922500D01*
X115335000Y-88122500D01*
X115336000Y-88096500D01*
X115338000Y-88070500D01*
X115341000Y-88044500D01*
X115346000Y-88018500D01*
X115352000Y-87993500D01*
X115359000Y-87967500D01*
X115368000Y-87943500D01*
X115378000Y-87919500D01*
X115389000Y-87895500D01*
X115402000Y-87872500D01*
X115430000Y-87828500D01*
X115446000Y-87807500D01*
X115463000Y-87787500D01*
X115481000Y-87768500D01*
X115500000Y-87750500D01*
X115520000Y-87733500D01*
X115541000Y-87717500D01*
X115585000Y-87689500D01*
X115608000Y-87676500D01*
X115632000Y-87665500D01*
X115656000Y-87655500D01*
X115680000Y-87646500D01*
X115706000Y-87639500D01*
X115731000Y-87633500D01*
X115757000Y-87628500D01*
X115783000Y-87625500D01*
X115809000Y-87623500D01*
X115835000Y-87622500D01*
X115861000Y-87623500D01*
X115835000Y-83422500D02*
X115861000Y-83423500D01*
X115861000Y-83423500D02*
X115887000Y-83425500D01*
X115887000Y-83425500D02*
X115913000Y-83428500D01*
X115913000Y-83428500D02*
X115939000Y-83433500D01*
X115939000Y-83433500D02*
X115964000Y-83439500D01*
X115964000Y-83439500D02*
X115990000Y-83446500D01*
X115990000Y-83446500D02*
X116014000Y-83455500D01*
X116014000Y-83455500D02*
X116038000Y-83465500D01*
X116038000Y-83465500D02*
X116062000Y-83476500D01*
X116062000Y-83476500D02*
X116085000Y-83489500D01*
X116085000Y-83489500D02*
X116107000Y-83503500D01*
X116107000Y-83503500D02*
X116129000Y-83517500D01*
X116129000Y-83517500D02*
X116150000Y-83533500D01*
X116150000Y-83533500D02*
X116170000Y-83550500D01*
X116170000Y-83550500D02*
X116189000Y-83568500D01*
X116189000Y-83568500D02*
X116207000Y-83587500D01*
X116207000Y-83587500D02*
X116224000Y-83607500D01*
X116224000Y-83607500D02*
X116240000Y-83628500D01*
X116240000Y-83628500D02*
X116254000Y-83650500D01*
X116254000Y-83650500D02*
X116268000Y-83672500D01*
X116268000Y-83672500D02*
X116281000Y-83695500D01*
X116281000Y-83695500D02*
X116292000Y-83719500D01*
X116292000Y-83719500D02*
X116302000Y-83743500D01*
X116302000Y-83743500D02*
X116311000Y-83767500D01*
X116311000Y-83767500D02*
X116318000Y-83793500D01*
X116318000Y-83793500D02*
X116324000Y-83818500D01*
X116324000Y-83818500D02*
X116329000Y-83844500D01*
X116329000Y-83844500D02*
X116332000Y-83870500D01*
X116332000Y-83870500D02*
X116334000Y-83896500D01*
X116334000Y-83896500D02*
X116335000Y-83922500D01*
X116335000Y-83922500D02*
X116335000Y-85122500D01*
X116335000Y-85122500D02*
X116334000Y-85148500D01*
X116334000Y-85148500D02*
X116332000Y-85174500D01*
X116332000Y-85174500D02*
X116329000Y-85200500D01*
X116329000Y-85200500D02*
X116324000Y-85226500D01*
X116324000Y-85226500D02*
X116318000Y-85251500D01*
X116318000Y-85251500D02*
X116311000Y-85277500D01*
X116311000Y-85277500D02*
X116302000Y-85301500D01*
X116302000Y-85301500D02*
X116292000Y-85325500D01*
X116292000Y-85325500D02*
X116281000Y-85349500D01*
X116281000Y-85349500D02*
X116268000Y-85372500D01*
X116268000Y-85372500D02*
X116254000Y-85394500D01*
X116254000Y-85394500D02*
X116240000Y-85416500D01*
X116240000Y-85416500D02*
X116224000Y-85437500D01*
X116224000Y-85437500D02*
X116207000Y-85457500D01*
X116207000Y-85457500D02*
X116189000Y-85476500D01*
X116189000Y-85476500D02*
X116170000Y-85494500D01*
X116170000Y-85494500D02*
X116150000Y-85511500D01*
X116150000Y-85511500D02*
X116129000Y-85527500D01*
X116129000Y-85527500D02*
X116107000Y-85541500D01*
X116107000Y-85541500D02*
X116085000Y-85555500D01*
X116085000Y-85555500D02*
X116062000Y-85568500D01*
X116062000Y-85568500D02*
X116038000Y-85579500D01*
X116038000Y-85579500D02*
X116014000Y-85589500D01*
X116014000Y-85589500D02*
X115990000Y-85598500D01*
X115990000Y-85598500D02*
X115964000Y-85605500D01*
X115964000Y-85605500D02*
X115939000Y-85611500D01*
X115939000Y-85611500D02*
X115913000Y-85616500D01*
X115913000Y-85616500D02*
X115887000Y-85619500D01*
X115887000Y-85619500D02*
X115861000Y-85621500D01*
X115861000Y-85621500D02*
X115835000Y-85622500D01*
X115835000Y-85622500D02*
X115809000Y-85621500D01*
X115809000Y-85621500D02*
X115783000Y-85619500D01*
X115783000Y-85619500D02*
X115757000Y-85616500D01*
X115757000Y-85616500D02*
X115731000Y-85611500D01*
X115731000Y-85611500D02*
X115706000Y-85605500D01*
X115706000Y-85605500D02*
X115680000Y-85598500D01*
X115680000Y-85598500D02*
X115656000Y-85589500D01*
X115656000Y-85589500D02*
X115632000Y-85579500D01*
X115632000Y-85579500D02*
X115608000Y-85568500D01*
X115608000Y-85568500D02*
X115585000Y-85555500D01*
X115585000Y-85555500D02*
X115563000Y-85541500D01*
X115563000Y-85541500D02*
X115541000Y-85527500D01*
X115541000Y-85527500D02*
X115520000Y-85511500D01*
X115520000Y-85511500D02*
X115500000Y-85494500D01*
X115500000Y-85494500D02*
X115481000Y-85476500D01*
X115481000Y-85476500D02*
X115463000Y-85457500D01*
X115463000Y-85457500D02*
X115446000Y-85437500D01*
X115446000Y-85437500D02*
X115430000Y-85416500D01*
X115430000Y-85416500D02*
X115416000Y-85394500D01*
X115416000Y-85394500D02*
X115402000Y-85372500D01*
X115402000Y-85372500D02*
X115389000Y-85349500D01*
X115389000Y-85349500D02*
X115378000Y-85325500D01*
X115378000Y-85325500D02*
X115368000Y-85301500D01*
X115368000Y-85301500D02*
X115359000Y-85277500D01*
X115359000Y-85277500D02*
X115352000Y-85251500D01*
X115352000Y-85251500D02*
X115346000Y-85226500D01*
X115346000Y-85226500D02*
X115341000Y-85200500D01*
X115341000Y-85200500D02*
X115338000Y-85174500D01*
X115338000Y-85174500D02*
X115336000Y-85148500D01*
X115336000Y-85148500D02*
X115335000Y-85122500D01*
X115335000Y-85122500D02*
X115335000Y-83922500D01*
X115335000Y-83922500D02*
X115336000Y-83896500D01*
X115336000Y-83896500D02*
X115338000Y-83870500D01*
X115338000Y-83870500D02*
X115341000Y-83844500D01*
X115341000Y-83844500D02*
X115346000Y-83818500D01*
X115346000Y-83818500D02*
X115352000Y-83793500D01*
X115352000Y-83793500D02*
X115359000Y-83767500D01*
X115359000Y-83767500D02*
X115368000Y-83743500D01*
X115368000Y-83743500D02*
X115378000Y-83719500D01*
X115378000Y-83719500D02*
X115389000Y-83695500D01*
X115389000Y-83695500D02*
X115402000Y-83672500D01*
X115402000Y-83672500D02*
X115416000Y-83650500D01*
X115416000Y-83650500D02*
X115430000Y-83628500D01*
X115430000Y-83628500D02*
X115446000Y-83607500D01*
X115446000Y-83607500D02*
X115463000Y-83587500D01*
X115463000Y-83587500D02*
X115481000Y-83568500D01*
X115481000Y-83568500D02*
X115500000Y-83550500D01*
X115500000Y-83550500D02*
X115520000Y-83533500D01*
X115520000Y-83533500D02*
X115541000Y-83517500D01*
X115541000Y-83517500D02*
X115563000Y-83503500D01*
X115563000Y-83503500D02*
X115585000Y-83489500D01*
X115585000Y-83489500D02*
X115608000Y-83476500D01*
X115608000Y-83476500D02*
X115632000Y-83465500D01*
X115632000Y-83465500D02*
X115656000Y-83455500D01*
X115656000Y-83455500D02*
X115680000Y-83446500D01*
X115680000Y-83446500D02*
X115706000Y-83439500D01*
X115706000Y-83439500D02*
X115731000Y-83433500D01*
X115731000Y-83433500D02*
X115757000Y-83428500D01*
X115757000Y-83428500D02*
X115783000Y-83425500D01*
X115783000Y-83425500D02*
X115809000Y-83423500D01*
X115809000Y-83423500D02*
X115835000Y-83422500D01*
X115835000Y-83422500D02*
X115835000Y-83422500D01*
G36*
X115861000Y-83423500D02*
G01*
X115887000Y-83425500D01*
X115913000Y-83428500D01*
X115939000Y-83433500D01*
X115964000Y-83439500D01*
X115990000Y-83446500D01*
X116014000Y-83455500D01*
X116038000Y-83465500D01*
X116062000Y-83476500D01*
X116085000Y-83489500D01*
X116129000Y-83517500D01*
X116150000Y-83533500D01*
X116170000Y-83550500D01*
X116189000Y-83568500D01*
X116207000Y-83587500D01*
X116224000Y-83607500D01*
X116240000Y-83628500D01*
X116268000Y-83672500D01*
X116281000Y-83695500D01*
X116292000Y-83719500D01*
X116302000Y-83743500D01*
X116311000Y-83767500D01*
X116318000Y-83793500D01*
X116324000Y-83818500D01*
X116329000Y-83844500D01*
X116332000Y-83870500D01*
X116334000Y-83896500D01*
X116335000Y-83922500D01*
X116335000Y-85122500D01*
X116334000Y-85148500D01*
X116332000Y-85174500D01*
X116329000Y-85200500D01*
X116324000Y-85226500D01*
X116318000Y-85251500D01*
X116311000Y-85277500D01*
X116302000Y-85301500D01*
X116292000Y-85325500D01*
X116281000Y-85349500D01*
X116268000Y-85372500D01*
X116240000Y-85416500D01*
X116224000Y-85437500D01*
X116207000Y-85457500D01*
X116189000Y-85476500D01*
X116170000Y-85494500D01*
X116150000Y-85511500D01*
X116129000Y-85527500D01*
X116085000Y-85555500D01*
X116062000Y-85568500D01*
X116038000Y-85579500D01*
X116014000Y-85589500D01*
X115990000Y-85598500D01*
X115964000Y-85605500D01*
X115939000Y-85611500D01*
X115913000Y-85616500D01*
X115887000Y-85619500D01*
X115861000Y-85621500D01*
X115835000Y-85622500D01*
X115809000Y-85621500D01*
X115783000Y-85619500D01*
X115757000Y-85616500D01*
X115731000Y-85611500D01*
X115706000Y-85605500D01*
X115680000Y-85598500D01*
X115656000Y-85589500D01*
X115632000Y-85579500D01*
X115608000Y-85568500D01*
X115585000Y-85555500D01*
X115541000Y-85527500D01*
X115520000Y-85511500D01*
X115500000Y-85494500D01*
X115481000Y-85476500D01*
X115463000Y-85457500D01*
X115446000Y-85437500D01*
X115430000Y-85416500D01*
X115402000Y-85372500D01*
X115389000Y-85349500D01*
X115378000Y-85325500D01*
X115368000Y-85301500D01*
X115359000Y-85277500D01*
X115352000Y-85251500D01*
X115346000Y-85226500D01*
X115341000Y-85200500D01*
X115338000Y-85174500D01*
X115336000Y-85148500D01*
X115335000Y-85122500D01*
X115335000Y-83922500D01*
X115336000Y-83896500D01*
X115338000Y-83870500D01*
X115341000Y-83844500D01*
X115346000Y-83818500D01*
X115352000Y-83793500D01*
X115359000Y-83767500D01*
X115368000Y-83743500D01*
X115378000Y-83719500D01*
X115389000Y-83695500D01*
X115402000Y-83672500D01*
X115430000Y-83628500D01*
X115446000Y-83607500D01*
X115463000Y-83587500D01*
X115481000Y-83568500D01*
X115500000Y-83550500D01*
X115520000Y-83533500D01*
X115541000Y-83517500D01*
X115585000Y-83489500D01*
X115608000Y-83476500D01*
X115632000Y-83465500D01*
X115656000Y-83455500D01*
X115680000Y-83446500D01*
X115706000Y-83439500D01*
X115731000Y-83433500D01*
X115757000Y-83428500D01*
X115783000Y-83425500D01*
X115809000Y-83423500D01*
X115835000Y-83422500D01*
X115861000Y-83423500D01*
G37*
X115861000Y-83423500D02*
X115887000Y-83425500D01*
X115913000Y-83428500D01*
X115939000Y-83433500D01*
X115964000Y-83439500D01*
X115990000Y-83446500D01*
X116014000Y-83455500D01*
X116038000Y-83465500D01*
X116062000Y-83476500D01*
X116085000Y-83489500D01*
X116129000Y-83517500D01*
X116150000Y-83533500D01*
X116170000Y-83550500D01*
X116189000Y-83568500D01*
X116207000Y-83587500D01*
X116224000Y-83607500D01*
X116240000Y-83628500D01*
X116268000Y-83672500D01*
X116281000Y-83695500D01*
X116292000Y-83719500D01*
X116302000Y-83743500D01*
X116311000Y-83767500D01*
X116318000Y-83793500D01*
X116324000Y-83818500D01*
X116329000Y-83844500D01*
X116332000Y-83870500D01*
X116334000Y-83896500D01*
X116335000Y-83922500D01*
X116335000Y-85122500D01*
X116334000Y-85148500D01*
X116332000Y-85174500D01*
X116329000Y-85200500D01*
X116324000Y-85226500D01*
X116318000Y-85251500D01*
X116311000Y-85277500D01*
X116302000Y-85301500D01*
X116292000Y-85325500D01*
X116281000Y-85349500D01*
X116268000Y-85372500D01*
X116240000Y-85416500D01*
X116224000Y-85437500D01*
X116207000Y-85457500D01*
X116189000Y-85476500D01*
X116170000Y-85494500D01*
X116150000Y-85511500D01*
X116129000Y-85527500D01*
X116085000Y-85555500D01*
X116062000Y-85568500D01*
X116038000Y-85579500D01*
X116014000Y-85589500D01*
X115990000Y-85598500D01*
X115964000Y-85605500D01*
X115939000Y-85611500D01*
X115913000Y-85616500D01*
X115887000Y-85619500D01*
X115861000Y-85621500D01*
X115835000Y-85622500D01*
X115809000Y-85621500D01*
X115783000Y-85619500D01*
X115757000Y-85616500D01*
X115731000Y-85611500D01*
X115706000Y-85605500D01*
X115680000Y-85598500D01*
X115656000Y-85589500D01*
X115632000Y-85579500D01*
X115608000Y-85568500D01*
X115585000Y-85555500D01*
X115541000Y-85527500D01*
X115520000Y-85511500D01*
X115500000Y-85494500D01*
X115481000Y-85476500D01*
X115463000Y-85457500D01*
X115446000Y-85437500D01*
X115430000Y-85416500D01*
X115402000Y-85372500D01*
X115389000Y-85349500D01*
X115378000Y-85325500D01*
X115368000Y-85301500D01*
X115359000Y-85277500D01*
X115352000Y-85251500D01*
X115346000Y-85226500D01*
X115341000Y-85200500D01*
X115338000Y-85174500D01*
X115336000Y-85148500D01*
X115335000Y-85122500D01*
X115335000Y-83922500D01*
X115336000Y-83896500D01*
X115338000Y-83870500D01*
X115341000Y-83844500D01*
X115346000Y-83818500D01*
X115352000Y-83793500D01*
X115359000Y-83767500D01*
X115368000Y-83743500D01*
X115378000Y-83719500D01*
X115389000Y-83695500D01*
X115402000Y-83672500D01*
X115430000Y-83628500D01*
X115446000Y-83607500D01*
X115463000Y-83587500D01*
X115481000Y-83568500D01*
X115500000Y-83550500D01*
X115520000Y-83533500D01*
X115541000Y-83517500D01*
X115585000Y-83489500D01*
X115608000Y-83476500D01*
X115632000Y-83465500D01*
X115656000Y-83455500D01*
X115680000Y-83446500D01*
X115706000Y-83439500D01*
X115731000Y-83433500D01*
X115757000Y-83428500D01*
X115783000Y-83425500D01*
X115809000Y-83423500D01*
X115835000Y-83422500D01*
X115861000Y-83423500D01*
X127075000Y-87622500D02*
X127101000Y-87623500D01*
X127101000Y-87623500D02*
X127127000Y-87625500D01*
X127127000Y-87625500D02*
X127153000Y-87628500D01*
X127153000Y-87628500D02*
X127179000Y-87633500D01*
X127179000Y-87633500D02*
X127204000Y-87639500D01*
X127204000Y-87639500D02*
X127230000Y-87646500D01*
X127230000Y-87646500D02*
X127254000Y-87655500D01*
X127254000Y-87655500D02*
X127278000Y-87665500D01*
X127278000Y-87665500D02*
X127302000Y-87676500D01*
X127302000Y-87676500D02*
X127325000Y-87689500D01*
X127325000Y-87689500D02*
X127347000Y-87703500D01*
X127347000Y-87703500D02*
X127369000Y-87717500D01*
X127369000Y-87717500D02*
X127390000Y-87733500D01*
X127390000Y-87733500D02*
X127410000Y-87750500D01*
X127410000Y-87750500D02*
X127429000Y-87768500D01*
X127429000Y-87768500D02*
X127447000Y-87787500D01*
X127447000Y-87787500D02*
X127464000Y-87807500D01*
X127464000Y-87807500D02*
X127480000Y-87828500D01*
X127480000Y-87828500D02*
X127494000Y-87850500D01*
X127494000Y-87850500D02*
X127508000Y-87872500D01*
X127508000Y-87872500D02*
X127521000Y-87895500D01*
X127521000Y-87895500D02*
X127532000Y-87919500D01*
X127532000Y-87919500D02*
X127542000Y-87943500D01*
X127542000Y-87943500D02*
X127551000Y-87967500D01*
X127551000Y-87967500D02*
X127558000Y-87993500D01*
X127558000Y-87993500D02*
X127564000Y-88018500D01*
X127564000Y-88018500D02*
X127569000Y-88044500D01*
X127569000Y-88044500D02*
X127572000Y-88070500D01*
X127572000Y-88070500D02*
X127574000Y-88096500D01*
X127574000Y-88096500D02*
X127575000Y-88122500D01*
X127575000Y-88122500D02*
X127575000Y-88922500D01*
X127575000Y-88922500D02*
X127574000Y-88948500D01*
X127574000Y-88948500D02*
X127572000Y-88974500D01*
X127572000Y-88974500D02*
X127569000Y-89000500D01*
X127569000Y-89000500D02*
X127564000Y-89026500D01*
X127564000Y-89026500D02*
X127558000Y-89051500D01*
X127558000Y-89051500D02*
X127551000Y-89077500D01*
X127551000Y-89077500D02*
X127542000Y-89101500D01*
X127542000Y-89101500D02*
X127532000Y-89125500D01*
X127532000Y-89125500D02*
X127521000Y-89149500D01*
X127521000Y-89149500D02*
X127508000Y-89172500D01*
X127508000Y-89172500D02*
X127494000Y-89194500D01*
X127494000Y-89194500D02*
X127480000Y-89216500D01*
X127480000Y-89216500D02*
X127464000Y-89237500D01*
X127464000Y-89237500D02*
X127447000Y-89257500D01*
X127447000Y-89257500D02*
X127429000Y-89276500D01*
X127429000Y-89276500D02*
X127410000Y-89294500D01*
X127410000Y-89294500D02*
X127390000Y-89311500D01*
X127390000Y-89311500D02*
X127369000Y-89327500D01*
X127369000Y-89327500D02*
X127347000Y-89341500D01*
X127347000Y-89341500D02*
X127325000Y-89355500D01*
X127325000Y-89355500D02*
X127302000Y-89368500D01*
X127302000Y-89368500D02*
X127278000Y-89379500D01*
X127278000Y-89379500D02*
X127254000Y-89389500D01*
X127254000Y-89389500D02*
X127230000Y-89398500D01*
X127230000Y-89398500D02*
X127204000Y-89405500D01*
X127204000Y-89405500D02*
X127179000Y-89411500D01*
X127179000Y-89411500D02*
X127153000Y-89416500D01*
X127153000Y-89416500D02*
X127127000Y-89419500D01*
X127127000Y-89419500D02*
X127101000Y-89421500D01*
X127101000Y-89421500D02*
X127075000Y-89422500D01*
X127075000Y-89422500D02*
X127049000Y-89421500D01*
X127049000Y-89421500D02*
X127023000Y-89419500D01*
X127023000Y-89419500D02*
X126997000Y-89416500D01*
X126997000Y-89416500D02*
X126971000Y-89411500D01*
X126971000Y-89411500D02*
X126946000Y-89405500D01*
X126946000Y-89405500D02*
X126920000Y-89398500D01*
X126920000Y-89398500D02*
X126896000Y-89389500D01*
X126896000Y-89389500D02*
X126872000Y-89379500D01*
X126872000Y-89379500D02*
X126848000Y-89368500D01*
X126848000Y-89368500D02*
X126825000Y-89355500D01*
X126825000Y-89355500D02*
X126803000Y-89341500D01*
X126803000Y-89341500D02*
X126781000Y-89327500D01*
X126781000Y-89327500D02*
X126760000Y-89311500D01*
X126760000Y-89311500D02*
X126740000Y-89294500D01*
X126740000Y-89294500D02*
X126721000Y-89276500D01*
X126721000Y-89276500D02*
X126703000Y-89257500D01*
X126703000Y-89257500D02*
X126686000Y-89237500D01*
X126686000Y-89237500D02*
X126670000Y-89216500D01*
X126670000Y-89216500D02*
X126656000Y-89194500D01*
X126656000Y-89194500D02*
X126642000Y-89172500D01*
X126642000Y-89172500D02*
X126629000Y-89149500D01*
X126629000Y-89149500D02*
X126618000Y-89125500D01*
X126618000Y-89125500D02*
X126608000Y-89101500D01*
X126608000Y-89101500D02*
X126599000Y-89077500D01*
X126599000Y-89077500D02*
X126592000Y-89051500D01*
X126592000Y-89051500D02*
X126586000Y-89026500D01*
X126586000Y-89026500D02*
X126581000Y-89000500D01*
X126581000Y-89000500D02*
X126578000Y-88974500D01*
X126578000Y-88974500D02*
X126576000Y-88948500D01*
X126576000Y-88948500D02*
X126575000Y-88922500D01*
X126575000Y-88922500D02*
X126575000Y-88122500D01*
X126575000Y-88122500D02*
X126576000Y-88096500D01*
X126576000Y-88096500D02*
X126578000Y-88070500D01*
X126578000Y-88070500D02*
X126581000Y-88044500D01*
X126581000Y-88044500D02*
X126586000Y-88018500D01*
X126586000Y-88018500D02*
X126592000Y-87993500D01*
X126592000Y-87993500D02*
X126599000Y-87967500D01*
X126599000Y-87967500D02*
X126608000Y-87943500D01*
X126608000Y-87943500D02*
X126618000Y-87919500D01*
X126618000Y-87919500D02*
X126629000Y-87895500D01*
X126629000Y-87895500D02*
X126642000Y-87872500D01*
X126642000Y-87872500D02*
X126656000Y-87850500D01*
X126656000Y-87850500D02*
X126670000Y-87828500D01*
X126670000Y-87828500D02*
X126686000Y-87807500D01*
X126686000Y-87807500D02*
X126703000Y-87787500D01*
X126703000Y-87787500D02*
X126721000Y-87768500D01*
X126721000Y-87768500D02*
X126740000Y-87750500D01*
X126740000Y-87750500D02*
X126760000Y-87733500D01*
X126760000Y-87733500D02*
X126781000Y-87717500D01*
X126781000Y-87717500D02*
X126803000Y-87703500D01*
X126803000Y-87703500D02*
X126825000Y-87689500D01*
X126825000Y-87689500D02*
X126848000Y-87676500D01*
X126848000Y-87676500D02*
X126872000Y-87665500D01*
X126872000Y-87665500D02*
X126896000Y-87655500D01*
X126896000Y-87655500D02*
X126920000Y-87646500D01*
X126920000Y-87646500D02*
X126946000Y-87639500D01*
X126946000Y-87639500D02*
X126971000Y-87633500D01*
X126971000Y-87633500D02*
X126997000Y-87628500D01*
X126997000Y-87628500D02*
X127023000Y-87625500D01*
X127023000Y-87625500D02*
X127049000Y-87623500D01*
X127049000Y-87623500D02*
X127075000Y-87622500D01*
X127075000Y-87622500D02*
X127075000Y-87622500D01*
G36*
X127101000Y-87623500D02*
G01*
X127127000Y-87625500D01*
X127153000Y-87628500D01*
X127179000Y-87633500D01*
X127204000Y-87639500D01*
X127230000Y-87646500D01*
X127254000Y-87655500D01*
X127278000Y-87665500D01*
X127302000Y-87676500D01*
X127325000Y-87689500D01*
X127369000Y-87717500D01*
X127390000Y-87733500D01*
X127410000Y-87750500D01*
X127429000Y-87768500D01*
X127447000Y-87787500D01*
X127464000Y-87807500D01*
X127480000Y-87828500D01*
X127508000Y-87872500D01*
X127521000Y-87895500D01*
X127532000Y-87919500D01*
X127542000Y-87943500D01*
X127551000Y-87967500D01*
X127558000Y-87993500D01*
X127564000Y-88018500D01*
X127569000Y-88044500D01*
X127572000Y-88070500D01*
X127574000Y-88096500D01*
X127575000Y-88122500D01*
X127575000Y-88922500D01*
X127574000Y-88948500D01*
X127572000Y-88974500D01*
X127569000Y-89000500D01*
X127564000Y-89026500D01*
X127558000Y-89051500D01*
X127551000Y-89077500D01*
X127542000Y-89101500D01*
X127532000Y-89125500D01*
X127521000Y-89149500D01*
X127508000Y-89172500D01*
X127480000Y-89216500D01*
X127464000Y-89237500D01*
X127447000Y-89257500D01*
X127429000Y-89276500D01*
X127410000Y-89294500D01*
X127390000Y-89311500D01*
X127369000Y-89327500D01*
X127325000Y-89355500D01*
X127302000Y-89368500D01*
X127278000Y-89379500D01*
X127254000Y-89389500D01*
X127230000Y-89398500D01*
X127204000Y-89405500D01*
X127179000Y-89411500D01*
X127153000Y-89416500D01*
X127127000Y-89419500D01*
X127101000Y-89421500D01*
X127075000Y-89422500D01*
X127049000Y-89421500D01*
X127023000Y-89419500D01*
X126997000Y-89416500D01*
X126971000Y-89411500D01*
X126946000Y-89405500D01*
X126920000Y-89398500D01*
X126896000Y-89389500D01*
X126872000Y-89379500D01*
X126848000Y-89368500D01*
X126825000Y-89355500D01*
X126781000Y-89327500D01*
X126760000Y-89311500D01*
X126740000Y-89294500D01*
X126721000Y-89276500D01*
X126703000Y-89257500D01*
X126686000Y-89237500D01*
X126670000Y-89216500D01*
X126642000Y-89172500D01*
X126629000Y-89149500D01*
X126618000Y-89125500D01*
X126608000Y-89101500D01*
X126599000Y-89077500D01*
X126592000Y-89051500D01*
X126586000Y-89026500D01*
X126581000Y-89000500D01*
X126578000Y-88974500D01*
X126576000Y-88948500D01*
X126575000Y-88922500D01*
X126575000Y-88122500D01*
X126576000Y-88096500D01*
X126578000Y-88070500D01*
X126581000Y-88044500D01*
X126586000Y-88018500D01*
X126592000Y-87993500D01*
X126599000Y-87967500D01*
X126608000Y-87943500D01*
X126618000Y-87919500D01*
X126629000Y-87895500D01*
X126642000Y-87872500D01*
X126670000Y-87828500D01*
X126686000Y-87807500D01*
X126703000Y-87787500D01*
X126721000Y-87768500D01*
X126740000Y-87750500D01*
X126760000Y-87733500D01*
X126781000Y-87717500D01*
X126825000Y-87689500D01*
X126848000Y-87676500D01*
X126872000Y-87665500D01*
X126896000Y-87655500D01*
X126920000Y-87646500D01*
X126946000Y-87639500D01*
X126971000Y-87633500D01*
X126997000Y-87628500D01*
X127023000Y-87625500D01*
X127049000Y-87623500D01*
X127075000Y-87622500D01*
X127101000Y-87623500D01*
G37*
X127101000Y-87623500D02*
X127127000Y-87625500D01*
X127153000Y-87628500D01*
X127179000Y-87633500D01*
X127204000Y-87639500D01*
X127230000Y-87646500D01*
X127254000Y-87655500D01*
X127278000Y-87665500D01*
X127302000Y-87676500D01*
X127325000Y-87689500D01*
X127369000Y-87717500D01*
X127390000Y-87733500D01*
X127410000Y-87750500D01*
X127429000Y-87768500D01*
X127447000Y-87787500D01*
X127464000Y-87807500D01*
X127480000Y-87828500D01*
X127508000Y-87872500D01*
X127521000Y-87895500D01*
X127532000Y-87919500D01*
X127542000Y-87943500D01*
X127551000Y-87967500D01*
X127558000Y-87993500D01*
X127564000Y-88018500D01*
X127569000Y-88044500D01*
X127572000Y-88070500D01*
X127574000Y-88096500D01*
X127575000Y-88122500D01*
X127575000Y-88922500D01*
X127574000Y-88948500D01*
X127572000Y-88974500D01*
X127569000Y-89000500D01*
X127564000Y-89026500D01*
X127558000Y-89051500D01*
X127551000Y-89077500D01*
X127542000Y-89101500D01*
X127532000Y-89125500D01*
X127521000Y-89149500D01*
X127508000Y-89172500D01*
X127480000Y-89216500D01*
X127464000Y-89237500D01*
X127447000Y-89257500D01*
X127429000Y-89276500D01*
X127410000Y-89294500D01*
X127390000Y-89311500D01*
X127369000Y-89327500D01*
X127325000Y-89355500D01*
X127302000Y-89368500D01*
X127278000Y-89379500D01*
X127254000Y-89389500D01*
X127230000Y-89398500D01*
X127204000Y-89405500D01*
X127179000Y-89411500D01*
X127153000Y-89416500D01*
X127127000Y-89419500D01*
X127101000Y-89421500D01*
X127075000Y-89422500D01*
X127049000Y-89421500D01*
X127023000Y-89419500D01*
X126997000Y-89416500D01*
X126971000Y-89411500D01*
X126946000Y-89405500D01*
X126920000Y-89398500D01*
X126896000Y-89389500D01*
X126872000Y-89379500D01*
X126848000Y-89368500D01*
X126825000Y-89355500D01*
X126781000Y-89327500D01*
X126760000Y-89311500D01*
X126740000Y-89294500D01*
X126721000Y-89276500D01*
X126703000Y-89257500D01*
X126686000Y-89237500D01*
X126670000Y-89216500D01*
X126642000Y-89172500D01*
X126629000Y-89149500D01*
X126618000Y-89125500D01*
X126608000Y-89101500D01*
X126599000Y-89077500D01*
X126592000Y-89051500D01*
X126586000Y-89026500D01*
X126581000Y-89000500D01*
X126578000Y-88974500D01*
X126576000Y-88948500D01*
X126575000Y-88922500D01*
X126575000Y-88122500D01*
X126576000Y-88096500D01*
X126578000Y-88070500D01*
X126581000Y-88044500D01*
X126586000Y-88018500D01*
X126592000Y-87993500D01*
X126599000Y-87967500D01*
X126608000Y-87943500D01*
X126618000Y-87919500D01*
X126629000Y-87895500D01*
X126642000Y-87872500D01*
X126670000Y-87828500D01*
X126686000Y-87807500D01*
X126703000Y-87787500D01*
X126721000Y-87768500D01*
X126740000Y-87750500D01*
X126760000Y-87733500D01*
X126781000Y-87717500D01*
X126825000Y-87689500D01*
X126848000Y-87676500D01*
X126872000Y-87665500D01*
X126896000Y-87655500D01*
X126920000Y-87646500D01*
X126946000Y-87639500D01*
X126971000Y-87633500D01*
X126997000Y-87628500D01*
X127023000Y-87625500D01*
X127049000Y-87623500D01*
X127075000Y-87622500D01*
X127101000Y-87623500D01*
%TD*%
D11*
%TO.P,J1,S1,SHELL_GND*%
%TO.N,GND*%
X108396447Y-100571447D03*
D12*
%TO.P,J1,S2,SHELL_GND*%
X112396447Y-111811447D03*
%TO.P,J1,S3,SHELL_GND*%
X112396447Y-100571447D03*
D11*
%TO.P,J1,S4,SHELL_GND*%
X108396447Y-111811447D03*
%TD*%
D13*
%TO.P,J3,1,Pin_1*%
%TO.N,/VBus_Out*%
X139685000Y-114480000D03*
D14*
%TO.P,J3,2,Pin_2*%
%TO.N,GND*%
X139685000Y-109480000D03*
%TD*%
D15*
%TO.P,H2,1,1*%
%TO.N,GND*%
X110270000Y-86860000D03*
%TD*%
%TO.P,H1,1,1*%
%TO.N,GND*%
X110070000Y-116540000D03*
%TD*%
D16*
%TO.P,J2,S1,SHELL_GND*%
%TO.N,GND1*%
X127075000Y-84522500D03*
D17*
%TO.P,J2,S2,SHELL_GND*%
X115835000Y-88522500D03*
%TO.P,J2,S3,SHELL_GND*%
X127075000Y-88522500D03*
D16*
%TO.P,J2,S4,SHELL_GND*%
X115835000Y-84522500D03*
%TD*%
D15*
%TO.P,H4,1,1*%
%TO.N,GND*%
X153770000Y-86860000D03*
%TD*%
D18*
%TO.P,D2,1,K*%
%TO.N,/CC1*%
X120700000Y-104032500D03*
%TO.P,D2,2,A*%
%TO.N,GND*%
X120700000Y-105607500D03*
%TD*%
%TO.P,D1,1,K*%
%TO.N,/CC2*%
X120700000Y-107032500D03*
%TO.P,D1,2,A*%
%TO.N,GND*%
X120700000Y-108607500D03*
%TD*%
D19*
%TO.P,R12,1*%
%TO.N,Net-(JP2-Pad1)*%
X120670000Y-93425000D03*
%TO.P,R12,2*%
%TO.N,Net-(J2-PadA7)*%
X120670000Y-91775000D03*
%TD*%
D20*
%TO.P,R11,2*%
%TO.N,Net-(JP1-Pad1)*%
X122410000Y-94115000D03*
%TO.P,R11,1*%
%TO.N,Net-(J2-PadA6)*%
X122410000Y-92465000D03*
%TD*%
D21*
%TO.P,C5,1*%
%TO.N,/CC1*%
X119140000Y-104045000D03*
%TO.P,C5,2*%
%TO.N,GND*%
X119140000Y-105595000D03*
%TD*%
%TO.P,C4,1*%
%TO.N,/CC2*%
X119140000Y-107045000D03*
%TO.P,C4,2*%
%TO.N,GND*%
X119140000Y-108595000D03*
%TD*%
D22*
%TO.N,GND*%
X129710002Y-98369987D03*
%TO.N,+3V3*%
X143030000Y-93710000D03*
X151680000Y-102590000D03*
X141870000Y-84610000D03*
X120550000Y-118240000D03*
X126853288Y-112311434D03*
X140416652Y-87190791D03*
X142130000Y-100650000D03*
X152400000Y-98540000D03*
X142130000Y-101580000D03*
X127590000Y-117220000D03*
X130280000Y-106360000D03*
X127710000Y-106260000D03*
X152400000Y-97140000D03*
X132800000Y-108080000D03*
X131890000Y-97910000D03*
X140270000Y-100650000D03*
X141200000Y-100650000D03*
X141200000Y-101580000D03*
X141190000Y-102430000D03*
%TO.N,+5V*%
X123971697Y-91289377D03*
X131500000Y-84560000D03*
X114575830Y-92448838D03*
X118580000Y-92090000D03*
%TO.N,GND*%
X113000000Y-98640000D03*
X145480000Y-108020000D03*
X133270000Y-103190000D03*
X112910000Y-95640000D03*
X142050000Y-86180000D03*
X142210000Y-107950000D03*
X108500000Y-94610000D03*
X128830000Y-111560000D03*
X144460000Y-108943335D03*
X133240000Y-104100000D03*
X117260000Y-98690000D03*
X109546668Y-97580000D03*
X152450000Y-95550000D03*
X114106668Y-97600000D03*
X116420000Y-115800000D03*
X108566668Y-98620000D03*
X107500000Y-94610000D03*
X110706668Y-98640000D03*
X126080000Y-106080000D03*
X143350000Y-108923335D03*
X144440000Y-110810001D03*
X128110000Y-98370000D03*
X114553332Y-114820000D03*
X126280000Y-103950000D03*
X132750000Y-100010000D03*
X112960000Y-97600000D03*
X148100000Y-104480000D03*
X115486665Y-115830000D03*
X116240000Y-98660000D03*
X144430000Y-108010000D03*
X110640000Y-94630000D03*
X128880000Y-114630000D03*
X107526668Y-97580000D03*
X143851705Y-93120900D03*
X124467661Y-95630011D03*
X114900000Y-105860000D03*
X108526668Y-97580000D03*
X114196667Y-110950000D03*
X115130000Y-110960000D03*
X132190000Y-105080000D03*
X133180000Y-105050000D03*
X111853334Y-98640000D03*
X142240000Y-108883335D03*
X142230001Y-109816668D03*
X128870000Y-113100000D03*
X111786666Y-94630000D03*
X116083333Y-111920000D03*
X115140000Y-97600000D03*
X115486665Y-114830000D03*
X109586668Y-98620000D03*
X146500000Y-91240000D03*
X130370000Y-105060000D03*
X143340001Y-109856668D03*
X126270000Y-103020000D03*
X108476668Y-95620000D03*
X113619999Y-112840000D03*
X110666668Y-97600000D03*
X127580000Y-105110000D03*
X125700000Y-108560000D03*
X131300000Y-105070000D03*
X109520000Y-94610000D03*
X129460000Y-105100000D03*
X150580000Y-103690000D03*
X114216667Y-111900000D03*
X114080000Y-94630000D03*
X145500001Y-109886668D03*
X108506668Y-96610000D03*
X111763334Y-95640000D03*
X112933332Y-94630000D03*
X109496668Y-95620000D03*
X114056668Y-95640000D03*
X113619999Y-113810000D03*
X138740000Y-94330000D03*
X145490000Y-110820001D03*
X115486665Y-112860000D03*
X109526668Y-96610000D03*
X110646668Y-96630000D03*
X116200000Y-97620000D03*
X127072996Y-98229003D03*
X114146668Y-98640000D03*
X111813334Y-97600000D03*
X111793334Y-96630000D03*
X114086668Y-96630000D03*
X115486665Y-113830000D03*
X142220000Y-110750001D03*
X114553332Y-113820000D03*
X145510000Y-108953335D03*
X107476668Y-95620000D03*
X115150000Y-111910000D03*
X116063333Y-110970000D03*
X126150000Y-117400000D03*
X126620000Y-104820000D03*
X128530000Y-105110000D03*
X133770000Y-98420000D03*
X117220000Y-97650000D03*
X143320000Y-107990000D03*
X110616668Y-95640000D03*
X114553332Y-112850000D03*
X143330000Y-110790001D03*
X107566668Y-98620000D03*
X107506668Y-96610000D03*
X115180000Y-98640000D03*
X116420000Y-114800000D03*
X116420000Y-112830000D03*
X116420000Y-113800000D03*
X112940000Y-96630000D03*
X144450001Y-109876668D03*
X144870000Y-104550000D03*
%TO.N,/CC2*%
X115349500Y-107300000D03*
X121810023Y-107659977D03*
%TO.N,/CC1*%
X114900000Y-104860497D03*
X121424993Y-104693225D03*
%TO.N,GND1*%
X124690000Y-92680000D03*
X115815000Y-90585000D03*
X131000000Y-85800000D03*
X131220000Y-93460000D03*
%TO.N,/Vbus_pre*%
X114697142Y-118201428D03*
X117600000Y-117307142D03*
X124060000Y-111450000D03*
X114717142Y-119121428D03*
X125040000Y-113275000D03*
X116624284Y-117319999D03*
X116648570Y-118239999D03*
X114672856Y-117281428D03*
X125030000Y-112450000D03*
X115648570Y-117294285D03*
X117644286Y-119147142D03*
X116668570Y-119159999D03*
X115692856Y-119134285D03*
X117624286Y-118227142D03*
X115672856Y-118214285D03*
X125000000Y-111625000D03*
%TO.N,/DBG_N*%
X149630000Y-93150000D03*
X127330000Y-110280000D03*
X142860000Y-105270000D03*
X142262239Y-99659286D03*
%TO.N,/FLAGB*%
X132280000Y-90930000D03*
X146210000Y-93570000D03*
X123580000Y-115220000D03*
%TO.N,/VSINK_EN*%
X140970000Y-89750500D03*
X133230000Y-89400000D03*
X125009858Y-115212838D03*
X147038125Y-94187625D03*
%TO.N,/INT_N*%
X140170000Y-95110000D03*
X132860000Y-109730000D03*
%TO.N,/Isense*%
X150500564Y-94691488D03*
X123170000Y-117550000D03*
X134890000Y-87970000D03*
%TO.N,Net-(J2-PadA6)*%
X119200000Y-93650980D03*
X121904500Y-91597394D03*
%TO.N,Net-(J2-PadA7)*%
X121335500Y-92527353D03*
%TO.N,Net-(JP1-Pad1)*%
X131430000Y-92220000D03*
X122440000Y-95280000D03*
%TO.N,/USB_DP*%
X143760000Y-98730000D03*
X141110000Y-93970000D03*
X118092588Y-95398628D03*
X136930000Y-92190000D03*
%TO.N,Net-(JP2-Pad1)*%
X131030000Y-90990000D03*
X123669316Y-92550036D03*
%TO.N,/USB_DM*%
X141930000Y-92620000D03*
X136970000Y-90940000D03*
X143208539Y-97896396D03*
X125561098Y-95512541D03*
%TO.N,/SDA*%
X139225498Y-97550000D03*
X134910000Y-107220000D03*
%TO.N,/SCL*%
X134420000Y-108350000D03*
X139584622Y-96054622D03*
%TO.N,Net-(R17-Pad2)*%
X149541527Y-91139267D03*
X142130000Y-87770000D03*
%TO.N,/SenseFault*%
X148000378Y-93790378D03*
X134150000Y-90139500D03*
X125220000Y-116190000D03*
%TO.N,Net-(TC1-Pad2)*%
X143760000Y-106270000D03*
X147340000Y-84330000D03*
%TD*%
D23*
%TO.N,/CC2*%
X115604500Y-107045000D02*
X119140000Y-107045000D01*
X115349500Y-107300000D02*
X115604500Y-107045000D01*
D24*
%TO.N,Net-(JP2-Pad1)*%
X120670000Y-92956427D02*
X120670000Y-93425000D01*
X119895480Y-92181907D02*
X120670000Y-92956427D01*
X119895480Y-91368093D02*
X119895480Y-92181907D01*
X120365690Y-90897883D02*
X119895480Y-91368093D01*
X123669316Y-92372951D02*
X122194248Y-90897883D01*
X123669316Y-92550036D02*
X123669316Y-92372951D01*
X122194248Y-90897883D02*
X120365690Y-90897883D01*
X124238863Y-91980489D02*
X123669316Y-92550036D01*
X130039511Y-91980489D02*
X124238863Y-91980489D01*
X131030000Y-90990000D02*
X130039511Y-91980489D01*
%TO.N,/USB_DM*%
X132380000Y-95530000D02*
X136970000Y-90940000D01*
X125578557Y-95530000D02*
X132380000Y-95530000D01*
X125561098Y-95512541D02*
X125578557Y-95530000D01*
X141920989Y-96608846D02*
X141920989Y-92629011D01*
X141920989Y-92629011D02*
X141930000Y-92620000D01*
X143208539Y-97896396D02*
X141920989Y-96608846D01*
%TO.N,/USB_DP*%
X143052884Y-98730000D02*
X143760000Y-98730000D01*
X141110000Y-93970000D02*
X141110000Y-96787116D01*
X141110000Y-96787116D02*
X143052884Y-98730000D01*
%TO.N,Net-(J2-PadA7)*%
X121335500Y-92527353D02*
X121335500Y-92440500D01*
X121335500Y-92440500D02*
X120670000Y-91775000D01*
%TO.N,Net-(J2-PadA6)*%
X122300000Y-91992894D02*
X121904500Y-91597394D01*
X122300000Y-92976427D02*
X122300000Y-91992894D01*
X121076427Y-94200000D02*
X122300000Y-92976427D01*
X119749020Y-94200000D02*
X121076427Y-94200000D01*
X119200000Y-93650980D02*
X119749020Y-94200000D01*
%TO.N,Net-(JP1-Pad1)*%
X122440000Y-95280000D02*
X122440000Y-94150000D01*
X123070000Y-94650000D02*
X122440000Y-95280000D01*
X131019259Y-94650000D02*
X123070000Y-94650000D01*
X131919511Y-93749748D02*
X131019259Y-94650000D01*
X131919511Y-92709511D02*
X131919511Y-93749748D01*
X131430000Y-92220000D02*
X131919511Y-92709511D01*
%TO.N,/USB_DP*%
X132790478Y-96329522D02*
X119023482Y-96329522D01*
X136930000Y-92190000D02*
X132790478Y-96329522D01*
X119023482Y-96329522D02*
X118092588Y-95398628D01*
%TO.N,+5V*%
X119400480Y-91269520D02*
X119400481Y-91234513D01*
X123082801Y-90400481D02*
X123971697Y-91289377D01*
D25*
X118580000Y-92090000D02*
X118100000Y-92570000D01*
D23*
X123971697Y-91289377D02*
X124001074Y-91260000D01*
D24*
X118580000Y-92090000D02*
X119400480Y-91269520D01*
D23*
X132100000Y-85160000D02*
X131500000Y-84560000D01*
X126940000Y-91260000D02*
X132100000Y-86100000D01*
X132100000Y-86100000D02*
X132100000Y-85160000D01*
D25*
X118100000Y-92570000D02*
X114696992Y-92570000D01*
D23*
X124001074Y-91260000D02*
X126940000Y-91260000D01*
D24*
X120234513Y-90400481D02*
X123082801Y-90400481D01*
X119400481Y-91234513D02*
X120234513Y-90400481D01*
D25*
X114696992Y-92570000D02*
X114575830Y-92448838D01*
D23*
%TO.N,GND*%
X120687500Y-108595000D02*
X120700000Y-108607500D01*
X114600000Y-106160000D02*
X114600000Y-107735470D01*
X114900000Y-105860000D02*
X115165000Y-105595000D01*
X115165000Y-105595000D02*
X119140000Y-105595000D01*
X115459530Y-108595000D02*
X119140000Y-108595000D01*
X119140000Y-105595000D02*
X120687500Y-105595000D01*
X119140000Y-108595000D02*
X120687500Y-108595000D01*
X114600000Y-107735470D02*
X115459530Y-108595000D01*
X114900000Y-105860000D02*
X114600000Y-106160000D01*
%TO.N,/CC2*%
X121182546Y-107032500D02*
X120700000Y-107032500D01*
X119140000Y-107045000D02*
X120687500Y-107045000D01*
X120687500Y-107045000D02*
X120700000Y-107032500D01*
X121810023Y-107659977D02*
X121182546Y-107032500D01*
%TO.N,/CC1*%
X114956629Y-104803868D02*
X118381132Y-104803868D01*
X114900000Y-104860497D02*
X114956629Y-104803868D01*
X118381132Y-104803868D02*
X119140000Y-104045000D01*
X120764268Y-104032500D02*
X121424993Y-104693225D01*
X119140000Y-104045000D02*
X120345030Y-104045000D01*
X120345030Y-104045000D02*
X120516265Y-104216235D01*
X120700000Y-104032500D02*
X120764268Y-104032500D01*
D24*
%TO.N,GND1*%
X115815000Y-90585000D02*
X116420000Y-89980000D01*
D23*
X131220000Y-93460000D02*
X126390000Y-93460000D01*
X126390000Y-93460000D02*
X125610000Y-92680000D01*
D24*
X131000000Y-86540000D02*
X131000000Y-85800000D01*
X127560000Y-89980000D02*
X131000000Y-86540000D01*
D23*
X125610000Y-92680000D02*
X124690000Y-92680000D01*
D24*
X116420000Y-89980000D02*
X127560000Y-89980000D01*
%TO.N,/DBG_N*%
X142262239Y-99659286D02*
X142161525Y-99760000D01*
X127479511Y-110429511D02*
X127330000Y-110280000D01*
X139570489Y-104338770D02*
X133479748Y-110429511D01*
X140170741Y-99760000D02*
X139570489Y-100360252D01*
X142860000Y-105270000D02*
X143160741Y-105270000D01*
X133479748Y-110429511D02*
X127479511Y-110429511D01*
X149950000Y-93150000D02*
X149630000Y-93150000D01*
X142161525Y-99760000D02*
X140170741Y-99760000D01*
X151200075Y-94400075D02*
X149950000Y-93150000D01*
X143160741Y-105270000D02*
X151200075Y-97230666D01*
X139570489Y-100360252D02*
X139570489Y-104338770D01*
X151200075Y-97230666D02*
X151200075Y-94400075D01*
%TO.N,/FLAGB*%
X136419511Y-90240489D02*
X137259748Y-90240489D01*
X135730000Y-90930000D02*
X136419511Y-90240489D01*
X143030252Y-91270489D02*
X143710489Y-91270489D01*
X137259748Y-90240489D02*
X138299259Y-91280000D01*
X130768770Y-113930489D02*
X126569511Y-113930489D01*
X126569511Y-113930489D02*
X125990000Y-114510000D01*
X143710489Y-91270489D02*
X146010000Y-93570000D01*
X146210000Y-93570000D02*
X146210000Y-98489259D01*
X124290000Y-114510000D02*
X123580000Y-115220000D01*
X132280000Y-90930000D02*
X135730000Y-90930000D01*
X143020741Y-91280000D02*
X143030252Y-91270489D01*
X146010000Y-93570000D02*
X146210000Y-93570000D01*
X138299259Y-91280000D02*
X143020741Y-91280000D01*
X125990000Y-114510000D02*
X124290000Y-114510000D01*
X146210000Y-98489259D02*
X130768770Y-113930489D01*
%TO.N,/VSINK_EN*%
X129928755Y-115335498D02*
X147038125Y-98226128D01*
X125009858Y-115212838D02*
X125132518Y-115335498D01*
X133230000Y-89400000D02*
X133270000Y-89440000D01*
X125132518Y-115335498D02*
X129928755Y-115335498D01*
X147038125Y-98226128D02*
X147038125Y-94187625D01*
X140659500Y-89440000D02*
X140970000Y-89750500D01*
X133270000Y-89440000D02*
X140659500Y-89440000D01*
%TO.N,/INT_N*%
X137780000Y-101439259D02*
X137780000Y-96870000D01*
X139540000Y-95110000D02*
X140170000Y-95110000D01*
X132860000Y-109730000D02*
X133570489Y-109019511D01*
X133570489Y-105648770D02*
X137780000Y-101439259D01*
X137780000Y-96870000D02*
X139540000Y-95110000D01*
X133570489Y-109019511D02*
X133570489Y-105648770D01*
%TO.N,/Isense*%
X123850000Y-118230000D02*
X123170000Y-117550000D01*
X128164265Y-118230000D02*
X123850000Y-118230000D01*
X150500564Y-95893701D02*
X128164265Y-118230000D01*
X134890000Y-87970000D02*
X134920000Y-88000000D01*
X134920000Y-88000000D02*
X141205737Y-88000000D01*
X145743585Y-91940000D02*
X147260000Y-91940000D01*
X143849556Y-90045971D02*
X145743585Y-91940000D01*
X143251708Y-90045971D02*
X143849556Y-90045971D01*
X141205737Y-88000000D02*
X143251708Y-90045971D01*
X149720000Y-94400000D02*
X150209076Y-94400000D01*
X150209076Y-94400000D02*
X150500564Y-94691488D01*
X150500564Y-94691488D02*
X150500564Y-95893701D01*
X147260000Y-91940000D02*
X149720000Y-94400000D01*
%TO.N,/SDA*%
X139225498Y-97550000D02*
X138850000Y-97925498D01*
X138850000Y-97925498D02*
X138850000Y-103280000D01*
X138850000Y-103280000D02*
X134910000Y-107220000D01*
%TO.N,/SCL*%
X139584622Y-96054622D02*
X138450480Y-97188764D01*
X138450480Y-101333785D02*
X134210489Y-105573776D01*
X134210489Y-105573776D02*
X134210489Y-108140489D01*
X138450480Y-97188764D02*
X138450480Y-101333785D01*
X134210489Y-108140489D02*
X134420000Y-108350000D01*
%TO.N,Net-(R17-Pad2)*%
X149541527Y-91139267D02*
X149375682Y-91139267D01*
X142130000Y-87660000D02*
X142130000Y-87770000D01*
X149375682Y-91139267D02*
X145196415Y-86960000D01*
X145196415Y-86960000D02*
X142830000Y-86960000D01*
X142830000Y-86960000D02*
X142130000Y-87660000D01*
%TO.N,/SenseFault*%
X134150000Y-90139500D02*
X134448531Y-89840969D01*
X129639259Y-116190000D02*
X125220000Y-116190000D01*
X148000378Y-93790378D02*
X147820000Y-93970756D01*
X147820000Y-93970756D02*
X147820000Y-98009259D01*
X145344526Y-92339520D02*
X146549520Y-92339520D01*
X137425234Y-89840969D02*
X138034265Y-90450000D01*
X147820000Y-98009259D02*
X129639259Y-116190000D01*
X134448531Y-89840969D02*
X137425234Y-89840969D01*
X143455006Y-90450000D02*
X145344526Y-92339520D01*
X146549520Y-92339520D02*
X148000378Y-93790378D01*
X138034265Y-90450000D02*
X143455006Y-90450000D01*
%TO.N,Net-(TC1-Pad2)*%
X151599595Y-92208076D02*
X150510971Y-91119452D01*
X149515234Y-86870971D02*
X148320971Y-86870971D01*
X151599595Y-99410405D02*
X151599595Y-92208076D01*
X147340000Y-85890000D02*
X147340000Y-84330000D01*
X150510971Y-91119452D02*
X150510971Y-87866708D01*
X143760000Y-106270000D02*
X144740000Y-106270000D01*
X150510971Y-87866708D02*
X149515234Y-86870971D01*
X148320971Y-86870971D02*
X147340000Y-85890000D01*
X144740000Y-106270000D02*
X151599595Y-99410405D01*
%TD*%
%TA.AperFunction,Conductor*%
%TO.N,/Vbus_pre*%
G36*
X125599623Y-110010283D02*
G01*
X125646365Y-110063722D01*
X125657980Y-110118576D01*
X125601991Y-113683264D01*
X125580922Y-113751062D01*
X125526543Y-113796707D01*
X125473278Y-113807255D01*
X122848115Y-113750392D01*
X122848114Y-113750392D01*
X122830000Y-113750000D01*
X122830000Y-115603943D01*
X122809998Y-115672064D01*
X122756342Y-115718557D01*
X122703944Y-115729943D01*
X121709438Y-115729492D01*
X119872837Y-115728660D01*
X119872836Y-115728660D01*
X119854722Y-115728652D01*
X119814722Y-117738652D01*
X119814863Y-117741086D01*
X119819842Y-117827267D01*
X119820039Y-117832735D01*
X119846618Y-119693304D01*
X119827591Y-119761704D01*
X119774605Y-119808958D01*
X119720771Y-119821104D01*
X113996138Y-119827425D01*
X113927996Y-119807498D01*
X113881444Y-119753894D01*
X113870000Y-119701425D01*
X113870000Y-116736327D01*
X113890002Y-116668206D01*
X113943658Y-116621713D01*
X113996325Y-116610327D01*
X117238496Y-116618732D01*
X117209070Y-110154731D01*
X117228762Y-110086519D01*
X117282206Y-110039783D01*
X117334494Y-110028158D01*
X123453491Y-110000258D01*
X123510000Y-110000000D01*
X123510001Y-110000000D01*
X123606258Y-109999552D01*
X125531410Y-109990598D01*
X125599623Y-110010283D01*
G37*
%TD.AperFunction*%
%TD*%
M02*
