%TF.GenerationSoftware,KiCad,Pcbnew,(6.0.2)*%
%TF.CreationDate,2022-07-06T09:12:25-05:00*%
%TF.ProjectId,pdsupply-PPS,70647375-7070-46c7-992d-5050532e6b69,rev?*%
%TF.SameCoordinates,Original*%
%TF.FileFunction,Paste,Top*%
%TF.FilePolarity,Positive*%
%FSLAX46Y46*%
G04 Gerber Fmt 4.6, Leading zero omitted, Abs format (unit mm)*
G04 Created by KiCad (PCBNEW (6.0.2)) date 2022-07-06 09:12:25*
%MOMM*%
%LPD*%
G01*
G04 APERTURE LIST*
G04 Aperture macros list*
%AMRoundRect*
0 Rectangle with rounded corners*
0 $1 Rounding radius*
0 $2 $3 $4 $5 $6 $7 $8 $9 X,Y pos of 4 corners*
0 Add a 4 corners polygon primitive as box body*
4,1,4,$2,$3,$4,$5,$6,$7,$8,$9,$2,$3,0*
0 Add four circle primitives for the rounded corners*
1,1,$1+$1,$2,$3*
1,1,$1+$1,$4,$5*
1,1,$1+$1,$6,$7*
1,1,$1+$1,$8,$9*
0 Add four rect primitives between the rounded corners*
20,1,$1+$1,$2,$3,$4,$5,0*
20,1,$1+$1,$4,$5,$6,$7,0*
20,1,$1+$1,$6,$7,$8,$9,0*
20,1,$1+$1,$8,$9,$2,$3,0*%
%AMRotRect*
0 Rectangle, with rotation*
0 The origin of the aperture is its center*
0 $1 length*
0 $2 width*
0 $3 Rotation angle, in degrees counterclockwise*
0 Add horizontal line*
21,1,$1,$2,0,0,$3*%
G04 Aperture macros list end*
%ADD10C,0.010000*%
%ADD11RoundRect,0.150000X-0.875000X-0.150000X0.875000X-0.150000X0.875000X0.150000X-0.875000X0.150000X0*%
%ADD12RoundRect,0.250000X-0.325000X-0.650000X0.325000X-0.650000X0.325000X0.650000X-0.325000X0.650000X0*%
%ADD13RoundRect,0.200000X-0.200000X-0.275000X0.200000X-0.275000X0.200000X0.275000X-0.200000X0.275000X0*%
%ADD14RoundRect,0.200000X-0.275000X0.200000X-0.275000X-0.200000X0.275000X-0.200000X0.275000X0.200000X0*%
%ADD15RoundRect,0.225000X-0.225000X-0.250000X0.225000X-0.250000X0.225000X0.250000X-0.225000X0.250000X0*%
%ADD16R,1.100000X0.600000*%
%ADD17R,1.100000X0.300000*%
%ADD18RoundRect,0.225000X0.017678X-0.335876X0.335876X-0.017678X-0.017678X0.335876X-0.335876X0.017678X0*%
%ADD19R,1.100000X1.950000*%
%ADD20RoundRect,0.225000X-0.250000X0.225000X-0.250000X-0.225000X0.250000X-0.225000X0.250000X0.225000X0*%
%ADD21RoundRect,0.200000X0.275000X-0.200000X0.275000X0.200000X-0.275000X0.200000X-0.275000X-0.200000X0*%
%ADD22RotRect,1.950000X1.100000X135.000000*%
%ADD23RoundRect,0.225000X0.250000X-0.225000X0.250000X0.225000X-0.250000X0.225000X-0.250000X-0.225000X0*%
%ADD24RoundRect,0.218750X-0.381250X0.218750X-0.381250X-0.218750X0.381250X-0.218750X0.381250X0.218750X0*%
%ADD25RoundRect,0.200000X0.200000X0.275000X-0.200000X0.275000X-0.200000X-0.275000X0.200000X-0.275000X0*%
%ADD26R,1.950000X1.100000*%
%ADD27RoundRect,0.218750X-0.218750X-0.256250X0.218750X-0.256250X0.218750X0.256250X-0.218750X0.256250X0*%
%ADD28RoundRect,0.225000X0.225000X0.250000X-0.225000X0.250000X-0.225000X-0.250000X0.225000X-0.250000X0*%
%ADD29RoundRect,0.218750X-0.218750X-0.381250X0.218750X-0.381250X0.218750X0.381250X-0.218750X0.381250X0*%
%ADD30RoundRect,0.177500X-0.177500X-0.177500X0.177500X-0.177500X0.177500X0.177500X-0.177500X0.177500X0*%
%ADD31RoundRect,0.062500X-0.312500X-0.062500X0.312500X-0.062500X0.312500X0.062500X-0.312500X0.062500X0*%
%ADD32RoundRect,0.062500X-0.062500X-0.312500X0.062500X-0.312500X0.062500X0.312500X-0.062500X0.312500X0*%
%ADD33RoundRect,0.250000X-0.475000X0.250000X-0.475000X-0.250000X0.475000X-0.250000X0.475000X0.250000X0*%
%ADD34RoundRect,0.225000X-0.017678X0.335876X-0.335876X0.017678X0.017678X-0.335876X0.335876X-0.017678X0*%
%ADD35C,0.208000*%
%ADD36C,0.450000*%
%ADD37C,0.787400*%
%ADD38R,0.600000X1.100000*%
%ADD39R,0.300000X1.100000*%
%ADD40RoundRect,0.218750X0.218750X0.256250X-0.218750X0.256250X-0.218750X-0.256250X0.218750X-0.256250X0*%
%ADD41RoundRect,0.250000X-1.100000X0.325000X-1.100000X-0.325000X1.100000X-0.325000X1.100000X0.325000X0*%
%ADD42R,0.850000X0.300000*%
%ADD43R,0.300000X0.850000*%
%ADD44RoundRect,0.232500X0.232500X0.232500X-0.232500X0.232500X-0.232500X-0.232500X0.232500X-0.232500X0*%
%ADD45RoundRect,0.062500X0.375000X0.062500X-0.375000X0.062500X-0.375000X-0.062500X0.375000X-0.062500X0*%
%ADD46RoundRect,0.062500X0.062500X0.375000X-0.062500X0.375000X-0.062500X-0.375000X0.062500X-0.375000X0*%
%ADD47RoundRect,0.250000X-0.650000X0.325000X-0.650000X-0.325000X0.650000X-0.325000X0.650000X0.325000X0*%
G04 APERTURE END LIST*
D10*
%TO.C,U3*%
X122477200Y-119460000D02*
X122477200Y-118560000D01*
X122477200Y-118560000D02*
X123042800Y-118560000D01*
X123042800Y-118560000D02*
X123042800Y-119460000D01*
X123042800Y-119460000D02*
X122477200Y-119460000D01*
G36*
X123042800Y-119460000D02*
G01*
X122477200Y-119460000D01*
X122477200Y-118560000D01*
X123042800Y-118560000D01*
X123042800Y-119460000D01*
G37*
X123042800Y-119460000D02*
X122477200Y-119460000D01*
X122477200Y-118560000D01*
X123042800Y-118560000D01*
X123042800Y-119460000D01*
X123477200Y-119460000D02*
X123477200Y-118560000D01*
X123477200Y-118560000D02*
X124042800Y-118560000D01*
X124042800Y-118560000D02*
X124042800Y-119460000D01*
X124042800Y-119460000D02*
X123477200Y-119460000D01*
G36*
X124042800Y-119460000D02*
G01*
X123477200Y-119460000D01*
X123477200Y-118560000D01*
X124042800Y-118560000D01*
X124042800Y-119460000D01*
G37*
X124042800Y-119460000D02*
X123477200Y-119460000D01*
X123477200Y-118560000D01*
X124042800Y-118560000D01*
X124042800Y-119460000D01*
%TD*%
D11*
%TO.C,U2*%
X129450000Y-84555000D03*
X129450000Y-85825000D03*
X129450000Y-87095000D03*
X129450000Y-88365000D03*
X129450000Y-89635000D03*
X129450000Y-90905000D03*
X129450000Y-92175000D03*
X129450000Y-93445000D03*
X138750000Y-93445000D03*
X138750000Y-92175000D03*
X138750000Y-90905000D03*
X138750000Y-89635000D03*
X138750000Y-88365000D03*
X138750000Y-87095000D03*
X138750000Y-85825000D03*
X138750000Y-84555000D03*
%TD*%
D12*
%TO.C,C2*%
X118662500Y-101600000D03*
X121612500Y-101600000D03*
%TD*%
D13*
%TO.C,R19*%
X126125000Y-116190000D03*
X127775000Y-116190000D03*
%TD*%
D14*
%TO.C,R18*%
X148100000Y-102025000D03*
X148100000Y-103675000D03*
%TD*%
D15*
%TO.C,C9*%
X126175000Y-111550000D03*
X127725000Y-111550000D03*
%TD*%
D16*
%TO.C,J1*%
X113546447Y-102991447D03*
X113546447Y-103791447D03*
D17*
X113546447Y-104941447D03*
X113546447Y-105941447D03*
X113546447Y-106441447D03*
X113546447Y-107441447D03*
D16*
X113546447Y-109391447D03*
X113546447Y-108591447D03*
D17*
X113546447Y-107941447D03*
X113546447Y-106941447D03*
X113546447Y-105441447D03*
X113546447Y-104441447D03*
%TD*%
D18*
%TO.C,C15*%
X143451992Y-95098008D03*
X144548008Y-94001992D03*
%TD*%
D19*
%TO.C,INT_N1*%
X131900000Y-111700000D03*
%TD*%
D20*
%TO.C,C14*%
X140900000Y-84625000D03*
X140900000Y-86175000D03*
%TD*%
D19*
%TO.C,GPIO2*%
X130100000Y-111700000D03*
%TD*%
D21*
%TO.C,R9*%
X134700000Y-100075000D03*
X134700000Y-98425000D03*
%TD*%
D22*
%TO.C,DBG_N1*%
X140780000Y-104780000D03*
%TD*%
D23*
%TO.C,C17*%
X151500000Y-97100000D03*
X151500000Y-95550000D03*
%TD*%
D24*
%TO.C,FB3*%
X138250000Y-99037500D03*
X138250000Y-101162500D03*
%TD*%
D25*
%TO.C,R13*%
X117125000Y-94900000D03*
X115475000Y-94900000D03*
%TD*%
D19*
%TO.C,+3.3V1*%
X140100000Y-102200000D03*
%TD*%
D25*
%TO.C,R3*%
X126275000Y-96400000D03*
X124625000Y-96400000D03*
%TD*%
D26*
%TO.C,SCL1*%
X140800000Y-97060000D03*
%TD*%
D13*
%TO.C,R7*%
X112275000Y-93400000D03*
X113925000Y-93400000D03*
%TD*%
D20*
%TO.C,C11*%
X127300000Y-93225000D03*
X127300000Y-94775000D03*
%TD*%
D21*
%TO.C,R6*%
X131900000Y-109725000D03*
X131900000Y-108075000D03*
%TD*%
D27*
%TO.C,D3*%
X112312500Y-91800000D03*
X113887500Y-91800000D03*
%TD*%
D19*
%TO.C,FLAGB1*%
X132770000Y-96020000D03*
%TD*%
D28*
%TO.C,C12*%
X120625000Y-112800000D03*
X119075000Y-112800000D03*
%TD*%
D29*
%TO.C,FB1*%
X118525000Y-99450000D03*
X120650000Y-99450000D03*
%TD*%
D26*
%TO.C,SDA1*%
X140800000Y-98760000D03*
%TD*%
D30*
%TO.C,U1*%
X125260000Y-109030000D03*
X126140000Y-108150000D03*
X126140000Y-109030000D03*
X125260000Y-108150000D03*
D31*
X124225000Y-107840000D03*
X124225000Y-108340000D03*
X124225000Y-108840000D03*
X124225000Y-109340000D03*
D32*
X124950000Y-110065000D03*
X125450000Y-110065000D03*
X125950000Y-110065000D03*
X126450000Y-110065000D03*
D31*
X127175000Y-109340000D03*
X127175000Y-108840000D03*
X127175000Y-108340000D03*
X127175000Y-107840000D03*
D32*
X126450000Y-107115000D03*
X125950000Y-107115000D03*
X125450000Y-107115000D03*
X124950000Y-107115000D03*
%TD*%
D33*
%TO.C,C10*%
X138200000Y-102700000D03*
X138200000Y-104600000D03*
%TD*%
D19*
%TO.C,SenseFault1*%
X136170000Y-96020000D03*
%TD*%
D34*
%TO.C,C16*%
X151048008Y-101951992D03*
X149951992Y-103048008D03*
%TD*%
D26*
%TO.C,CC2*%
X122200000Y-106000000D03*
%TD*%
D23*
%TO.C,C18*%
X120530000Y-117395000D03*
X120530000Y-115845000D03*
%TD*%
D35*
%TO.C,IC2*%
X124000000Y-114200000D03*
X123600000Y-114200000D03*
X123200000Y-114200000D03*
X122800000Y-114200000D03*
X124000000Y-113800000D03*
X123600000Y-113800000D03*
X123200000Y-113800000D03*
X122800000Y-113800000D03*
X124000000Y-113400000D03*
X123600000Y-113400000D03*
X123200000Y-113400000D03*
X122800000Y-113400000D03*
X124000000Y-113000000D03*
X123600000Y-113000000D03*
X123200000Y-113000000D03*
X122800000Y-113000000D03*
X124000000Y-112600000D03*
X123600000Y-112600000D03*
X123200000Y-112600000D03*
X122800000Y-112600000D03*
X124000000Y-112200000D03*
X123600000Y-112200000D03*
X123200000Y-112200000D03*
X122800000Y-112200000D03*
%TD*%
D21*
%TO.C,R4*%
X128700000Y-107950000D03*
X128700000Y-106300000D03*
%TD*%
D15*
%TO.C,C7*%
X126175000Y-113100000D03*
X127725000Y-113100000D03*
%TD*%
D36*
%TO.C,IC1*%
X127300000Y-104000000D03*
X127300000Y-103200000D03*
X127300000Y-102400000D03*
X127300000Y-101600000D03*
X127300000Y-100800000D03*
X127300000Y-100000000D03*
X127300000Y-99200000D03*
X128100000Y-104000000D03*
X128100000Y-103200000D03*
X128100000Y-102400000D03*
X128100000Y-101600000D03*
X128100000Y-100800000D03*
X128100000Y-100000000D03*
X128100000Y-99200000D03*
X128900000Y-104000000D03*
X128900000Y-103200000D03*
X128900000Y-102400000D03*
X128900000Y-101600000D03*
X128900000Y-100800000D03*
X128900000Y-100000000D03*
X128900000Y-99200000D03*
X129700000Y-104000000D03*
X129700000Y-103200000D03*
X129700000Y-102400000D03*
X129700000Y-101600000D03*
X129700000Y-100800000D03*
X129700000Y-100000000D03*
X129700000Y-99200000D03*
X130500000Y-104000000D03*
X130500000Y-103200000D03*
X130500000Y-102400000D03*
X130500000Y-101600000D03*
X130500000Y-100800000D03*
X130500000Y-100000000D03*
X130500000Y-99200000D03*
X131300000Y-104000000D03*
X131300000Y-103200000D03*
X131300000Y-102400000D03*
X131300000Y-101600000D03*
X131300000Y-100800000D03*
X131300000Y-100000000D03*
X131300000Y-99200000D03*
X132100000Y-104000000D03*
X132100000Y-103200000D03*
X132100000Y-102400000D03*
X132100000Y-101600000D03*
X132100000Y-100800000D03*
X132100000Y-100000000D03*
X132100000Y-99200000D03*
%TD*%
D25*
%TO.C,R10*%
X117125000Y-93400000D03*
X115475000Y-93400000D03*
%TD*%
D26*
%TO.C,GPIO1*%
X124360000Y-105800000D03*
%TD*%
D25*
%TO.C,R14*%
X131345000Y-94770000D03*
X129695000Y-94770000D03*
%TD*%
%TO.C,R16*%
X146525000Y-103650000D03*
X144875000Y-103650000D03*
%TD*%
D37*
%TO.C,TC1*%
X145795000Y-86600000D03*
X147065000Y-86600000D03*
X145795000Y-87870000D03*
X147065000Y-87870000D03*
X145795000Y-89140000D03*
X147065000Y-89140000D03*
%TD*%
D19*
%TO.C,+5V1*%
X113810000Y-89690000D03*
%TD*%
D26*
%TO.C,CC1*%
X122660000Y-108790000D03*
%TD*%
D21*
%TO.C,R5*%
X130300000Y-108825000D03*
X130300000Y-107175000D03*
%TD*%
D38*
%TO.C,J2*%
X124655000Y-89672500D03*
X123855000Y-89672500D03*
D39*
X122705000Y-89672500D03*
X121705000Y-89672500D03*
X121205000Y-89672500D03*
X120205000Y-89672500D03*
D38*
X118255000Y-89672500D03*
X119055000Y-89672500D03*
D39*
X119705000Y-89672500D03*
X120705000Y-89672500D03*
X122205000Y-89672500D03*
X123205000Y-89672500D03*
%TD*%
D40*
%TO.C,D6*%
X117087500Y-96400000D03*
X115512500Y-96400000D03*
%TD*%
D19*
%TO.C,Isense1*%
X137700000Y-96060000D03*
%TD*%
D21*
%TO.C,R8*%
X136500000Y-100075000D03*
X136500000Y-98425000D03*
%TD*%
D14*
%TO.C,R17*%
X151500000Y-98500000D03*
X151500000Y-100150000D03*
%TD*%
D41*
%TO.C,C8*%
X135550000Y-101625000D03*
X135550000Y-104575000D03*
%TD*%
D13*
%TO.C,R15*%
X126125000Y-114650000D03*
X127775000Y-114650000D03*
%TD*%
D42*
%TO.C,U3*%
X124710000Y-117560000D03*
X124710000Y-117060000D03*
D43*
X124010000Y-116360000D03*
X123510000Y-116360000D03*
X123010000Y-116360000D03*
X122510000Y-116360000D03*
D42*
X121810000Y-117060000D03*
X121810000Y-117560000D03*
%TD*%
D44*
%TO.C,U4*%
X146350000Y-96800000D03*
X147500000Y-99100000D03*
X148650000Y-96800000D03*
X148650000Y-99100000D03*
X147500000Y-97950000D03*
X148650000Y-97950000D03*
X147500000Y-96800000D03*
X146350000Y-99100000D03*
X146350000Y-97950000D03*
D45*
X149937500Y-99700000D03*
X149937500Y-99200000D03*
X149937500Y-98700000D03*
X149937500Y-98200000D03*
X149937500Y-97700000D03*
X149937500Y-97200000D03*
X149937500Y-96700000D03*
X149937500Y-96200000D03*
D46*
X149250000Y-95512500D03*
X148750000Y-95512500D03*
X148250000Y-95512500D03*
X147750000Y-95512500D03*
X147250000Y-95512500D03*
X146750000Y-95512500D03*
X146250000Y-95512500D03*
X145750000Y-95512500D03*
D45*
X145062500Y-96200000D03*
X145062500Y-96700000D03*
X145062500Y-97200000D03*
X145062500Y-97700000D03*
X145062500Y-98200000D03*
X145062500Y-98700000D03*
X145062500Y-99200000D03*
X145062500Y-99700000D03*
D46*
X145750000Y-100387500D03*
X146250000Y-100387500D03*
X146750000Y-100387500D03*
X147250000Y-100387500D03*
X147750000Y-100387500D03*
X148250000Y-100387500D03*
X148750000Y-100387500D03*
X149250000Y-100387500D03*
%TD*%
D27*
%TO.C,D7*%
X144912500Y-102050000D03*
X146487500Y-102050000D03*
%TD*%
D40*
%TO.C,D5*%
X131307500Y-96320000D03*
X129732500Y-96320000D03*
%TD*%
%TO.C,D4*%
X117087500Y-91800000D03*
X115512500Y-91800000D03*
%TD*%
D29*
%TO.C,FB2*%
X118525000Y-97650000D03*
X120650000Y-97650000D03*
%TD*%
D23*
%TO.C,C13*%
X119180000Y-117400000D03*
X119180000Y-115850000D03*
%TD*%
D15*
%TO.C,C1*%
X118562500Y-103650000D03*
X120112500Y-103650000D03*
%TD*%
D47*
%TO.C,C6*%
X124110000Y-100515000D03*
X124110000Y-103465000D03*
%TD*%
D19*
%TO.C,VSINK_EN1*%
X134470000Y-96020000D03*
%TD*%
M02*
